  0
SECTION
  2
HEADER
  9
$ACADVER
  1
AC1009
  9
$INSBASE
 10
0.0
 20
0.0
 30
0.0
  9
$EXTMIN
 10
0.0
 20
0.0
 30
0.0
  9
$EXTMAX
 10
0.0
 20
0.0
 30
0.0
  0
ENDSEC
  0
SECTION
  2
TABLES
  0
TABLE
  2
VPORT
 70
0
  0
ENDTAB
  0
TABLE
  2
LTYPE
 70
1
  0
LTYPE
  2
CONTINUOUS
 70
0
  3
Solid line
 72
65
 73
0
 40
0.0
  0
ENDTAB
  0
TABLE
  2
LAYER
 70
1
  0
LAYER
  2
0
 70
64
 62
7
  6
continuous
  0
ENDTAB
  0
TABLE
  2
STYLE
 70
1
  0
STYLE
  2
STANDARD
 70
0
 40
0
 41
1.0
 50
0.0
 71
0
 42
1
 3
ARIAL.TTF
 4

  0
ENDTAB
  0
TABLE
  2
VIEW
 70
0
  0
ENDTAB
  0
ENDSEC
  0
SECTION
  2
BLOCKS
  0
BLOCK
  8
0
  2
SKETCH
 70
0
 10
0.0
 20
0.0
 30
0.0
  3
SKETCH
  0
CIRCLE
  8
0
 62
7
 10
0.0
 20
0.0
 30
0.0
 40
50.0
  0
LINE
  8
0
 62
7
 10
-10.5
 20
20.0
 30
0.0
 11
10.5
 21
20.0
 31
0.0
  0
LINE
  8
0
 62
7
 10
10.5
 20
20.0
 30
0.0
 11
10.5
 21
-31.0
 31
0.0
  0
LINE
  8
0
 62
7
 10
10.5
 20
-31.0
 30
0.0
 11
-10.5
 21
-31.0
 31
0.0
  0
LINE
  8
0
 62
7
 10
-10.5
 20
-31.0
 30
0.0
 11
-10.5
 21
20.0
 31
0.0
  0
LINE
  8
0
 62
7
 10
-40.5
 20
1.4999999999999993
 30
0.0
 11
-37.5
 21
1.4999999999999993
 31
0.0
  0
LINE
  8
0
 62
7
 10
-37.5
 20
1.4999999999999993
 30
0.0
 11
-37.5
 21
-1.5000000000000007
 31
0.0
  0
LINE
  8
0
 62
7
 10
-37.5
 20
-1.5000000000000007
 30
0.0
 11
-40.5
 21
-1.5000000000000007
 31
0.0
  0
LINE
  8
0
 62
7
 10
-40.5
 20
-1.5000000000000007
 30
0.0
 11
-40.5
 21
1.4999999999999993
 31
0.0
  0
LINE
  8
0
 62
7
 10
-2.54
 20
44.42
 30
0.0
 11
2.54
 21
44.42
 31
0.0
  0
LINE
  8
0
 62
7
 10
2.54
 20
44.42
 30
0.0
 11
2.54
 21
30.0
 31
0.0
  0
LINE
  8
0
 62
7
 10
2.54
 20
30.0
 30
0.0
 11
-2.54
 21
30.0
 31
0.0
  0
LINE
  8
0
 62
7
 10
-2.54
 20
30.0
 30
0.0
 11
-2.54
 21
44.42
 31
0.0
  0
CIRCLE
  8
0
 62
7
 10
0.0
 20
0.0
 30
0.0
 40
37.5
  0
LINE
  8
0
 62
7
 10
37.5
 20
1.78e-15
 30
0.0
 11
34.64548246917325
 21
14.350628713690869
 31
0.0
  0
LINE
  8
0
 62
7
 10
34.64548246917325
 20
14.350628713690869
 30
0.0
 11
34.64548246917325
 21
17.350628713690867
 31
0.0
  0
LINE
  8
0
 62
7
 10
34.64548246917325
 20
17.350628713690867
 30
0.0
 11
37.64548246917325
 21
17.350628713690867
 31
0.0
  0
LINE
  8
0
 62
7
 10
37.64548246917325
 20
17.350628713690867
 30
0.0
 11
37.64548246917325
 21
14.350628713690869
 31
0.0
  0
LINE
  8
0
 62
7
 10
37.64548246917325
 20
14.350628713690869
 30
0.0
 11
34.64548246917325
 21
14.350628713690869
 31
0.0
  0
LINE
  8
0
 62
7
 10
34.64548246917325
 20
14.350628713690869
 30
0.0
 11
26.516504294495533
 21
26.516504294495533
 31
0.0
  0
LINE
  8
0
 62
7
 10
26.516504294495533
 20
26.516504294495533
 30
0.0
 11
26.516504294495533
 21
29.516504294495533
 31
0.0
  0
LINE
  8
0
 62
7
 10
26.516504294495533
 20
29.516504294495533
 30
0.0
 11
29.516504294495533
 21
29.516504294495533
 31
0.0
  0
LINE
  8
0
 62
7
 10
29.516504294495533
 20
29.516504294495533
 30
0.0
 11
29.516504294495533
 21
26.516504294495533
 31
0.0
  0
LINE
  8
0
 62
7
 10
29.516504294495533
 20
26.516504294495533
 30
0.0
 11
26.516504294495533
 21
26.516504294495533
 31
0.0
  0
LINE
  8
0
 62
7
 10
26.516504294495533
 20
26.516504294495533
 30
0.0
 11
14.350628713690867
 21
34.64548246917325
 31
0.0
  0
LINE
  8
0
 62
7
 10
14.350628713690867
 20
34.64548246917325
 30
0.0
 11
14.350628713690867
 21
37.64548246917325
 31
0.0
  0
LINE
  8
0
 62
7
 10
14.350628713690867
 20
37.64548246917325
 30
0.0
 11
17.350628713690867
 21
37.64548246917325
 31
0.0
  0
LINE
  8
0
 62
7
 10
17.350628713690867
 20
37.64548246917325
 30
0.0
 11
17.350628713690867
 21
34.64548246917325
 31
0.0
  0
LINE
  8
0
 62
7
 10
17.350628713690867
 20
34.64548246917325
 30
0.0
 11
14.350628713690867
 21
34.64548246917325
 31
0.0
  0
LINE
  8
0
 62
7
 10
14.350628713690867
 20
34.64548246917325
 30
0.0
 11
0.0
 21
37.5
 31
0.0
  0
LINE
  8
0
 62
7
 10
0.0
 20
37.5
 30
0.0
 11
-14.350628713690867
 21
34.64548246917325
 31
0.0
  0
LINE
  8
0
 62
7
 10
-14.350628713690867
 20
34.64548246917325
 30
0.0
 11
-14.350628713690867
 21
37.64548246917325
 31
0.0
  0
LINE
  8
0
 62
7
 10
-14.350628713690867
 20
37.64548246917325
 30
0.0
 11
-17.350628713690867
 21
37.64548246917325
 31
0.0
  0
LINE
  8
0
 62
7
 10
-17.350628713690867
 20
37.64548246917325
 30
0.0
 11
-17.350628713690867
 21
34.64548246917325
 31
0.0
  0
LINE
  8
0
 62
7
 10
-17.350628713690867
 20
34.64548246917325
 30
0.0
 11
-14.350628713690867
 21
34.64548246917325
 31
0.0
  0
LINE
  8
0
 62
7
 10
-14.350628713690867
 20
34.64548246917325
 30
0.0
 11
-26.516504294495533
 21
26.516504294495533
 31
0.0
  0
LINE
  8
0
 62
7
 10
-26.516504294495533
 20
26.516504294495533
 30
0.0
 11
-29.516504294495533
 21
26.516504294495533
 31
0.0
  0
LINE
  8
0
 62
7
 10
-29.516504294495533
 20
26.516504294495533
 30
0.0
 11
-29.516504294495533
 21
29.516504294495533
 31
0.0
  0
LINE
  8
0
 62
7
 10
-29.516504294495533
 20
29.516504294495533
 30
0.0
 11
-26.516504294495533
 21
29.516504294495533
 31
0.0
  0
LINE
  8
0
 62
7
 10
-26.516504294495533
 20
29.516504294495533
 30
0.0
 11
-26.516504294495533
 21
26.516504294495533
 31
0.0
  0
LINE
  8
0
 62
7
 10
-26.516504294495533
 20
26.516504294495533
 30
0.0
 11
-34.64548246917325
 21
14.350628713690865
 31
0.0
  0
LINE
  8
0
 62
7
 10
-34.64548246917325
 20
14.350628713690865
 30
0.0
 11
-37.64548246917325
 21
14.350628713690865
 31
0.0
  0
LINE
  8
0
 62
7
 10
-37.64548246917325
 20
14.350628713690865
 30
0.0
 11
-37.64548246917325
 21
17.350628713690867
 31
0.0
  0
LINE
  8
0
 62
7
 10
-37.64548246917325
 20
17.350628713690867
 30
0.0
 11
-34.64548246917325
 21
17.350628713690867
 31
0.0
  0
LINE
  8
0
 62
7
 10
-34.64548246917325
 20
17.350628713690867
 30
0.0
 11
-34.64548246917325
 21
14.350628713690865
 31
0.0
  0
LINE
  8
0
 62
7
 10
-34.64548246917325
 20
14.350628713690865
 30
0.0
 11
-37.5
 21
0.0
 31
0.0
  0
LINE
  8
0
 62
7
 10
-37.5
 20
0.0
 30
0.0
 11
-34.64548246917325
 21
-14.350628713690865
 31
0.0
  0
LINE
  8
0
 62
7
 10
-34.64548246917325
 20
-14.350628713690865
 30
0.0
 11
-34.64548246917325
 21
-17.350628713690867
 31
0.0
  0
LINE
  8
0
 62
7
 10
-34.64548246917325
 20
-17.350628713690867
 30
0.0
 11
-37.64548246917325
 21
-17.350628713690867
 31
0.0
  0
LINE
  8
0
 62
7
 10
-37.64548246917325
 20
-17.350628713690867
 30
0.0
 11
-37.64548246917325
 21
-14.350628713690865
 31
0.0
  0
LINE
  8
0
 62
7
 10
-37.64548246917325
 20
-14.350628713690865
 30
0.0
 11
-34.64548246917325
 21
-14.350628713690865
 31
0.0
  0
LINE
  8
0
 62
7
 10
-34.64548246917325
 20
-14.350628713690865
 30
0.0
 11
-26.51650429449553
 21
-26.516504294495533
 31
0.0
  0
LINE
  8
0
 62
7
 10
-26.51650429449553
 20
-26.516504294495533
 30
0.0
 11
-26.51650429449553
 21
-29.516504294495533
 31
0.0
  0
LINE
  8
0
 62
7
 10
-26.51650429449553
 20
-29.516504294495533
 30
0.0
 11
-29.51650429449553
 21
-29.516504294495533
 31
0.0
  0
LINE
  8
0
 62
7
 10
-29.51650429449553
 20
-29.516504294495533
 30
0.0
 11
-29.51650429449553
 21
-26.516504294495533
 31
0.0
  0
LINE
  8
0
 62
7
 10
-29.51650429449553
 20
-26.516504294495533
 30
0.0
 11
-26.51650429449553
 21
-26.516504294495533
 31
0.0
  0
LINE
  8
0
 62
7
 10
-26.51650429449553
 20
-26.516504294495533
 30
0.0
 11
-14.350628713690867
 21
-34.64548246917325
 31
0.0
  0
LINE
  8
0
 62
7
 10
-14.350628713690867
 20
-34.64548246917325
 30
0.0
 11
-14.350628713690867
 21
-37.64548246917325
 31
0.0
  0
LINE
  8
0
 62
7
 10
-14.350628713690867
 20
-37.64548246917325
 30
0.0
 11
-17.350628713690867
 21
-37.64548246917325
 31
0.0
  0
LINE
  8
0
 62
7
 10
-17.350628713690867
 20
-37.64548246917325
 30
0.0
 11
-17.350628713690867
 21
-34.64548246917325
 31
0.0
  0
LINE
  8
0
 62
7
 10
-17.350628713690867
 20
-34.64548246917325
 30
0.0
 11
-14.350628713690867
 21
-34.64548246917325
 31
0.0
  0
LINE
  8
0
 62
7
 10
-14.350628713690867
 20
-34.64548246917325
 30
0.0
 11
0.0
 21
-37.5
 31
0.0
  0
LINE
  8
0
 62
7
 10
0.0
 20
-37.5
 30
0.0
 11
14.350628713690865
 21
-34.64548246917325
 31
0.0
  0
LINE
  8
0
 62
7
 10
14.350628713690865
 20
-34.64548246917325
 30
0.0
 11
17.350628713690863
 21
-34.64548246917325
 31
0.0
  0
LINE
  8
0
 62
7
 10
17.350628713690863
 20
-34.64548246917325
 30
0.0
 11
17.350628713690863
 21
-37.64548246917325
 31
0.0
  0
LINE
  8
0
 62
7
 10
17.350628713690863
 20
-37.64548246917325
 30
0.0
 11
14.350628713690865
 21
-37.64548246917325
 31
0.0
  0
LINE
  8
0
 62
7
 10
14.350628713690865
 20
-37.64548246917325
 30
0.0
 11
14.350628713690865
 21
-34.64548246917325
 31
0.0
  0
LINE
  8
0
 62
7
 10
14.350628713690865
 20
-34.64548246917325
 30
0.0
 11
26.516504294495533
 21
-26.516504294495526
 31
0.0
  0
LINE
  8
0
 62
7
 10
26.51650429449553
 20
-26.51650429449553
 30
0.0
 11
29.51650429449553
 21
-26.51650429449553
 31
0.0
  0
LINE
  8
0
 62
7
 10
29.51650429449553
 20
-26.51650429449553
 30
0.0
 11
29.51650429449553
 21
-29.51650429449553
 31
0.0
  0
LINE
  8
0
 62
7
 10
29.51650429449553
 20
-29.51650429449553
 30
0.0
 11
26.51650429449553
 21
-29.51650429449553
 31
0.0
  0
LINE
  8
0
 62
7
 10
26.51650429449553
 20
-29.51650429449553
 30
0.0
 11
26.51650429449553
 21
-26.51650429449553
 31
0.0
  0
LINE
  8
0
 62
7
 10
26.51650429449553
 20
-26.51650429449553
 30
0.0
 11
34.64548246917325
 21
-14.350628713690863
 31
0.0
  0
LINE
  8
0
 62
7
 10
34.64548246917325
 20
-17.350628713690863
 30
0.0
 11
34.64548246917325
 21
-14.350628713690863
 31
0.0
  0
LINE
  8
0
 62
7
 10
37.64548246917325
 20
-17.350628713690863
 30
0.0
 11
34.64548246917325
 21
-17.350628713690863
 31
0.0
  0
LINE
  8
0
 62
7
 10
37.64548246917325
 20
-14.350628713690863
 30
0.0
 11
37.64548246917325
 21
-17.350628713690863
 31
0.0
  0
LINE
  8
0
 62
7
 10
34.64548246917325
 20
-14.350628713690863
 30
0.0
 11
37.64548246917325
 21
-14.350628713690863
 31
0.0
  0
LINE
  8
0
 62
7
 10
34.64548246917325
 20
-14.350628713690863
 30
0.0
 11
37.5
 21
1.7763568394002505e-15
 31
0.0
  0
CIRCLE
  8
0
 62
7
 10
0.0
 20
0.0
 30
0.0
 40
37.5
  0
LINE
  8
0
 62
7
 10
-1.5
 20
-37.5
 30
0.0
 11
1.5
 21
-37.5
 31
0.0
  0
LINE
  8
0
 62
7
 10
1.5
 20
-37.5
 30
0.0
 11
1.5
 21
-40.5
 31
0.0
  0
LINE
  8
0
 62
7
 10
1.5
 20
-40.5
 30
0.0
 11
-1.5
 21
-40.5
 31
0.0
  0
LINE
  8
0
 62
7
 10
-1.5
 20
-40.5
 30
0.0
 11
-1.5
 21
-37.5
 31
0.0
  0
LINE
  8
0
 62
7
 10
37.5
 20
1.5000000000000016
 30
0.0
 11
40.5
 21
1.5000000000000016
 31
0.0
  0
LINE
  8
0
 62
7
 10
40.5
 20
1.5000000000000016
 30
0.0
 11
40.5
 21
-1.4999999999999984
 31
0.0
  0
LINE
  8
0
 62
7
 10
40.5
 20
-1.4999999999999984
 30
0.0
 11
37.5
 21
-1.4999999999999984
 31
0.0
  0
LINE
  8
0
 62
7
 10
37.5
 20
-1.4999999999999984
 30
0.0
 11
37.5
 21
1.5000000000000016
 31
0.0
  0
LINE
  8
0
 62
7
 10
17.67766952966369
 20
20.67766952966369
 30
0.0
 11
20.67766952966369
 21
20.67766952966369
 31
0.0
  0
LINE
  8
0
 62
7
 10
20.67766952966369
 20
20.67766952966369
 30
0.0
 11
20.67766952966369
 21
17.67766952966369
 31
0.0
  0
LINE
  8
0
 62
7
 10
20.67766952966369
 20
17.67766952966369
 30
0.0
 11
17.67766952966369
 21
17.67766952966369
 31
0.0
  0
LINE
  8
0
 62
7
 10
17.67766952966369
 20
17.67766952966369
 30
0.0
 11
0.0
 21
25.0
 31
0.0
  0
LINE
  8
0
 62
7
 10
0.0
 20
25.0
 30
0.0
 11
-17.67766952966369
 21
17.67766952966369
 31
0.0
  0
LINE
  8
0
 62
7
 10
-17.67766952966369
 20
17.67766952966369
 30
0.0
 11
-20.67766952966369
 21
17.67766952966369
 31
0.0
  0
LINE
  8
0
 62
7
 10
-20.67766952966369
 20
17.67766952966369
 30
0.0
 11
-20.67766952966369
 21
20.67766952966369
 31
0.0
  0
LINE
  8
0
 62
7
 10
-20.67766952966369
 20
20.67766952966369
 30
0.0
 11
-17.67766952966369
 21
20.67766952966369
 31
0.0
  0
LINE
  8
0
 62
7
 10
-17.67766952966369
 20
20.67766952966369
 30
0.0
 11
-17.67766952966369
 21
17.67766952966369
 31
0.0
  0
LINE
  8
0
 62
7
 10
-17.67766952966369
 20
17.67766952966369
 30
0.0
 11
-25.0
 21
0.0
 31
0.0
  0
LINE
  8
0
 62
7
 10
-25.0
 20
0.0
 30
0.0
 11
-17.67766952966369
 21
-17.67766952966369
 31
0.0
  0
LINE
  8
0
 62
7
 10
-17.67766952966369
 20
-17.67766952966369
 30
0.0
 11
-17.67766952966369
 21
-20.67766952966369
 31
0.0
  0
LINE
  8
0
 62
7
 10
-17.67766952966369
 20
-20.67766952966369
 30
0.0
 11
-20.67766952966369
 21
-20.67766952966369
 31
0.0
  0
LINE
  8
0
 62
7
 10
-20.67766952966369
 20
-20.67766952966369
 30
0.0
 11
-20.67766952966369
 21
-17.67766952966369
 31
0.0
  0
LINE
  8
0
 62
7
 10
-20.67766952966369
 20
-17.67766952966369
 30
0.0
 11
-17.67766952966369
 21
-17.67766952966369
 31
0.0
  0
LINE
  8
0
 62
7
 10
-17.67766952966369
 20
-17.67766952966369
 30
0.0
 11
0.0
 21
-25.0
 31
0.0
  0
LINE
  8
0
 62
7
 10
0.0
 20
-25.0
 30
0.0
 11
17.677669529746826
 21
-17.6776695297469
 31
0.0
  0
LINE
  8
0
 62
7
 10
17.677669529746826
 20
-17.6776695297469
 30
0.0
 11
20.677669529746826
 21
-17.6776695297469
 31
0.0
  0
LINE
  8
0
 62
7
 10
20.677669529746826
 20
-17.6776695297469
 30
0.0
 11
20.677669529746826
 21
-20.6776695297469
 31
0.0
  0
LINE
  8
0
 62
7
 10
20.677669529746826
 20
-20.6776695297469
 30
0.0
 11
17.677669529746826
 21
-20.6776695297469
 31
0.0
  0
LINE
  8
0
 62
7
 10
17.677669529746826
 20
-20.6776695297469
 30
0.0
 11
17.677669529746826
 21
-17.6776695297469
 31
0.0
  0
LINE
  8
0
 62
7
 10
17.677669529746826
 20
-17.6776695297469
 30
0.0
 11
25.0
 21
0.0
 31
0.0
  0
CIRCLE
  8
0
 62
7
 10
0.0
 20
0.0
 30
0.0
 40
25.0
  0
LINE
  8
0
 62
7
 10
25.0
 20
0.0
 30
0.0
 11
17.67766952966369
 21
17.67766952966369
 31
0.0
  0
LINE
  8
0
 62
7
 10
17.67766952966369
 20
17.67766952966369
 30
0.0
 11
17.67766952966369
 21
20.67766952966369
 31
0.0
  0
LINE
  8
0
 62
7
 10
-28.0
 20
1.5
 30
0.0
 11
-25.0
 21
1.5
 31
0.0
  0
LINE
  8
0
 62
7
 10
-25.0
 20
1.5
 30
0.0
 11
-25.0
 21
-1.5
 31
0.0
  0
LINE
  8
0
 62
7
 10
-25.0
 20
-1.5
 30
0.0
 11
-28.0
 21
-1.5
 31
0.0
  0
LINE
  8
0
 62
7
 10
-28.0
 20
-1.5
 30
0.0
 11
-28.0
 21
1.5
 31
0.0
  0
LINE
  8
0
 62
7
 10
25.0
 20
1.5
 30
0.0
 11
28.0
 21
1.5
 31
0.0
  0
LINE
  8
0
 62
7
 10
28.0
 20
1.5
 30
0.0
 11
28.0
 21
-1.5
 31
0.0
  0
LINE
  8
0
 62
7
 10
28.0
 20
-1.5
 30
0.0
 11
25.0
 21
-1.5
 31
0.0
  0
LINE
  8
0
 62
7
 10
25.0
 20
-1.5
 30
0.0
 11
25.0
 21
1.5
 31
0.0
  0
ENDBLK
  0
ENDSEC
  0
SECTION
  2
ENTITIES
  0
INSERT
  2
SKETCH
  8
0
 62
7
 10
0.0
 20
0.0
 30
0.0
  0
ENDSEC
  0
EOF
