G04 #@! TF.GenerationSoftware,KiCad,Pcbnew,5.1.10-88a1d61d58~88~ubuntu20.04.1*
G04 #@! TF.CreationDate,2021-06-07T13:22:34+01:00*
G04 #@! TF.ProjectId,wings,77696e67-732e-46b6-9963-61645f706362,rev?*
G04 #@! TF.SameCoordinates,Original*
G04 #@! TF.FileFunction,Copper,L1,Top*
G04 #@! TF.FilePolarity,Positive*
%FSLAX46Y46*%
G04 Gerber Fmt 4.6, Leading zero omitted, Abs format (unit mm)*
G04 Created by KiCad (PCBNEW 5.1.10-88a1d61d58~88~ubuntu20.04.1) date 2021-06-07 13:22:34*
%MOMM*%
%LPD*%
G01*
G04 APERTURE LIST*
G04 #@! TA.AperFunction,SMDPad,CuDef*
%ADD10R,2.000000X1.500000*%
G04 #@! TD*
G04 #@! TA.AperFunction,ViaPad*
%ADD11C,0.800000*%
G04 #@! TD*
G04 #@! TA.AperFunction,Conductor*
%ADD12C,0.250000*%
G04 #@! TD*
G04 #@! TA.AperFunction,Conductor*
%ADD13C,0.254000*%
G04 #@! TD*
G04 #@! TA.AperFunction,Conductor*
%ADD14C,0.100000*%
G04 #@! TD*
G04 APERTURE END LIST*
G04 #@! TO.P,R6,2*
G04 #@! TO.N,Net-(D6-Pad2)*
G04 #@! TA.AperFunction,SMDPad,CuDef*
G36*
G01*
X176900000Y-121950001D02*
X176900000Y-121049999D01*
G75*
G02*
X177149999Y-120800000I249999J0D01*
G01*
X177850001Y-120800000D01*
G75*
G02*
X178100000Y-121049999I0J-249999D01*
G01*
X178100000Y-121950001D01*
G75*
G02*
X177850001Y-122200000I-249999J0D01*
G01*
X177149999Y-122200000D01*
G75*
G02*
X176900000Y-121950001I0J249999D01*
G01*
G37*
G04 #@! TD.AperFunction*
G04 #@! TO.P,R6,1*
G04 #@! TO.N,+5V*
G04 #@! TA.AperFunction,SMDPad,CuDef*
G36*
G01*
X174900000Y-121950001D02*
X174900000Y-121049999D01*
G75*
G02*
X175149999Y-120800000I249999J0D01*
G01*
X175850001Y-120800000D01*
G75*
G02*
X176100000Y-121049999I0J-249999D01*
G01*
X176100000Y-121950001D01*
G75*
G02*
X175850001Y-122200000I-249999J0D01*
G01*
X175149999Y-122200000D01*
G75*
G02*
X174900000Y-121950001I0J249999D01*
G01*
G37*
G04 #@! TD.AperFunction*
G04 #@! TD*
G04 #@! TO.P,R5,2*
G04 #@! TO.N,Net-(D5-Pad2)*
G04 #@! TA.AperFunction,SMDPad,CuDef*
G36*
G01*
X185150000Y-110200001D02*
X185150000Y-109299999D01*
G75*
G02*
X185399999Y-109050000I249999J0D01*
G01*
X186100001Y-109050000D01*
G75*
G02*
X186350000Y-109299999I0J-249999D01*
G01*
X186350000Y-110200001D01*
G75*
G02*
X186100001Y-110450000I-249999J0D01*
G01*
X185399999Y-110450000D01*
G75*
G02*
X185150000Y-110200001I0J249999D01*
G01*
G37*
G04 #@! TD.AperFunction*
G04 #@! TO.P,R5,1*
G04 #@! TO.N,+5V*
G04 #@! TA.AperFunction,SMDPad,CuDef*
G36*
G01*
X183150000Y-110200001D02*
X183150000Y-109299999D01*
G75*
G02*
X183399999Y-109050000I249999J0D01*
G01*
X184100001Y-109050000D01*
G75*
G02*
X184350000Y-109299999I0J-249999D01*
G01*
X184350000Y-110200001D01*
G75*
G02*
X184100001Y-110450000I-249999J0D01*
G01*
X183399999Y-110450000D01*
G75*
G02*
X183150000Y-110200001I0J249999D01*
G01*
G37*
G04 #@! TD.AperFunction*
G04 #@! TD*
G04 #@! TO.P,R18,2*
G04 #@! TO.N,Net-(D18-Pad2)*
G04 #@! TA.AperFunction,SMDPad,CuDef*
G36*
G01*
X168150000Y-113200001D02*
X168150000Y-112299999D01*
G75*
G02*
X168399999Y-112050000I249999J0D01*
G01*
X169100001Y-112050000D01*
G75*
G02*
X169350000Y-112299999I0J-249999D01*
G01*
X169350000Y-113200001D01*
G75*
G02*
X169100001Y-113450000I-249999J0D01*
G01*
X168399999Y-113450000D01*
G75*
G02*
X168150000Y-113200001I0J249999D01*
G01*
G37*
G04 #@! TD.AperFunction*
G04 #@! TO.P,R18,1*
G04 #@! TO.N,+5V*
G04 #@! TA.AperFunction,SMDPad,CuDef*
G36*
G01*
X166150000Y-113200001D02*
X166150000Y-112299999D01*
G75*
G02*
X166399999Y-112050000I249999J0D01*
G01*
X167100001Y-112050000D01*
G75*
G02*
X167350000Y-112299999I0J-249999D01*
G01*
X167350000Y-113200001D01*
G75*
G02*
X167100001Y-113450000I-249999J0D01*
G01*
X166399999Y-113450000D01*
G75*
G02*
X166150000Y-113200001I0J249999D01*
G01*
G37*
G04 #@! TD.AperFunction*
G04 #@! TD*
G04 #@! TO.P,R4,2*
G04 #@! TO.N,Net-(D4-Pad2)*
G04 #@! TA.AperFunction,SMDPad,CuDef*
G36*
G01*
X187900000Y-93700001D02*
X187900000Y-92799999D01*
G75*
G02*
X188149999Y-92550000I249999J0D01*
G01*
X188850001Y-92550000D01*
G75*
G02*
X189100000Y-92799999I0J-249999D01*
G01*
X189100000Y-93700001D01*
G75*
G02*
X188850001Y-93950000I-249999J0D01*
G01*
X188149999Y-93950000D01*
G75*
G02*
X187900000Y-93700001I0J249999D01*
G01*
G37*
G04 #@! TD.AperFunction*
G04 #@! TO.P,R4,1*
G04 #@! TO.N,+5V*
G04 #@! TA.AperFunction,SMDPad,CuDef*
G36*
G01*
X185900000Y-93700001D02*
X185900000Y-92799999D01*
G75*
G02*
X186149999Y-92550000I249999J0D01*
G01*
X186850001Y-92550000D01*
G75*
G02*
X187100000Y-92799999I0J-249999D01*
G01*
X187100000Y-93700001D01*
G75*
G02*
X186850001Y-93950000I-249999J0D01*
G01*
X186149999Y-93950000D01*
G75*
G02*
X185900000Y-93700001I0J249999D01*
G01*
G37*
G04 #@! TD.AperFunction*
G04 #@! TD*
G04 #@! TO.P,R17,2*
G04 #@! TO.N,Net-(D17-Pad2)*
G04 #@! TA.AperFunction,SMDPad,CuDef*
G36*
G01*
X175400000Y-93950001D02*
X175400000Y-93049999D01*
G75*
G02*
X175649999Y-92800000I249999J0D01*
G01*
X176350001Y-92800000D01*
G75*
G02*
X176600000Y-93049999I0J-249999D01*
G01*
X176600000Y-93950001D01*
G75*
G02*
X176350001Y-94200000I-249999J0D01*
G01*
X175649999Y-94200000D01*
G75*
G02*
X175400000Y-93950001I0J249999D01*
G01*
G37*
G04 #@! TD.AperFunction*
G04 #@! TO.P,R17,1*
G04 #@! TO.N,+5V*
G04 #@! TA.AperFunction,SMDPad,CuDef*
G36*
G01*
X173400000Y-93950001D02*
X173400000Y-93049999D01*
G75*
G02*
X173649999Y-92800000I249999J0D01*
G01*
X174350001Y-92800000D01*
G75*
G02*
X174600000Y-93049999I0J-249999D01*
G01*
X174600000Y-93950001D01*
G75*
G02*
X174350001Y-94200000I-249999J0D01*
G01*
X173649999Y-94200000D01*
G75*
G02*
X173400000Y-93950001I0J249999D01*
G01*
G37*
G04 #@! TD.AperFunction*
G04 #@! TD*
G04 #@! TO.P,R3,2*
G04 #@! TO.N,Net-(D3-Pad2)*
G04 #@! TA.AperFunction,SMDPad,CuDef*
G36*
G01*
X185150000Y-77950001D02*
X185150000Y-77049999D01*
G75*
G02*
X185399999Y-76800000I249999J0D01*
G01*
X186100001Y-76800000D01*
G75*
G02*
X186350000Y-77049999I0J-249999D01*
G01*
X186350000Y-77950001D01*
G75*
G02*
X186100001Y-78200000I-249999J0D01*
G01*
X185399999Y-78200000D01*
G75*
G02*
X185150000Y-77950001I0J249999D01*
G01*
G37*
G04 #@! TD.AperFunction*
G04 #@! TO.P,R3,1*
G04 #@! TO.N,+5V*
G04 #@! TA.AperFunction,SMDPad,CuDef*
G36*
G01*
X183150000Y-77950001D02*
X183150000Y-77049999D01*
G75*
G02*
X183399999Y-76800000I249999J0D01*
G01*
X184100001Y-76800000D01*
G75*
G02*
X184350000Y-77049999I0J-249999D01*
G01*
X184350000Y-77950001D01*
G75*
G02*
X184100001Y-78200000I-249999J0D01*
G01*
X183399999Y-78200000D01*
G75*
G02*
X183150000Y-77950001I0J249999D01*
G01*
G37*
G04 #@! TD.AperFunction*
G04 #@! TD*
G04 #@! TO.P,R16,2*
G04 #@! TO.N,Net-(D16-Pad2)*
G04 #@! TA.AperFunction,SMDPad,CuDef*
G36*
G01*
X168150000Y-74700001D02*
X168150000Y-73799999D01*
G75*
G02*
X168399999Y-73550000I249999J0D01*
G01*
X169100001Y-73550000D01*
G75*
G02*
X169350000Y-73799999I0J-249999D01*
G01*
X169350000Y-74700001D01*
G75*
G02*
X169100001Y-74950000I-249999J0D01*
G01*
X168399999Y-74950000D01*
G75*
G02*
X168150000Y-74700001I0J249999D01*
G01*
G37*
G04 #@! TD.AperFunction*
G04 #@! TO.P,R16,1*
G04 #@! TO.N,+5V*
G04 #@! TA.AperFunction,SMDPad,CuDef*
G36*
G01*
X166150000Y-74700001D02*
X166150000Y-73799999D01*
G75*
G02*
X166399999Y-73550000I249999J0D01*
G01*
X167100001Y-73550000D01*
G75*
G02*
X167350000Y-73799999I0J-249999D01*
G01*
X167350000Y-74700001D01*
G75*
G02*
X167100001Y-74950000I-249999J0D01*
G01*
X166399999Y-74950000D01*
G75*
G02*
X166150000Y-74700001I0J249999D01*
G01*
G37*
G04 #@! TD.AperFunction*
G04 #@! TD*
G04 #@! TO.P,R2,2*
G04 #@! TO.N,Net-(D2-Pad2)*
G04 #@! TA.AperFunction,SMDPad,CuDef*
G36*
G01*
X176900000Y-65950001D02*
X176900000Y-65049999D01*
G75*
G02*
X177149999Y-64800000I249999J0D01*
G01*
X177850001Y-64800000D01*
G75*
G02*
X178100000Y-65049999I0J-249999D01*
G01*
X178100000Y-65950001D01*
G75*
G02*
X177850001Y-66200000I-249999J0D01*
G01*
X177149999Y-66200000D01*
G75*
G02*
X176900000Y-65950001I0J249999D01*
G01*
G37*
G04 #@! TD.AperFunction*
G04 #@! TO.P,R2,1*
G04 #@! TO.N,+5V*
G04 #@! TA.AperFunction,SMDPad,CuDef*
G36*
G01*
X174900000Y-65950001D02*
X174900000Y-65049999D01*
G75*
G02*
X175149999Y-64800000I249999J0D01*
G01*
X175850001Y-64800000D01*
G75*
G02*
X176100000Y-65049999I0J-249999D01*
G01*
X176100000Y-65950001D01*
G75*
G02*
X175850001Y-66200000I-249999J0D01*
G01*
X175149999Y-66200000D01*
G75*
G02*
X174900000Y-65950001I0J249999D01*
G01*
G37*
G04 #@! TD.AperFunction*
G04 #@! TD*
G04 #@! TO.P,R1,2*
G04 #@! TO.N,Net-(D1-Pad2)*
G04 #@! TA.AperFunction,SMDPad,CuDef*
G36*
G01*
X164900000Y-57700001D02*
X164900000Y-56799999D01*
G75*
G02*
X165149999Y-56550000I249999J0D01*
G01*
X165850001Y-56550000D01*
G75*
G02*
X166100000Y-56799999I0J-249999D01*
G01*
X166100000Y-57700001D01*
G75*
G02*
X165850001Y-57950000I-249999J0D01*
G01*
X165149999Y-57950000D01*
G75*
G02*
X164900000Y-57700001I0J249999D01*
G01*
G37*
G04 #@! TD.AperFunction*
G04 #@! TO.P,R1,1*
G04 #@! TO.N,+5V*
G04 #@! TA.AperFunction,SMDPad,CuDef*
G36*
G01*
X162900000Y-57700001D02*
X162900000Y-56799999D01*
G75*
G02*
X163149999Y-56550000I249999J0D01*
G01*
X163850001Y-56550000D01*
G75*
G02*
X164100000Y-56799999I0J-249999D01*
G01*
X164100000Y-57700001D01*
G75*
G02*
X163850001Y-57950000I-249999J0D01*
G01*
X163149999Y-57950000D01*
G75*
G02*
X162900000Y-57700001I0J249999D01*
G01*
G37*
G04 #@! TD.AperFunction*
G04 #@! TD*
G04 #@! TO.P,R7,2*
G04 #@! TO.N,Net-(D7-Pad2)*
G04 #@! TA.AperFunction,SMDPad,CuDef*
G36*
G01*
X164650000Y-129950001D02*
X164650000Y-129049999D01*
G75*
G02*
X164899999Y-128800000I249999J0D01*
G01*
X165600001Y-128800000D01*
G75*
G02*
X165850000Y-129049999I0J-249999D01*
G01*
X165850000Y-129950001D01*
G75*
G02*
X165600001Y-130200000I-249999J0D01*
G01*
X164899999Y-130200000D01*
G75*
G02*
X164650000Y-129950001I0J249999D01*
G01*
G37*
G04 #@! TD.AperFunction*
G04 #@! TO.P,R7,1*
G04 #@! TO.N,+5V*
G04 #@! TA.AperFunction,SMDPad,CuDef*
G36*
G01*
X162650000Y-129950001D02*
X162650000Y-129049999D01*
G75*
G02*
X162899999Y-128800000I249999J0D01*
G01*
X163600001Y-128800000D01*
G75*
G02*
X163850000Y-129049999I0J-249999D01*
G01*
X163850000Y-129950001D01*
G75*
G02*
X163600001Y-130200000I-249999J0D01*
G01*
X162899999Y-130200000D01*
G75*
G02*
X162650000Y-129950001I0J249999D01*
G01*
G37*
G04 #@! TD.AperFunction*
G04 #@! TD*
D10*
G04 #@! TO.P,J3,5*
G04 #@! TO.N,LED7*
X149750000Y-137000000D03*
G04 #@! TO.P,J3,4*
G04 #@! TO.N,LED18*
X149750000Y-135000000D03*
G04 #@! TO.P,J3,3*
G04 #@! TO.N,LED6*
X149750000Y-133000000D03*
G04 #@! TO.P,J3,2*
G04 #@! TO.N,LED5*
X149750000Y-131000000D03*
G04 #@! TO.P,J3,1*
G04 #@! TO.N,+5V*
X149750000Y-129000000D03*
G04 #@! TD*
G04 #@! TO.P,J2,6*
G04 #@! TO.N,LED10*
X149750000Y-60500000D03*
G04 #@! TO.P,J2,5*
G04 #@! TO.N,LED19*
X149750000Y-58500000D03*
G04 #@! TO.P,J2,4*
G04 #@! TO.N,LED20*
X149750000Y-56500000D03*
G04 #@! TO.P,J2,3*
G04 #@! TO.N,LED21*
X149750000Y-54500000D03*
G04 #@! TO.P,J2,2*
G04 #@! TO.N,LED1*
X149750000Y-52500000D03*
G04 #@! TO.P,J2,1*
G04 #@! TO.N,LED2*
X149750000Y-50500000D03*
G04 #@! TD*
G04 #@! TO.P,D6,2*
G04 #@! TO.N,Net-(D6-Pad2)*
G04 #@! TA.AperFunction,SMDPad,CuDef*
G36*
G01*
X176950000Y-119950001D02*
X176950000Y-119049999D01*
G75*
G02*
X177199999Y-118800000I249999J0D01*
G01*
X177850001Y-118800000D01*
G75*
G02*
X178100000Y-119049999I0J-249999D01*
G01*
X178100000Y-119950001D01*
G75*
G02*
X177850001Y-120200000I-249999J0D01*
G01*
X177199999Y-120200000D01*
G75*
G02*
X176950000Y-119950001I0J249999D01*
G01*
G37*
G04 #@! TD.AperFunction*
G04 #@! TO.P,D6,1*
G04 #@! TO.N,LED6*
G04 #@! TA.AperFunction,SMDPad,CuDef*
G36*
G01*
X174900000Y-119950001D02*
X174900000Y-119049999D01*
G75*
G02*
X175149999Y-118800000I249999J0D01*
G01*
X175800001Y-118800000D01*
G75*
G02*
X176050000Y-119049999I0J-249999D01*
G01*
X176050000Y-119950001D01*
G75*
G02*
X175800001Y-120200000I-249999J0D01*
G01*
X175149999Y-120200000D01*
G75*
G02*
X174900000Y-119950001I0J249999D01*
G01*
G37*
G04 #@! TD.AperFunction*
G04 #@! TD*
G04 #@! TO.P,D5,2*
G04 #@! TO.N,Net-(D5-Pad2)*
G04 #@! TA.AperFunction,SMDPad,CuDef*
G36*
G01*
X185175000Y-108200001D02*
X185175000Y-107299999D01*
G75*
G02*
X185424999Y-107050000I249999J0D01*
G01*
X186075001Y-107050000D01*
G75*
G02*
X186325000Y-107299999I0J-249999D01*
G01*
X186325000Y-108200001D01*
G75*
G02*
X186075001Y-108450000I-249999J0D01*
G01*
X185424999Y-108450000D01*
G75*
G02*
X185175000Y-108200001I0J249999D01*
G01*
G37*
G04 #@! TD.AperFunction*
G04 #@! TO.P,D5,1*
G04 #@! TO.N,LED5*
G04 #@! TA.AperFunction,SMDPad,CuDef*
G36*
G01*
X183125000Y-108200001D02*
X183125000Y-107299999D01*
G75*
G02*
X183374999Y-107050000I249999J0D01*
G01*
X184025001Y-107050000D01*
G75*
G02*
X184275000Y-107299999I0J-249999D01*
G01*
X184275000Y-108200001D01*
G75*
G02*
X184025001Y-108450000I-249999J0D01*
G01*
X183374999Y-108450000D01*
G75*
G02*
X183125000Y-108200001I0J249999D01*
G01*
G37*
G04 #@! TD.AperFunction*
G04 #@! TD*
G04 #@! TO.P,D18,2*
G04 #@! TO.N,Net-(D18-Pad2)*
G04 #@! TA.AperFunction,SMDPad,CuDef*
G36*
G01*
X168200000Y-111200001D02*
X168200000Y-110299999D01*
G75*
G02*
X168449999Y-110050000I249999J0D01*
G01*
X169100001Y-110050000D01*
G75*
G02*
X169350000Y-110299999I0J-249999D01*
G01*
X169350000Y-111200001D01*
G75*
G02*
X169100001Y-111450000I-249999J0D01*
G01*
X168449999Y-111450000D01*
G75*
G02*
X168200000Y-111200001I0J249999D01*
G01*
G37*
G04 #@! TD.AperFunction*
G04 #@! TO.P,D18,1*
G04 #@! TO.N,LED18*
G04 #@! TA.AperFunction,SMDPad,CuDef*
G36*
G01*
X166150000Y-111200001D02*
X166150000Y-110299999D01*
G75*
G02*
X166399999Y-110050000I249999J0D01*
G01*
X167050001Y-110050000D01*
G75*
G02*
X167300000Y-110299999I0J-249999D01*
G01*
X167300000Y-111200001D01*
G75*
G02*
X167050001Y-111450000I-249999J0D01*
G01*
X166399999Y-111450000D01*
G75*
G02*
X166150000Y-111200001I0J249999D01*
G01*
G37*
G04 #@! TD.AperFunction*
G04 #@! TD*
G04 #@! TO.P,D4,2*
G04 #@! TO.N,Net-(D4-Pad2)*
G04 #@! TA.AperFunction,SMDPad,CuDef*
G36*
G01*
X187975000Y-91700001D02*
X187975000Y-90799999D01*
G75*
G02*
X188224999Y-90550000I249999J0D01*
G01*
X188875001Y-90550000D01*
G75*
G02*
X189125000Y-90799999I0J-249999D01*
G01*
X189125000Y-91700001D01*
G75*
G02*
X188875001Y-91950000I-249999J0D01*
G01*
X188224999Y-91950000D01*
G75*
G02*
X187975000Y-91700001I0J249999D01*
G01*
G37*
G04 #@! TD.AperFunction*
G04 #@! TO.P,D4,1*
G04 #@! TO.N,LED4*
G04 #@! TA.AperFunction,SMDPad,CuDef*
G36*
G01*
X185925000Y-91700001D02*
X185925000Y-90799999D01*
G75*
G02*
X186174999Y-90550000I249999J0D01*
G01*
X186825001Y-90550000D01*
G75*
G02*
X187075000Y-90799999I0J-249999D01*
G01*
X187075000Y-91700001D01*
G75*
G02*
X186825001Y-91950000I-249999J0D01*
G01*
X186174999Y-91950000D01*
G75*
G02*
X185925000Y-91700001I0J249999D01*
G01*
G37*
G04 #@! TD.AperFunction*
G04 #@! TD*
G04 #@! TO.P,D17,2*
G04 #@! TO.N,Net-(D17-Pad2)*
G04 #@! TA.AperFunction,SMDPad,CuDef*
G36*
G01*
X175475000Y-91950001D02*
X175475000Y-91049999D01*
G75*
G02*
X175724999Y-90800000I249999J0D01*
G01*
X176375001Y-90800000D01*
G75*
G02*
X176625000Y-91049999I0J-249999D01*
G01*
X176625000Y-91950001D01*
G75*
G02*
X176375001Y-92200000I-249999J0D01*
G01*
X175724999Y-92200000D01*
G75*
G02*
X175475000Y-91950001I0J249999D01*
G01*
G37*
G04 #@! TD.AperFunction*
G04 #@! TO.P,D17,1*
G04 #@! TO.N,LED17*
G04 #@! TA.AperFunction,SMDPad,CuDef*
G36*
G01*
X173425000Y-91950001D02*
X173425000Y-91049999D01*
G75*
G02*
X173674999Y-90800000I249999J0D01*
G01*
X174325001Y-90800000D01*
G75*
G02*
X174575000Y-91049999I0J-249999D01*
G01*
X174575000Y-91950001D01*
G75*
G02*
X174325001Y-92200000I-249999J0D01*
G01*
X173674999Y-92200000D01*
G75*
G02*
X173425000Y-91950001I0J249999D01*
G01*
G37*
G04 #@! TD.AperFunction*
G04 #@! TD*
G04 #@! TO.P,D3,2*
G04 #@! TO.N,Net-(D3-Pad2)*
G04 #@! TA.AperFunction,SMDPad,CuDef*
G36*
G01*
X185175000Y-75950001D02*
X185175000Y-75049999D01*
G75*
G02*
X185424999Y-74800000I249999J0D01*
G01*
X186075001Y-74800000D01*
G75*
G02*
X186325000Y-75049999I0J-249999D01*
G01*
X186325000Y-75950001D01*
G75*
G02*
X186075001Y-76200000I-249999J0D01*
G01*
X185424999Y-76200000D01*
G75*
G02*
X185175000Y-75950001I0J249999D01*
G01*
G37*
G04 #@! TD.AperFunction*
G04 #@! TO.P,D3,1*
G04 #@! TO.N,LED3*
G04 #@! TA.AperFunction,SMDPad,CuDef*
G36*
G01*
X183125000Y-75950001D02*
X183125000Y-75049999D01*
G75*
G02*
X183374999Y-74800000I249999J0D01*
G01*
X184025001Y-74800000D01*
G75*
G02*
X184275000Y-75049999I0J-249999D01*
G01*
X184275000Y-75950001D01*
G75*
G02*
X184025001Y-76200000I-249999J0D01*
G01*
X183374999Y-76200000D01*
G75*
G02*
X183125000Y-75950001I0J249999D01*
G01*
G37*
G04 #@! TD.AperFunction*
G04 #@! TD*
G04 #@! TO.P,D16,2*
G04 #@! TO.N,Net-(D16-Pad2)*
G04 #@! TA.AperFunction,SMDPad,CuDef*
G36*
G01*
X168200000Y-72700001D02*
X168200000Y-71799999D01*
G75*
G02*
X168449999Y-71550000I249999J0D01*
G01*
X169100001Y-71550000D01*
G75*
G02*
X169350000Y-71799999I0J-249999D01*
G01*
X169350000Y-72700001D01*
G75*
G02*
X169100001Y-72950000I-249999J0D01*
G01*
X168449999Y-72950000D01*
G75*
G02*
X168200000Y-72700001I0J249999D01*
G01*
G37*
G04 #@! TD.AperFunction*
G04 #@! TO.P,D16,1*
G04 #@! TO.N,LED16*
G04 #@! TA.AperFunction,SMDPad,CuDef*
G36*
G01*
X166150000Y-72700001D02*
X166150000Y-71799999D01*
G75*
G02*
X166399999Y-71550000I249999J0D01*
G01*
X167050001Y-71550000D01*
G75*
G02*
X167300000Y-71799999I0J-249999D01*
G01*
X167300000Y-72700001D01*
G75*
G02*
X167050001Y-72950000I-249999J0D01*
G01*
X166399999Y-72950000D01*
G75*
G02*
X166150000Y-72700001I0J249999D01*
G01*
G37*
G04 #@! TD.AperFunction*
G04 #@! TD*
G04 #@! TO.P,D2,2*
G04 #@! TO.N,Net-(D2-Pad2)*
G04 #@! TA.AperFunction,SMDPad,CuDef*
G36*
G01*
X176925000Y-63950001D02*
X176925000Y-63049999D01*
G75*
G02*
X177174999Y-62800000I249999J0D01*
G01*
X177825001Y-62800000D01*
G75*
G02*
X178075000Y-63049999I0J-249999D01*
G01*
X178075000Y-63950001D01*
G75*
G02*
X177825001Y-64200000I-249999J0D01*
G01*
X177174999Y-64200000D01*
G75*
G02*
X176925000Y-63950001I0J249999D01*
G01*
G37*
G04 #@! TD.AperFunction*
G04 #@! TO.P,D2,1*
G04 #@! TO.N,LED2*
G04 #@! TA.AperFunction,SMDPad,CuDef*
G36*
G01*
X174875000Y-63950001D02*
X174875000Y-63049999D01*
G75*
G02*
X175124999Y-62800000I249999J0D01*
G01*
X175775001Y-62800000D01*
G75*
G02*
X176025000Y-63049999I0J-249999D01*
G01*
X176025000Y-63950001D01*
G75*
G02*
X175775001Y-64200000I-249999J0D01*
G01*
X175124999Y-64200000D01*
G75*
G02*
X174875000Y-63950001I0J249999D01*
G01*
G37*
G04 #@! TD.AperFunction*
G04 #@! TD*
G04 #@! TO.P,D1,2*
G04 #@! TO.N,Net-(D1-Pad2)*
G04 #@! TA.AperFunction,SMDPad,CuDef*
G36*
G01*
X164925000Y-55700001D02*
X164925000Y-54799999D01*
G75*
G02*
X165174999Y-54550000I249999J0D01*
G01*
X165825001Y-54550000D01*
G75*
G02*
X166075000Y-54799999I0J-249999D01*
G01*
X166075000Y-55700001D01*
G75*
G02*
X165825001Y-55950000I-249999J0D01*
G01*
X165174999Y-55950000D01*
G75*
G02*
X164925000Y-55700001I0J249999D01*
G01*
G37*
G04 #@! TD.AperFunction*
G04 #@! TO.P,D1,1*
G04 #@! TO.N,LED1*
G04 #@! TA.AperFunction,SMDPad,CuDef*
G36*
G01*
X162875000Y-55700001D02*
X162875000Y-54799999D01*
G75*
G02*
X163124999Y-54550000I249999J0D01*
G01*
X163775001Y-54550000D01*
G75*
G02*
X164025000Y-54799999I0J-249999D01*
G01*
X164025000Y-55700001D01*
G75*
G02*
X163775001Y-55950000I-249999J0D01*
G01*
X163124999Y-55950000D01*
G75*
G02*
X162875000Y-55700001I0J249999D01*
G01*
G37*
G04 #@! TD.AperFunction*
G04 #@! TD*
G04 #@! TO.P,D7,2*
G04 #@! TO.N,Net-(D7-Pad2)*
G04 #@! TA.AperFunction,SMDPad,CuDef*
G36*
G01*
X164725000Y-127950001D02*
X164725000Y-127049999D01*
G75*
G02*
X164974999Y-126800000I249999J0D01*
G01*
X165625001Y-126800000D01*
G75*
G02*
X165875000Y-127049999I0J-249999D01*
G01*
X165875000Y-127950001D01*
G75*
G02*
X165625001Y-128200000I-249999J0D01*
G01*
X164974999Y-128200000D01*
G75*
G02*
X164725000Y-127950001I0J249999D01*
G01*
G37*
G04 #@! TD.AperFunction*
G04 #@! TO.P,D7,1*
G04 #@! TO.N,LED7*
G04 #@! TA.AperFunction,SMDPad,CuDef*
G36*
G01*
X162675000Y-127950001D02*
X162675000Y-127049999D01*
G75*
G02*
X162924999Y-126800000I249999J0D01*
G01*
X163575001Y-126800000D01*
G75*
G02*
X163825000Y-127049999I0J-249999D01*
G01*
X163825000Y-127950001D01*
G75*
G02*
X163575001Y-128200000I-249999J0D01*
G01*
X162924999Y-128200000D01*
G75*
G02*
X162675000Y-127950001I0J249999D01*
G01*
G37*
G04 #@! TD.AperFunction*
G04 #@! TD*
D11*
G04 #@! TO.N,LED20*
X178750000Y-88750000D03*
G04 #@! TO.N,LED21*
X161250000Y-63500000D03*
G04 #@! TO.N,LED10*
X177000000Y-104500000D03*
G04 #@! TO.N,LED16*
X167500000Y-133000000D03*
X165500000Y-69250000D03*
X164750000Y-72250000D03*
G04 #@! TO.N,LED3*
X163750000Y-135000000D03*
G04 #@! TO.N,LED17*
X175250000Y-88750000D03*
G04 #@! TO.N,LED4*
X184000000Y-91750000D03*
G04 #@! TO.N,LED19*
X178000000Y-105500000D03*
G04 #@! TO.N,+5V*
X168500000Y-116750000D03*
X190000000Y-77750000D03*
X183200000Y-112600000D03*
X153800000Y-128800000D03*
X173400000Y-115800000D03*
X177600000Y-131400000D03*
X169600000Y-78200000D03*
X166600000Y-59600000D03*
X176400000Y-96400000D03*
X162400000Y-131800000D03*
X188600000Y-82400000D03*
X181200000Y-81800000D03*
G04 #@! TD*
D12*
G04 #@! TO.N,Net-(D1-Pad2)*
X165500000Y-55250000D02*
X165500000Y-57250000D01*
G04 #@! TO.N,LED7*
X150250000Y-137000000D02*
X160250000Y-137000000D01*
X160250000Y-137000000D02*
X160750000Y-136500000D01*
X160750000Y-130000000D02*
X163250000Y-127500000D01*
X160750000Y-136500000D02*
X160750000Y-130000000D01*
G04 #@! TO.N,Net-(D2-Pad2)*
X177500000Y-63500000D02*
X177500000Y-65500000D01*
G04 #@! TO.N,Net-(D3-Pad2)*
X185750000Y-75500000D02*
X185750000Y-77500000D01*
G04 #@! TO.N,LED20*
X151500000Y-56500000D02*
X165250000Y-70250000D01*
X150250000Y-56500000D02*
X151500000Y-56500000D01*
X165250000Y-70250000D02*
X171500000Y-70250000D01*
X171500000Y-70250000D02*
X179000000Y-77750000D01*
X179000000Y-88500000D02*
X178750000Y-88750000D01*
X179000000Y-77750000D02*
X179000000Y-88500000D01*
G04 #@! TO.N,Net-(D4-Pad2)*
X188550000Y-93200000D02*
X188500000Y-93250000D01*
X188550000Y-91250000D02*
X188550000Y-93200000D01*
G04 #@! TO.N,LED1*
X150250000Y-52500000D02*
X158000000Y-52500000D01*
X160750000Y-55250000D02*
X163450000Y-55250000D01*
X158000000Y-52500000D02*
X160750000Y-55250000D01*
G04 #@! TO.N,Net-(D5-Pad2)*
X185750000Y-107750000D02*
X185750000Y-109750000D01*
G04 #@! TO.N,Net-(D6-Pad2)*
X177525000Y-121475000D02*
X177500000Y-121500000D01*
X177525000Y-119500000D02*
X177525000Y-121475000D01*
G04 #@! TO.N,Net-(D7-Pad2)*
X165300000Y-129450000D02*
X165250000Y-129500000D01*
X165300000Y-127500000D02*
X165300000Y-129450000D01*
G04 #@! TO.N,LED21*
X152250000Y-54500000D02*
X161250000Y-63500000D01*
X150250000Y-54500000D02*
X152250000Y-54500000D01*
G04 #@! TO.N,LED2*
X150250000Y-50500000D02*
X159500000Y-50500000D01*
X159500000Y-50500000D02*
X161250000Y-52250000D01*
X161250000Y-52250000D02*
X167250000Y-52250000D01*
X167250000Y-52250000D02*
X171250000Y-56250000D01*
X171250000Y-56250000D02*
X171250000Y-60750000D01*
X174000000Y-63500000D02*
X175450000Y-63500000D01*
X171250000Y-60750000D02*
X174000000Y-63500000D01*
G04 #@! TO.N,LED10*
X150250000Y-60500000D02*
X154227180Y-60500000D01*
X164952170Y-71224990D02*
X171088580Y-71224990D01*
X154227180Y-60500000D02*
X164952170Y-71224990D01*
X171088580Y-71224990D02*
X172299990Y-72436400D01*
X172299990Y-72436400D02*
X172299990Y-94049990D01*
X177000000Y-98750000D02*
X177000000Y-104500000D01*
X172299990Y-94049990D02*
X177000000Y-98750000D01*
G04 #@! TO.N,LED16*
X164750000Y-72250000D02*
X166725000Y-72250000D01*
X180800000Y-74300000D02*
X175750000Y-69250000D01*
X180800000Y-77550000D02*
X180800000Y-74300000D01*
X187750000Y-113000000D02*
X192750000Y-108000000D01*
X183750000Y-80500000D02*
X180800000Y-77550000D01*
X191500000Y-80500000D02*
X183750000Y-80500000D01*
X192750000Y-81750000D02*
X191500000Y-80500000D01*
X187750000Y-119863590D02*
X187750000Y-113000000D01*
X180363590Y-127250000D02*
X187750000Y-119863590D01*
X192750000Y-108000000D02*
X192750000Y-81750000D01*
X177500000Y-127250000D02*
X180363590Y-127250000D01*
X175750000Y-69250000D02*
X165500000Y-69250000D01*
X171750000Y-133000000D02*
X177500000Y-127250000D01*
X167500000Y-133000000D02*
X171750000Y-133000000D01*
G04 #@! TO.N,LED3*
X170750000Y-135000000D02*
X163750000Y-135000000D01*
X180500000Y-127750000D02*
X178000000Y-127750000D01*
X188250000Y-120000000D02*
X180500000Y-127750000D01*
X193250000Y-108250000D02*
X188250000Y-113250000D01*
X178000000Y-127750000D02*
X170750000Y-135000000D01*
X193250000Y-77500000D02*
X193250000Y-108250000D01*
X189725000Y-73975000D02*
X193250000Y-77500000D01*
X188250000Y-113250000D02*
X188250000Y-120000000D01*
X185225000Y-73975000D02*
X189725000Y-73975000D01*
X183700000Y-75500000D02*
X185225000Y-73975000D01*
G04 #@! TO.N,LED17*
X175250000Y-88750000D02*
X173750000Y-90250000D01*
X173750000Y-91250000D02*
X174000000Y-91500000D01*
X173750000Y-90250000D02*
X173750000Y-91250000D01*
G04 #@! TO.N,LED4*
X184000000Y-91750000D02*
X184500000Y-91250000D01*
X184500000Y-91250000D02*
X186500000Y-91250000D01*
G04 #@! TO.N,Net-(D16-Pad2)*
X168775000Y-74225000D02*
X168750000Y-74250000D01*
X168775000Y-72250000D02*
X168775000Y-74225000D01*
G04 #@! TO.N,LED18*
X168475000Y-109000000D02*
X166725000Y-110750000D01*
X170750000Y-109000000D02*
X168475000Y-109000000D01*
X171500000Y-109750000D02*
X170750000Y-109000000D01*
X171500000Y-125250000D02*
X171500000Y-109750000D01*
X171000000Y-125750000D02*
X171500000Y-125250000D01*
X162750000Y-125750000D02*
X171000000Y-125750000D01*
X161750000Y-127411810D02*
X161750000Y-126750000D01*
X158750000Y-130411810D02*
X161750000Y-127411810D01*
X158750000Y-133250000D02*
X158750000Y-130411810D01*
X157000000Y-135000000D02*
X158750000Y-133250000D01*
X161750000Y-126750000D02*
X162750000Y-125750000D01*
X150250000Y-135000000D02*
X157000000Y-135000000D01*
G04 #@! TO.N,Net-(D17-Pad2)*
X176050000Y-93450000D02*
X176000000Y-93500000D01*
X176050000Y-91500000D02*
X176050000Y-93450000D01*
G04 #@! TO.N,LED5*
X167500000Y-107750000D02*
X183125000Y-107750000D01*
X165250000Y-110000000D02*
X167500000Y-107750000D01*
X165250000Y-120500000D02*
X165250000Y-110000000D01*
X154750000Y-131000000D02*
X165250000Y-120500000D01*
X183125000Y-107750000D02*
X183700000Y-107750000D01*
X150250000Y-131000000D02*
X154750000Y-131000000D01*
G04 #@! TO.N,Net-(D18-Pad2)*
X168775000Y-112725000D02*
X168750000Y-112750000D01*
X168775000Y-110750000D02*
X168775000Y-112725000D01*
G04 #@! TO.N,LED19*
X152863590Y-58500000D02*
X165113590Y-70750000D01*
X150250000Y-58500000D02*
X152863590Y-58500000D01*
X165113590Y-70750000D02*
X171250000Y-70750000D01*
X178024999Y-77524999D02*
X178024999Y-100725001D01*
X171250000Y-70750000D02*
X178024999Y-77524999D01*
X178000000Y-100750000D02*
X178000000Y-105500000D01*
X178024999Y-100725001D02*
X178000000Y-100750000D01*
G04 #@! TO.N,LED6*
X175475000Y-112475000D02*
X175475000Y-118800000D01*
X171500000Y-108500000D02*
X175475000Y-112475000D01*
X162000000Y-125750000D02*
X165750000Y-122000000D01*
X167386410Y-108500000D02*
X171500000Y-108500000D01*
X153500000Y-133000000D02*
X160750000Y-125750000D01*
X150250000Y-133000000D02*
X153500000Y-133000000D01*
X160750000Y-125750000D02*
X162000000Y-125750000D01*
X165750000Y-122000000D02*
X165750000Y-110136410D01*
X175475000Y-118800000D02*
X175475000Y-119500000D01*
X165750000Y-110136410D02*
X167386410Y-108500000D01*
G04 #@! TO.N,+5V*
X174000000Y-93500000D02*
X174000000Y-94000000D01*
X174525010Y-94525010D02*
X176400000Y-96400000D01*
X174000000Y-94000000D02*
X174525010Y-94525010D01*
G04 #@! TD*
D13*
G04 #@! TO.N,+5V*
X158124919Y-44108150D02*
X160811204Y-44720878D01*
X163459127Y-45482613D01*
X166060362Y-46390957D01*
X168606876Y-47443106D01*
X171090665Y-48635754D01*
X173504011Y-49965194D01*
X175839373Y-51427273D01*
X178089501Y-53017452D01*
X180247322Y-54730730D01*
X182306169Y-56561815D01*
X184259566Y-58504947D01*
X186101467Y-60554109D01*
X187826111Y-62702899D01*
X189428108Y-64944597D01*
X190902481Y-67272241D01*
X192244611Y-69678536D01*
X193450341Y-72156031D01*
X194515881Y-74696942D01*
X195437920Y-77293360D01*
X196213594Y-79937229D01*
X196840469Y-82620258D01*
X197316596Y-85334097D01*
X197640491Y-88070287D01*
X197811143Y-90820287D01*
X197828019Y-93575543D01*
X197691067Y-96327418D01*
X197400714Y-99067374D01*
X196957866Y-101786841D01*
X196363903Y-104477354D01*
X195620678Y-107130515D01*
X194730513Y-109738036D01*
X193696172Y-112291823D01*
X192520888Y-114783888D01*
X191208329Y-117206455D01*
X189762593Y-119551962D01*
X188188166Y-121813131D01*
X186489974Y-123982885D01*
X184673330Y-126054440D01*
X182743864Y-128021374D01*
X180707620Y-129877526D01*
X178570926Y-131617128D01*
X176340457Y-133234742D01*
X174023177Y-134725320D01*
X171626299Y-136084224D01*
X169157298Y-137307212D01*
X166623875Y-138390471D01*
X164033953Y-139330616D01*
X161395574Y-140124725D01*
X158716979Y-140770318D01*
X156006523Y-141265380D01*
X153272663Y-141608369D01*
X150521488Y-141798383D01*
X149160000Y-141826319D01*
X149160000Y-138388072D01*
X150750000Y-138388072D01*
X150874482Y-138375812D01*
X150994180Y-138339502D01*
X151104494Y-138280537D01*
X151201185Y-138201185D01*
X151280537Y-138104494D01*
X151339502Y-137994180D01*
X151375812Y-137874482D01*
X151387087Y-137760000D01*
X160212678Y-137760000D01*
X160250000Y-137763676D01*
X160287322Y-137760000D01*
X160287333Y-137760000D01*
X160398986Y-137749003D01*
X160542247Y-137705546D01*
X160674276Y-137634974D01*
X160790001Y-137540001D01*
X160813804Y-137510997D01*
X161260998Y-137063803D01*
X161290001Y-137040001D01*
X161384974Y-136924276D01*
X161455546Y-136792247D01*
X161499003Y-136648986D01*
X161510000Y-136537333D01*
X161510000Y-136537325D01*
X161513676Y-136500000D01*
X161510000Y-136462675D01*
X161510000Y-130314801D01*
X162014820Y-129809981D01*
X162011928Y-130200000D01*
X162024188Y-130324482D01*
X162060498Y-130444180D01*
X162119463Y-130554494D01*
X162198815Y-130651185D01*
X162295506Y-130730537D01*
X162405820Y-130789502D01*
X162525518Y-130825812D01*
X162650000Y-130838072D01*
X162964250Y-130835000D01*
X163123000Y-130676250D01*
X163123000Y-129627000D01*
X163103000Y-129627000D01*
X163103000Y-129373000D01*
X163123000Y-129373000D01*
X163123000Y-129353000D01*
X163377000Y-129353000D01*
X163377000Y-129373000D01*
X163397000Y-129373000D01*
X163397000Y-129627000D01*
X163377000Y-129627000D01*
X163377000Y-130676250D01*
X163535750Y-130835000D01*
X163850000Y-130838072D01*
X163974482Y-130825812D01*
X164094180Y-130789502D01*
X164204494Y-130730537D01*
X164301185Y-130651185D01*
X164325363Y-130621724D01*
X164406613Y-130688405D01*
X164560149Y-130770472D01*
X164726745Y-130821008D01*
X164899999Y-130838072D01*
X165600001Y-130838072D01*
X165773255Y-130821008D01*
X165939851Y-130770472D01*
X166093387Y-130688405D01*
X166227962Y-130577962D01*
X166338405Y-130443387D01*
X166420472Y-130289851D01*
X166471008Y-130123255D01*
X166488072Y-129950001D01*
X166488072Y-129049999D01*
X166471008Y-128876745D01*
X166420472Y-128710149D01*
X166338405Y-128556613D01*
X166304444Y-128515231D01*
X166363405Y-128443387D01*
X166445472Y-128289851D01*
X166496008Y-128123255D01*
X166513072Y-127950001D01*
X166513072Y-127049999D01*
X166496008Y-126876745D01*
X166445472Y-126710149D01*
X166363405Y-126556613D01*
X166325151Y-126510000D01*
X170962678Y-126510000D01*
X171000000Y-126513676D01*
X171037322Y-126510000D01*
X171037333Y-126510000D01*
X171148986Y-126499003D01*
X171292247Y-126455546D01*
X171424276Y-126384974D01*
X171540001Y-126290001D01*
X171563804Y-126260997D01*
X172010998Y-125813803D01*
X172040001Y-125790001D01*
X172134974Y-125674276D01*
X172205546Y-125542247D01*
X172249003Y-125398986D01*
X172260000Y-125287333D01*
X172260000Y-125287325D01*
X172263676Y-125250000D01*
X172260000Y-125212675D01*
X172260000Y-122200000D01*
X174261928Y-122200000D01*
X174274188Y-122324482D01*
X174310498Y-122444180D01*
X174369463Y-122554494D01*
X174448815Y-122651185D01*
X174545506Y-122730537D01*
X174655820Y-122789502D01*
X174775518Y-122825812D01*
X174900000Y-122838072D01*
X175214250Y-122835000D01*
X175373000Y-122676250D01*
X175373000Y-121627000D01*
X174423750Y-121627000D01*
X174265000Y-121785750D01*
X174261928Y-122200000D01*
X172260000Y-122200000D01*
X172260000Y-110334801D01*
X174715000Y-112789802D01*
X174715001Y-118280386D01*
X174656613Y-118311595D01*
X174522038Y-118422038D01*
X174411595Y-118556613D01*
X174329528Y-118710149D01*
X174278992Y-118876745D01*
X174261928Y-119049999D01*
X174261928Y-119950001D01*
X174278992Y-120123255D01*
X174329528Y-120289851D01*
X174395663Y-120413581D01*
X174369463Y-120445506D01*
X174310498Y-120555820D01*
X174274188Y-120675518D01*
X174261928Y-120800000D01*
X174265000Y-121214250D01*
X174423750Y-121373000D01*
X175373000Y-121373000D01*
X175373000Y-121353000D01*
X175627000Y-121353000D01*
X175627000Y-121373000D01*
X175647000Y-121373000D01*
X175647000Y-121627000D01*
X175627000Y-121627000D01*
X175627000Y-122676250D01*
X175785750Y-122835000D01*
X176100000Y-122838072D01*
X176224482Y-122825812D01*
X176344180Y-122789502D01*
X176454494Y-122730537D01*
X176551185Y-122651185D01*
X176575363Y-122621724D01*
X176656613Y-122688405D01*
X176810149Y-122770472D01*
X176976745Y-122821008D01*
X177149999Y-122838072D01*
X177850001Y-122838072D01*
X178023255Y-122821008D01*
X178189851Y-122770472D01*
X178343387Y-122688405D01*
X178477962Y-122577962D01*
X178588405Y-122443387D01*
X178670472Y-122289851D01*
X178721008Y-122123255D01*
X178738072Y-121950001D01*
X178738072Y-121049999D01*
X178721008Y-120876745D01*
X178670472Y-120710149D01*
X178588405Y-120556613D01*
X178541944Y-120500000D01*
X178588405Y-120443387D01*
X178670472Y-120289851D01*
X178721008Y-120123255D01*
X178738072Y-119950001D01*
X178738072Y-119049999D01*
X178721008Y-118876745D01*
X178670472Y-118710149D01*
X178588405Y-118556613D01*
X178477962Y-118422038D01*
X178343387Y-118311595D01*
X178189851Y-118229528D01*
X178023255Y-118178992D01*
X177850001Y-118161928D01*
X177199999Y-118161928D01*
X177026745Y-118178992D01*
X176860149Y-118229528D01*
X176706613Y-118311595D01*
X176572038Y-118422038D01*
X176500000Y-118509816D01*
X176427962Y-118422038D01*
X176293387Y-118311595D01*
X176235000Y-118280386D01*
X176235000Y-112512323D01*
X176238676Y-112475000D01*
X176235000Y-112437677D01*
X176235000Y-112437667D01*
X176224003Y-112326014D01*
X176180546Y-112182753D01*
X176144134Y-112114632D01*
X176109974Y-112050723D01*
X176038799Y-111963997D01*
X176015001Y-111934999D01*
X175986004Y-111911202D01*
X174524802Y-110450000D01*
X182511928Y-110450000D01*
X182524188Y-110574482D01*
X182560498Y-110694180D01*
X182619463Y-110804494D01*
X182698815Y-110901185D01*
X182795506Y-110980537D01*
X182905820Y-111039502D01*
X183025518Y-111075812D01*
X183150000Y-111088072D01*
X183464250Y-111085000D01*
X183623000Y-110926250D01*
X183623000Y-109877000D01*
X182673750Y-109877000D01*
X182515000Y-110035750D01*
X182511928Y-110450000D01*
X174524802Y-110450000D01*
X172584801Y-108510000D01*
X182545473Y-108510000D01*
X182554528Y-108539851D01*
X182630524Y-108682028D01*
X182619463Y-108695506D01*
X182560498Y-108805820D01*
X182524188Y-108925518D01*
X182511928Y-109050000D01*
X182515000Y-109464250D01*
X182673750Y-109623000D01*
X183623000Y-109623000D01*
X183623000Y-109603000D01*
X183877000Y-109603000D01*
X183877000Y-109623000D01*
X183897000Y-109623000D01*
X183897000Y-109877000D01*
X183877000Y-109877000D01*
X183877000Y-110926250D01*
X184035750Y-111085000D01*
X184350000Y-111088072D01*
X184474482Y-111075812D01*
X184594180Y-111039502D01*
X184704494Y-110980537D01*
X184801185Y-110901185D01*
X184825363Y-110871724D01*
X184906613Y-110938405D01*
X185060149Y-111020472D01*
X185226745Y-111071008D01*
X185399999Y-111088072D01*
X186100001Y-111088072D01*
X186273255Y-111071008D01*
X186439851Y-111020472D01*
X186593387Y-110938405D01*
X186727962Y-110827962D01*
X186838405Y-110693387D01*
X186920472Y-110539851D01*
X186971008Y-110373255D01*
X186988072Y-110200001D01*
X186988072Y-109299999D01*
X186971008Y-109126745D01*
X186920472Y-108960149D01*
X186838405Y-108806613D01*
X186779444Y-108734769D01*
X186813405Y-108693387D01*
X186895472Y-108539851D01*
X186946008Y-108373255D01*
X186963072Y-108200001D01*
X186963072Y-107299999D01*
X186946008Y-107126745D01*
X186895472Y-106960149D01*
X186813405Y-106806613D01*
X186702962Y-106672038D01*
X186568387Y-106561595D01*
X186414851Y-106479528D01*
X186248255Y-106428992D01*
X186075001Y-106411928D01*
X185424999Y-106411928D01*
X185251745Y-106428992D01*
X185085149Y-106479528D01*
X184931613Y-106561595D01*
X184797038Y-106672038D01*
X184725000Y-106759816D01*
X184652962Y-106672038D01*
X184518387Y-106561595D01*
X184364851Y-106479528D01*
X184198255Y-106428992D01*
X184025001Y-106411928D01*
X183374999Y-106411928D01*
X183201745Y-106428992D01*
X183035149Y-106479528D01*
X182881613Y-106561595D01*
X182747038Y-106672038D01*
X182636595Y-106806613D01*
X182554528Y-106960149D01*
X182545473Y-106990000D01*
X167537333Y-106990000D01*
X167500000Y-106986323D01*
X167462667Y-106990000D01*
X167370452Y-106999082D01*
X172234719Y-95059520D01*
X176240000Y-99064802D01*
X176240001Y-103796288D01*
X176196063Y-103840226D01*
X176082795Y-104009744D01*
X176004774Y-104198102D01*
X175965000Y-104398061D01*
X175965000Y-104601939D01*
X176004774Y-104801898D01*
X176082795Y-104990256D01*
X176196063Y-105159774D01*
X176340226Y-105303937D01*
X176509744Y-105417205D01*
X176698102Y-105495226D01*
X176898061Y-105535000D01*
X176965000Y-105535000D01*
X176965000Y-105601939D01*
X177004774Y-105801898D01*
X177082795Y-105990256D01*
X177196063Y-106159774D01*
X177340226Y-106303937D01*
X177509744Y-106417205D01*
X177698102Y-106495226D01*
X177898061Y-106535000D01*
X178101939Y-106535000D01*
X178301898Y-106495226D01*
X178490256Y-106417205D01*
X178659774Y-106303937D01*
X178803937Y-106159774D01*
X178917205Y-105990256D01*
X178995226Y-105801898D01*
X179035000Y-105601939D01*
X179035000Y-105398061D01*
X178995226Y-105198102D01*
X178917205Y-105009744D01*
X178803937Y-104840226D01*
X178760000Y-104796289D01*
X178760000Y-100920146D01*
X178774002Y-100873987D01*
X178784999Y-100762334D01*
X178784999Y-100762323D01*
X178788675Y-100725001D01*
X178784999Y-100687678D01*
X178784999Y-93950000D01*
X185261928Y-93950000D01*
X185274188Y-94074482D01*
X185310498Y-94194180D01*
X185369463Y-94304494D01*
X185448815Y-94401185D01*
X185545506Y-94480537D01*
X185655820Y-94539502D01*
X185775518Y-94575812D01*
X185900000Y-94588072D01*
X186214250Y-94585000D01*
X186373000Y-94426250D01*
X186373000Y-93377000D01*
X185423750Y-93377000D01*
X185265000Y-93535750D01*
X185261928Y-93950000D01*
X178784999Y-93950000D01*
X178784999Y-91648061D01*
X182965000Y-91648061D01*
X182965000Y-91851939D01*
X183004774Y-92051898D01*
X183082795Y-92240256D01*
X183196063Y-92409774D01*
X183340226Y-92553937D01*
X183509744Y-92667205D01*
X183698102Y-92745226D01*
X183898061Y-92785000D01*
X184101939Y-92785000D01*
X184301898Y-92745226D01*
X184490256Y-92667205D01*
X184659774Y-92553937D01*
X184803937Y-92409774D01*
X184917205Y-92240256D01*
X184995226Y-92051898D01*
X185003560Y-92010000D01*
X185345473Y-92010000D01*
X185354528Y-92039851D01*
X185410803Y-92145133D01*
X185369463Y-92195506D01*
X185310498Y-92305820D01*
X185274188Y-92425518D01*
X185261928Y-92550000D01*
X185265000Y-92964250D01*
X185423750Y-93123000D01*
X186373000Y-93123000D01*
X186373000Y-93103000D01*
X186627000Y-93103000D01*
X186627000Y-93123000D01*
X186647000Y-93123000D01*
X186647000Y-93377000D01*
X186627000Y-93377000D01*
X186627000Y-94426250D01*
X186785750Y-94585000D01*
X187100000Y-94588072D01*
X187224482Y-94575812D01*
X187344180Y-94539502D01*
X187454494Y-94480537D01*
X187551185Y-94401185D01*
X187575363Y-94371724D01*
X187656613Y-94438405D01*
X187810149Y-94520472D01*
X187976745Y-94571008D01*
X188149999Y-94588072D01*
X188850001Y-94588072D01*
X189023255Y-94571008D01*
X189189851Y-94520472D01*
X189343387Y-94438405D01*
X189477962Y-94327962D01*
X189588405Y-94193387D01*
X189670472Y-94039851D01*
X189721008Y-93873255D01*
X189738072Y-93700001D01*
X189738072Y-92799999D01*
X189721008Y-92626745D01*
X189670472Y-92460149D01*
X189588405Y-92306613D01*
X189554444Y-92265231D01*
X189613405Y-92193387D01*
X189695472Y-92039851D01*
X189746008Y-91873255D01*
X189763072Y-91700001D01*
X189763072Y-90799999D01*
X189746008Y-90626745D01*
X189695472Y-90460149D01*
X189613405Y-90306613D01*
X189502962Y-90172038D01*
X189368387Y-90061595D01*
X189214851Y-89979528D01*
X189048255Y-89928992D01*
X188875001Y-89911928D01*
X188224999Y-89911928D01*
X188051745Y-89928992D01*
X187885149Y-89979528D01*
X187731613Y-90061595D01*
X187597038Y-90172038D01*
X187525000Y-90259816D01*
X187452962Y-90172038D01*
X187318387Y-90061595D01*
X187164851Y-89979528D01*
X186998255Y-89928992D01*
X186825001Y-89911928D01*
X186174999Y-89911928D01*
X186001745Y-89928992D01*
X185835149Y-89979528D01*
X185681613Y-90061595D01*
X185547038Y-90172038D01*
X185436595Y-90306613D01*
X185354528Y-90460149D01*
X185345473Y-90490000D01*
X184537325Y-90490000D01*
X184500000Y-90486324D01*
X184462675Y-90490000D01*
X184462667Y-90490000D01*
X184351014Y-90500997D01*
X184207753Y-90544454D01*
X184075724Y-90615026D01*
X183959999Y-90709999D01*
X183955895Y-90715000D01*
X183898061Y-90715000D01*
X183698102Y-90754774D01*
X183509744Y-90832795D01*
X183340226Y-90946063D01*
X183196063Y-91090226D01*
X183082795Y-91259744D01*
X183004774Y-91448102D01*
X182965000Y-91648061D01*
X178784999Y-91648061D01*
X178784999Y-89785000D01*
X178851939Y-89785000D01*
X179051898Y-89745226D01*
X179240256Y-89667205D01*
X179409774Y-89553937D01*
X179553937Y-89409774D01*
X179667205Y-89240256D01*
X179745226Y-89051898D01*
X179785000Y-88851939D01*
X179785000Y-88648061D01*
X179760985Y-88527327D01*
X179763676Y-88500001D01*
X179760000Y-88462678D01*
X179760000Y-77787325D01*
X179763676Y-77750000D01*
X179760000Y-77712675D01*
X179760000Y-77712667D01*
X179749003Y-77601014D01*
X179705546Y-77457753D01*
X179634974Y-77325724D01*
X179540001Y-77209999D01*
X179511004Y-77186202D01*
X172334801Y-70010000D01*
X175435199Y-70010000D01*
X180040001Y-74614804D01*
X180040000Y-77512677D01*
X180036324Y-77550000D01*
X180040000Y-77587322D01*
X180040000Y-77587332D01*
X180050997Y-77698985D01*
X180086870Y-77817245D01*
X180094454Y-77842246D01*
X180165026Y-77974276D01*
X180204871Y-78022826D01*
X180259999Y-78090001D01*
X180289003Y-78113804D01*
X183186200Y-81011002D01*
X183209999Y-81040001D01*
X183238997Y-81063799D01*
X183325723Y-81134974D01*
X183457753Y-81205546D01*
X183601014Y-81249003D01*
X183712667Y-81260000D01*
X183712677Y-81260000D01*
X183749999Y-81263676D01*
X183787322Y-81260000D01*
X191185199Y-81260000D01*
X191990001Y-82064803D01*
X191990000Y-107685198D01*
X187238998Y-112436201D01*
X187210000Y-112459999D01*
X187186202Y-112488997D01*
X187186201Y-112488998D01*
X187115026Y-112575724D01*
X187044454Y-112707754D01*
X187023285Y-112777543D01*
X187000998Y-112851014D01*
X186998439Y-112877000D01*
X186986324Y-113000000D01*
X186990001Y-113037332D01*
X186990000Y-119548788D01*
X180048789Y-126490000D01*
X177537322Y-126490000D01*
X177500000Y-126486324D01*
X177462677Y-126490000D01*
X177462667Y-126490000D01*
X177351014Y-126500997D01*
X177208112Y-126544345D01*
X177207753Y-126544454D01*
X177075723Y-126615026D01*
X176994728Y-126681498D01*
X176959999Y-126709999D01*
X176936201Y-126738997D01*
X171435199Y-132240000D01*
X168203711Y-132240000D01*
X168159774Y-132196063D01*
X167990256Y-132082795D01*
X167801898Y-132004774D01*
X167601939Y-131965000D01*
X167398061Y-131965000D01*
X167198102Y-132004774D01*
X167009744Y-132082795D01*
X166840226Y-132196063D01*
X166696063Y-132340226D01*
X166582795Y-132509744D01*
X166504774Y-132698102D01*
X166465000Y-132898061D01*
X166465000Y-133101939D01*
X166504774Y-133301898D01*
X166582795Y-133490256D01*
X166696063Y-133659774D01*
X166840226Y-133803937D01*
X167009744Y-133917205D01*
X167198102Y-133995226D01*
X167398061Y-134035000D01*
X167601939Y-134035000D01*
X167801898Y-133995226D01*
X167990256Y-133917205D01*
X168159774Y-133803937D01*
X168203711Y-133760000D01*
X170915199Y-133760000D01*
X170435199Y-134240000D01*
X164453711Y-134240000D01*
X164409774Y-134196063D01*
X164240256Y-134082795D01*
X164051898Y-134004774D01*
X163851939Y-133965000D01*
X163648061Y-133965000D01*
X163448102Y-134004774D01*
X163259744Y-134082795D01*
X163090226Y-134196063D01*
X162946063Y-134340226D01*
X162832795Y-134509744D01*
X162754774Y-134698102D01*
X162715000Y-134898061D01*
X162715000Y-135101939D01*
X162754774Y-135301898D01*
X162832795Y-135490256D01*
X162946063Y-135659774D01*
X163090226Y-135803937D01*
X163259744Y-135917205D01*
X163448102Y-135995226D01*
X163648061Y-136035000D01*
X163851939Y-136035000D01*
X164051898Y-135995226D01*
X164240256Y-135917205D01*
X164409774Y-135803937D01*
X164453711Y-135760000D01*
X170712678Y-135760000D01*
X170750000Y-135763676D01*
X170787322Y-135760000D01*
X170787333Y-135760000D01*
X170898986Y-135749003D01*
X171042247Y-135705546D01*
X171174276Y-135634974D01*
X171290001Y-135540001D01*
X171313804Y-135510997D01*
X178314802Y-128510000D01*
X180462678Y-128510000D01*
X180500000Y-128513676D01*
X180537322Y-128510000D01*
X180537333Y-128510000D01*
X180648986Y-128499003D01*
X180792247Y-128455546D01*
X180924276Y-128384974D01*
X181040001Y-128290001D01*
X181063804Y-128260997D01*
X188761003Y-120563799D01*
X188790001Y-120540001D01*
X188822828Y-120500001D01*
X188884974Y-120424277D01*
X188955546Y-120292247D01*
X188958527Y-120282419D01*
X188999003Y-120148986D01*
X189010000Y-120037333D01*
X189010000Y-120037324D01*
X189013676Y-120000001D01*
X189010000Y-119962678D01*
X189010000Y-113564801D01*
X193761003Y-108813799D01*
X193790001Y-108790001D01*
X193884974Y-108674276D01*
X193955546Y-108542247D01*
X193999003Y-108398986D01*
X194010000Y-108287333D01*
X194010000Y-108287323D01*
X194013676Y-108250000D01*
X194010000Y-108212677D01*
X194010000Y-77537323D01*
X194013676Y-77500000D01*
X194010000Y-77462677D01*
X194010000Y-77462667D01*
X193999003Y-77351014D01*
X193955546Y-77207753D01*
X193884974Y-77075724D01*
X193790001Y-76959999D01*
X193761004Y-76936202D01*
X190288804Y-73464003D01*
X190265001Y-73434999D01*
X190149276Y-73340026D01*
X190017247Y-73269454D01*
X189873986Y-73225997D01*
X189762333Y-73215000D01*
X189762322Y-73215000D01*
X189725000Y-73211324D01*
X189687678Y-73215000D01*
X185262325Y-73215000D01*
X185225000Y-73211324D01*
X185187675Y-73215000D01*
X185187667Y-73215000D01*
X185076014Y-73225997D01*
X184932753Y-73269454D01*
X184800724Y-73340026D01*
X184684999Y-73434999D01*
X184661201Y-73463997D01*
X183963270Y-74161928D01*
X183374999Y-74161928D01*
X183201745Y-74178992D01*
X183035149Y-74229528D01*
X182881613Y-74311595D01*
X182747038Y-74422038D01*
X182636595Y-74556613D01*
X182554528Y-74710149D01*
X182503992Y-74876745D01*
X182486928Y-75049999D01*
X182486928Y-75950001D01*
X182503992Y-76123255D01*
X182554528Y-76289851D01*
X182630524Y-76432028D01*
X182619463Y-76445506D01*
X182560498Y-76555820D01*
X182524188Y-76675518D01*
X182511928Y-76800000D01*
X182515000Y-77214250D01*
X182673750Y-77373000D01*
X183623000Y-77373000D01*
X183623000Y-77353000D01*
X183877000Y-77353000D01*
X183877000Y-77373000D01*
X183897000Y-77373000D01*
X183897000Y-77627000D01*
X183877000Y-77627000D01*
X183877000Y-78676250D01*
X184035750Y-78835000D01*
X184350000Y-78838072D01*
X184474482Y-78825812D01*
X184594180Y-78789502D01*
X184704494Y-78730537D01*
X184801185Y-78651185D01*
X184825363Y-78621724D01*
X184906613Y-78688405D01*
X185060149Y-78770472D01*
X185226745Y-78821008D01*
X185399999Y-78838072D01*
X186100001Y-78838072D01*
X186273255Y-78821008D01*
X186439851Y-78770472D01*
X186593387Y-78688405D01*
X186727962Y-78577962D01*
X186838405Y-78443387D01*
X186920472Y-78289851D01*
X186971008Y-78123255D01*
X186988072Y-77950001D01*
X186988072Y-77049999D01*
X186971008Y-76876745D01*
X186920472Y-76710149D01*
X186838405Y-76556613D01*
X186779444Y-76484769D01*
X186813405Y-76443387D01*
X186895472Y-76289851D01*
X186946008Y-76123255D01*
X186963072Y-75950001D01*
X186963072Y-75049999D01*
X186946008Y-74876745D01*
X186903010Y-74735000D01*
X189410199Y-74735000D01*
X192490000Y-77814802D01*
X192490000Y-80415199D01*
X192063804Y-79989003D01*
X192040001Y-79959999D01*
X191924276Y-79865026D01*
X191792247Y-79794454D01*
X191648986Y-79750997D01*
X191537333Y-79740000D01*
X191537322Y-79740000D01*
X191500000Y-79736324D01*
X191462678Y-79740000D01*
X184064802Y-79740000D01*
X183162749Y-78837947D01*
X183464250Y-78835000D01*
X183623000Y-78676250D01*
X183623000Y-77627000D01*
X182673750Y-77627000D01*
X182515000Y-77785750D01*
X182512023Y-78187221D01*
X181560000Y-77235199D01*
X181560000Y-74337322D01*
X181563676Y-74299999D01*
X181560000Y-74262676D01*
X181560000Y-74262667D01*
X181549003Y-74151014D01*
X181505546Y-74007753D01*
X181434974Y-73875724D01*
X181412451Y-73848280D01*
X181363799Y-73788996D01*
X181363795Y-73788992D01*
X181340001Y-73759999D01*
X181311008Y-73736205D01*
X176313804Y-68739003D01*
X176290001Y-68709999D01*
X176174276Y-68615026D01*
X176042247Y-68544454D01*
X175898986Y-68500997D01*
X175787333Y-68490000D01*
X175787322Y-68490000D01*
X175750000Y-68486324D01*
X175712678Y-68490000D01*
X166203711Y-68490000D01*
X166159774Y-68446063D01*
X165990256Y-68332795D01*
X165801898Y-68254774D01*
X165601939Y-68215000D01*
X165398061Y-68215000D01*
X165198102Y-68254774D01*
X165009744Y-68332795D01*
X164840226Y-68446063D01*
X164696063Y-68590226D01*
X164683632Y-68608830D01*
X162274802Y-66200000D01*
X174261928Y-66200000D01*
X174274188Y-66324482D01*
X174310498Y-66444180D01*
X174369463Y-66554494D01*
X174448815Y-66651185D01*
X174545506Y-66730537D01*
X174655820Y-66789502D01*
X174775518Y-66825812D01*
X174900000Y-66838072D01*
X175214250Y-66835000D01*
X175373000Y-66676250D01*
X175373000Y-65627000D01*
X174423750Y-65627000D01*
X174265000Y-65785750D01*
X174261928Y-66200000D01*
X162274802Y-66200000D01*
X152063804Y-55989003D01*
X152040001Y-55959999D01*
X151924276Y-55865026D01*
X151792247Y-55794454D01*
X151648986Y-55750997D01*
X151537333Y-55740000D01*
X151537322Y-55740000D01*
X151500000Y-55736324D01*
X151462678Y-55740000D01*
X151387087Y-55740000D01*
X151375812Y-55625518D01*
X151339502Y-55505820D01*
X151336391Y-55500000D01*
X151339502Y-55494180D01*
X151375812Y-55374482D01*
X151387087Y-55260000D01*
X151935199Y-55260000D01*
X160215000Y-63539802D01*
X160215000Y-63601939D01*
X160254774Y-63801898D01*
X160332795Y-63990256D01*
X160446063Y-64159774D01*
X160590226Y-64303937D01*
X160759744Y-64417205D01*
X160948102Y-64495226D01*
X161148061Y-64535000D01*
X161351939Y-64535000D01*
X161551898Y-64495226D01*
X161740256Y-64417205D01*
X161909774Y-64303937D01*
X162053937Y-64159774D01*
X162167205Y-63990256D01*
X162245226Y-63801898D01*
X162285000Y-63601939D01*
X162285000Y-63398061D01*
X162245226Y-63198102D01*
X162167205Y-63009744D01*
X162053937Y-62840226D01*
X161909774Y-62696063D01*
X161740256Y-62582795D01*
X161551898Y-62504774D01*
X161351939Y-62465000D01*
X161289802Y-62465000D01*
X156774802Y-57950000D01*
X162261928Y-57950000D01*
X162274188Y-58074482D01*
X162310498Y-58194180D01*
X162369463Y-58304494D01*
X162448815Y-58401185D01*
X162545506Y-58480537D01*
X162655820Y-58539502D01*
X162775518Y-58575812D01*
X162900000Y-58588072D01*
X163214250Y-58585000D01*
X163373000Y-58426250D01*
X163373000Y-57377000D01*
X162423750Y-57377000D01*
X162265000Y-57535750D01*
X162261928Y-57950000D01*
X156774802Y-57950000D01*
X152813804Y-53989003D01*
X152790001Y-53959999D01*
X152674276Y-53865026D01*
X152542247Y-53794454D01*
X152398986Y-53750997D01*
X152287333Y-53740000D01*
X152287322Y-53740000D01*
X152250000Y-53736324D01*
X152212678Y-53740000D01*
X151387087Y-53740000D01*
X151375812Y-53625518D01*
X151339502Y-53505820D01*
X151336391Y-53500000D01*
X151339502Y-53494180D01*
X151375812Y-53374482D01*
X151387087Y-53260000D01*
X157685199Y-53260000D01*
X160186201Y-55761003D01*
X160209999Y-55790001D01*
X160325724Y-55884974D01*
X160457753Y-55955546D01*
X160601014Y-55999003D01*
X160712667Y-56010000D01*
X160712676Y-56010000D01*
X160749999Y-56013676D01*
X160787322Y-56010000D01*
X162295473Y-56010000D01*
X162304528Y-56039851D01*
X162380524Y-56182028D01*
X162369463Y-56195506D01*
X162310498Y-56305820D01*
X162274188Y-56425518D01*
X162261928Y-56550000D01*
X162265000Y-56964250D01*
X162423750Y-57123000D01*
X163373000Y-57123000D01*
X163373000Y-57103000D01*
X163627000Y-57103000D01*
X163627000Y-57123000D01*
X163647000Y-57123000D01*
X163647000Y-57377000D01*
X163627000Y-57377000D01*
X163627000Y-58426250D01*
X163785750Y-58585000D01*
X164100000Y-58588072D01*
X164224482Y-58575812D01*
X164344180Y-58539502D01*
X164454494Y-58480537D01*
X164551185Y-58401185D01*
X164575363Y-58371724D01*
X164656613Y-58438405D01*
X164810149Y-58520472D01*
X164976745Y-58571008D01*
X165149999Y-58588072D01*
X165850001Y-58588072D01*
X166023255Y-58571008D01*
X166189851Y-58520472D01*
X166343387Y-58438405D01*
X166477962Y-58327962D01*
X166588405Y-58193387D01*
X166670472Y-58039851D01*
X166721008Y-57873255D01*
X166738072Y-57700001D01*
X166738072Y-56799999D01*
X166721008Y-56626745D01*
X166670472Y-56460149D01*
X166588405Y-56306613D01*
X166529444Y-56234769D01*
X166563405Y-56193387D01*
X166645472Y-56039851D01*
X166696008Y-55873255D01*
X166713072Y-55700001D01*
X166713072Y-54799999D01*
X166696008Y-54626745D01*
X166645472Y-54460149D01*
X166563405Y-54306613D01*
X166452962Y-54172038D01*
X166318387Y-54061595D01*
X166164851Y-53979528D01*
X165998255Y-53928992D01*
X165825001Y-53911928D01*
X165174999Y-53911928D01*
X165001745Y-53928992D01*
X164835149Y-53979528D01*
X164681613Y-54061595D01*
X164547038Y-54172038D01*
X164475000Y-54259816D01*
X164402962Y-54172038D01*
X164268387Y-54061595D01*
X164114851Y-53979528D01*
X163948255Y-53928992D01*
X163775001Y-53911928D01*
X163124999Y-53911928D01*
X162951745Y-53928992D01*
X162785149Y-53979528D01*
X162631613Y-54061595D01*
X162497038Y-54172038D01*
X162386595Y-54306613D01*
X162304528Y-54460149D01*
X162295473Y-54490000D01*
X161064802Y-54490000D01*
X158563804Y-51989003D01*
X158540001Y-51959999D01*
X158424276Y-51865026D01*
X158292247Y-51794454D01*
X158148986Y-51750997D01*
X158037333Y-51740000D01*
X158037322Y-51740000D01*
X158000000Y-51736324D01*
X157962678Y-51740000D01*
X151387087Y-51740000D01*
X151375812Y-51625518D01*
X151339502Y-51505820D01*
X151336391Y-51500000D01*
X151339502Y-51494180D01*
X151375812Y-51374482D01*
X151387087Y-51260000D01*
X159185199Y-51260000D01*
X160686200Y-52761002D01*
X160709999Y-52790001D01*
X160825724Y-52884974D01*
X160957753Y-52955546D01*
X161101014Y-52999003D01*
X161212667Y-53010000D01*
X161212675Y-53010000D01*
X161250000Y-53013676D01*
X161287325Y-53010000D01*
X166935199Y-53010000D01*
X170490000Y-56564802D01*
X170490001Y-60712668D01*
X170486324Y-60750000D01*
X170500998Y-60898985D01*
X170544454Y-61042246D01*
X170615026Y-61174276D01*
X170676354Y-61249003D01*
X170710000Y-61290001D01*
X170738998Y-61313799D01*
X173436201Y-64011003D01*
X173459999Y-64040001D01*
X173575724Y-64134974D01*
X173707753Y-64205546D01*
X173851014Y-64249003D01*
X173962667Y-64260000D01*
X173962676Y-64260000D01*
X173999999Y-64263676D01*
X174037322Y-64260000D01*
X174295473Y-64260000D01*
X174304528Y-64289851D01*
X174380524Y-64432028D01*
X174369463Y-64445506D01*
X174310498Y-64555820D01*
X174274188Y-64675518D01*
X174261928Y-64800000D01*
X174265000Y-65214250D01*
X174423750Y-65373000D01*
X175373000Y-65373000D01*
X175373000Y-65353000D01*
X175627000Y-65353000D01*
X175627000Y-65373000D01*
X175647000Y-65373000D01*
X175647000Y-65627000D01*
X175627000Y-65627000D01*
X175627000Y-66676250D01*
X175785750Y-66835000D01*
X176100000Y-66838072D01*
X176224482Y-66825812D01*
X176344180Y-66789502D01*
X176454494Y-66730537D01*
X176551185Y-66651185D01*
X176575363Y-66621724D01*
X176656613Y-66688405D01*
X176810149Y-66770472D01*
X176976745Y-66821008D01*
X177149999Y-66838072D01*
X177850001Y-66838072D01*
X178023255Y-66821008D01*
X178189851Y-66770472D01*
X178343387Y-66688405D01*
X178477962Y-66577962D01*
X178588405Y-66443387D01*
X178670472Y-66289851D01*
X178721008Y-66123255D01*
X178738072Y-65950001D01*
X178738072Y-65049999D01*
X178721008Y-64876745D01*
X178670472Y-64710149D01*
X178588405Y-64556613D01*
X178529444Y-64484769D01*
X178563405Y-64443387D01*
X178645472Y-64289851D01*
X178696008Y-64123255D01*
X178713072Y-63950001D01*
X178713072Y-63049999D01*
X178696008Y-62876745D01*
X178645472Y-62710149D01*
X178563405Y-62556613D01*
X178452962Y-62422038D01*
X178318387Y-62311595D01*
X178164851Y-62229528D01*
X177998255Y-62178992D01*
X177825001Y-62161928D01*
X177174999Y-62161928D01*
X177001745Y-62178992D01*
X176835149Y-62229528D01*
X176681613Y-62311595D01*
X176547038Y-62422038D01*
X176475000Y-62509816D01*
X176402962Y-62422038D01*
X176268387Y-62311595D01*
X176114851Y-62229528D01*
X175948255Y-62178992D01*
X175775001Y-62161928D01*
X175124999Y-62161928D01*
X174951745Y-62178992D01*
X174785149Y-62229528D01*
X174631613Y-62311595D01*
X174497038Y-62422038D01*
X174386595Y-62556613D01*
X174304528Y-62710149D01*
X174299972Y-62725170D01*
X172010000Y-60435199D01*
X172010000Y-56287322D01*
X172013676Y-56249999D01*
X172010000Y-56212676D01*
X172010000Y-56212667D01*
X171999003Y-56101014D01*
X171955546Y-55957753D01*
X171884974Y-55825724D01*
X171790001Y-55709999D01*
X171761004Y-55686202D01*
X167813804Y-51739003D01*
X167790001Y-51709999D01*
X167674276Y-51615026D01*
X167542247Y-51544454D01*
X167398986Y-51500997D01*
X167287333Y-51490000D01*
X167287322Y-51490000D01*
X167250000Y-51486324D01*
X167212678Y-51490000D01*
X161564802Y-51490000D01*
X160063804Y-49989003D01*
X160040001Y-49959999D01*
X159924276Y-49865026D01*
X159792247Y-49794454D01*
X159648986Y-49750997D01*
X159537333Y-49740000D01*
X159537322Y-49740000D01*
X159500000Y-49736324D01*
X159462678Y-49740000D01*
X151387087Y-49740000D01*
X151375812Y-49625518D01*
X151339502Y-49505820D01*
X151280537Y-49395506D01*
X151201185Y-49298815D01*
X151104494Y-49219463D01*
X150994180Y-49160498D01*
X150874482Y-49124188D01*
X150750000Y-49111928D01*
X149160000Y-49111928D01*
X149160000Y-48660000D01*
X155467521Y-48660000D01*
X155499861Y-48663192D01*
X155532342Y-48660000D01*
X155532419Y-48660000D01*
X155567164Y-48656578D01*
X155629246Y-48650477D01*
X155629312Y-48650457D01*
X155629383Y-48650450D01*
X155692968Y-48631161D01*
X155753664Y-48612763D01*
X155753724Y-48612731D01*
X155753793Y-48612710D01*
X155812767Y-48581188D01*
X155868334Y-48551502D01*
X155868386Y-48551459D01*
X155868450Y-48551425D01*
X155920672Y-48508567D01*
X155968849Y-48469046D01*
X155968891Y-48468995D01*
X155968948Y-48468948D01*
X156012688Y-48415651D01*
X156051347Y-48368565D01*
X156051378Y-48368508D01*
X156051425Y-48368450D01*
X156084096Y-48307326D01*
X156112656Y-48253921D01*
X156112675Y-48253859D01*
X156112710Y-48253793D01*
X156132811Y-48187530D01*
X156150422Y-48129519D01*
X156150428Y-48129454D01*
X156150450Y-48129383D01*
X156157028Y-48062597D01*
X156159993Y-48032557D01*
X156159993Y-48032490D01*
X156163193Y-48000000D01*
X156160007Y-47967648D01*
X156160885Y-43774228D01*
X158124919Y-44108150D01*
G04 #@! TA.AperFunction,Conductor*
D14*
G36*
X158124919Y-44108150D02*
G01*
X160811204Y-44720878D01*
X163459127Y-45482613D01*
X166060362Y-46390957D01*
X168606876Y-47443106D01*
X171090665Y-48635754D01*
X173504011Y-49965194D01*
X175839373Y-51427273D01*
X178089501Y-53017452D01*
X180247322Y-54730730D01*
X182306169Y-56561815D01*
X184259566Y-58504947D01*
X186101467Y-60554109D01*
X187826111Y-62702899D01*
X189428108Y-64944597D01*
X190902481Y-67272241D01*
X192244611Y-69678536D01*
X193450341Y-72156031D01*
X194515881Y-74696942D01*
X195437920Y-77293360D01*
X196213594Y-79937229D01*
X196840469Y-82620258D01*
X197316596Y-85334097D01*
X197640491Y-88070287D01*
X197811143Y-90820287D01*
X197828019Y-93575543D01*
X197691067Y-96327418D01*
X197400714Y-99067374D01*
X196957866Y-101786841D01*
X196363903Y-104477354D01*
X195620678Y-107130515D01*
X194730513Y-109738036D01*
X193696172Y-112291823D01*
X192520888Y-114783888D01*
X191208329Y-117206455D01*
X189762593Y-119551962D01*
X188188166Y-121813131D01*
X186489974Y-123982885D01*
X184673330Y-126054440D01*
X182743864Y-128021374D01*
X180707620Y-129877526D01*
X178570926Y-131617128D01*
X176340457Y-133234742D01*
X174023177Y-134725320D01*
X171626299Y-136084224D01*
X169157298Y-137307212D01*
X166623875Y-138390471D01*
X164033953Y-139330616D01*
X161395574Y-140124725D01*
X158716979Y-140770318D01*
X156006523Y-141265380D01*
X153272663Y-141608369D01*
X150521488Y-141798383D01*
X149160000Y-141826319D01*
X149160000Y-138388072D01*
X150750000Y-138388072D01*
X150874482Y-138375812D01*
X150994180Y-138339502D01*
X151104494Y-138280537D01*
X151201185Y-138201185D01*
X151280537Y-138104494D01*
X151339502Y-137994180D01*
X151375812Y-137874482D01*
X151387087Y-137760000D01*
X160212678Y-137760000D01*
X160250000Y-137763676D01*
X160287322Y-137760000D01*
X160287333Y-137760000D01*
X160398986Y-137749003D01*
X160542247Y-137705546D01*
X160674276Y-137634974D01*
X160790001Y-137540001D01*
X160813804Y-137510997D01*
X161260998Y-137063803D01*
X161290001Y-137040001D01*
X161384974Y-136924276D01*
X161455546Y-136792247D01*
X161499003Y-136648986D01*
X161510000Y-136537333D01*
X161510000Y-136537325D01*
X161513676Y-136500000D01*
X161510000Y-136462675D01*
X161510000Y-130314801D01*
X162014820Y-129809981D01*
X162011928Y-130200000D01*
X162024188Y-130324482D01*
X162060498Y-130444180D01*
X162119463Y-130554494D01*
X162198815Y-130651185D01*
X162295506Y-130730537D01*
X162405820Y-130789502D01*
X162525518Y-130825812D01*
X162650000Y-130838072D01*
X162964250Y-130835000D01*
X163123000Y-130676250D01*
X163123000Y-129627000D01*
X163103000Y-129627000D01*
X163103000Y-129373000D01*
X163123000Y-129373000D01*
X163123000Y-129353000D01*
X163377000Y-129353000D01*
X163377000Y-129373000D01*
X163397000Y-129373000D01*
X163397000Y-129627000D01*
X163377000Y-129627000D01*
X163377000Y-130676250D01*
X163535750Y-130835000D01*
X163850000Y-130838072D01*
X163974482Y-130825812D01*
X164094180Y-130789502D01*
X164204494Y-130730537D01*
X164301185Y-130651185D01*
X164325363Y-130621724D01*
X164406613Y-130688405D01*
X164560149Y-130770472D01*
X164726745Y-130821008D01*
X164899999Y-130838072D01*
X165600001Y-130838072D01*
X165773255Y-130821008D01*
X165939851Y-130770472D01*
X166093387Y-130688405D01*
X166227962Y-130577962D01*
X166338405Y-130443387D01*
X166420472Y-130289851D01*
X166471008Y-130123255D01*
X166488072Y-129950001D01*
X166488072Y-129049999D01*
X166471008Y-128876745D01*
X166420472Y-128710149D01*
X166338405Y-128556613D01*
X166304444Y-128515231D01*
X166363405Y-128443387D01*
X166445472Y-128289851D01*
X166496008Y-128123255D01*
X166513072Y-127950001D01*
X166513072Y-127049999D01*
X166496008Y-126876745D01*
X166445472Y-126710149D01*
X166363405Y-126556613D01*
X166325151Y-126510000D01*
X170962678Y-126510000D01*
X171000000Y-126513676D01*
X171037322Y-126510000D01*
X171037333Y-126510000D01*
X171148986Y-126499003D01*
X171292247Y-126455546D01*
X171424276Y-126384974D01*
X171540001Y-126290001D01*
X171563804Y-126260997D01*
X172010998Y-125813803D01*
X172040001Y-125790001D01*
X172134974Y-125674276D01*
X172205546Y-125542247D01*
X172249003Y-125398986D01*
X172260000Y-125287333D01*
X172260000Y-125287325D01*
X172263676Y-125250000D01*
X172260000Y-125212675D01*
X172260000Y-122200000D01*
X174261928Y-122200000D01*
X174274188Y-122324482D01*
X174310498Y-122444180D01*
X174369463Y-122554494D01*
X174448815Y-122651185D01*
X174545506Y-122730537D01*
X174655820Y-122789502D01*
X174775518Y-122825812D01*
X174900000Y-122838072D01*
X175214250Y-122835000D01*
X175373000Y-122676250D01*
X175373000Y-121627000D01*
X174423750Y-121627000D01*
X174265000Y-121785750D01*
X174261928Y-122200000D01*
X172260000Y-122200000D01*
X172260000Y-110334801D01*
X174715000Y-112789802D01*
X174715001Y-118280386D01*
X174656613Y-118311595D01*
X174522038Y-118422038D01*
X174411595Y-118556613D01*
X174329528Y-118710149D01*
X174278992Y-118876745D01*
X174261928Y-119049999D01*
X174261928Y-119950001D01*
X174278992Y-120123255D01*
X174329528Y-120289851D01*
X174395663Y-120413581D01*
X174369463Y-120445506D01*
X174310498Y-120555820D01*
X174274188Y-120675518D01*
X174261928Y-120800000D01*
X174265000Y-121214250D01*
X174423750Y-121373000D01*
X175373000Y-121373000D01*
X175373000Y-121353000D01*
X175627000Y-121353000D01*
X175627000Y-121373000D01*
X175647000Y-121373000D01*
X175647000Y-121627000D01*
X175627000Y-121627000D01*
X175627000Y-122676250D01*
X175785750Y-122835000D01*
X176100000Y-122838072D01*
X176224482Y-122825812D01*
X176344180Y-122789502D01*
X176454494Y-122730537D01*
X176551185Y-122651185D01*
X176575363Y-122621724D01*
X176656613Y-122688405D01*
X176810149Y-122770472D01*
X176976745Y-122821008D01*
X177149999Y-122838072D01*
X177850001Y-122838072D01*
X178023255Y-122821008D01*
X178189851Y-122770472D01*
X178343387Y-122688405D01*
X178477962Y-122577962D01*
X178588405Y-122443387D01*
X178670472Y-122289851D01*
X178721008Y-122123255D01*
X178738072Y-121950001D01*
X178738072Y-121049999D01*
X178721008Y-120876745D01*
X178670472Y-120710149D01*
X178588405Y-120556613D01*
X178541944Y-120500000D01*
X178588405Y-120443387D01*
X178670472Y-120289851D01*
X178721008Y-120123255D01*
X178738072Y-119950001D01*
X178738072Y-119049999D01*
X178721008Y-118876745D01*
X178670472Y-118710149D01*
X178588405Y-118556613D01*
X178477962Y-118422038D01*
X178343387Y-118311595D01*
X178189851Y-118229528D01*
X178023255Y-118178992D01*
X177850001Y-118161928D01*
X177199999Y-118161928D01*
X177026745Y-118178992D01*
X176860149Y-118229528D01*
X176706613Y-118311595D01*
X176572038Y-118422038D01*
X176500000Y-118509816D01*
X176427962Y-118422038D01*
X176293387Y-118311595D01*
X176235000Y-118280386D01*
X176235000Y-112512323D01*
X176238676Y-112475000D01*
X176235000Y-112437677D01*
X176235000Y-112437667D01*
X176224003Y-112326014D01*
X176180546Y-112182753D01*
X176144134Y-112114632D01*
X176109974Y-112050723D01*
X176038799Y-111963997D01*
X176015001Y-111934999D01*
X175986004Y-111911202D01*
X174524802Y-110450000D01*
X182511928Y-110450000D01*
X182524188Y-110574482D01*
X182560498Y-110694180D01*
X182619463Y-110804494D01*
X182698815Y-110901185D01*
X182795506Y-110980537D01*
X182905820Y-111039502D01*
X183025518Y-111075812D01*
X183150000Y-111088072D01*
X183464250Y-111085000D01*
X183623000Y-110926250D01*
X183623000Y-109877000D01*
X182673750Y-109877000D01*
X182515000Y-110035750D01*
X182511928Y-110450000D01*
X174524802Y-110450000D01*
X172584801Y-108510000D01*
X182545473Y-108510000D01*
X182554528Y-108539851D01*
X182630524Y-108682028D01*
X182619463Y-108695506D01*
X182560498Y-108805820D01*
X182524188Y-108925518D01*
X182511928Y-109050000D01*
X182515000Y-109464250D01*
X182673750Y-109623000D01*
X183623000Y-109623000D01*
X183623000Y-109603000D01*
X183877000Y-109603000D01*
X183877000Y-109623000D01*
X183897000Y-109623000D01*
X183897000Y-109877000D01*
X183877000Y-109877000D01*
X183877000Y-110926250D01*
X184035750Y-111085000D01*
X184350000Y-111088072D01*
X184474482Y-111075812D01*
X184594180Y-111039502D01*
X184704494Y-110980537D01*
X184801185Y-110901185D01*
X184825363Y-110871724D01*
X184906613Y-110938405D01*
X185060149Y-111020472D01*
X185226745Y-111071008D01*
X185399999Y-111088072D01*
X186100001Y-111088072D01*
X186273255Y-111071008D01*
X186439851Y-111020472D01*
X186593387Y-110938405D01*
X186727962Y-110827962D01*
X186838405Y-110693387D01*
X186920472Y-110539851D01*
X186971008Y-110373255D01*
X186988072Y-110200001D01*
X186988072Y-109299999D01*
X186971008Y-109126745D01*
X186920472Y-108960149D01*
X186838405Y-108806613D01*
X186779444Y-108734769D01*
X186813405Y-108693387D01*
X186895472Y-108539851D01*
X186946008Y-108373255D01*
X186963072Y-108200001D01*
X186963072Y-107299999D01*
X186946008Y-107126745D01*
X186895472Y-106960149D01*
X186813405Y-106806613D01*
X186702962Y-106672038D01*
X186568387Y-106561595D01*
X186414851Y-106479528D01*
X186248255Y-106428992D01*
X186075001Y-106411928D01*
X185424999Y-106411928D01*
X185251745Y-106428992D01*
X185085149Y-106479528D01*
X184931613Y-106561595D01*
X184797038Y-106672038D01*
X184725000Y-106759816D01*
X184652962Y-106672038D01*
X184518387Y-106561595D01*
X184364851Y-106479528D01*
X184198255Y-106428992D01*
X184025001Y-106411928D01*
X183374999Y-106411928D01*
X183201745Y-106428992D01*
X183035149Y-106479528D01*
X182881613Y-106561595D01*
X182747038Y-106672038D01*
X182636595Y-106806613D01*
X182554528Y-106960149D01*
X182545473Y-106990000D01*
X167537333Y-106990000D01*
X167500000Y-106986323D01*
X167462667Y-106990000D01*
X167370452Y-106999082D01*
X172234719Y-95059520D01*
X176240000Y-99064802D01*
X176240001Y-103796288D01*
X176196063Y-103840226D01*
X176082795Y-104009744D01*
X176004774Y-104198102D01*
X175965000Y-104398061D01*
X175965000Y-104601939D01*
X176004774Y-104801898D01*
X176082795Y-104990256D01*
X176196063Y-105159774D01*
X176340226Y-105303937D01*
X176509744Y-105417205D01*
X176698102Y-105495226D01*
X176898061Y-105535000D01*
X176965000Y-105535000D01*
X176965000Y-105601939D01*
X177004774Y-105801898D01*
X177082795Y-105990256D01*
X177196063Y-106159774D01*
X177340226Y-106303937D01*
X177509744Y-106417205D01*
X177698102Y-106495226D01*
X177898061Y-106535000D01*
X178101939Y-106535000D01*
X178301898Y-106495226D01*
X178490256Y-106417205D01*
X178659774Y-106303937D01*
X178803937Y-106159774D01*
X178917205Y-105990256D01*
X178995226Y-105801898D01*
X179035000Y-105601939D01*
X179035000Y-105398061D01*
X178995226Y-105198102D01*
X178917205Y-105009744D01*
X178803937Y-104840226D01*
X178760000Y-104796289D01*
X178760000Y-100920146D01*
X178774002Y-100873987D01*
X178784999Y-100762334D01*
X178784999Y-100762323D01*
X178788675Y-100725001D01*
X178784999Y-100687678D01*
X178784999Y-93950000D01*
X185261928Y-93950000D01*
X185274188Y-94074482D01*
X185310498Y-94194180D01*
X185369463Y-94304494D01*
X185448815Y-94401185D01*
X185545506Y-94480537D01*
X185655820Y-94539502D01*
X185775518Y-94575812D01*
X185900000Y-94588072D01*
X186214250Y-94585000D01*
X186373000Y-94426250D01*
X186373000Y-93377000D01*
X185423750Y-93377000D01*
X185265000Y-93535750D01*
X185261928Y-93950000D01*
X178784999Y-93950000D01*
X178784999Y-91648061D01*
X182965000Y-91648061D01*
X182965000Y-91851939D01*
X183004774Y-92051898D01*
X183082795Y-92240256D01*
X183196063Y-92409774D01*
X183340226Y-92553937D01*
X183509744Y-92667205D01*
X183698102Y-92745226D01*
X183898061Y-92785000D01*
X184101939Y-92785000D01*
X184301898Y-92745226D01*
X184490256Y-92667205D01*
X184659774Y-92553937D01*
X184803937Y-92409774D01*
X184917205Y-92240256D01*
X184995226Y-92051898D01*
X185003560Y-92010000D01*
X185345473Y-92010000D01*
X185354528Y-92039851D01*
X185410803Y-92145133D01*
X185369463Y-92195506D01*
X185310498Y-92305820D01*
X185274188Y-92425518D01*
X185261928Y-92550000D01*
X185265000Y-92964250D01*
X185423750Y-93123000D01*
X186373000Y-93123000D01*
X186373000Y-93103000D01*
X186627000Y-93103000D01*
X186627000Y-93123000D01*
X186647000Y-93123000D01*
X186647000Y-93377000D01*
X186627000Y-93377000D01*
X186627000Y-94426250D01*
X186785750Y-94585000D01*
X187100000Y-94588072D01*
X187224482Y-94575812D01*
X187344180Y-94539502D01*
X187454494Y-94480537D01*
X187551185Y-94401185D01*
X187575363Y-94371724D01*
X187656613Y-94438405D01*
X187810149Y-94520472D01*
X187976745Y-94571008D01*
X188149999Y-94588072D01*
X188850001Y-94588072D01*
X189023255Y-94571008D01*
X189189851Y-94520472D01*
X189343387Y-94438405D01*
X189477962Y-94327962D01*
X189588405Y-94193387D01*
X189670472Y-94039851D01*
X189721008Y-93873255D01*
X189738072Y-93700001D01*
X189738072Y-92799999D01*
X189721008Y-92626745D01*
X189670472Y-92460149D01*
X189588405Y-92306613D01*
X189554444Y-92265231D01*
X189613405Y-92193387D01*
X189695472Y-92039851D01*
X189746008Y-91873255D01*
X189763072Y-91700001D01*
X189763072Y-90799999D01*
X189746008Y-90626745D01*
X189695472Y-90460149D01*
X189613405Y-90306613D01*
X189502962Y-90172038D01*
X189368387Y-90061595D01*
X189214851Y-89979528D01*
X189048255Y-89928992D01*
X188875001Y-89911928D01*
X188224999Y-89911928D01*
X188051745Y-89928992D01*
X187885149Y-89979528D01*
X187731613Y-90061595D01*
X187597038Y-90172038D01*
X187525000Y-90259816D01*
X187452962Y-90172038D01*
X187318387Y-90061595D01*
X187164851Y-89979528D01*
X186998255Y-89928992D01*
X186825001Y-89911928D01*
X186174999Y-89911928D01*
X186001745Y-89928992D01*
X185835149Y-89979528D01*
X185681613Y-90061595D01*
X185547038Y-90172038D01*
X185436595Y-90306613D01*
X185354528Y-90460149D01*
X185345473Y-90490000D01*
X184537325Y-90490000D01*
X184500000Y-90486324D01*
X184462675Y-90490000D01*
X184462667Y-90490000D01*
X184351014Y-90500997D01*
X184207753Y-90544454D01*
X184075724Y-90615026D01*
X183959999Y-90709999D01*
X183955895Y-90715000D01*
X183898061Y-90715000D01*
X183698102Y-90754774D01*
X183509744Y-90832795D01*
X183340226Y-90946063D01*
X183196063Y-91090226D01*
X183082795Y-91259744D01*
X183004774Y-91448102D01*
X182965000Y-91648061D01*
X178784999Y-91648061D01*
X178784999Y-89785000D01*
X178851939Y-89785000D01*
X179051898Y-89745226D01*
X179240256Y-89667205D01*
X179409774Y-89553937D01*
X179553937Y-89409774D01*
X179667205Y-89240256D01*
X179745226Y-89051898D01*
X179785000Y-88851939D01*
X179785000Y-88648061D01*
X179760985Y-88527327D01*
X179763676Y-88500001D01*
X179760000Y-88462678D01*
X179760000Y-77787325D01*
X179763676Y-77750000D01*
X179760000Y-77712675D01*
X179760000Y-77712667D01*
X179749003Y-77601014D01*
X179705546Y-77457753D01*
X179634974Y-77325724D01*
X179540001Y-77209999D01*
X179511004Y-77186202D01*
X172334801Y-70010000D01*
X175435199Y-70010000D01*
X180040001Y-74614804D01*
X180040000Y-77512677D01*
X180036324Y-77550000D01*
X180040000Y-77587322D01*
X180040000Y-77587332D01*
X180050997Y-77698985D01*
X180086870Y-77817245D01*
X180094454Y-77842246D01*
X180165026Y-77974276D01*
X180204871Y-78022826D01*
X180259999Y-78090001D01*
X180289003Y-78113804D01*
X183186200Y-81011002D01*
X183209999Y-81040001D01*
X183238997Y-81063799D01*
X183325723Y-81134974D01*
X183457753Y-81205546D01*
X183601014Y-81249003D01*
X183712667Y-81260000D01*
X183712677Y-81260000D01*
X183749999Y-81263676D01*
X183787322Y-81260000D01*
X191185199Y-81260000D01*
X191990001Y-82064803D01*
X191990000Y-107685198D01*
X187238998Y-112436201D01*
X187210000Y-112459999D01*
X187186202Y-112488997D01*
X187186201Y-112488998D01*
X187115026Y-112575724D01*
X187044454Y-112707754D01*
X187023285Y-112777543D01*
X187000998Y-112851014D01*
X186998439Y-112877000D01*
X186986324Y-113000000D01*
X186990001Y-113037332D01*
X186990000Y-119548788D01*
X180048789Y-126490000D01*
X177537322Y-126490000D01*
X177500000Y-126486324D01*
X177462677Y-126490000D01*
X177462667Y-126490000D01*
X177351014Y-126500997D01*
X177208112Y-126544345D01*
X177207753Y-126544454D01*
X177075723Y-126615026D01*
X176994728Y-126681498D01*
X176959999Y-126709999D01*
X176936201Y-126738997D01*
X171435199Y-132240000D01*
X168203711Y-132240000D01*
X168159774Y-132196063D01*
X167990256Y-132082795D01*
X167801898Y-132004774D01*
X167601939Y-131965000D01*
X167398061Y-131965000D01*
X167198102Y-132004774D01*
X167009744Y-132082795D01*
X166840226Y-132196063D01*
X166696063Y-132340226D01*
X166582795Y-132509744D01*
X166504774Y-132698102D01*
X166465000Y-132898061D01*
X166465000Y-133101939D01*
X166504774Y-133301898D01*
X166582795Y-133490256D01*
X166696063Y-133659774D01*
X166840226Y-133803937D01*
X167009744Y-133917205D01*
X167198102Y-133995226D01*
X167398061Y-134035000D01*
X167601939Y-134035000D01*
X167801898Y-133995226D01*
X167990256Y-133917205D01*
X168159774Y-133803937D01*
X168203711Y-133760000D01*
X170915199Y-133760000D01*
X170435199Y-134240000D01*
X164453711Y-134240000D01*
X164409774Y-134196063D01*
X164240256Y-134082795D01*
X164051898Y-134004774D01*
X163851939Y-133965000D01*
X163648061Y-133965000D01*
X163448102Y-134004774D01*
X163259744Y-134082795D01*
X163090226Y-134196063D01*
X162946063Y-134340226D01*
X162832795Y-134509744D01*
X162754774Y-134698102D01*
X162715000Y-134898061D01*
X162715000Y-135101939D01*
X162754774Y-135301898D01*
X162832795Y-135490256D01*
X162946063Y-135659774D01*
X163090226Y-135803937D01*
X163259744Y-135917205D01*
X163448102Y-135995226D01*
X163648061Y-136035000D01*
X163851939Y-136035000D01*
X164051898Y-135995226D01*
X164240256Y-135917205D01*
X164409774Y-135803937D01*
X164453711Y-135760000D01*
X170712678Y-135760000D01*
X170750000Y-135763676D01*
X170787322Y-135760000D01*
X170787333Y-135760000D01*
X170898986Y-135749003D01*
X171042247Y-135705546D01*
X171174276Y-135634974D01*
X171290001Y-135540001D01*
X171313804Y-135510997D01*
X178314802Y-128510000D01*
X180462678Y-128510000D01*
X180500000Y-128513676D01*
X180537322Y-128510000D01*
X180537333Y-128510000D01*
X180648986Y-128499003D01*
X180792247Y-128455546D01*
X180924276Y-128384974D01*
X181040001Y-128290001D01*
X181063804Y-128260997D01*
X188761003Y-120563799D01*
X188790001Y-120540001D01*
X188822828Y-120500001D01*
X188884974Y-120424277D01*
X188955546Y-120292247D01*
X188958527Y-120282419D01*
X188999003Y-120148986D01*
X189010000Y-120037333D01*
X189010000Y-120037324D01*
X189013676Y-120000001D01*
X189010000Y-119962678D01*
X189010000Y-113564801D01*
X193761003Y-108813799D01*
X193790001Y-108790001D01*
X193884974Y-108674276D01*
X193955546Y-108542247D01*
X193999003Y-108398986D01*
X194010000Y-108287333D01*
X194010000Y-108287323D01*
X194013676Y-108250000D01*
X194010000Y-108212677D01*
X194010000Y-77537323D01*
X194013676Y-77500000D01*
X194010000Y-77462677D01*
X194010000Y-77462667D01*
X193999003Y-77351014D01*
X193955546Y-77207753D01*
X193884974Y-77075724D01*
X193790001Y-76959999D01*
X193761004Y-76936202D01*
X190288804Y-73464003D01*
X190265001Y-73434999D01*
X190149276Y-73340026D01*
X190017247Y-73269454D01*
X189873986Y-73225997D01*
X189762333Y-73215000D01*
X189762322Y-73215000D01*
X189725000Y-73211324D01*
X189687678Y-73215000D01*
X185262325Y-73215000D01*
X185225000Y-73211324D01*
X185187675Y-73215000D01*
X185187667Y-73215000D01*
X185076014Y-73225997D01*
X184932753Y-73269454D01*
X184800724Y-73340026D01*
X184684999Y-73434999D01*
X184661201Y-73463997D01*
X183963270Y-74161928D01*
X183374999Y-74161928D01*
X183201745Y-74178992D01*
X183035149Y-74229528D01*
X182881613Y-74311595D01*
X182747038Y-74422038D01*
X182636595Y-74556613D01*
X182554528Y-74710149D01*
X182503992Y-74876745D01*
X182486928Y-75049999D01*
X182486928Y-75950001D01*
X182503992Y-76123255D01*
X182554528Y-76289851D01*
X182630524Y-76432028D01*
X182619463Y-76445506D01*
X182560498Y-76555820D01*
X182524188Y-76675518D01*
X182511928Y-76800000D01*
X182515000Y-77214250D01*
X182673750Y-77373000D01*
X183623000Y-77373000D01*
X183623000Y-77353000D01*
X183877000Y-77353000D01*
X183877000Y-77373000D01*
X183897000Y-77373000D01*
X183897000Y-77627000D01*
X183877000Y-77627000D01*
X183877000Y-78676250D01*
X184035750Y-78835000D01*
X184350000Y-78838072D01*
X184474482Y-78825812D01*
X184594180Y-78789502D01*
X184704494Y-78730537D01*
X184801185Y-78651185D01*
X184825363Y-78621724D01*
X184906613Y-78688405D01*
X185060149Y-78770472D01*
X185226745Y-78821008D01*
X185399999Y-78838072D01*
X186100001Y-78838072D01*
X186273255Y-78821008D01*
X186439851Y-78770472D01*
X186593387Y-78688405D01*
X186727962Y-78577962D01*
X186838405Y-78443387D01*
X186920472Y-78289851D01*
X186971008Y-78123255D01*
X186988072Y-77950001D01*
X186988072Y-77049999D01*
X186971008Y-76876745D01*
X186920472Y-76710149D01*
X186838405Y-76556613D01*
X186779444Y-76484769D01*
X186813405Y-76443387D01*
X186895472Y-76289851D01*
X186946008Y-76123255D01*
X186963072Y-75950001D01*
X186963072Y-75049999D01*
X186946008Y-74876745D01*
X186903010Y-74735000D01*
X189410199Y-74735000D01*
X192490000Y-77814802D01*
X192490000Y-80415199D01*
X192063804Y-79989003D01*
X192040001Y-79959999D01*
X191924276Y-79865026D01*
X191792247Y-79794454D01*
X191648986Y-79750997D01*
X191537333Y-79740000D01*
X191537322Y-79740000D01*
X191500000Y-79736324D01*
X191462678Y-79740000D01*
X184064802Y-79740000D01*
X183162749Y-78837947D01*
X183464250Y-78835000D01*
X183623000Y-78676250D01*
X183623000Y-77627000D01*
X182673750Y-77627000D01*
X182515000Y-77785750D01*
X182512023Y-78187221D01*
X181560000Y-77235199D01*
X181560000Y-74337322D01*
X181563676Y-74299999D01*
X181560000Y-74262676D01*
X181560000Y-74262667D01*
X181549003Y-74151014D01*
X181505546Y-74007753D01*
X181434974Y-73875724D01*
X181412451Y-73848280D01*
X181363799Y-73788996D01*
X181363795Y-73788992D01*
X181340001Y-73759999D01*
X181311008Y-73736205D01*
X176313804Y-68739003D01*
X176290001Y-68709999D01*
X176174276Y-68615026D01*
X176042247Y-68544454D01*
X175898986Y-68500997D01*
X175787333Y-68490000D01*
X175787322Y-68490000D01*
X175750000Y-68486324D01*
X175712678Y-68490000D01*
X166203711Y-68490000D01*
X166159774Y-68446063D01*
X165990256Y-68332795D01*
X165801898Y-68254774D01*
X165601939Y-68215000D01*
X165398061Y-68215000D01*
X165198102Y-68254774D01*
X165009744Y-68332795D01*
X164840226Y-68446063D01*
X164696063Y-68590226D01*
X164683632Y-68608830D01*
X162274802Y-66200000D01*
X174261928Y-66200000D01*
X174274188Y-66324482D01*
X174310498Y-66444180D01*
X174369463Y-66554494D01*
X174448815Y-66651185D01*
X174545506Y-66730537D01*
X174655820Y-66789502D01*
X174775518Y-66825812D01*
X174900000Y-66838072D01*
X175214250Y-66835000D01*
X175373000Y-66676250D01*
X175373000Y-65627000D01*
X174423750Y-65627000D01*
X174265000Y-65785750D01*
X174261928Y-66200000D01*
X162274802Y-66200000D01*
X152063804Y-55989003D01*
X152040001Y-55959999D01*
X151924276Y-55865026D01*
X151792247Y-55794454D01*
X151648986Y-55750997D01*
X151537333Y-55740000D01*
X151537322Y-55740000D01*
X151500000Y-55736324D01*
X151462678Y-55740000D01*
X151387087Y-55740000D01*
X151375812Y-55625518D01*
X151339502Y-55505820D01*
X151336391Y-55500000D01*
X151339502Y-55494180D01*
X151375812Y-55374482D01*
X151387087Y-55260000D01*
X151935199Y-55260000D01*
X160215000Y-63539802D01*
X160215000Y-63601939D01*
X160254774Y-63801898D01*
X160332795Y-63990256D01*
X160446063Y-64159774D01*
X160590226Y-64303937D01*
X160759744Y-64417205D01*
X160948102Y-64495226D01*
X161148061Y-64535000D01*
X161351939Y-64535000D01*
X161551898Y-64495226D01*
X161740256Y-64417205D01*
X161909774Y-64303937D01*
X162053937Y-64159774D01*
X162167205Y-63990256D01*
X162245226Y-63801898D01*
X162285000Y-63601939D01*
X162285000Y-63398061D01*
X162245226Y-63198102D01*
X162167205Y-63009744D01*
X162053937Y-62840226D01*
X161909774Y-62696063D01*
X161740256Y-62582795D01*
X161551898Y-62504774D01*
X161351939Y-62465000D01*
X161289802Y-62465000D01*
X156774802Y-57950000D01*
X162261928Y-57950000D01*
X162274188Y-58074482D01*
X162310498Y-58194180D01*
X162369463Y-58304494D01*
X162448815Y-58401185D01*
X162545506Y-58480537D01*
X162655820Y-58539502D01*
X162775518Y-58575812D01*
X162900000Y-58588072D01*
X163214250Y-58585000D01*
X163373000Y-58426250D01*
X163373000Y-57377000D01*
X162423750Y-57377000D01*
X162265000Y-57535750D01*
X162261928Y-57950000D01*
X156774802Y-57950000D01*
X152813804Y-53989003D01*
X152790001Y-53959999D01*
X152674276Y-53865026D01*
X152542247Y-53794454D01*
X152398986Y-53750997D01*
X152287333Y-53740000D01*
X152287322Y-53740000D01*
X152250000Y-53736324D01*
X152212678Y-53740000D01*
X151387087Y-53740000D01*
X151375812Y-53625518D01*
X151339502Y-53505820D01*
X151336391Y-53500000D01*
X151339502Y-53494180D01*
X151375812Y-53374482D01*
X151387087Y-53260000D01*
X157685199Y-53260000D01*
X160186201Y-55761003D01*
X160209999Y-55790001D01*
X160325724Y-55884974D01*
X160457753Y-55955546D01*
X160601014Y-55999003D01*
X160712667Y-56010000D01*
X160712676Y-56010000D01*
X160749999Y-56013676D01*
X160787322Y-56010000D01*
X162295473Y-56010000D01*
X162304528Y-56039851D01*
X162380524Y-56182028D01*
X162369463Y-56195506D01*
X162310498Y-56305820D01*
X162274188Y-56425518D01*
X162261928Y-56550000D01*
X162265000Y-56964250D01*
X162423750Y-57123000D01*
X163373000Y-57123000D01*
X163373000Y-57103000D01*
X163627000Y-57103000D01*
X163627000Y-57123000D01*
X163647000Y-57123000D01*
X163647000Y-57377000D01*
X163627000Y-57377000D01*
X163627000Y-58426250D01*
X163785750Y-58585000D01*
X164100000Y-58588072D01*
X164224482Y-58575812D01*
X164344180Y-58539502D01*
X164454494Y-58480537D01*
X164551185Y-58401185D01*
X164575363Y-58371724D01*
X164656613Y-58438405D01*
X164810149Y-58520472D01*
X164976745Y-58571008D01*
X165149999Y-58588072D01*
X165850001Y-58588072D01*
X166023255Y-58571008D01*
X166189851Y-58520472D01*
X166343387Y-58438405D01*
X166477962Y-58327962D01*
X166588405Y-58193387D01*
X166670472Y-58039851D01*
X166721008Y-57873255D01*
X166738072Y-57700001D01*
X166738072Y-56799999D01*
X166721008Y-56626745D01*
X166670472Y-56460149D01*
X166588405Y-56306613D01*
X166529444Y-56234769D01*
X166563405Y-56193387D01*
X166645472Y-56039851D01*
X166696008Y-55873255D01*
X166713072Y-55700001D01*
X166713072Y-54799999D01*
X166696008Y-54626745D01*
X166645472Y-54460149D01*
X166563405Y-54306613D01*
X166452962Y-54172038D01*
X166318387Y-54061595D01*
X166164851Y-53979528D01*
X165998255Y-53928992D01*
X165825001Y-53911928D01*
X165174999Y-53911928D01*
X165001745Y-53928992D01*
X164835149Y-53979528D01*
X164681613Y-54061595D01*
X164547038Y-54172038D01*
X164475000Y-54259816D01*
X164402962Y-54172038D01*
X164268387Y-54061595D01*
X164114851Y-53979528D01*
X163948255Y-53928992D01*
X163775001Y-53911928D01*
X163124999Y-53911928D01*
X162951745Y-53928992D01*
X162785149Y-53979528D01*
X162631613Y-54061595D01*
X162497038Y-54172038D01*
X162386595Y-54306613D01*
X162304528Y-54460149D01*
X162295473Y-54490000D01*
X161064802Y-54490000D01*
X158563804Y-51989003D01*
X158540001Y-51959999D01*
X158424276Y-51865026D01*
X158292247Y-51794454D01*
X158148986Y-51750997D01*
X158037333Y-51740000D01*
X158037322Y-51740000D01*
X158000000Y-51736324D01*
X157962678Y-51740000D01*
X151387087Y-51740000D01*
X151375812Y-51625518D01*
X151339502Y-51505820D01*
X151336391Y-51500000D01*
X151339502Y-51494180D01*
X151375812Y-51374482D01*
X151387087Y-51260000D01*
X159185199Y-51260000D01*
X160686200Y-52761002D01*
X160709999Y-52790001D01*
X160825724Y-52884974D01*
X160957753Y-52955546D01*
X161101014Y-52999003D01*
X161212667Y-53010000D01*
X161212675Y-53010000D01*
X161250000Y-53013676D01*
X161287325Y-53010000D01*
X166935199Y-53010000D01*
X170490000Y-56564802D01*
X170490001Y-60712668D01*
X170486324Y-60750000D01*
X170500998Y-60898985D01*
X170544454Y-61042246D01*
X170615026Y-61174276D01*
X170676354Y-61249003D01*
X170710000Y-61290001D01*
X170738998Y-61313799D01*
X173436201Y-64011003D01*
X173459999Y-64040001D01*
X173575724Y-64134974D01*
X173707753Y-64205546D01*
X173851014Y-64249003D01*
X173962667Y-64260000D01*
X173962676Y-64260000D01*
X173999999Y-64263676D01*
X174037322Y-64260000D01*
X174295473Y-64260000D01*
X174304528Y-64289851D01*
X174380524Y-64432028D01*
X174369463Y-64445506D01*
X174310498Y-64555820D01*
X174274188Y-64675518D01*
X174261928Y-64800000D01*
X174265000Y-65214250D01*
X174423750Y-65373000D01*
X175373000Y-65373000D01*
X175373000Y-65353000D01*
X175627000Y-65353000D01*
X175627000Y-65373000D01*
X175647000Y-65373000D01*
X175647000Y-65627000D01*
X175627000Y-65627000D01*
X175627000Y-66676250D01*
X175785750Y-66835000D01*
X176100000Y-66838072D01*
X176224482Y-66825812D01*
X176344180Y-66789502D01*
X176454494Y-66730537D01*
X176551185Y-66651185D01*
X176575363Y-66621724D01*
X176656613Y-66688405D01*
X176810149Y-66770472D01*
X176976745Y-66821008D01*
X177149999Y-66838072D01*
X177850001Y-66838072D01*
X178023255Y-66821008D01*
X178189851Y-66770472D01*
X178343387Y-66688405D01*
X178477962Y-66577962D01*
X178588405Y-66443387D01*
X178670472Y-66289851D01*
X178721008Y-66123255D01*
X178738072Y-65950001D01*
X178738072Y-65049999D01*
X178721008Y-64876745D01*
X178670472Y-64710149D01*
X178588405Y-64556613D01*
X178529444Y-64484769D01*
X178563405Y-64443387D01*
X178645472Y-64289851D01*
X178696008Y-64123255D01*
X178713072Y-63950001D01*
X178713072Y-63049999D01*
X178696008Y-62876745D01*
X178645472Y-62710149D01*
X178563405Y-62556613D01*
X178452962Y-62422038D01*
X178318387Y-62311595D01*
X178164851Y-62229528D01*
X177998255Y-62178992D01*
X177825001Y-62161928D01*
X177174999Y-62161928D01*
X177001745Y-62178992D01*
X176835149Y-62229528D01*
X176681613Y-62311595D01*
X176547038Y-62422038D01*
X176475000Y-62509816D01*
X176402962Y-62422038D01*
X176268387Y-62311595D01*
X176114851Y-62229528D01*
X175948255Y-62178992D01*
X175775001Y-62161928D01*
X175124999Y-62161928D01*
X174951745Y-62178992D01*
X174785149Y-62229528D01*
X174631613Y-62311595D01*
X174497038Y-62422038D01*
X174386595Y-62556613D01*
X174304528Y-62710149D01*
X174299972Y-62725170D01*
X172010000Y-60435199D01*
X172010000Y-56287322D01*
X172013676Y-56249999D01*
X172010000Y-56212676D01*
X172010000Y-56212667D01*
X171999003Y-56101014D01*
X171955546Y-55957753D01*
X171884974Y-55825724D01*
X171790001Y-55709999D01*
X171761004Y-55686202D01*
X167813804Y-51739003D01*
X167790001Y-51709999D01*
X167674276Y-51615026D01*
X167542247Y-51544454D01*
X167398986Y-51500997D01*
X167287333Y-51490000D01*
X167287322Y-51490000D01*
X167250000Y-51486324D01*
X167212678Y-51490000D01*
X161564802Y-51490000D01*
X160063804Y-49989003D01*
X160040001Y-49959999D01*
X159924276Y-49865026D01*
X159792247Y-49794454D01*
X159648986Y-49750997D01*
X159537333Y-49740000D01*
X159537322Y-49740000D01*
X159500000Y-49736324D01*
X159462678Y-49740000D01*
X151387087Y-49740000D01*
X151375812Y-49625518D01*
X151339502Y-49505820D01*
X151280537Y-49395506D01*
X151201185Y-49298815D01*
X151104494Y-49219463D01*
X150994180Y-49160498D01*
X150874482Y-49124188D01*
X150750000Y-49111928D01*
X149160000Y-49111928D01*
X149160000Y-48660000D01*
X155467521Y-48660000D01*
X155499861Y-48663192D01*
X155532342Y-48660000D01*
X155532419Y-48660000D01*
X155567164Y-48656578D01*
X155629246Y-48650477D01*
X155629312Y-48650457D01*
X155629383Y-48650450D01*
X155692968Y-48631161D01*
X155753664Y-48612763D01*
X155753724Y-48612731D01*
X155753793Y-48612710D01*
X155812767Y-48581188D01*
X155868334Y-48551502D01*
X155868386Y-48551459D01*
X155868450Y-48551425D01*
X155920672Y-48508567D01*
X155968849Y-48469046D01*
X155968891Y-48468995D01*
X155968948Y-48468948D01*
X156012688Y-48415651D01*
X156051347Y-48368565D01*
X156051378Y-48368508D01*
X156051425Y-48368450D01*
X156084096Y-48307326D01*
X156112656Y-48253921D01*
X156112675Y-48253859D01*
X156112710Y-48253793D01*
X156132811Y-48187530D01*
X156150422Y-48129519D01*
X156150428Y-48129454D01*
X156150450Y-48129383D01*
X156157028Y-48062597D01*
X156159993Y-48032557D01*
X156159993Y-48032490D01*
X156163193Y-48000000D01*
X156160007Y-47967648D01*
X156160885Y-43774228D01*
X158124919Y-44108150D01*
G37*
G04 #@! TD.AperFunction*
D13*
X154435199Y-130240000D02*
X151387087Y-130240000D01*
X151375812Y-130125518D01*
X151339502Y-130005820D01*
X151336391Y-130000000D01*
X151339502Y-129994180D01*
X151375812Y-129874482D01*
X151388072Y-129750000D01*
X151385000Y-129285750D01*
X151226250Y-129127000D01*
X149877000Y-129127000D01*
X149877000Y-129147000D01*
X149623000Y-129147000D01*
X149623000Y-129127000D01*
X149603000Y-129127000D01*
X149603000Y-128873000D01*
X149623000Y-128873000D01*
X149623000Y-128853000D01*
X149877000Y-128853000D01*
X149877000Y-128873000D01*
X151226250Y-128873000D01*
X151385000Y-128714250D01*
X151385359Y-128660000D01*
X156015199Y-128660000D01*
X154435199Y-130240000D01*
G04 #@! TA.AperFunction,Conductor*
D14*
G36*
X154435199Y-130240000D02*
G01*
X151387087Y-130240000D01*
X151375812Y-130125518D01*
X151339502Y-130005820D01*
X151336391Y-130000000D01*
X151339502Y-129994180D01*
X151375812Y-129874482D01*
X151388072Y-129750000D01*
X151385000Y-129285750D01*
X151226250Y-129127000D01*
X149877000Y-129127000D01*
X149877000Y-129147000D01*
X149623000Y-129147000D01*
X149623000Y-129127000D01*
X149603000Y-129127000D01*
X149603000Y-128873000D01*
X149623000Y-128873000D01*
X149623000Y-128853000D01*
X149877000Y-128853000D01*
X149877000Y-128873000D01*
X151226250Y-128873000D01*
X151385000Y-128714250D01*
X151385359Y-128660000D01*
X156015199Y-128660000D01*
X154435199Y-130240000D01*
G37*
G04 #@! TD.AperFunction*
D13*
X170740001Y-110064803D02*
X170740000Y-124935199D01*
X170685199Y-124990000D01*
X163834801Y-124990000D01*
X166261004Y-122563798D01*
X166290001Y-122540001D01*
X166384974Y-122424276D01*
X166455546Y-122292247D01*
X166499003Y-122148986D01*
X166510000Y-122037333D01*
X166510000Y-122037323D01*
X166513676Y-122000000D01*
X166510000Y-121962677D01*
X166510000Y-114039250D01*
X166623000Y-113926250D01*
X166623000Y-112877000D01*
X166603000Y-112877000D01*
X166603000Y-112623000D01*
X166623000Y-112623000D01*
X166623000Y-112603000D01*
X166877000Y-112603000D01*
X166877000Y-112623000D01*
X166897000Y-112623000D01*
X166897000Y-112877000D01*
X166877000Y-112877000D01*
X166877000Y-113926250D01*
X167035750Y-114085000D01*
X167350000Y-114088072D01*
X167474482Y-114075812D01*
X167594180Y-114039502D01*
X167704494Y-113980537D01*
X167801185Y-113901185D01*
X167825363Y-113871724D01*
X167906613Y-113938405D01*
X168060149Y-114020472D01*
X168226745Y-114071008D01*
X168399999Y-114088072D01*
X169100001Y-114088072D01*
X169273255Y-114071008D01*
X169439851Y-114020472D01*
X169593387Y-113938405D01*
X169727962Y-113827962D01*
X169838405Y-113693387D01*
X169920472Y-113539851D01*
X169971008Y-113373255D01*
X169988072Y-113200001D01*
X169988072Y-112299999D01*
X169971008Y-112126745D01*
X169920472Y-111960149D01*
X169838405Y-111806613D01*
X169791944Y-111750000D01*
X169838405Y-111693387D01*
X169920472Y-111539851D01*
X169971008Y-111373255D01*
X169988072Y-111200001D01*
X169988072Y-110299999D01*
X169971008Y-110126745D01*
X169920472Y-109960149D01*
X169838405Y-109806613D01*
X169800151Y-109760000D01*
X170435199Y-109760000D01*
X170740001Y-110064803D01*
G04 #@! TA.AperFunction,Conductor*
D14*
G36*
X170740001Y-110064803D02*
G01*
X170740000Y-124935199D01*
X170685199Y-124990000D01*
X163834801Y-124990000D01*
X166261004Y-122563798D01*
X166290001Y-122540001D01*
X166384974Y-122424276D01*
X166455546Y-122292247D01*
X166499003Y-122148986D01*
X166510000Y-122037333D01*
X166510000Y-122037323D01*
X166513676Y-122000000D01*
X166510000Y-121962677D01*
X166510000Y-114039250D01*
X166623000Y-113926250D01*
X166623000Y-112877000D01*
X166603000Y-112877000D01*
X166603000Y-112623000D01*
X166623000Y-112623000D01*
X166623000Y-112603000D01*
X166877000Y-112603000D01*
X166877000Y-112623000D01*
X166897000Y-112623000D01*
X166897000Y-112877000D01*
X166877000Y-112877000D01*
X166877000Y-113926250D01*
X167035750Y-114085000D01*
X167350000Y-114088072D01*
X167474482Y-114075812D01*
X167594180Y-114039502D01*
X167704494Y-113980537D01*
X167801185Y-113901185D01*
X167825363Y-113871724D01*
X167906613Y-113938405D01*
X168060149Y-114020472D01*
X168226745Y-114071008D01*
X168399999Y-114088072D01*
X169100001Y-114088072D01*
X169273255Y-114071008D01*
X169439851Y-114020472D01*
X169593387Y-113938405D01*
X169727962Y-113827962D01*
X169838405Y-113693387D01*
X169920472Y-113539851D01*
X169971008Y-113373255D01*
X169988072Y-113200001D01*
X169988072Y-112299999D01*
X169971008Y-112126745D01*
X169920472Y-111960149D01*
X169838405Y-111806613D01*
X169791944Y-111750000D01*
X169838405Y-111693387D01*
X169920472Y-111539851D01*
X169971008Y-111373255D01*
X169988072Y-111200001D01*
X169988072Y-110299999D01*
X169971008Y-110126745D01*
X169920472Y-109960149D01*
X169838405Y-109806613D01*
X169800151Y-109760000D01*
X170435199Y-109760000D01*
X170740001Y-110064803D01*
G37*
G04 #@! TD.AperFunction*
D13*
X177264999Y-77839802D02*
X177265000Y-97940198D01*
X174127002Y-94802201D01*
X174127002Y-94676252D01*
X174285750Y-94835000D01*
X174600000Y-94838072D01*
X174724482Y-94825812D01*
X174844180Y-94789502D01*
X174954494Y-94730537D01*
X175051185Y-94651185D01*
X175075363Y-94621724D01*
X175156613Y-94688405D01*
X175310149Y-94770472D01*
X175476745Y-94821008D01*
X175649999Y-94838072D01*
X176350001Y-94838072D01*
X176523255Y-94821008D01*
X176689851Y-94770472D01*
X176843387Y-94688405D01*
X176977962Y-94577962D01*
X177088405Y-94443387D01*
X177170472Y-94289851D01*
X177221008Y-94123255D01*
X177238072Y-93950001D01*
X177238072Y-93049999D01*
X177221008Y-92876745D01*
X177170472Y-92710149D01*
X177088405Y-92556613D01*
X177054444Y-92515231D01*
X177113405Y-92443387D01*
X177195472Y-92289851D01*
X177246008Y-92123255D01*
X177263072Y-91950001D01*
X177263072Y-91049999D01*
X177246008Y-90876745D01*
X177195472Y-90710149D01*
X177113405Y-90556613D01*
X177002962Y-90422038D01*
X176868387Y-90311595D01*
X176714851Y-90229528D01*
X176548255Y-90178992D01*
X176375001Y-90161928D01*
X175724999Y-90161928D01*
X175551745Y-90178992D01*
X175385149Y-90229528D01*
X175231613Y-90311595D01*
X175097038Y-90422038D01*
X175025000Y-90509816D01*
X174952962Y-90422038D01*
X174818387Y-90311595D01*
X174782427Y-90292374D01*
X175289802Y-89785000D01*
X175351939Y-89785000D01*
X175551898Y-89745226D01*
X175740256Y-89667205D01*
X175909774Y-89553937D01*
X176053937Y-89409774D01*
X176167205Y-89240256D01*
X176245226Y-89051898D01*
X176285000Y-88851939D01*
X176285000Y-88648061D01*
X176245226Y-88448102D01*
X176167205Y-88259744D01*
X176053937Y-88090226D01*
X175909774Y-87946063D01*
X175740256Y-87832795D01*
X175551898Y-87754774D01*
X175351939Y-87715000D01*
X175148061Y-87715000D01*
X174948102Y-87754774D01*
X174759744Y-87832795D01*
X174590226Y-87946063D01*
X174446063Y-88090226D01*
X174332795Y-88259744D01*
X174254774Y-88448102D01*
X174215000Y-88648061D01*
X174215000Y-88710198D01*
X173239003Y-89686196D01*
X173209999Y-89709999D01*
X173154871Y-89777174D01*
X173115026Y-89825724D01*
X173085186Y-89881550D01*
X173059990Y-89928689D01*
X173059990Y-73634792D01*
X177264999Y-77839802D01*
G04 #@! TA.AperFunction,Conductor*
D14*
G36*
X177264999Y-77839802D02*
G01*
X177265000Y-97940198D01*
X174127002Y-94802201D01*
X174127002Y-94676252D01*
X174285750Y-94835000D01*
X174600000Y-94838072D01*
X174724482Y-94825812D01*
X174844180Y-94789502D01*
X174954494Y-94730537D01*
X175051185Y-94651185D01*
X175075363Y-94621724D01*
X175156613Y-94688405D01*
X175310149Y-94770472D01*
X175476745Y-94821008D01*
X175649999Y-94838072D01*
X176350001Y-94838072D01*
X176523255Y-94821008D01*
X176689851Y-94770472D01*
X176843387Y-94688405D01*
X176977962Y-94577962D01*
X177088405Y-94443387D01*
X177170472Y-94289851D01*
X177221008Y-94123255D01*
X177238072Y-93950001D01*
X177238072Y-93049999D01*
X177221008Y-92876745D01*
X177170472Y-92710149D01*
X177088405Y-92556613D01*
X177054444Y-92515231D01*
X177113405Y-92443387D01*
X177195472Y-92289851D01*
X177246008Y-92123255D01*
X177263072Y-91950001D01*
X177263072Y-91049999D01*
X177246008Y-90876745D01*
X177195472Y-90710149D01*
X177113405Y-90556613D01*
X177002962Y-90422038D01*
X176868387Y-90311595D01*
X176714851Y-90229528D01*
X176548255Y-90178992D01*
X176375001Y-90161928D01*
X175724999Y-90161928D01*
X175551745Y-90178992D01*
X175385149Y-90229528D01*
X175231613Y-90311595D01*
X175097038Y-90422038D01*
X175025000Y-90509816D01*
X174952962Y-90422038D01*
X174818387Y-90311595D01*
X174782427Y-90292374D01*
X175289802Y-89785000D01*
X175351939Y-89785000D01*
X175551898Y-89745226D01*
X175740256Y-89667205D01*
X175909774Y-89553937D01*
X176053937Y-89409774D01*
X176167205Y-89240256D01*
X176245226Y-89051898D01*
X176285000Y-88851939D01*
X176285000Y-88648061D01*
X176245226Y-88448102D01*
X176167205Y-88259744D01*
X176053937Y-88090226D01*
X175909774Y-87946063D01*
X175740256Y-87832795D01*
X175551898Y-87754774D01*
X175351939Y-87715000D01*
X175148061Y-87715000D01*
X174948102Y-87754774D01*
X174759744Y-87832795D01*
X174590226Y-87946063D01*
X174446063Y-88090226D01*
X174332795Y-88259744D01*
X174254774Y-88448102D01*
X174215000Y-88648061D01*
X174215000Y-88710198D01*
X173239003Y-89686196D01*
X173209999Y-89709999D01*
X173154871Y-89777174D01*
X173115026Y-89825724D01*
X173085186Y-89881550D01*
X173059990Y-89928689D01*
X173059990Y-73634792D01*
X177264999Y-77839802D01*
G37*
G04 #@! TD.AperFunction*
D13*
X174127000Y-93373000D02*
X174147000Y-93373000D01*
X174147000Y-93627000D01*
X174127000Y-93627000D01*
X174127000Y-93647000D01*
X173873000Y-93647000D01*
X173873000Y-93627000D01*
X173853000Y-93627000D01*
X173853000Y-93373000D01*
X173873000Y-93373000D01*
X173873000Y-93353000D01*
X174127000Y-93353000D01*
X174127000Y-93373000D01*
G04 #@! TA.AperFunction,Conductor*
D14*
G36*
X174127000Y-93373000D02*
G01*
X174147000Y-93373000D01*
X174147000Y-93627000D01*
X174127000Y-93627000D01*
X174127000Y-93647000D01*
X173873000Y-93647000D01*
X173873000Y-93627000D01*
X173853000Y-93627000D01*
X173853000Y-93373000D01*
X173873000Y-93373000D01*
X173873000Y-93353000D01*
X174127000Y-93353000D01*
X174127000Y-93373000D01*
G37*
G04 #@! TD.AperFunction*
D13*
X171539990Y-72751203D02*
X171539991Y-88105436D01*
X166114275Y-75584554D01*
X166150000Y-75588072D01*
X166464250Y-75585000D01*
X166623000Y-75426250D01*
X166623000Y-74377000D01*
X165673750Y-74377000D01*
X165568835Y-74481915D01*
X164875593Y-73280295D01*
X165051898Y-73245226D01*
X165240256Y-73167205D01*
X165409774Y-73053937D01*
X165453711Y-73010000D01*
X165570473Y-73010000D01*
X165579528Y-73039851D01*
X165645663Y-73163581D01*
X165619463Y-73195506D01*
X165560498Y-73305820D01*
X165524188Y-73425518D01*
X165511928Y-73550000D01*
X165515000Y-73964250D01*
X165673750Y-74123000D01*
X166623000Y-74123000D01*
X166623000Y-74103000D01*
X166877000Y-74103000D01*
X166877000Y-74123000D01*
X166897000Y-74123000D01*
X166897000Y-74377000D01*
X166877000Y-74377000D01*
X166877000Y-75426250D01*
X167035750Y-75585000D01*
X167350000Y-75588072D01*
X167474482Y-75575812D01*
X167594180Y-75539502D01*
X167704494Y-75480537D01*
X167801185Y-75401185D01*
X167825363Y-75371724D01*
X167906613Y-75438405D01*
X168060149Y-75520472D01*
X168226745Y-75571008D01*
X168399999Y-75588072D01*
X169100001Y-75588072D01*
X169273255Y-75571008D01*
X169439851Y-75520472D01*
X169593387Y-75438405D01*
X169727962Y-75327962D01*
X169838405Y-75193387D01*
X169920472Y-75039851D01*
X169971008Y-74873255D01*
X169988072Y-74700001D01*
X169988072Y-73799999D01*
X169971008Y-73626745D01*
X169920472Y-73460149D01*
X169838405Y-73306613D01*
X169791944Y-73250000D01*
X169838405Y-73193387D01*
X169920472Y-73039851D01*
X169971008Y-72873255D01*
X169988072Y-72700001D01*
X169988072Y-71984990D01*
X170773779Y-71984990D01*
X171539990Y-72751203D01*
G04 #@! TA.AperFunction,Conductor*
D14*
G36*
X171539990Y-72751203D02*
G01*
X171539991Y-88105436D01*
X166114275Y-75584554D01*
X166150000Y-75588072D01*
X166464250Y-75585000D01*
X166623000Y-75426250D01*
X166623000Y-74377000D01*
X165673750Y-74377000D01*
X165568835Y-74481915D01*
X164875593Y-73280295D01*
X165051898Y-73245226D01*
X165240256Y-73167205D01*
X165409774Y-73053937D01*
X165453711Y-73010000D01*
X165570473Y-73010000D01*
X165579528Y-73039851D01*
X165645663Y-73163581D01*
X165619463Y-73195506D01*
X165560498Y-73305820D01*
X165524188Y-73425518D01*
X165511928Y-73550000D01*
X165515000Y-73964250D01*
X165673750Y-74123000D01*
X166623000Y-74123000D01*
X166623000Y-74103000D01*
X166877000Y-74103000D01*
X166877000Y-74123000D01*
X166897000Y-74123000D01*
X166897000Y-74377000D01*
X166877000Y-74377000D01*
X166877000Y-75426250D01*
X167035750Y-75585000D01*
X167350000Y-75588072D01*
X167474482Y-75575812D01*
X167594180Y-75539502D01*
X167704494Y-75480537D01*
X167801185Y-75401185D01*
X167825363Y-75371724D01*
X167906613Y-75438405D01*
X168060149Y-75520472D01*
X168226745Y-75571008D01*
X168399999Y-75588072D01*
X169100001Y-75588072D01*
X169273255Y-75571008D01*
X169439851Y-75520472D01*
X169593387Y-75438405D01*
X169727962Y-75327962D01*
X169838405Y-75193387D01*
X169920472Y-75039851D01*
X169971008Y-74873255D01*
X169988072Y-74700001D01*
X169988072Y-73799999D01*
X169971008Y-73626745D01*
X169920472Y-73460149D01*
X169838405Y-73306613D01*
X169791944Y-73250000D01*
X169838405Y-73193387D01*
X169920472Y-73039851D01*
X169971008Y-72873255D01*
X169988072Y-72700001D01*
X169988072Y-71984990D01*
X170773779Y-71984990D01*
X171539990Y-72751203D01*
G37*
G04 #@! TD.AperFunction*
G04 #@! TD*
M02*
