G04 #@! TF.GenerationSoftware,KiCad,Pcbnew,5.1.10-88a1d61d58~88~ubuntu20.04.1*
G04 #@! TF.CreationDate,2021-06-07T13:22:34+01:00*
G04 #@! TF.ProjectId,wings,77696e67-732e-46b6-9963-61645f706362,rev?*
G04 #@! TF.SameCoordinates,Original*
G04 #@! TF.FileFunction,Legend,Top*
G04 #@! TF.FilePolarity,Positive*
%FSLAX46Y46*%
G04 Gerber Fmt 4.6, Leading zero omitted, Abs format (unit mm)*
G04 Created by KiCad (PCBNEW 5.1.10-88a1d61d58~88~ubuntu20.04.1) date 2021-06-07 13:22:34*
%MOMM*%
%LPD*%
G01*
G04 APERTURE LIST*
%ADD10C,0.037500*%
%ADD11C,0.120000*%
%ADD12C,0.150000*%
G04 APERTURE END LIST*
D10*
X151557142Y-128061904D02*
X151557142Y-128633333D01*
X151550000Y-128747619D01*
X151535714Y-128823809D01*
X151514285Y-128861904D01*
X151500000Y-128861904D01*
X151700000Y-128861904D02*
X151628571Y-128861904D01*
X151628571Y-128061904D01*
X151835714Y-128785714D02*
X151828571Y-128823809D01*
X151807142Y-128861904D01*
X151792857Y-128861904D01*
X151771428Y-128823809D01*
X151757142Y-128747619D01*
X151750000Y-128671428D01*
X151742857Y-128519047D01*
X151742857Y-128404761D01*
X151750000Y-128252380D01*
X151757142Y-128176190D01*
X151771428Y-128100000D01*
X151792857Y-128061904D01*
X151807142Y-128061904D01*
X151828571Y-128100000D01*
X151835714Y-128138095D01*
X151942857Y-128061904D02*
X151942857Y-128633333D01*
X151935714Y-128747619D01*
X151921428Y-128823809D01*
X151900000Y-128861904D01*
X151885714Y-128861904D01*
X152085714Y-128861904D02*
X152014285Y-128861904D01*
X152014285Y-128061904D01*
X152221428Y-128785714D02*
X152214285Y-128823809D01*
X152192857Y-128861904D01*
X152178571Y-128861904D01*
X152157142Y-128823809D01*
X152142857Y-128747619D01*
X152135714Y-128671428D01*
X152128571Y-128519047D01*
X152128571Y-128404761D01*
X152135714Y-128252380D01*
X152142857Y-128176190D01*
X152157142Y-128100000D01*
X152178571Y-128061904D01*
X152192857Y-128061904D01*
X152214285Y-128100000D01*
X152221428Y-128138095D01*
X152328571Y-128061904D02*
X152328571Y-128633333D01*
X152321428Y-128747619D01*
X152307142Y-128823809D01*
X152285714Y-128861904D01*
X152271428Y-128861904D01*
X152471428Y-128861904D02*
X152400000Y-128861904D01*
X152400000Y-128061904D01*
X152607142Y-128785714D02*
X152600000Y-128823809D01*
X152578571Y-128861904D01*
X152564285Y-128861904D01*
X152542857Y-128823809D01*
X152528571Y-128747619D01*
X152521428Y-128671428D01*
X152514285Y-128519047D01*
X152514285Y-128404761D01*
X152521428Y-128252380D01*
X152528571Y-128176190D01*
X152542857Y-128100000D01*
X152564285Y-128061904D01*
X152578571Y-128061904D01*
X152600000Y-128100000D01*
X152607142Y-128138095D01*
X152714285Y-128061904D02*
X152714285Y-128633333D01*
X152707142Y-128747619D01*
X152692857Y-128823809D01*
X152671428Y-128861904D01*
X152657142Y-128861904D01*
X152857142Y-128861904D02*
X152785714Y-128861904D01*
X152785714Y-128061904D01*
X152992857Y-128785714D02*
X152985714Y-128823809D01*
X152964285Y-128861904D01*
X152950000Y-128861904D01*
X152928571Y-128823809D01*
X152914285Y-128747619D01*
X152907142Y-128671428D01*
X152900000Y-128519047D01*
X152900000Y-128404761D01*
X152907142Y-128252380D01*
X152914285Y-128176190D01*
X152928571Y-128100000D01*
X152950000Y-128061904D01*
X152964285Y-128061904D01*
X152985714Y-128100000D01*
X152992857Y-128138095D01*
D11*
G04 #@! TO.C,R6*
X176272936Y-120765000D02*
X176727064Y-120765000D01*
X176272936Y-122235000D02*
X176727064Y-122235000D01*
G04 #@! TO.C,R5*
X184522936Y-109015000D02*
X184977064Y-109015000D01*
X184522936Y-110485000D02*
X184977064Y-110485000D01*
G04 #@! TO.C,R18*
X167522936Y-112015000D02*
X167977064Y-112015000D01*
X167522936Y-113485000D02*
X167977064Y-113485000D01*
G04 #@! TO.C,R4*
X187272936Y-92515000D02*
X187727064Y-92515000D01*
X187272936Y-93985000D02*
X187727064Y-93985000D01*
G04 #@! TO.C,R17*
X174772936Y-92765000D02*
X175227064Y-92765000D01*
X174772936Y-94235000D02*
X175227064Y-94235000D01*
G04 #@! TO.C,R3*
X184522936Y-76765000D02*
X184977064Y-76765000D01*
X184522936Y-78235000D02*
X184977064Y-78235000D01*
G04 #@! TO.C,R16*
X167522936Y-73515000D02*
X167977064Y-73515000D01*
X167522936Y-74985000D02*
X167977064Y-74985000D01*
G04 #@! TO.C,R2*
X176272936Y-64765000D02*
X176727064Y-64765000D01*
X176272936Y-66235000D02*
X176727064Y-66235000D01*
G04 #@! TO.C,R1*
X164272936Y-56515000D02*
X164727064Y-56515000D01*
X164272936Y-57985000D02*
X164727064Y-57985000D01*
G04 #@! TO.C,R7*
X164022936Y-128765000D02*
X164477064Y-128765000D01*
X164022936Y-130235000D02*
X164477064Y-130235000D01*
G04 #@! TO.C,D6*
X177500000Y-118540000D02*
X174640000Y-118540000D01*
X174640000Y-118540000D02*
X174640000Y-120460000D01*
X174640000Y-120460000D02*
X177500000Y-120460000D01*
G04 #@! TO.C,D5*
X185725000Y-106790000D02*
X182865000Y-106790000D01*
X182865000Y-106790000D02*
X182865000Y-108710000D01*
X182865000Y-108710000D02*
X185725000Y-108710000D01*
G04 #@! TO.C,D18*
X168750000Y-109790000D02*
X165890000Y-109790000D01*
X165890000Y-109790000D02*
X165890000Y-111710000D01*
X165890000Y-111710000D02*
X168750000Y-111710000D01*
G04 #@! TO.C,D4*
X188525000Y-90290000D02*
X185665000Y-90290000D01*
X185665000Y-90290000D02*
X185665000Y-92210000D01*
X185665000Y-92210000D02*
X188525000Y-92210000D01*
G04 #@! TO.C,D17*
X176025000Y-90540000D02*
X173165000Y-90540000D01*
X173165000Y-90540000D02*
X173165000Y-92460000D01*
X173165000Y-92460000D02*
X176025000Y-92460000D01*
G04 #@! TO.C,D3*
X185725000Y-74540000D02*
X182865000Y-74540000D01*
X182865000Y-74540000D02*
X182865000Y-76460000D01*
X182865000Y-76460000D02*
X185725000Y-76460000D01*
G04 #@! TO.C,D16*
X168750000Y-71290000D02*
X165890000Y-71290000D01*
X165890000Y-71290000D02*
X165890000Y-73210000D01*
X165890000Y-73210000D02*
X168750000Y-73210000D01*
G04 #@! TO.C,D2*
X177475000Y-62540000D02*
X174615000Y-62540000D01*
X174615000Y-62540000D02*
X174615000Y-64460000D01*
X174615000Y-64460000D02*
X177475000Y-64460000D01*
G04 #@! TO.C,D1*
X165475000Y-54290000D02*
X162615000Y-54290000D01*
X162615000Y-54290000D02*
X162615000Y-56210000D01*
X162615000Y-56210000D02*
X165475000Y-56210000D01*
G04 #@! TO.C,D7*
X165275000Y-126540000D02*
X162415000Y-126540000D01*
X162415000Y-126540000D02*
X162415000Y-128460000D01*
X162415000Y-128460000D02*
X165275000Y-128460000D01*
G04 #@! TO.C,R6*
D12*
X176333333Y-123702380D02*
X176000000Y-123226190D01*
X175761904Y-123702380D02*
X175761904Y-122702380D01*
X176142857Y-122702380D01*
X176238095Y-122750000D01*
X176285714Y-122797619D01*
X176333333Y-122892857D01*
X176333333Y-123035714D01*
X176285714Y-123130952D01*
X176238095Y-123178571D01*
X176142857Y-123226190D01*
X175761904Y-123226190D01*
X177190476Y-122702380D02*
X177000000Y-122702380D01*
X176904761Y-122750000D01*
X176857142Y-122797619D01*
X176761904Y-122940476D01*
X176714285Y-123130952D01*
X176714285Y-123511904D01*
X176761904Y-123607142D01*
X176809523Y-123654761D01*
X176904761Y-123702380D01*
X177095238Y-123702380D01*
X177190476Y-123654761D01*
X177238095Y-123607142D01*
X177285714Y-123511904D01*
X177285714Y-123273809D01*
X177238095Y-123178571D01*
X177190476Y-123130952D01*
X177095238Y-123083333D01*
X176904761Y-123083333D01*
X176809523Y-123130952D01*
X176761904Y-123178571D01*
X176714285Y-123273809D01*
G04 #@! TO.C,R5*
X184583333Y-111952380D02*
X184250000Y-111476190D01*
X184011904Y-111952380D02*
X184011904Y-110952380D01*
X184392857Y-110952380D01*
X184488095Y-111000000D01*
X184535714Y-111047619D01*
X184583333Y-111142857D01*
X184583333Y-111285714D01*
X184535714Y-111380952D01*
X184488095Y-111428571D01*
X184392857Y-111476190D01*
X184011904Y-111476190D01*
X185488095Y-110952380D02*
X185011904Y-110952380D01*
X184964285Y-111428571D01*
X185011904Y-111380952D01*
X185107142Y-111333333D01*
X185345238Y-111333333D01*
X185440476Y-111380952D01*
X185488095Y-111428571D01*
X185535714Y-111523809D01*
X185535714Y-111761904D01*
X185488095Y-111857142D01*
X185440476Y-111904761D01*
X185345238Y-111952380D01*
X185107142Y-111952380D01*
X185011904Y-111904761D01*
X184964285Y-111857142D01*
G04 #@! TO.C,R18*
X167107142Y-115702380D02*
X166773809Y-115226190D01*
X166535714Y-115702380D02*
X166535714Y-114702380D01*
X166916666Y-114702380D01*
X167011904Y-114750000D01*
X167059523Y-114797619D01*
X167107142Y-114892857D01*
X167107142Y-115035714D01*
X167059523Y-115130952D01*
X167011904Y-115178571D01*
X166916666Y-115226190D01*
X166535714Y-115226190D01*
X168059523Y-115702380D02*
X167488095Y-115702380D01*
X167773809Y-115702380D02*
X167773809Y-114702380D01*
X167678571Y-114845238D01*
X167583333Y-114940476D01*
X167488095Y-114988095D01*
X168630952Y-115130952D02*
X168535714Y-115083333D01*
X168488095Y-115035714D01*
X168440476Y-114940476D01*
X168440476Y-114892857D01*
X168488095Y-114797619D01*
X168535714Y-114750000D01*
X168630952Y-114702380D01*
X168821428Y-114702380D01*
X168916666Y-114750000D01*
X168964285Y-114797619D01*
X169011904Y-114892857D01*
X169011904Y-114940476D01*
X168964285Y-115035714D01*
X168916666Y-115083333D01*
X168821428Y-115130952D01*
X168630952Y-115130952D01*
X168535714Y-115178571D01*
X168488095Y-115226190D01*
X168440476Y-115321428D01*
X168440476Y-115511904D01*
X168488095Y-115607142D01*
X168535714Y-115654761D01*
X168630952Y-115702380D01*
X168821428Y-115702380D01*
X168916666Y-115654761D01*
X168964285Y-115607142D01*
X169011904Y-115511904D01*
X169011904Y-115321428D01*
X168964285Y-115226190D01*
X168916666Y-115178571D01*
X168821428Y-115130952D01*
G04 #@! TO.C,R4*
X187333333Y-95952380D02*
X187000000Y-95476190D01*
X186761904Y-95952380D02*
X186761904Y-94952380D01*
X187142857Y-94952380D01*
X187238095Y-95000000D01*
X187285714Y-95047619D01*
X187333333Y-95142857D01*
X187333333Y-95285714D01*
X187285714Y-95380952D01*
X187238095Y-95428571D01*
X187142857Y-95476190D01*
X186761904Y-95476190D01*
X188190476Y-95285714D02*
X188190476Y-95952380D01*
X187952380Y-94904761D02*
X187714285Y-95619047D01*
X188333333Y-95619047D01*
G04 #@! TO.C,R17*
X174357142Y-95952380D02*
X174023809Y-95476190D01*
X173785714Y-95952380D02*
X173785714Y-94952380D01*
X174166666Y-94952380D01*
X174261904Y-95000000D01*
X174309523Y-95047619D01*
X174357142Y-95142857D01*
X174357142Y-95285714D01*
X174309523Y-95380952D01*
X174261904Y-95428571D01*
X174166666Y-95476190D01*
X173785714Y-95476190D01*
X175309523Y-95952380D02*
X174738095Y-95952380D01*
X175023809Y-95952380D02*
X175023809Y-94952380D01*
X174928571Y-95095238D01*
X174833333Y-95190476D01*
X174738095Y-95238095D01*
X175642857Y-94952380D02*
X176309523Y-94952380D01*
X175880952Y-95952380D01*
G04 #@! TO.C,R3*
X184333333Y-79702380D02*
X184000000Y-79226190D01*
X183761904Y-79702380D02*
X183761904Y-78702380D01*
X184142857Y-78702380D01*
X184238095Y-78750000D01*
X184285714Y-78797619D01*
X184333333Y-78892857D01*
X184333333Y-79035714D01*
X184285714Y-79130952D01*
X184238095Y-79178571D01*
X184142857Y-79226190D01*
X183761904Y-79226190D01*
X184666666Y-78702380D02*
X185285714Y-78702380D01*
X184952380Y-79083333D01*
X185095238Y-79083333D01*
X185190476Y-79130952D01*
X185238095Y-79178571D01*
X185285714Y-79273809D01*
X185285714Y-79511904D01*
X185238095Y-79607142D01*
X185190476Y-79654761D01*
X185095238Y-79702380D01*
X184809523Y-79702380D01*
X184714285Y-79654761D01*
X184666666Y-79607142D01*
G04 #@! TO.C,R16*
X167107142Y-76452380D02*
X166773809Y-75976190D01*
X166535714Y-76452380D02*
X166535714Y-75452380D01*
X166916666Y-75452380D01*
X167011904Y-75500000D01*
X167059523Y-75547619D01*
X167107142Y-75642857D01*
X167107142Y-75785714D01*
X167059523Y-75880952D01*
X167011904Y-75928571D01*
X166916666Y-75976190D01*
X166535714Y-75976190D01*
X168059523Y-76452380D02*
X167488095Y-76452380D01*
X167773809Y-76452380D02*
X167773809Y-75452380D01*
X167678571Y-75595238D01*
X167583333Y-75690476D01*
X167488095Y-75738095D01*
X168916666Y-75452380D02*
X168726190Y-75452380D01*
X168630952Y-75500000D01*
X168583333Y-75547619D01*
X168488095Y-75690476D01*
X168440476Y-75880952D01*
X168440476Y-76261904D01*
X168488095Y-76357142D01*
X168535714Y-76404761D01*
X168630952Y-76452380D01*
X168821428Y-76452380D01*
X168916666Y-76404761D01*
X168964285Y-76357142D01*
X169011904Y-76261904D01*
X169011904Y-76023809D01*
X168964285Y-75928571D01*
X168916666Y-75880952D01*
X168821428Y-75833333D01*
X168630952Y-75833333D01*
X168535714Y-75880952D01*
X168488095Y-75928571D01*
X168440476Y-76023809D01*
G04 #@! TO.C,R2*
X176333333Y-67702380D02*
X176000000Y-67226190D01*
X175761904Y-67702380D02*
X175761904Y-66702380D01*
X176142857Y-66702380D01*
X176238095Y-66750000D01*
X176285714Y-66797619D01*
X176333333Y-66892857D01*
X176333333Y-67035714D01*
X176285714Y-67130952D01*
X176238095Y-67178571D01*
X176142857Y-67226190D01*
X175761904Y-67226190D01*
X176714285Y-66797619D02*
X176761904Y-66750000D01*
X176857142Y-66702380D01*
X177095238Y-66702380D01*
X177190476Y-66750000D01*
X177238095Y-66797619D01*
X177285714Y-66892857D01*
X177285714Y-66988095D01*
X177238095Y-67130952D01*
X176666666Y-67702380D01*
X177285714Y-67702380D01*
G04 #@! TO.C,R1*
X164333333Y-59702380D02*
X164000000Y-59226190D01*
X163761904Y-59702380D02*
X163761904Y-58702380D01*
X164142857Y-58702380D01*
X164238095Y-58750000D01*
X164285714Y-58797619D01*
X164333333Y-58892857D01*
X164333333Y-59035714D01*
X164285714Y-59130952D01*
X164238095Y-59178571D01*
X164142857Y-59226190D01*
X163761904Y-59226190D01*
X165285714Y-59702380D02*
X164714285Y-59702380D01*
X165000000Y-59702380D02*
X165000000Y-58702380D01*
X164904761Y-58845238D01*
X164809523Y-58940476D01*
X164714285Y-58988095D01*
G04 #@! TO.C,R7*
X164083333Y-131702380D02*
X163750000Y-131226190D01*
X163511904Y-131702380D02*
X163511904Y-130702380D01*
X163892857Y-130702380D01*
X163988095Y-130750000D01*
X164035714Y-130797619D01*
X164083333Y-130892857D01*
X164083333Y-131035714D01*
X164035714Y-131130952D01*
X163988095Y-131178571D01*
X163892857Y-131226190D01*
X163511904Y-131226190D01*
X164416666Y-130702380D02*
X165083333Y-130702380D01*
X164654761Y-131702380D01*
G04 #@! TO.C,D6*
X175761904Y-118302380D02*
X175761904Y-117302380D01*
X176000000Y-117302380D01*
X176142857Y-117350000D01*
X176238095Y-117445238D01*
X176285714Y-117540476D01*
X176333333Y-117730952D01*
X176333333Y-117873809D01*
X176285714Y-118064285D01*
X176238095Y-118159523D01*
X176142857Y-118254761D01*
X176000000Y-118302380D01*
X175761904Y-118302380D01*
X177190476Y-117302380D02*
X177000000Y-117302380D01*
X176904761Y-117350000D01*
X176857142Y-117397619D01*
X176761904Y-117540476D01*
X176714285Y-117730952D01*
X176714285Y-118111904D01*
X176761904Y-118207142D01*
X176809523Y-118254761D01*
X176904761Y-118302380D01*
X177095238Y-118302380D01*
X177190476Y-118254761D01*
X177238095Y-118207142D01*
X177285714Y-118111904D01*
X177285714Y-117873809D01*
X177238095Y-117778571D01*
X177190476Y-117730952D01*
X177095238Y-117683333D01*
X176904761Y-117683333D01*
X176809523Y-117730952D01*
X176761904Y-117778571D01*
X176714285Y-117873809D01*
G04 #@! TO.C,D5*
X183986904Y-106552380D02*
X183986904Y-105552380D01*
X184225000Y-105552380D01*
X184367857Y-105600000D01*
X184463095Y-105695238D01*
X184510714Y-105790476D01*
X184558333Y-105980952D01*
X184558333Y-106123809D01*
X184510714Y-106314285D01*
X184463095Y-106409523D01*
X184367857Y-106504761D01*
X184225000Y-106552380D01*
X183986904Y-106552380D01*
X185463095Y-105552380D02*
X184986904Y-105552380D01*
X184939285Y-106028571D01*
X184986904Y-105980952D01*
X185082142Y-105933333D01*
X185320238Y-105933333D01*
X185415476Y-105980952D01*
X185463095Y-106028571D01*
X185510714Y-106123809D01*
X185510714Y-106361904D01*
X185463095Y-106457142D01*
X185415476Y-106504761D01*
X185320238Y-106552380D01*
X185082142Y-106552380D01*
X184986904Y-106504761D01*
X184939285Y-106457142D01*
G04 #@! TO.C,D18*
X166535714Y-109552380D02*
X166535714Y-108552380D01*
X166773809Y-108552380D01*
X166916666Y-108600000D01*
X167011904Y-108695238D01*
X167059523Y-108790476D01*
X167107142Y-108980952D01*
X167107142Y-109123809D01*
X167059523Y-109314285D01*
X167011904Y-109409523D01*
X166916666Y-109504761D01*
X166773809Y-109552380D01*
X166535714Y-109552380D01*
X168059523Y-109552380D02*
X167488095Y-109552380D01*
X167773809Y-109552380D02*
X167773809Y-108552380D01*
X167678571Y-108695238D01*
X167583333Y-108790476D01*
X167488095Y-108838095D01*
X168630952Y-108980952D02*
X168535714Y-108933333D01*
X168488095Y-108885714D01*
X168440476Y-108790476D01*
X168440476Y-108742857D01*
X168488095Y-108647619D01*
X168535714Y-108600000D01*
X168630952Y-108552380D01*
X168821428Y-108552380D01*
X168916666Y-108600000D01*
X168964285Y-108647619D01*
X169011904Y-108742857D01*
X169011904Y-108790476D01*
X168964285Y-108885714D01*
X168916666Y-108933333D01*
X168821428Y-108980952D01*
X168630952Y-108980952D01*
X168535714Y-109028571D01*
X168488095Y-109076190D01*
X168440476Y-109171428D01*
X168440476Y-109361904D01*
X168488095Y-109457142D01*
X168535714Y-109504761D01*
X168630952Y-109552380D01*
X168821428Y-109552380D01*
X168916666Y-109504761D01*
X168964285Y-109457142D01*
X169011904Y-109361904D01*
X169011904Y-109171428D01*
X168964285Y-109076190D01*
X168916666Y-109028571D01*
X168821428Y-108980952D01*
G04 #@! TO.C,D4*
X186786904Y-90052380D02*
X186786904Y-89052380D01*
X187025000Y-89052380D01*
X187167857Y-89100000D01*
X187263095Y-89195238D01*
X187310714Y-89290476D01*
X187358333Y-89480952D01*
X187358333Y-89623809D01*
X187310714Y-89814285D01*
X187263095Y-89909523D01*
X187167857Y-90004761D01*
X187025000Y-90052380D01*
X186786904Y-90052380D01*
X188215476Y-89385714D02*
X188215476Y-90052380D01*
X187977380Y-89004761D02*
X187739285Y-89719047D01*
X188358333Y-89719047D01*
G04 #@! TO.C,D17*
X173810714Y-90302380D02*
X173810714Y-89302380D01*
X174048809Y-89302380D01*
X174191666Y-89350000D01*
X174286904Y-89445238D01*
X174334523Y-89540476D01*
X174382142Y-89730952D01*
X174382142Y-89873809D01*
X174334523Y-90064285D01*
X174286904Y-90159523D01*
X174191666Y-90254761D01*
X174048809Y-90302380D01*
X173810714Y-90302380D01*
X175334523Y-90302380D02*
X174763095Y-90302380D01*
X175048809Y-90302380D02*
X175048809Y-89302380D01*
X174953571Y-89445238D01*
X174858333Y-89540476D01*
X174763095Y-89588095D01*
X175667857Y-89302380D02*
X176334523Y-89302380D01*
X175905952Y-90302380D01*
G04 #@! TO.C,D3*
X183986904Y-74302380D02*
X183986904Y-73302380D01*
X184225000Y-73302380D01*
X184367857Y-73350000D01*
X184463095Y-73445238D01*
X184510714Y-73540476D01*
X184558333Y-73730952D01*
X184558333Y-73873809D01*
X184510714Y-74064285D01*
X184463095Y-74159523D01*
X184367857Y-74254761D01*
X184225000Y-74302380D01*
X183986904Y-74302380D01*
X184891666Y-73302380D02*
X185510714Y-73302380D01*
X185177380Y-73683333D01*
X185320238Y-73683333D01*
X185415476Y-73730952D01*
X185463095Y-73778571D01*
X185510714Y-73873809D01*
X185510714Y-74111904D01*
X185463095Y-74207142D01*
X185415476Y-74254761D01*
X185320238Y-74302380D01*
X185034523Y-74302380D01*
X184939285Y-74254761D01*
X184891666Y-74207142D01*
G04 #@! TO.C,D16*
X166535714Y-71052380D02*
X166535714Y-70052380D01*
X166773809Y-70052380D01*
X166916666Y-70100000D01*
X167011904Y-70195238D01*
X167059523Y-70290476D01*
X167107142Y-70480952D01*
X167107142Y-70623809D01*
X167059523Y-70814285D01*
X167011904Y-70909523D01*
X166916666Y-71004761D01*
X166773809Y-71052380D01*
X166535714Y-71052380D01*
X168059523Y-71052380D02*
X167488095Y-71052380D01*
X167773809Y-71052380D02*
X167773809Y-70052380D01*
X167678571Y-70195238D01*
X167583333Y-70290476D01*
X167488095Y-70338095D01*
X168916666Y-70052380D02*
X168726190Y-70052380D01*
X168630952Y-70100000D01*
X168583333Y-70147619D01*
X168488095Y-70290476D01*
X168440476Y-70480952D01*
X168440476Y-70861904D01*
X168488095Y-70957142D01*
X168535714Y-71004761D01*
X168630952Y-71052380D01*
X168821428Y-71052380D01*
X168916666Y-71004761D01*
X168964285Y-70957142D01*
X169011904Y-70861904D01*
X169011904Y-70623809D01*
X168964285Y-70528571D01*
X168916666Y-70480952D01*
X168821428Y-70433333D01*
X168630952Y-70433333D01*
X168535714Y-70480952D01*
X168488095Y-70528571D01*
X168440476Y-70623809D01*
G04 #@! TO.C,D2*
X175736904Y-62302380D02*
X175736904Y-61302380D01*
X175975000Y-61302380D01*
X176117857Y-61350000D01*
X176213095Y-61445238D01*
X176260714Y-61540476D01*
X176308333Y-61730952D01*
X176308333Y-61873809D01*
X176260714Y-62064285D01*
X176213095Y-62159523D01*
X176117857Y-62254761D01*
X175975000Y-62302380D01*
X175736904Y-62302380D01*
X176689285Y-61397619D02*
X176736904Y-61350000D01*
X176832142Y-61302380D01*
X177070238Y-61302380D01*
X177165476Y-61350000D01*
X177213095Y-61397619D01*
X177260714Y-61492857D01*
X177260714Y-61588095D01*
X177213095Y-61730952D01*
X176641666Y-62302380D01*
X177260714Y-62302380D01*
G04 #@! TO.C,D1*
X163736904Y-54052380D02*
X163736904Y-53052380D01*
X163975000Y-53052380D01*
X164117857Y-53100000D01*
X164213095Y-53195238D01*
X164260714Y-53290476D01*
X164308333Y-53480952D01*
X164308333Y-53623809D01*
X164260714Y-53814285D01*
X164213095Y-53909523D01*
X164117857Y-54004761D01*
X163975000Y-54052380D01*
X163736904Y-54052380D01*
X165260714Y-54052380D02*
X164689285Y-54052380D01*
X164975000Y-54052380D02*
X164975000Y-53052380D01*
X164879761Y-53195238D01*
X164784523Y-53290476D01*
X164689285Y-53338095D01*
G04 #@! TO.C,D7*
X163536904Y-126302380D02*
X163536904Y-125302380D01*
X163775000Y-125302380D01*
X163917857Y-125350000D01*
X164013095Y-125445238D01*
X164060714Y-125540476D01*
X164108333Y-125730952D01*
X164108333Y-125873809D01*
X164060714Y-126064285D01*
X164013095Y-126159523D01*
X163917857Y-126254761D01*
X163775000Y-126302380D01*
X163536904Y-126302380D01*
X164441666Y-125302380D02*
X165108333Y-125302380D01*
X164679761Y-126302380D01*
G04 #@! TD*
M02*
