M48
; DRILL file {KiCad 5.1.10-88a1d61d58~88~ubuntu20.04.1} date Mon Jun  7 13:22:39 2021
; FORMAT={-:-/ absolute / inch / decimal}
; #@! TF.CreationDate,2021-06-07T13:22:39+01:00
; #@! TF.GenerationSoftware,Kicad,Pcbnew,5.1.10-88a1d61d58~88~ubuntu20.04.1
FMAT,2
INCH
T1C0.0157
%
G90
G05
T1
X6.0551Y-5.0709
X6.3484Y-2.5
X6.3937Y-5.189
X6.4469Y-5.315
X6.4862Y-2.8445
X6.5157Y-2.7264
X6.5591Y-2.3465
X6.5945Y-5.2362
X6.6339Y-4.5965
X6.6772Y-3.0787
X6.8268Y-4.5591
X6.8996Y-3.4941
X6.9449Y-3.7953
X6.9685Y-4.1142
X6.9921Y-5.1732
X7.0079Y-4.1535
X7.0374Y-3.4941
X7.1339Y-3.2205
X7.2126Y-4.4331
X7.2441Y-3.6122
X7.4252Y-3.2441
X7.4803Y-3.061
T0
M30
