G04 #@! TF.GenerationSoftware,KiCad,Pcbnew,5.1.10-88a1d61d58~88~ubuntu20.04.1*
G04 #@! TF.CreationDate,2021-06-07T13:22:34+01:00*
G04 #@! TF.ProjectId,wings,77696e67-732e-46b6-9963-61645f706362,rev?*
G04 #@! TF.SameCoordinates,Original*
G04 #@! TF.FileFunction,Soldermask,Bot*
G04 #@! TF.FilePolarity,Negative*
%FSLAX46Y46*%
G04 Gerber Fmt 4.6, Leading zero omitted, Abs format (unit mm)*
G04 Created by KiCad (PCBNEW 5.1.10-88a1d61d58~88~ubuntu20.04.1) date 2021-06-07 13:22:34*
%MOMM*%
%LPD*%
G01*
G04 APERTURE LIST*
%ADD10R,2.000000X1.500000*%
G04 APERTURE END LIST*
G04 #@! TO.C,R19*
G36*
G01*
X167350000Y-112299999D02*
X167350000Y-113200001D01*
G75*
G02*
X167100001Y-113450000I-249999J0D01*
G01*
X166399999Y-113450000D01*
G75*
G02*
X166150000Y-113200001I0J249999D01*
G01*
X166150000Y-112299999D01*
G75*
G02*
X166399999Y-112050000I249999J0D01*
G01*
X167100001Y-112050000D01*
G75*
G02*
X167350000Y-112299999I0J-249999D01*
G01*
G37*
G36*
G01*
X169350000Y-112299999D02*
X169350000Y-113200001D01*
G75*
G02*
X169100001Y-113450000I-249999J0D01*
G01*
X168399999Y-113450000D01*
G75*
G02*
X168150000Y-113200001I0J249999D01*
G01*
X168150000Y-112299999D01*
G75*
G02*
X168399999Y-112050000I249999J0D01*
G01*
X169100001Y-112050000D01*
G75*
G02*
X169350000Y-112299999I0J-249999D01*
G01*
G37*
G04 #@! TD*
G04 #@! TO.C,R13*
G36*
G01*
X184350000Y-77049999D02*
X184350000Y-77950001D01*
G75*
G02*
X184100001Y-78200000I-249999J0D01*
G01*
X183399999Y-78200000D01*
G75*
G02*
X183150000Y-77950001I0J249999D01*
G01*
X183150000Y-77049999D01*
G75*
G02*
X183399999Y-76800000I249999J0D01*
G01*
X184100001Y-76800000D01*
G75*
G02*
X184350000Y-77049999I0J-249999D01*
G01*
G37*
G36*
G01*
X186350000Y-77049999D02*
X186350000Y-77950001D01*
G75*
G02*
X186100001Y-78200000I-249999J0D01*
G01*
X185399999Y-78200000D01*
G75*
G02*
X185150000Y-77950001I0J249999D01*
G01*
X185150000Y-77049999D01*
G75*
G02*
X185399999Y-76800000I249999J0D01*
G01*
X186100001Y-76800000D01*
G75*
G02*
X186350000Y-77049999I0J-249999D01*
G01*
G37*
G04 #@! TD*
G04 #@! TO.C,R12*
G36*
G01*
X187100000Y-92799999D02*
X187100000Y-93700001D01*
G75*
G02*
X186850001Y-93950000I-249999J0D01*
G01*
X186149999Y-93950000D01*
G75*
G02*
X185900000Y-93700001I0J249999D01*
G01*
X185900000Y-92799999D01*
G75*
G02*
X186149999Y-92550000I249999J0D01*
G01*
X186850001Y-92550000D01*
G75*
G02*
X187100000Y-92799999I0J-249999D01*
G01*
G37*
G36*
G01*
X189100000Y-92799999D02*
X189100000Y-93700001D01*
G75*
G02*
X188850001Y-93950000I-249999J0D01*
G01*
X188149999Y-93950000D01*
G75*
G02*
X187900000Y-93700001I0J249999D01*
G01*
X187900000Y-92799999D01*
G75*
G02*
X188149999Y-92550000I249999J0D01*
G01*
X188850001Y-92550000D01*
G75*
G02*
X189100000Y-92799999I0J-249999D01*
G01*
G37*
G04 #@! TD*
G04 #@! TO.C,R11*
G36*
G01*
X184350000Y-109299999D02*
X184350000Y-110200001D01*
G75*
G02*
X184100001Y-110450000I-249999J0D01*
G01*
X183399999Y-110450000D01*
G75*
G02*
X183150000Y-110200001I0J249999D01*
G01*
X183150000Y-109299999D01*
G75*
G02*
X183399999Y-109050000I249999J0D01*
G01*
X184100001Y-109050000D01*
G75*
G02*
X184350000Y-109299999I0J-249999D01*
G01*
G37*
G36*
G01*
X186350000Y-109299999D02*
X186350000Y-110200001D01*
G75*
G02*
X186100001Y-110450000I-249999J0D01*
G01*
X185399999Y-110450000D01*
G75*
G02*
X185150000Y-110200001I0J249999D01*
G01*
X185150000Y-109299999D01*
G75*
G02*
X185399999Y-109050000I249999J0D01*
G01*
X186100001Y-109050000D01*
G75*
G02*
X186350000Y-109299999I0J-249999D01*
G01*
G37*
G04 #@! TD*
G04 #@! TO.C,R10*
G36*
G01*
X176100000Y-121049999D02*
X176100000Y-121950001D01*
G75*
G02*
X175850001Y-122200000I-249999J0D01*
G01*
X175149999Y-122200000D01*
G75*
G02*
X174900000Y-121950001I0J249999D01*
G01*
X174900000Y-121049999D01*
G75*
G02*
X175149999Y-120800000I249999J0D01*
G01*
X175850001Y-120800000D01*
G75*
G02*
X176100000Y-121049999I0J-249999D01*
G01*
G37*
G36*
G01*
X178100000Y-121049999D02*
X178100000Y-121950001D01*
G75*
G02*
X177850001Y-122200000I-249999J0D01*
G01*
X177149999Y-122200000D01*
G75*
G02*
X176900000Y-121950001I0J249999D01*
G01*
X176900000Y-121049999D01*
G75*
G02*
X177149999Y-120800000I249999J0D01*
G01*
X177850001Y-120800000D01*
G75*
G02*
X178100000Y-121049999I0J-249999D01*
G01*
G37*
G04 #@! TD*
G04 #@! TO.C,R21*
G36*
G01*
X167350000Y-73799999D02*
X167350000Y-74700001D01*
G75*
G02*
X167100001Y-74950000I-249999J0D01*
G01*
X166399999Y-74950000D01*
G75*
G02*
X166150000Y-74700001I0J249999D01*
G01*
X166150000Y-73799999D01*
G75*
G02*
X166399999Y-73550000I249999J0D01*
G01*
X167100001Y-73550000D01*
G75*
G02*
X167350000Y-73799999I0J-249999D01*
G01*
G37*
G36*
G01*
X169350000Y-73799999D02*
X169350000Y-74700001D01*
G75*
G02*
X169100001Y-74950000I-249999J0D01*
G01*
X168399999Y-74950000D01*
G75*
G02*
X168150000Y-74700001I0J249999D01*
G01*
X168150000Y-73799999D01*
G75*
G02*
X168399999Y-73550000I249999J0D01*
G01*
X169100001Y-73550000D01*
G75*
G02*
X169350000Y-73799999I0J-249999D01*
G01*
G37*
G04 #@! TD*
G04 #@! TO.C,R15*
G36*
G01*
X164100000Y-56799999D02*
X164100000Y-57700001D01*
G75*
G02*
X163850001Y-57950000I-249999J0D01*
G01*
X163149999Y-57950000D01*
G75*
G02*
X162900000Y-57700001I0J249999D01*
G01*
X162900000Y-56799999D01*
G75*
G02*
X163149999Y-56550000I249999J0D01*
G01*
X163850001Y-56550000D01*
G75*
G02*
X164100000Y-56799999I0J-249999D01*
G01*
G37*
G36*
G01*
X166100000Y-56799999D02*
X166100000Y-57700001D01*
G75*
G02*
X165850001Y-57950000I-249999J0D01*
G01*
X165149999Y-57950000D01*
G75*
G02*
X164900000Y-57700001I0J249999D01*
G01*
X164900000Y-56799999D01*
G75*
G02*
X165149999Y-56550000I249999J0D01*
G01*
X165850001Y-56550000D01*
G75*
G02*
X166100000Y-56799999I0J-249999D01*
G01*
G37*
G04 #@! TD*
G04 #@! TO.C,R9*
G36*
G01*
X163850000Y-129049999D02*
X163850000Y-129950001D01*
G75*
G02*
X163600001Y-130200000I-249999J0D01*
G01*
X162899999Y-130200000D01*
G75*
G02*
X162650000Y-129950001I0J249999D01*
G01*
X162650000Y-129049999D01*
G75*
G02*
X162899999Y-128800000I249999J0D01*
G01*
X163600001Y-128800000D01*
G75*
G02*
X163850000Y-129049999I0J-249999D01*
G01*
G37*
G36*
G01*
X165850000Y-129049999D02*
X165850000Y-129950001D01*
G75*
G02*
X165600001Y-130200000I-249999J0D01*
G01*
X164899999Y-130200000D01*
G75*
G02*
X164650000Y-129950001I0J249999D01*
G01*
X164650000Y-129049999D01*
G75*
G02*
X164899999Y-128800000I249999J0D01*
G01*
X165600001Y-128800000D01*
G75*
G02*
X165850000Y-129049999I0J-249999D01*
G01*
G37*
G04 #@! TD*
G04 #@! TO.C,R20*
G36*
G01*
X174600000Y-93049999D02*
X174600000Y-93950001D01*
G75*
G02*
X174350001Y-94200000I-249999J0D01*
G01*
X173649999Y-94200000D01*
G75*
G02*
X173400000Y-93950001I0J249999D01*
G01*
X173400000Y-93049999D01*
G75*
G02*
X173649999Y-92800000I249999J0D01*
G01*
X174350001Y-92800000D01*
G75*
G02*
X174600000Y-93049999I0J-249999D01*
G01*
G37*
G36*
G01*
X176600000Y-93049999D02*
X176600000Y-93950001D01*
G75*
G02*
X176350001Y-94200000I-249999J0D01*
G01*
X175649999Y-94200000D01*
G75*
G02*
X175400000Y-93950001I0J249999D01*
G01*
X175400000Y-93049999D01*
G75*
G02*
X175649999Y-92800000I249999J0D01*
G01*
X176350001Y-92800000D01*
G75*
G02*
X176600000Y-93049999I0J-249999D01*
G01*
G37*
G04 #@! TD*
G04 #@! TO.C,R14*
G36*
G01*
X176100000Y-65049999D02*
X176100000Y-65950001D01*
G75*
G02*
X175850001Y-66200000I-249999J0D01*
G01*
X175149999Y-66200000D01*
G75*
G02*
X174900000Y-65950001I0J249999D01*
G01*
X174900000Y-65049999D01*
G75*
G02*
X175149999Y-64800000I249999J0D01*
G01*
X175850001Y-64800000D01*
G75*
G02*
X176100000Y-65049999I0J-249999D01*
G01*
G37*
G36*
G01*
X178100000Y-65049999D02*
X178100000Y-65950001D01*
G75*
G02*
X177850001Y-66200000I-249999J0D01*
G01*
X177149999Y-66200000D01*
G75*
G02*
X176900000Y-65950001I0J249999D01*
G01*
X176900000Y-65049999D01*
G75*
G02*
X177149999Y-64800000I249999J0D01*
G01*
X177850001Y-64800000D01*
G75*
G02*
X178100000Y-65049999I0J-249999D01*
G01*
G37*
G04 #@! TD*
D10*
G04 #@! TO.C,J4*
X149750000Y-137000000D03*
X149750000Y-135000000D03*
X149750000Y-133000000D03*
X149750000Y-131000000D03*
X149750000Y-129000000D03*
G04 #@! TD*
G04 #@! TO.C,J1*
X149750000Y-60500000D03*
X149750000Y-58500000D03*
X149750000Y-56500000D03*
X149750000Y-54500000D03*
X149750000Y-52500000D03*
X149750000Y-50500000D03*
G04 #@! TD*
G04 #@! TO.C,D19*
G36*
G01*
X167275000Y-110299999D02*
X167275000Y-111200001D01*
G75*
G02*
X167025001Y-111450000I-249999J0D01*
G01*
X166374999Y-111450000D01*
G75*
G02*
X166125000Y-111200001I0J249999D01*
G01*
X166125000Y-110299999D01*
G75*
G02*
X166374999Y-110050000I249999J0D01*
G01*
X167025001Y-110050000D01*
G75*
G02*
X167275000Y-110299999I0J-249999D01*
G01*
G37*
G36*
G01*
X169325000Y-110299999D02*
X169325000Y-111200001D01*
G75*
G02*
X169075001Y-111450000I-249999J0D01*
G01*
X168424999Y-111450000D01*
G75*
G02*
X168175000Y-111200001I0J249999D01*
G01*
X168175000Y-110299999D01*
G75*
G02*
X168424999Y-110050000I249999J0D01*
G01*
X169075001Y-110050000D01*
G75*
G02*
X169325000Y-110299999I0J-249999D01*
G01*
G37*
G04 #@! TD*
G04 #@! TO.C,D13*
G36*
G01*
X184275000Y-75049999D02*
X184275000Y-75950001D01*
G75*
G02*
X184025001Y-76200000I-249999J0D01*
G01*
X183374999Y-76200000D01*
G75*
G02*
X183125000Y-75950001I0J249999D01*
G01*
X183125000Y-75049999D01*
G75*
G02*
X183374999Y-74800000I249999J0D01*
G01*
X184025001Y-74800000D01*
G75*
G02*
X184275000Y-75049999I0J-249999D01*
G01*
G37*
G36*
G01*
X186325000Y-75049999D02*
X186325000Y-75950001D01*
G75*
G02*
X186075001Y-76200000I-249999J0D01*
G01*
X185424999Y-76200000D01*
G75*
G02*
X185175000Y-75950001I0J249999D01*
G01*
X185175000Y-75049999D01*
G75*
G02*
X185424999Y-74800000I249999J0D01*
G01*
X186075001Y-74800000D01*
G75*
G02*
X186325000Y-75049999I0J-249999D01*
G01*
G37*
G04 #@! TD*
G04 #@! TO.C,D12*
G36*
G01*
X187050000Y-90799999D02*
X187050000Y-91700001D01*
G75*
G02*
X186800001Y-91950000I-249999J0D01*
G01*
X186149999Y-91950000D01*
G75*
G02*
X185900000Y-91700001I0J249999D01*
G01*
X185900000Y-90799999D01*
G75*
G02*
X186149999Y-90550000I249999J0D01*
G01*
X186800001Y-90550000D01*
G75*
G02*
X187050000Y-90799999I0J-249999D01*
G01*
G37*
G36*
G01*
X189100000Y-90799999D02*
X189100000Y-91700001D01*
G75*
G02*
X188850001Y-91950000I-249999J0D01*
G01*
X188199999Y-91950000D01*
G75*
G02*
X187950000Y-91700001I0J249999D01*
G01*
X187950000Y-90799999D01*
G75*
G02*
X188199999Y-90550000I249999J0D01*
G01*
X188850001Y-90550000D01*
G75*
G02*
X189100000Y-90799999I0J-249999D01*
G01*
G37*
G04 #@! TD*
G04 #@! TO.C,D11*
G36*
G01*
X184275000Y-107299999D02*
X184275000Y-108200001D01*
G75*
G02*
X184025001Y-108450000I-249999J0D01*
G01*
X183374999Y-108450000D01*
G75*
G02*
X183125000Y-108200001I0J249999D01*
G01*
X183125000Y-107299999D01*
G75*
G02*
X183374999Y-107050000I249999J0D01*
G01*
X184025001Y-107050000D01*
G75*
G02*
X184275000Y-107299999I0J-249999D01*
G01*
G37*
G36*
G01*
X186325000Y-107299999D02*
X186325000Y-108200001D01*
G75*
G02*
X186075001Y-108450000I-249999J0D01*
G01*
X185424999Y-108450000D01*
G75*
G02*
X185175000Y-108200001I0J249999D01*
G01*
X185175000Y-107299999D01*
G75*
G02*
X185424999Y-107050000I249999J0D01*
G01*
X186075001Y-107050000D01*
G75*
G02*
X186325000Y-107299999I0J-249999D01*
G01*
G37*
G04 #@! TD*
G04 #@! TO.C,D10*
G36*
G01*
X176025000Y-119049999D02*
X176025000Y-119950001D01*
G75*
G02*
X175775001Y-120200000I-249999J0D01*
G01*
X175124999Y-120200000D01*
G75*
G02*
X174875000Y-119950001I0J249999D01*
G01*
X174875000Y-119049999D01*
G75*
G02*
X175124999Y-118800000I249999J0D01*
G01*
X175775001Y-118800000D01*
G75*
G02*
X176025000Y-119049999I0J-249999D01*
G01*
G37*
G36*
G01*
X178075000Y-119049999D02*
X178075000Y-119950001D01*
G75*
G02*
X177825001Y-120200000I-249999J0D01*
G01*
X177174999Y-120200000D01*
G75*
G02*
X176925000Y-119950001I0J249999D01*
G01*
X176925000Y-119049999D01*
G75*
G02*
X177174999Y-118800000I249999J0D01*
G01*
X177825001Y-118800000D01*
G75*
G02*
X178075000Y-119049999I0J-249999D01*
G01*
G37*
G04 #@! TD*
G04 #@! TO.C,D21*
G36*
G01*
X167275000Y-71799999D02*
X167275000Y-72700001D01*
G75*
G02*
X167025001Y-72950000I-249999J0D01*
G01*
X166374999Y-72950000D01*
G75*
G02*
X166125000Y-72700001I0J249999D01*
G01*
X166125000Y-71799999D01*
G75*
G02*
X166374999Y-71550000I249999J0D01*
G01*
X167025001Y-71550000D01*
G75*
G02*
X167275000Y-71799999I0J-249999D01*
G01*
G37*
G36*
G01*
X169325000Y-71799999D02*
X169325000Y-72700001D01*
G75*
G02*
X169075001Y-72950000I-249999J0D01*
G01*
X168424999Y-72950000D01*
G75*
G02*
X168175000Y-72700001I0J249999D01*
G01*
X168175000Y-71799999D01*
G75*
G02*
X168424999Y-71550000I249999J0D01*
G01*
X169075001Y-71550000D01*
G75*
G02*
X169325000Y-71799999I0J-249999D01*
G01*
G37*
G04 #@! TD*
G04 #@! TO.C,D15*
G36*
G01*
X164025000Y-54799999D02*
X164025000Y-55700001D01*
G75*
G02*
X163775001Y-55950000I-249999J0D01*
G01*
X163124999Y-55950000D01*
G75*
G02*
X162875000Y-55700001I0J249999D01*
G01*
X162875000Y-54799999D01*
G75*
G02*
X163124999Y-54550000I249999J0D01*
G01*
X163775001Y-54550000D01*
G75*
G02*
X164025000Y-54799999I0J-249999D01*
G01*
G37*
G36*
G01*
X166075000Y-54799999D02*
X166075000Y-55700001D01*
G75*
G02*
X165825001Y-55950000I-249999J0D01*
G01*
X165174999Y-55950000D01*
G75*
G02*
X164925000Y-55700001I0J249999D01*
G01*
X164925000Y-54799999D01*
G75*
G02*
X165174999Y-54550000I249999J0D01*
G01*
X165825001Y-54550000D01*
G75*
G02*
X166075000Y-54799999I0J-249999D01*
G01*
G37*
G04 #@! TD*
G04 #@! TO.C,D9*
G36*
G01*
X163775000Y-127049999D02*
X163775000Y-127950001D01*
G75*
G02*
X163525001Y-128200000I-249999J0D01*
G01*
X162874999Y-128200000D01*
G75*
G02*
X162625000Y-127950001I0J249999D01*
G01*
X162625000Y-127049999D01*
G75*
G02*
X162874999Y-126800000I249999J0D01*
G01*
X163525001Y-126800000D01*
G75*
G02*
X163775000Y-127049999I0J-249999D01*
G01*
G37*
G36*
G01*
X165825000Y-127049999D02*
X165825000Y-127950001D01*
G75*
G02*
X165575001Y-128200000I-249999J0D01*
G01*
X164924999Y-128200000D01*
G75*
G02*
X164675000Y-127950001I0J249999D01*
G01*
X164675000Y-127049999D01*
G75*
G02*
X164924999Y-126800000I249999J0D01*
G01*
X165575001Y-126800000D01*
G75*
G02*
X165825000Y-127049999I0J-249999D01*
G01*
G37*
G04 #@! TD*
G04 #@! TO.C,D20*
G36*
G01*
X174575000Y-91049999D02*
X174575000Y-91950001D01*
G75*
G02*
X174325001Y-92200000I-249999J0D01*
G01*
X173674999Y-92200000D01*
G75*
G02*
X173425000Y-91950001I0J249999D01*
G01*
X173425000Y-91049999D01*
G75*
G02*
X173674999Y-90800000I249999J0D01*
G01*
X174325001Y-90800000D01*
G75*
G02*
X174575000Y-91049999I0J-249999D01*
G01*
G37*
G36*
G01*
X176625000Y-91049999D02*
X176625000Y-91950001D01*
G75*
G02*
X176375001Y-92200000I-249999J0D01*
G01*
X175724999Y-92200000D01*
G75*
G02*
X175475000Y-91950001I0J249999D01*
G01*
X175475000Y-91049999D01*
G75*
G02*
X175724999Y-90800000I249999J0D01*
G01*
X176375001Y-90800000D01*
G75*
G02*
X176625000Y-91049999I0J-249999D01*
G01*
G37*
G04 #@! TD*
G04 #@! TO.C,D14*
G36*
G01*
X176025000Y-63049999D02*
X176025000Y-63950001D01*
G75*
G02*
X175775001Y-64200000I-249999J0D01*
G01*
X175124999Y-64200000D01*
G75*
G02*
X174875000Y-63950001I0J249999D01*
G01*
X174875000Y-63049999D01*
G75*
G02*
X175124999Y-62800000I249999J0D01*
G01*
X175775001Y-62800000D01*
G75*
G02*
X176025000Y-63049999I0J-249999D01*
G01*
G37*
G36*
G01*
X178075000Y-63049999D02*
X178075000Y-63950001D01*
G75*
G02*
X177825001Y-64200000I-249999J0D01*
G01*
X177174999Y-64200000D01*
G75*
G02*
X176925000Y-63950001I0J249999D01*
G01*
X176925000Y-63049999D01*
G75*
G02*
X177174999Y-62800000I249999J0D01*
G01*
X177825001Y-62800000D01*
G75*
G02*
X178075000Y-63049999I0J-249999D01*
G01*
G37*
G04 #@! TD*
M02*
