G04 #@! TF.GenerationSoftware,KiCad,Pcbnew,5.1.10-88a1d61d58~88~ubuntu20.04.1*
G04 #@! TF.CreationDate,2021-06-07T13:22:34+01:00*
G04 #@! TF.ProjectId,wings,77696e67-732e-46b6-9963-61645f706362,rev?*
G04 #@! TF.SameCoordinates,Original*
G04 #@! TF.FileFunction,Copper,L2,Bot*
G04 #@! TF.FilePolarity,Positive*
%FSLAX46Y46*%
G04 Gerber Fmt 4.6, Leading zero omitted, Abs format (unit mm)*
G04 Created by KiCad (PCBNEW 5.1.10-88a1d61d58~88~ubuntu20.04.1) date 2021-06-07 13:22:34*
%MOMM*%
%LPD*%
G01*
G04 APERTURE LIST*
G04 #@! TA.AperFunction,SMDPad,CuDef*
%ADD10R,2.000000X1.500000*%
G04 #@! TD*
G04 #@! TA.AperFunction,ViaPad*
%ADD11C,0.800000*%
G04 #@! TD*
G04 #@! TA.AperFunction,Conductor*
%ADD12C,0.250000*%
G04 #@! TD*
G04 #@! TA.AperFunction,Conductor*
%ADD13C,0.254000*%
G04 #@! TD*
G04 #@! TA.AperFunction,Conductor*
%ADD14C,0.100000*%
G04 #@! TD*
G04 APERTURE END LIST*
G04 #@! TO.P,R19,2*
G04 #@! TO.N,Net-(D19-Pad2)*
G04 #@! TA.AperFunction,SMDPad,CuDef*
G36*
G01*
X167350000Y-112299999D02*
X167350000Y-113200001D01*
G75*
G02*
X167100001Y-113450000I-249999J0D01*
G01*
X166399999Y-113450000D01*
G75*
G02*
X166150000Y-113200001I0J249999D01*
G01*
X166150000Y-112299999D01*
G75*
G02*
X166399999Y-112050000I249999J0D01*
G01*
X167100001Y-112050000D01*
G75*
G02*
X167350000Y-112299999I0J-249999D01*
G01*
G37*
G04 #@! TD.AperFunction*
G04 #@! TO.P,R19,1*
G04 #@! TO.N,+5V*
G04 #@! TA.AperFunction,SMDPad,CuDef*
G36*
G01*
X169350000Y-112299999D02*
X169350000Y-113200001D01*
G75*
G02*
X169100001Y-113450000I-249999J0D01*
G01*
X168399999Y-113450000D01*
G75*
G02*
X168150000Y-113200001I0J249999D01*
G01*
X168150000Y-112299999D01*
G75*
G02*
X168399999Y-112050000I249999J0D01*
G01*
X169100001Y-112050000D01*
G75*
G02*
X169350000Y-112299999I0J-249999D01*
G01*
G37*
G04 #@! TD.AperFunction*
G04 #@! TD*
G04 #@! TO.P,R13,2*
G04 #@! TO.N,Net-(D13-Pad2)*
G04 #@! TA.AperFunction,SMDPad,CuDef*
G36*
G01*
X184350000Y-77049999D02*
X184350000Y-77950001D01*
G75*
G02*
X184100001Y-78200000I-249999J0D01*
G01*
X183399999Y-78200000D01*
G75*
G02*
X183150000Y-77950001I0J249999D01*
G01*
X183150000Y-77049999D01*
G75*
G02*
X183399999Y-76800000I249999J0D01*
G01*
X184100001Y-76800000D01*
G75*
G02*
X184350000Y-77049999I0J-249999D01*
G01*
G37*
G04 #@! TD.AperFunction*
G04 #@! TO.P,R13,1*
G04 #@! TO.N,+5V*
G04 #@! TA.AperFunction,SMDPad,CuDef*
G36*
G01*
X186350000Y-77049999D02*
X186350000Y-77950001D01*
G75*
G02*
X186100001Y-78200000I-249999J0D01*
G01*
X185399999Y-78200000D01*
G75*
G02*
X185150000Y-77950001I0J249999D01*
G01*
X185150000Y-77049999D01*
G75*
G02*
X185399999Y-76800000I249999J0D01*
G01*
X186100001Y-76800000D01*
G75*
G02*
X186350000Y-77049999I0J-249999D01*
G01*
G37*
G04 #@! TD.AperFunction*
G04 #@! TD*
G04 #@! TO.P,R12,2*
G04 #@! TO.N,Net-(D12-Pad2)*
G04 #@! TA.AperFunction,SMDPad,CuDef*
G36*
G01*
X187100000Y-92799999D02*
X187100000Y-93700001D01*
G75*
G02*
X186850001Y-93950000I-249999J0D01*
G01*
X186149999Y-93950000D01*
G75*
G02*
X185900000Y-93700001I0J249999D01*
G01*
X185900000Y-92799999D01*
G75*
G02*
X186149999Y-92550000I249999J0D01*
G01*
X186850001Y-92550000D01*
G75*
G02*
X187100000Y-92799999I0J-249999D01*
G01*
G37*
G04 #@! TD.AperFunction*
G04 #@! TO.P,R12,1*
G04 #@! TO.N,+5V*
G04 #@! TA.AperFunction,SMDPad,CuDef*
G36*
G01*
X189100000Y-92799999D02*
X189100000Y-93700001D01*
G75*
G02*
X188850001Y-93950000I-249999J0D01*
G01*
X188149999Y-93950000D01*
G75*
G02*
X187900000Y-93700001I0J249999D01*
G01*
X187900000Y-92799999D01*
G75*
G02*
X188149999Y-92550000I249999J0D01*
G01*
X188850001Y-92550000D01*
G75*
G02*
X189100000Y-92799999I0J-249999D01*
G01*
G37*
G04 #@! TD.AperFunction*
G04 #@! TD*
G04 #@! TO.P,R11,2*
G04 #@! TO.N,Net-(D11-Pad2)*
G04 #@! TA.AperFunction,SMDPad,CuDef*
G36*
G01*
X184350000Y-109299999D02*
X184350000Y-110200001D01*
G75*
G02*
X184100001Y-110450000I-249999J0D01*
G01*
X183399999Y-110450000D01*
G75*
G02*
X183150000Y-110200001I0J249999D01*
G01*
X183150000Y-109299999D01*
G75*
G02*
X183399999Y-109050000I249999J0D01*
G01*
X184100001Y-109050000D01*
G75*
G02*
X184350000Y-109299999I0J-249999D01*
G01*
G37*
G04 #@! TD.AperFunction*
G04 #@! TO.P,R11,1*
G04 #@! TO.N,+5V*
G04 #@! TA.AperFunction,SMDPad,CuDef*
G36*
G01*
X186350000Y-109299999D02*
X186350000Y-110200001D01*
G75*
G02*
X186100001Y-110450000I-249999J0D01*
G01*
X185399999Y-110450000D01*
G75*
G02*
X185150000Y-110200001I0J249999D01*
G01*
X185150000Y-109299999D01*
G75*
G02*
X185399999Y-109050000I249999J0D01*
G01*
X186100001Y-109050000D01*
G75*
G02*
X186350000Y-109299999I0J-249999D01*
G01*
G37*
G04 #@! TD.AperFunction*
G04 #@! TD*
G04 #@! TO.P,R10,2*
G04 #@! TO.N,Net-(D10-Pad2)*
G04 #@! TA.AperFunction,SMDPad,CuDef*
G36*
G01*
X176100000Y-121049999D02*
X176100000Y-121950001D01*
G75*
G02*
X175850001Y-122200000I-249999J0D01*
G01*
X175149999Y-122200000D01*
G75*
G02*
X174900000Y-121950001I0J249999D01*
G01*
X174900000Y-121049999D01*
G75*
G02*
X175149999Y-120800000I249999J0D01*
G01*
X175850001Y-120800000D01*
G75*
G02*
X176100000Y-121049999I0J-249999D01*
G01*
G37*
G04 #@! TD.AperFunction*
G04 #@! TO.P,R10,1*
G04 #@! TO.N,+5V*
G04 #@! TA.AperFunction,SMDPad,CuDef*
G36*
G01*
X178100000Y-121049999D02*
X178100000Y-121950001D01*
G75*
G02*
X177850001Y-122200000I-249999J0D01*
G01*
X177149999Y-122200000D01*
G75*
G02*
X176900000Y-121950001I0J249999D01*
G01*
X176900000Y-121049999D01*
G75*
G02*
X177149999Y-120800000I249999J0D01*
G01*
X177850001Y-120800000D01*
G75*
G02*
X178100000Y-121049999I0J-249999D01*
G01*
G37*
G04 #@! TD.AperFunction*
G04 #@! TD*
G04 #@! TO.P,R21,2*
G04 #@! TO.N,Net-(D21-Pad2)*
G04 #@! TA.AperFunction,SMDPad,CuDef*
G36*
G01*
X167350000Y-73799999D02*
X167350000Y-74700001D01*
G75*
G02*
X167100001Y-74950000I-249999J0D01*
G01*
X166399999Y-74950000D01*
G75*
G02*
X166150000Y-74700001I0J249999D01*
G01*
X166150000Y-73799999D01*
G75*
G02*
X166399999Y-73550000I249999J0D01*
G01*
X167100001Y-73550000D01*
G75*
G02*
X167350000Y-73799999I0J-249999D01*
G01*
G37*
G04 #@! TD.AperFunction*
G04 #@! TO.P,R21,1*
G04 #@! TO.N,+5V*
G04 #@! TA.AperFunction,SMDPad,CuDef*
G36*
G01*
X169350000Y-73799999D02*
X169350000Y-74700001D01*
G75*
G02*
X169100001Y-74950000I-249999J0D01*
G01*
X168399999Y-74950000D01*
G75*
G02*
X168150000Y-74700001I0J249999D01*
G01*
X168150000Y-73799999D01*
G75*
G02*
X168399999Y-73550000I249999J0D01*
G01*
X169100001Y-73550000D01*
G75*
G02*
X169350000Y-73799999I0J-249999D01*
G01*
G37*
G04 #@! TD.AperFunction*
G04 #@! TD*
G04 #@! TO.P,R15,2*
G04 #@! TO.N,Net-(D15-Pad2)*
G04 #@! TA.AperFunction,SMDPad,CuDef*
G36*
G01*
X164100000Y-56799999D02*
X164100000Y-57700001D01*
G75*
G02*
X163850001Y-57950000I-249999J0D01*
G01*
X163149999Y-57950000D01*
G75*
G02*
X162900000Y-57700001I0J249999D01*
G01*
X162900000Y-56799999D01*
G75*
G02*
X163149999Y-56550000I249999J0D01*
G01*
X163850001Y-56550000D01*
G75*
G02*
X164100000Y-56799999I0J-249999D01*
G01*
G37*
G04 #@! TD.AperFunction*
G04 #@! TO.P,R15,1*
G04 #@! TO.N,+5V*
G04 #@! TA.AperFunction,SMDPad,CuDef*
G36*
G01*
X166100000Y-56799999D02*
X166100000Y-57700001D01*
G75*
G02*
X165850001Y-57950000I-249999J0D01*
G01*
X165149999Y-57950000D01*
G75*
G02*
X164900000Y-57700001I0J249999D01*
G01*
X164900000Y-56799999D01*
G75*
G02*
X165149999Y-56550000I249999J0D01*
G01*
X165850001Y-56550000D01*
G75*
G02*
X166100000Y-56799999I0J-249999D01*
G01*
G37*
G04 #@! TD.AperFunction*
G04 #@! TD*
G04 #@! TO.P,R9,2*
G04 #@! TO.N,Net-(D9-Pad2)*
G04 #@! TA.AperFunction,SMDPad,CuDef*
G36*
G01*
X163850000Y-129049999D02*
X163850000Y-129950001D01*
G75*
G02*
X163600001Y-130200000I-249999J0D01*
G01*
X162899999Y-130200000D01*
G75*
G02*
X162650000Y-129950001I0J249999D01*
G01*
X162650000Y-129049999D01*
G75*
G02*
X162899999Y-128800000I249999J0D01*
G01*
X163600001Y-128800000D01*
G75*
G02*
X163850000Y-129049999I0J-249999D01*
G01*
G37*
G04 #@! TD.AperFunction*
G04 #@! TO.P,R9,1*
G04 #@! TO.N,+5V*
G04 #@! TA.AperFunction,SMDPad,CuDef*
G36*
G01*
X165850000Y-129049999D02*
X165850000Y-129950001D01*
G75*
G02*
X165600001Y-130200000I-249999J0D01*
G01*
X164899999Y-130200000D01*
G75*
G02*
X164650000Y-129950001I0J249999D01*
G01*
X164650000Y-129049999D01*
G75*
G02*
X164899999Y-128800000I249999J0D01*
G01*
X165600001Y-128800000D01*
G75*
G02*
X165850000Y-129049999I0J-249999D01*
G01*
G37*
G04 #@! TD.AperFunction*
G04 #@! TD*
G04 #@! TO.P,R20,2*
G04 #@! TO.N,Net-(D20-Pad2)*
G04 #@! TA.AperFunction,SMDPad,CuDef*
G36*
G01*
X174600000Y-93049999D02*
X174600000Y-93950001D01*
G75*
G02*
X174350001Y-94200000I-249999J0D01*
G01*
X173649999Y-94200000D01*
G75*
G02*
X173400000Y-93950001I0J249999D01*
G01*
X173400000Y-93049999D01*
G75*
G02*
X173649999Y-92800000I249999J0D01*
G01*
X174350001Y-92800000D01*
G75*
G02*
X174600000Y-93049999I0J-249999D01*
G01*
G37*
G04 #@! TD.AperFunction*
G04 #@! TO.P,R20,1*
G04 #@! TO.N,+5V*
G04 #@! TA.AperFunction,SMDPad,CuDef*
G36*
G01*
X176600000Y-93049999D02*
X176600000Y-93950001D01*
G75*
G02*
X176350001Y-94200000I-249999J0D01*
G01*
X175649999Y-94200000D01*
G75*
G02*
X175400000Y-93950001I0J249999D01*
G01*
X175400000Y-93049999D01*
G75*
G02*
X175649999Y-92800000I249999J0D01*
G01*
X176350001Y-92800000D01*
G75*
G02*
X176600000Y-93049999I0J-249999D01*
G01*
G37*
G04 #@! TD.AperFunction*
G04 #@! TD*
G04 #@! TO.P,R14,2*
G04 #@! TO.N,Net-(D14-Pad2)*
G04 #@! TA.AperFunction,SMDPad,CuDef*
G36*
G01*
X176100000Y-65049999D02*
X176100000Y-65950001D01*
G75*
G02*
X175850001Y-66200000I-249999J0D01*
G01*
X175149999Y-66200000D01*
G75*
G02*
X174900000Y-65950001I0J249999D01*
G01*
X174900000Y-65049999D01*
G75*
G02*
X175149999Y-64800000I249999J0D01*
G01*
X175850001Y-64800000D01*
G75*
G02*
X176100000Y-65049999I0J-249999D01*
G01*
G37*
G04 #@! TD.AperFunction*
G04 #@! TO.P,R14,1*
G04 #@! TO.N,+5V*
G04 #@! TA.AperFunction,SMDPad,CuDef*
G36*
G01*
X178100000Y-65049999D02*
X178100000Y-65950001D01*
G75*
G02*
X177850001Y-66200000I-249999J0D01*
G01*
X177149999Y-66200000D01*
G75*
G02*
X176900000Y-65950001I0J249999D01*
G01*
X176900000Y-65049999D01*
G75*
G02*
X177149999Y-64800000I249999J0D01*
G01*
X177850001Y-64800000D01*
G75*
G02*
X178100000Y-65049999I0J-249999D01*
G01*
G37*
G04 #@! TD.AperFunction*
G04 #@! TD*
D10*
G04 #@! TO.P,J4,5*
G04 #@! TO.N,LED9*
X149750000Y-137000000D03*
G04 #@! TO.P,J4,4*
G04 #@! TO.N,LED3*
X149750000Y-135000000D03*
G04 #@! TO.P,J4,3*
G04 #@! TO.N,LED16*
X149750000Y-133000000D03*
G04 #@! TO.P,J4,2*
G04 #@! TO.N,LED4*
X149750000Y-131000000D03*
G04 #@! TO.P,J4,1*
G04 #@! TO.N,LED17*
X149750000Y-129000000D03*
G04 #@! TD*
G04 #@! TO.P,J1,6*
G04 #@! TO.N,LED11*
X149750000Y-60500000D03*
G04 #@! TO.P,J1,5*
G04 #@! TO.N,LED12*
X149750000Y-58500000D03*
G04 #@! TO.P,J1,4*
G04 #@! TO.N,LED13*
X149750000Y-56500000D03*
G04 #@! TO.P,J1,3*
G04 #@! TO.N,LED14*
X149750000Y-54500000D03*
G04 #@! TO.P,J1,2*
G04 #@! TO.N,LED15*
X149750000Y-52500000D03*
G04 #@! TO.P,J1,1*
G04 #@! TO.N,+5V*
X149750000Y-50500000D03*
G04 #@! TD*
G04 #@! TO.P,D19,2*
G04 #@! TO.N,Net-(D19-Pad2)*
G04 #@! TA.AperFunction,SMDPad,CuDef*
G36*
G01*
X167275000Y-110299999D02*
X167275000Y-111200001D01*
G75*
G02*
X167025001Y-111450000I-249999J0D01*
G01*
X166374999Y-111450000D01*
G75*
G02*
X166125000Y-111200001I0J249999D01*
G01*
X166125000Y-110299999D01*
G75*
G02*
X166374999Y-110050000I249999J0D01*
G01*
X167025001Y-110050000D01*
G75*
G02*
X167275000Y-110299999I0J-249999D01*
G01*
G37*
G04 #@! TD.AperFunction*
G04 #@! TO.P,D19,1*
G04 #@! TO.N,LED19*
G04 #@! TA.AperFunction,SMDPad,CuDef*
G36*
G01*
X169325000Y-110299999D02*
X169325000Y-111200001D01*
G75*
G02*
X169075001Y-111450000I-249999J0D01*
G01*
X168424999Y-111450000D01*
G75*
G02*
X168175000Y-111200001I0J249999D01*
G01*
X168175000Y-110299999D01*
G75*
G02*
X168424999Y-110050000I249999J0D01*
G01*
X169075001Y-110050000D01*
G75*
G02*
X169325000Y-110299999I0J-249999D01*
G01*
G37*
G04 #@! TD.AperFunction*
G04 #@! TD*
G04 #@! TO.P,D13,2*
G04 #@! TO.N,Net-(D13-Pad2)*
G04 #@! TA.AperFunction,SMDPad,CuDef*
G36*
G01*
X184275000Y-75049999D02*
X184275000Y-75950001D01*
G75*
G02*
X184025001Y-76200000I-249999J0D01*
G01*
X183374999Y-76200000D01*
G75*
G02*
X183125000Y-75950001I0J249999D01*
G01*
X183125000Y-75049999D01*
G75*
G02*
X183374999Y-74800000I249999J0D01*
G01*
X184025001Y-74800000D01*
G75*
G02*
X184275000Y-75049999I0J-249999D01*
G01*
G37*
G04 #@! TD.AperFunction*
G04 #@! TO.P,D13,1*
G04 #@! TO.N,LED13*
G04 #@! TA.AperFunction,SMDPad,CuDef*
G36*
G01*
X186325000Y-75049999D02*
X186325000Y-75950001D01*
G75*
G02*
X186075001Y-76200000I-249999J0D01*
G01*
X185424999Y-76200000D01*
G75*
G02*
X185175000Y-75950001I0J249999D01*
G01*
X185175000Y-75049999D01*
G75*
G02*
X185424999Y-74800000I249999J0D01*
G01*
X186075001Y-74800000D01*
G75*
G02*
X186325000Y-75049999I0J-249999D01*
G01*
G37*
G04 #@! TD.AperFunction*
G04 #@! TD*
G04 #@! TO.P,D12,2*
G04 #@! TO.N,Net-(D12-Pad2)*
G04 #@! TA.AperFunction,SMDPad,CuDef*
G36*
G01*
X187050000Y-90799999D02*
X187050000Y-91700001D01*
G75*
G02*
X186800001Y-91950000I-249999J0D01*
G01*
X186149999Y-91950000D01*
G75*
G02*
X185900000Y-91700001I0J249999D01*
G01*
X185900000Y-90799999D01*
G75*
G02*
X186149999Y-90550000I249999J0D01*
G01*
X186800001Y-90550000D01*
G75*
G02*
X187050000Y-90799999I0J-249999D01*
G01*
G37*
G04 #@! TD.AperFunction*
G04 #@! TO.P,D12,1*
G04 #@! TO.N,LED12*
G04 #@! TA.AperFunction,SMDPad,CuDef*
G36*
G01*
X189100000Y-90799999D02*
X189100000Y-91700001D01*
G75*
G02*
X188850001Y-91950000I-249999J0D01*
G01*
X188199999Y-91950000D01*
G75*
G02*
X187950000Y-91700001I0J249999D01*
G01*
X187950000Y-90799999D01*
G75*
G02*
X188199999Y-90550000I249999J0D01*
G01*
X188850001Y-90550000D01*
G75*
G02*
X189100000Y-90799999I0J-249999D01*
G01*
G37*
G04 #@! TD.AperFunction*
G04 #@! TD*
G04 #@! TO.P,D11,2*
G04 #@! TO.N,Net-(D11-Pad2)*
G04 #@! TA.AperFunction,SMDPad,CuDef*
G36*
G01*
X184275000Y-107299999D02*
X184275000Y-108200001D01*
G75*
G02*
X184025001Y-108450000I-249999J0D01*
G01*
X183374999Y-108450000D01*
G75*
G02*
X183125000Y-108200001I0J249999D01*
G01*
X183125000Y-107299999D01*
G75*
G02*
X183374999Y-107050000I249999J0D01*
G01*
X184025001Y-107050000D01*
G75*
G02*
X184275000Y-107299999I0J-249999D01*
G01*
G37*
G04 #@! TD.AperFunction*
G04 #@! TO.P,D11,1*
G04 #@! TO.N,LED11*
G04 #@! TA.AperFunction,SMDPad,CuDef*
G36*
G01*
X186325000Y-107299999D02*
X186325000Y-108200001D01*
G75*
G02*
X186075001Y-108450000I-249999J0D01*
G01*
X185424999Y-108450000D01*
G75*
G02*
X185175000Y-108200001I0J249999D01*
G01*
X185175000Y-107299999D01*
G75*
G02*
X185424999Y-107050000I249999J0D01*
G01*
X186075001Y-107050000D01*
G75*
G02*
X186325000Y-107299999I0J-249999D01*
G01*
G37*
G04 #@! TD.AperFunction*
G04 #@! TD*
G04 #@! TO.P,D10,2*
G04 #@! TO.N,Net-(D10-Pad2)*
G04 #@! TA.AperFunction,SMDPad,CuDef*
G36*
G01*
X176025000Y-119049999D02*
X176025000Y-119950001D01*
G75*
G02*
X175775001Y-120200000I-249999J0D01*
G01*
X175124999Y-120200000D01*
G75*
G02*
X174875000Y-119950001I0J249999D01*
G01*
X174875000Y-119049999D01*
G75*
G02*
X175124999Y-118800000I249999J0D01*
G01*
X175775001Y-118800000D01*
G75*
G02*
X176025000Y-119049999I0J-249999D01*
G01*
G37*
G04 #@! TD.AperFunction*
G04 #@! TO.P,D10,1*
G04 #@! TO.N,LED10*
G04 #@! TA.AperFunction,SMDPad,CuDef*
G36*
G01*
X178075000Y-119049999D02*
X178075000Y-119950001D01*
G75*
G02*
X177825001Y-120200000I-249999J0D01*
G01*
X177174999Y-120200000D01*
G75*
G02*
X176925000Y-119950001I0J249999D01*
G01*
X176925000Y-119049999D01*
G75*
G02*
X177174999Y-118800000I249999J0D01*
G01*
X177825001Y-118800000D01*
G75*
G02*
X178075000Y-119049999I0J-249999D01*
G01*
G37*
G04 #@! TD.AperFunction*
G04 #@! TD*
G04 #@! TO.P,D21,2*
G04 #@! TO.N,Net-(D21-Pad2)*
G04 #@! TA.AperFunction,SMDPad,CuDef*
G36*
G01*
X167275000Y-71799999D02*
X167275000Y-72700001D01*
G75*
G02*
X167025001Y-72950000I-249999J0D01*
G01*
X166374999Y-72950000D01*
G75*
G02*
X166125000Y-72700001I0J249999D01*
G01*
X166125000Y-71799999D01*
G75*
G02*
X166374999Y-71550000I249999J0D01*
G01*
X167025001Y-71550000D01*
G75*
G02*
X167275000Y-71799999I0J-249999D01*
G01*
G37*
G04 #@! TD.AperFunction*
G04 #@! TO.P,D21,1*
G04 #@! TO.N,LED21*
G04 #@! TA.AperFunction,SMDPad,CuDef*
G36*
G01*
X169325000Y-71799999D02*
X169325000Y-72700001D01*
G75*
G02*
X169075001Y-72950000I-249999J0D01*
G01*
X168424999Y-72950000D01*
G75*
G02*
X168175000Y-72700001I0J249999D01*
G01*
X168175000Y-71799999D01*
G75*
G02*
X168424999Y-71550000I249999J0D01*
G01*
X169075001Y-71550000D01*
G75*
G02*
X169325000Y-71799999I0J-249999D01*
G01*
G37*
G04 #@! TD.AperFunction*
G04 #@! TD*
G04 #@! TO.P,D15,2*
G04 #@! TO.N,Net-(D15-Pad2)*
G04 #@! TA.AperFunction,SMDPad,CuDef*
G36*
G01*
X164025000Y-54799999D02*
X164025000Y-55700001D01*
G75*
G02*
X163775001Y-55950000I-249999J0D01*
G01*
X163124999Y-55950000D01*
G75*
G02*
X162875000Y-55700001I0J249999D01*
G01*
X162875000Y-54799999D01*
G75*
G02*
X163124999Y-54550000I249999J0D01*
G01*
X163775001Y-54550000D01*
G75*
G02*
X164025000Y-54799999I0J-249999D01*
G01*
G37*
G04 #@! TD.AperFunction*
G04 #@! TO.P,D15,1*
G04 #@! TO.N,LED15*
G04 #@! TA.AperFunction,SMDPad,CuDef*
G36*
G01*
X166075000Y-54799999D02*
X166075000Y-55700001D01*
G75*
G02*
X165825001Y-55950000I-249999J0D01*
G01*
X165174999Y-55950000D01*
G75*
G02*
X164925000Y-55700001I0J249999D01*
G01*
X164925000Y-54799999D01*
G75*
G02*
X165174999Y-54550000I249999J0D01*
G01*
X165825001Y-54550000D01*
G75*
G02*
X166075000Y-54799999I0J-249999D01*
G01*
G37*
G04 #@! TD.AperFunction*
G04 #@! TD*
G04 #@! TO.P,D9,2*
G04 #@! TO.N,Net-(D9-Pad2)*
G04 #@! TA.AperFunction,SMDPad,CuDef*
G36*
G01*
X163775000Y-127049999D02*
X163775000Y-127950001D01*
G75*
G02*
X163525001Y-128200000I-249999J0D01*
G01*
X162874999Y-128200000D01*
G75*
G02*
X162625000Y-127950001I0J249999D01*
G01*
X162625000Y-127049999D01*
G75*
G02*
X162874999Y-126800000I249999J0D01*
G01*
X163525001Y-126800000D01*
G75*
G02*
X163775000Y-127049999I0J-249999D01*
G01*
G37*
G04 #@! TD.AperFunction*
G04 #@! TO.P,D9,1*
G04 #@! TO.N,LED9*
G04 #@! TA.AperFunction,SMDPad,CuDef*
G36*
G01*
X165825000Y-127049999D02*
X165825000Y-127950001D01*
G75*
G02*
X165575001Y-128200000I-249999J0D01*
G01*
X164924999Y-128200000D01*
G75*
G02*
X164675000Y-127950001I0J249999D01*
G01*
X164675000Y-127049999D01*
G75*
G02*
X164924999Y-126800000I249999J0D01*
G01*
X165575001Y-126800000D01*
G75*
G02*
X165825000Y-127049999I0J-249999D01*
G01*
G37*
G04 #@! TD.AperFunction*
G04 #@! TD*
G04 #@! TO.P,D20,2*
G04 #@! TO.N,Net-(D20-Pad2)*
G04 #@! TA.AperFunction,SMDPad,CuDef*
G36*
G01*
X174575000Y-91049999D02*
X174575000Y-91950001D01*
G75*
G02*
X174325001Y-92200000I-249999J0D01*
G01*
X173674999Y-92200000D01*
G75*
G02*
X173425000Y-91950001I0J249999D01*
G01*
X173425000Y-91049999D01*
G75*
G02*
X173674999Y-90800000I249999J0D01*
G01*
X174325001Y-90800000D01*
G75*
G02*
X174575000Y-91049999I0J-249999D01*
G01*
G37*
G04 #@! TD.AperFunction*
G04 #@! TO.P,D20,1*
G04 #@! TO.N,LED20*
G04 #@! TA.AperFunction,SMDPad,CuDef*
G36*
G01*
X176625000Y-91049999D02*
X176625000Y-91950001D01*
G75*
G02*
X176375001Y-92200000I-249999J0D01*
G01*
X175724999Y-92200000D01*
G75*
G02*
X175475000Y-91950001I0J249999D01*
G01*
X175475000Y-91049999D01*
G75*
G02*
X175724999Y-90800000I249999J0D01*
G01*
X176375001Y-90800000D01*
G75*
G02*
X176625000Y-91049999I0J-249999D01*
G01*
G37*
G04 #@! TD.AperFunction*
G04 #@! TD*
G04 #@! TO.P,D14,2*
G04 #@! TO.N,Net-(D14-Pad2)*
G04 #@! TA.AperFunction,SMDPad,CuDef*
G36*
G01*
X176025000Y-63049999D02*
X176025000Y-63950001D01*
G75*
G02*
X175775001Y-64200000I-249999J0D01*
G01*
X175124999Y-64200000D01*
G75*
G02*
X174875000Y-63950001I0J249999D01*
G01*
X174875000Y-63049999D01*
G75*
G02*
X175124999Y-62800000I249999J0D01*
G01*
X175775001Y-62800000D01*
G75*
G02*
X176025000Y-63049999I0J-249999D01*
G01*
G37*
G04 #@! TD.AperFunction*
G04 #@! TO.P,D14,1*
G04 #@! TO.N,LED14*
G04 #@! TA.AperFunction,SMDPad,CuDef*
G36*
G01*
X178075000Y-63049999D02*
X178075000Y-63950001D01*
G75*
G02*
X177825001Y-64200000I-249999J0D01*
G01*
X177174999Y-64200000D01*
G75*
G02*
X176925000Y-63950001I0J249999D01*
G01*
X176925000Y-63049999D01*
G75*
G02*
X177174999Y-62800000I249999J0D01*
G01*
X177825001Y-62800000D01*
G75*
G02*
X178075000Y-63049999I0J-249999D01*
G01*
G37*
G04 #@! TD.AperFunction*
G04 #@! TD*
D11*
G04 #@! TO.N,LED20*
X178750000Y-88750000D03*
G04 #@! TO.N,LED21*
X161250000Y-63500000D03*
G04 #@! TO.N,LED10*
X177000000Y-104500000D03*
G04 #@! TO.N,LED16*
X167500000Y-133000000D03*
X165500000Y-69250000D03*
X164750000Y-72250000D03*
G04 #@! TO.N,LED3*
X163750000Y-135000000D03*
G04 #@! TO.N,LED17*
X175250000Y-88750000D03*
G04 #@! TO.N,LED4*
X184000000Y-91750000D03*
G04 #@! TO.N,LED19*
X178000000Y-105500000D03*
G04 #@! TO.N,+5V*
X168500000Y-116750000D03*
X190000000Y-77750000D03*
X183200000Y-112600000D03*
X153800000Y-128800000D03*
X173400000Y-115800000D03*
X177600000Y-131400000D03*
X169600000Y-78200000D03*
X166600000Y-59600000D03*
X176400000Y-96400000D03*
X162400000Y-131800000D03*
X188600000Y-82400000D03*
X181200000Y-81800000D03*
G04 #@! TD*
D12*
G04 #@! TO.N,LED14*
X150250000Y-54500000D02*
X157500000Y-54500000D01*
X157500000Y-54500000D02*
X164750000Y-61750000D01*
X175750000Y-61750000D02*
X177500000Y-63500000D01*
X164750000Y-61750000D02*
X175750000Y-61750000D01*
G04 #@! TO.N,LED20*
X176050000Y-91450000D02*
X176050000Y-91500000D01*
X178750000Y-88750000D02*
X176050000Y-91450000D01*
G04 #@! TO.N,LED9*
X167500000Y-127500000D02*
X165250000Y-127500000D01*
X168500000Y-128500000D02*
X167500000Y-127500000D01*
X168500000Y-135750000D02*
X168500000Y-128500000D01*
X167250000Y-137000000D02*
X168500000Y-135750000D01*
X150250000Y-137000000D02*
X167250000Y-137000000D01*
G04 #@! TO.N,LED15*
X162750000Y-52500000D02*
X165500000Y-55250000D01*
X150250000Y-52500000D02*
X162750000Y-52500000D01*
G04 #@! TO.N,LED21*
X168750000Y-71000000D02*
X168750000Y-72250000D01*
X161250000Y-63500000D02*
X168750000Y-71000000D01*
G04 #@! TO.N,Net-(D9-Pad2)*
X163200000Y-129450000D02*
X163250000Y-129500000D01*
X163200000Y-127500000D02*
X163200000Y-129450000D01*
G04 #@! TO.N,LED10*
X177000000Y-104500000D02*
X179000000Y-104500000D01*
X179000000Y-104500000D02*
X179750000Y-105250000D01*
X179750000Y-117250000D02*
X177500000Y-119500000D01*
X179750000Y-105250000D02*
X179750000Y-117250000D01*
G04 #@! TO.N,Net-(D10-Pad2)*
X175450000Y-121450000D02*
X175500000Y-121500000D01*
X175450000Y-119500000D02*
X175450000Y-121450000D01*
G04 #@! TO.N,LED16*
X149750000Y-133000000D02*
X167500000Y-133000000D01*
X164250000Y-71750000D02*
X164750000Y-72250000D01*
X164250000Y-70500000D02*
X164250000Y-71750000D01*
X165500000Y-69250000D02*
X164250000Y-70500000D01*
G04 #@! TO.N,Net-(D11-Pad2)*
X183700000Y-109700000D02*
X183750000Y-109750000D01*
X183700000Y-107750000D02*
X183700000Y-109700000D01*
G04 #@! TO.N,LED3*
X150250000Y-135000000D02*
X151500000Y-135000000D01*
X151500000Y-135000000D02*
X163750000Y-135000000D01*
G04 #@! TO.N,Net-(D12-Pad2)*
X186475000Y-93225000D02*
X186500000Y-93250000D01*
X186475000Y-91250000D02*
X186475000Y-93225000D01*
G04 #@! TO.N,LED11*
X150250000Y-60500000D02*
X159500000Y-60500000D01*
X167750000Y-68750000D02*
X172113590Y-68750000D01*
X182800000Y-104100000D02*
X185750000Y-107050000D01*
X185750000Y-107050000D02*
X185750000Y-107750000D01*
X159500000Y-60500000D02*
X167750000Y-68750000D01*
X172113590Y-68750000D02*
X182800000Y-79436410D01*
X182800000Y-79436410D02*
X182800000Y-104100000D01*
G04 #@! TO.N,Net-(D13-Pad2)*
X183700000Y-77450000D02*
X183750000Y-77500000D01*
X183700000Y-75500000D02*
X183700000Y-77450000D01*
G04 #@! TO.N,LED17*
X158250000Y-129000000D02*
X162000000Y-125250000D01*
X162000000Y-125250000D02*
X177500000Y-125250000D01*
X180200009Y-89127007D02*
X177323002Y-86250000D01*
X180200009Y-122549991D02*
X180200009Y-89127007D01*
X177500000Y-125250000D02*
X180200009Y-122549991D01*
X177323002Y-86250000D02*
X176000000Y-86250000D01*
X175250000Y-87000000D02*
X175250000Y-88750000D01*
X176000000Y-86250000D02*
X175250000Y-87000000D01*
X158250000Y-129000000D02*
X158200000Y-129000000D01*
X158200000Y-129000000D02*
X157200000Y-130000000D01*
X152000000Y-130000000D02*
X151000000Y-129000000D01*
X151000000Y-129000000D02*
X149750000Y-129000000D01*
X157200000Y-130000000D02*
X152000000Y-130000000D01*
G04 #@! TO.N,Net-(D14-Pad2)*
X175450000Y-65450000D02*
X175500000Y-65500000D01*
X175450000Y-63500000D02*
X175450000Y-65450000D01*
G04 #@! TO.N,LED4*
X149750000Y-131000000D02*
X157750000Y-131000000D01*
X162275010Y-126474990D02*
X177775010Y-126474990D01*
X157750000Y-131000000D02*
X162275010Y-126474990D01*
X177775010Y-126474990D02*
X181000000Y-123250000D01*
X181000000Y-123250000D02*
X181000000Y-118500000D01*
X186675010Y-112824990D02*
X186675010Y-96175010D01*
X181000000Y-118500000D02*
X186675010Y-112824990D01*
X186675010Y-96175010D02*
X184250000Y-93750000D01*
X184000000Y-93500000D02*
X184000000Y-91750000D01*
X184250000Y-93750000D02*
X184000000Y-93500000D01*
G04 #@! TO.N,Net-(D15-Pad2)*
X163450000Y-57200000D02*
X163500000Y-57250000D01*
X163450000Y-55250000D02*
X163450000Y-57200000D01*
G04 #@! TO.N,LED12*
X168000000Y-67500000D02*
X171500000Y-67500000D01*
X188525000Y-84525000D02*
X188525000Y-90550000D01*
X159000000Y-58500000D02*
X168000000Y-67500000D01*
X150250000Y-58500000D02*
X159000000Y-58500000D01*
X171500000Y-67500000D02*
X188525000Y-84525000D01*
X188525000Y-90550000D02*
X188525000Y-91250000D01*
G04 #@! TO.N,LED13*
X182250000Y-73000000D02*
X184000000Y-73000000D01*
X185750000Y-74750000D02*
X185750000Y-75500000D01*
X184000000Y-73000000D02*
X185750000Y-74750000D01*
X177250000Y-68000000D02*
X178250000Y-69000000D01*
X175250000Y-68000000D02*
X177250000Y-68000000D01*
X173250000Y-66000000D02*
X175250000Y-68000000D01*
X150250000Y-56500000D02*
X158250000Y-56500000D01*
X158250000Y-56500000D02*
X167750000Y-66000000D01*
X178250000Y-69000000D02*
X182250000Y-73000000D01*
X167750000Y-66000000D02*
X173250000Y-66000000D01*
X178000000Y-68750000D02*
X178250000Y-69000000D01*
G04 #@! TO.N,Net-(D19-Pad2)*
X166700000Y-112700000D02*
X166750000Y-112750000D01*
X166700000Y-110750000D02*
X166700000Y-112700000D01*
G04 #@! TO.N,LED19*
X178000000Y-105500000D02*
X178000000Y-107750000D01*
X175000000Y-110750000D02*
X168750000Y-110750000D01*
X178000000Y-107750000D02*
X175000000Y-110750000D01*
G04 #@! TO.N,Net-(D20-Pad2)*
X174000000Y-91500000D02*
X174000000Y-93500000D01*
G04 #@! TO.N,+5V*
X176400000Y-96400000D02*
X176800000Y-96000000D01*
G04 #@! TO.N,Net-(D21-Pad2)*
X166700000Y-74200000D02*
X166750000Y-74250000D01*
X166700000Y-72250000D02*
X166700000Y-74200000D01*
G04 #@! TD*
D13*
G04 #@! TO.N,+5V*
X158124919Y-44108150D02*
X160811204Y-44720878D01*
X163459127Y-45482613D01*
X166060362Y-46390957D01*
X168606876Y-47443106D01*
X171090665Y-48635754D01*
X173504011Y-49965194D01*
X175839373Y-51427273D01*
X178089501Y-53017452D01*
X180247322Y-54730730D01*
X182306169Y-56561815D01*
X184259566Y-58504947D01*
X186101467Y-60554109D01*
X187826111Y-62702899D01*
X189428108Y-64944597D01*
X190902481Y-67272241D01*
X192244611Y-69678536D01*
X193450341Y-72156031D01*
X194515881Y-74696942D01*
X195437920Y-77293360D01*
X196213594Y-79937229D01*
X196840469Y-82620258D01*
X197316596Y-85334097D01*
X197640491Y-88070287D01*
X197811143Y-90820287D01*
X197828019Y-93575543D01*
X197691067Y-96327418D01*
X197400714Y-99067374D01*
X196957866Y-101786841D01*
X196363903Y-104477354D01*
X195620678Y-107130515D01*
X194730513Y-109738036D01*
X193696172Y-112291823D01*
X192520888Y-114783888D01*
X191208329Y-117206455D01*
X189762593Y-119551962D01*
X188188166Y-121813131D01*
X186489974Y-123982885D01*
X184673330Y-126054440D01*
X182743864Y-128021374D01*
X180707620Y-129877526D01*
X178570926Y-131617128D01*
X176340457Y-133234742D01*
X174023177Y-134725320D01*
X171626299Y-136084224D01*
X169157298Y-137307212D01*
X166623875Y-138390471D01*
X164033953Y-139330616D01*
X161395574Y-140124725D01*
X158716979Y-140770318D01*
X156006523Y-141265380D01*
X153272663Y-141608369D01*
X150521488Y-141798383D01*
X149160000Y-141826319D01*
X149160000Y-138388072D01*
X150750000Y-138388072D01*
X150874482Y-138375812D01*
X150994180Y-138339502D01*
X151104494Y-138280537D01*
X151201185Y-138201185D01*
X151280537Y-138104494D01*
X151339502Y-137994180D01*
X151375812Y-137874482D01*
X151387087Y-137760000D01*
X167212678Y-137760000D01*
X167250000Y-137763676D01*
X167287322Y-137760000D01*
X167287333Y-137760000D01*
X167398986Y-137749003D01*
X167542247Y-137705546D01*
X167674276Y-137634974D01*
X167790001Y-137540001D01*
X167813804Y-137510997D01*
X169011004Y-136313798D01*
X169040001Y-136290001D01*
X169087352Y-136232304D01*
X169134974Y-136174277D01*
X169205546Y-136042247D01*
X169214830Y-136011640D01*
X169249003Y-135898986D01*
X169260000Y-135787333D01*
X169260000Y-135787323D01*
X169263676Y-135750000D01*
X169260000Y-135712677D01*
X169260000Y-128537333D01*
X169263677Y-128500000D01*
X169256504Y-128427167D01*
X169249003Y-128351014D01*
X169205546Y-128207753D01*
X169134974Y-128075724D01*
X169040001Y-127959999D01*
X169011003Y-127936201D01*
X168309791Y-127234990D01*
X177737688Y-127234990D01*
X177775010Y-127238666D01*
X177812332Y-127234990D01*
X177812343Y-127234990D01*
X177923996Y-127223993D01*
X178067257Y-127180536D01*
X178199286Y-127109964D01*
X178315011Y-127014991D01*
X178338814Y-126985987D01*
X181511004Y-123813798D01*
X181540001Y-123790001D01*
X181634974Y-123674276D01*
X181705546Y-123542247D01*
X181749003Y-123398986D01*
X181760000Y-123287333D01*
X181760000Y-123287332D01*
X181763677Y-123250000D01*
X181760000Y-123212667D01*
X181760000Y-118814801D01*
X187186014Y-113388788D01*
X187215011Y-113364991D01*
X187276554Y-113290001D01*
X187309984Y-113249267D01*
X187380556Y-113117237D01*
X187387099Y-113095667D01*
X187424013Y-112973976D01*
X187435010Y-112862323D01*
X187435010Y-112862314D01*
X187438686Y-112824991D01*
X187435010Y-112787668D01*
X187435010Y-96212332D01*
X187438686Y-96175009D01*
X187435010Y-96137686D01*
X187435010Y-96137677D01*
X187424013Y-96026024D01*
X187380556Y-95882763D01*
X187369325Y-95861752D01*
X187309984Y-95750733D01*
X187238809Y-95664007D01*
X187215011Y-95635009D01*
X187186013Y-95611211D01*
X186162874Y-94588072D01*
X186850001Y-94588072D01*
X187023255Y-94571008D01*
X187189851Y-94520472D01*
X187343387Y-94438405D01*
X187424637Y-94371724D01*
X187448815Y-94401185D01*
X187545506Y-94480537D01*
X187655820Y-94539502D01*
X187775518Y-94575812D01*
X187900000Y-94588072D01*
X188214250Y-94585000D01*
X188373000Y-94426250D01*
X188373000Y-93377000D01*
X188627000Y-93377000D01*
X188627000Y-94426250D01*
X188785750Y-94585000D01*
X189100000Y-94588072D01*
X189224482Y-94575812D01*
X189344180Y-94539502D01*
X189454494Y-94480537D01*
X189551185Y-94401185D01*
X189630537Y-94304494D01*
X189689502Y-94194180D01*
X189725812Y-94074482D01*
X189738072Y-93950000D01*
X189735000Y-93535750D01*
X189576250Y-93377000D01*
X188627000Y-93377000D01*
X188373000Y-93377000D01*
X188353000Y-93377000D01*
X188353000Y-93123000D01*
X188373000Y-93123000D01*
X188373000Y-93103000D01*
X188627000Y-93103000D01*
X188627000Y-93123000D01*
X189576250Y-93123000D01*
X189735000Y-92964250D01*
X189738072Y-92550000D01*
X189725812Y-92425518D01*
X189689502Y-92305820D01*
X189630537Y-92195506D01*
X189604337Y-92163581D01*
X189670472Y-92039851D01*
X189721008Y-91873255D01*
X189738072Y-91700001D01*
X189738072Y-90799999D01*
X189721008Y-90626745D01*
X189670472Y-90460149D01*
X189588405Y-90306613D01*
X189477962Y-90172038D01*
X189343387Y-90061595D01*
X189285000Y-90030386D01*
X189285000Y-84562323D01*
X189288676Y-84525000D01*
X189285000Y-84487677D01*
X189285000Y-84487667D01*
X189274003Y-84376014D01*
X189230546Y-84232753D01*
X189159975Y-84100725D01*
X189159974Y-84100723D01*
X189088799Y-84013997D01*
X189065001Y-83984999D01*
X189036004Y-83961202D01*
X183912874Y-78838072D01*
X184100001Y-78838072D01*
X184273255Y-78821008D01*
X184439851Y-78770472D01*
X184593387Y-78688405D01*
X184674637Y-78621724D01*
X184698815Y-78651185D01*
X184795506Y-78730537D01*
X184905820Y-78789502D01*
X185025518Y-78825812D01*
X185150000Y-78838072D01*
X185464250Y-78835000D01*
X185623000Y-78676250D01*
X185623000Y-77627000D01*
X185877000Y-77627000D01*
X185877000Y-78676250D01*
X186035750Y-78835000D01*
X186350000Y-78838072D01*
X186474482Y-78825812D01*
X186594180Y-78789502D01*
X186704494Y-78730537D01*
X186801185Y-78651185D01*
X186880537Y-78554494D01*
X186939502Y-78444180D01*
X186975812Y-78324482D01*
X186988072Y-78200000D01*
X186985000Y-77785750D01*
X186826250Y-77627000D01*
X185877000Y-77627000D01*
X185623000Y-77627000D01*
X185603000Y-77627000D01*
X185603000Y-77373000D01*
X185623000Y-77373000D01*
X185623000Y-77353000D01*
X185877000Y-77353000D01*
X185877000Y-77373000D01*
X186826250Y-77373000D01*
X186985000Y-77214250D01*
X186988072Y-76800000D01*
X186975812Y-76675518D01*
X186939502Y-76555820D01*
X186880537Y-76445506D01*
X186839197Y-76395133D01*
X186895472Y-76289851D01*
X186946008Y-76123255D01*
X186963072Y-75950001D01*
X186963072Y-75049999D01*
X186946008Y-74876745D01*
X186895472Y-74710149D01*
X186813405Y-74556613D01*
X186702962Y-74422038D01*
X186568387Y-74311595D01*
X186414851Y-74229528D01*
X186256206Y-74181404D01*
X184563804Y-72489003D01*
X184540001Y-72459999D01*
X184424276Y-72365026D01*
X184292247Y-72294454D01*
X184148986Y-72250997D01*
X184037333Y-72240000D01*
X184037322Y-72240000D01*
X184000000Y-72236324D01*
X183962678Y-72240000D01*
X182564802Y-72240000D01*
X178813804Y-68489003D01*
X178813799Y-68488997D01*
X177813804Y-67489002D01*
X177790001Y-67459999D01*
X177674276Y-67365026D01*
X177542247Y-67294454D01*
X177398986Y-67250997D01*
X177287333Y-67240000D01*
X177287322Y-67240000D01*
X177250000Y-67236324D01*
X177212678Y-67240000D01*
X175564802Y-67240000D01*
X175162874Y-66838072D01*
X175850001Y-66838072D01*
X176023255Y-66821008D01*
X176189851Y-66770472D01*
X176343387Y-66688405D01*
X176424637Y-66621724D01*
X176448815Y-66651185D01*
X176545506Y-66730537D01*
X176655820Y-66789502D01*
X176775518Y-66825812D01*
X176900000Y-66838072D01*
X177214250Y-66835000D01*
X177373000Y-66676250D01*
X177373000Y-65627000D01*
X177627000Y-65627000D01*
X177627000Y-66676250D01*
X177785750Y-66835000D01*
X178100000Y-66838072D01*
X178224482Y-66825812D01*
X178344180Y-66789502D01*
X178454494Y-66730537D01*
X178551185Y-66651185D01*
X178630537Y-66554494D01*
X178689502Y-66444180D01*
X178725812Y-66324482D01*
X178738072Y-66200000D01*
X178735000Y-65785750D01*
X178576250Y-65627000D01*
X177627000Y-65627000D01*
X177373000Y-65627000D01*
X177353000Y-65627000D01*
X177353000Y-65373000D01*
X177373000Y-65373000D01*
X177373000Y-65353000D01*
X177627000Y-65353000D01*
X177627000Y-65373000D01*
X178576250Y-65373000D01*
X178735000Y-65214250D01*
X178738072Y-64800000D01*
X178725812Y-64675518D01*
X178689502Y-64555820D01*
X178630537Y-64445506D01*
X178589197Y-64395133D01*
X178645472Y-64289851D01*
X178696008Y-64123255D01*
X178713072Y-63950001D01*
X178713072Y-63049999D01*
X178696008Y-62876745D01*
X178645472Y-62710149D01*
X178563405Y-62556613D01*
X178452962Y-62422038D01*
X178318387Y-62311595D01*
X178164851Y-62229528D01*
X177998255Y-62178992D01*
X177825001Y-62161928D01*
X177236730Y-62161928D01*
X176313804Y-61239003D01*
X176290001Y-61209999D01*
X176174276Y-61115026D01*
X176042247Y-61044454D01*
X175898986Y-61000997D01*
X175787333Y-60990000D01*
X175787322Y-60990000D01*
X175750000Y-60986324D01*
X175712678Y-60990000D01*
X165064802Y-60990000D01*
X158063804Y-53989003D01*
X158040001Y-53959999D01*
X157924276Y-53865026D01*
X157792247Y-53794454D01*
X157648986Y-53750997D01*
X157537333Y-53740000D01*
X157537322Y-53740000D01*
X157500000Y-53736324D01*
X157462678Y-53740000D01*
X151387087Y-53740000D01*
X151375812Y-53625518D01*
X151339502Y-53505820D01*
X151336391Y-53500000D01*
X151339502Y-53494180D01*
X151375812Y-53374482D01*
X151387087Y-53260000D01*
X162435199Y-53260000D01*
X163090522Y-53915324D01*
X162951745Y-53928992D01*
X162785149Y-53979528D01*
X162631613Y-54061595D01*
X162497038Y-54172038D01*
X162386595Y-54306613D01*
X162304528Y-54460149D01*
X162253992Y-54626745D01*
X162236928Y-54799999D01*
X162236928Y-55700001D01*
X162253992Y-55873255D01*
X162304528Y-56039851D01*
X162386595Y-56193387D01*
X162445556Y-56265231D01*
X162411595Y-56306613D01*
X162329528Y-56460149D01*
X162278992Y-56626745D01*
X162261928Y-56799999D01*
X162261928Y-57700001D01*
X162278992Y-57873255D01*
X162329528Y-58039851D01*
X162411595Y-58193387D01*
X162522038Y-58327962D01*
X162656613Y-58438405D01*
X162810149Y-58520472D01*
X162976745Y-58571008D01*
X163149999Y-58588072D01*
X163850001Y-58588072D01*
X164023255Y-58571008D01*
X164189851Y-58520472D01*
X164343387Y-58438405D01*
X164424637Y-58371724D01*
X164448815Y-58401185D01*
X164545506Y-58480537D01*
X164655820Y-58539502D01*
X164775518Y-58575812D01*
X164900000Y-58588072D01*
X165214250Y-58585000D01*
X165373000Y-58426250D01*
X165373000Y-57377000D01*
X165627000Y-57377000D01*
X165627000Y-58426250D01*
X165785750Y-58585000D01*
X166100000Y-58588072D01*
X166224482Y-58575812D01*
X166344180Y-58539502D01*
X166454494Y-58480537D01*
X166551185Y-58401185D01*
X166630537Y-58304494D01*
X166689502Y-58194180D01*
X166725812Y-58074482D01*
X166738072Y-57950000D01*
X166735000Y-57535750D01*
X166576250Y-57377000D01*
X165627000Y-57377000D01*
X165373000Y-57377000D01*
X165353000Y-57377000D01*
X165353000Y-57123000D01*
X165373000Y-57123000D01*
X165373000Y-57103000D01*
X165627000Y-57103000D01*
X165627000Y-57123000D01*
X166576250Y-57123000D01*
X166735000Y-56964250D01*
X166738072Y-56550000D01*
X166725812Y-56425518D01*
X166689502Y-56305820D01*
X166630537Y-56195506D01*
X166589197Y-56145133D01*
X166645472Y-56039851D01*
X166696008Y-55873255D01*
X166713072Y-55700001D01*
X166713072Y-54799999D01*
X166696008Y-54626745D01*
X166645472Y-54460149D01*
X166563405Y-54306613D01*
X166452962Y-54172038D01*
X166318387Y-54061595D01*
X166164851Y-53979528D01*
X165998255Y-53928992D01*
X165825001Y-53911928D01*
X165236730Y-53911928D01*
X163313804Y-51989003D01*
X163290001Y-51959999D01*
X163174276Y-51865026D01*
X163042247Y-51794454D01*
X162898986Y-51750997D01*
X162787333Y-51740000D01*
X162787322Y-51740000D01*
X162750000Y-51736324D01*
X162712678Y-51740000D01*
X151387087Y-51740000D01*
X151375812Y-51625518D01*
X151339502Y-51505820D01*
X151336391Y-51500000D01*
X151339502Y-51494180D01*
X151375812Y-51374482D01*
X151388072Y-51250000D01*
X151385000Y-50785750D01*
X151226250Y-50627000D01*
X149877000Y-50627000D01*
X149877000Y-50647000D01*
X149623000Y-50647000D01*
X149623000Y-50627000D01*
X149603000Y-50627000D01*
X149603000Y-50373000D01*
X149623000Y-50373000D01*
X149623000Y-49273750D01*
X149877000Y-49273750D01*
X149877000Y-50373000D01*
X151226250Y-50373000D01*
X151385000Y-50214250D01*
X151388072Y-49750000D01*
X151375812Y-49625518D01*
X151339502Y-49505820D01*
X151280537Y-49395506D01*
X151201185Y-49298815D01*
X151104494Y-49219463D01*
X150994180Y-49160498D01*
X150874482Y-49124188D01*
X150750000Y-49111928D01*
X150035750Y-49115000D01*
X149877000Y-49273750D01*
X149623000Y-49273750D01*
X149464250Y-49115000D01*
X149160000Y-49113691D01*
X149160000Y-48660000D01*
X155467521Y-48660000D01*
X155499861Y-48663192D01*
X155532342Y-48660000D01*
X155532419Y-48660000D01*
X155567164Y-48656578D01*
X155629246Y-48650477D01*
X155629312Y-48650457D01*
X155629383Y-48650450D01*
X155692968Y-48631161D01*
X155753664Y-48612763D01*
X155753724Y-48612731D01*
X155753793Y-48612710D01*
X155812767Y-48581188D01*
X155868334Y-48551502D01*
X155868386Y-48551459D01*
X155868450Y-48551425D01*
X155920672Y-48508567D01*
X155968849Y-48469046D01*
X155968891Y-48468995D01*
X155968948Y-48468948D01*
X156012688Y-48415651D01*
X156051347Y-48368565D01*
X156051378Y-48368508D01*
X156051425Y-48368450D01*
X156084096Y-48307326D01*
X156112656Y-48253921D01*
X156112675Y-48253859D01*
X156112710Y-48253793D01*
X156132811Y-48187530D01*
X156150422Y-48129519D01*
X156150428Y-48129454D01*
X156150450Y-48129383D01*
X156157028Y-48062597D01*
X156159993Y-48032557D01*
X156159993Y-48032490D01*
X156163193Y-48000000D01*
X156160007Y-47967648D01*
X156160885Y-43774228D01*
X158124919Y-44108150D01*
G04 #@! TA.AperFunction,Conductor*
D14*
G36*
X158124919Y-44108150D02*
G01*
X160811204Y-44720878D01*
X163459127Y-45482613D01*
X166060362Y-46390957D01*
X168606876Y-47443106D01*
X171090665Y-48635754D01*
X173504011Y-49965194D01*
X175839373Y-51427273D01*
X178089501Y-53017452D01*
X180247322Y-54730730D01*
X182306169Y-56561815D01*
X184259566Y-58504947D01*
X186101467Y-60554109D01*
X187826111Y-62702899D01*
X189428108Y-64944597D01*
X190902481Y-67272241D01*
X192244611Y-69678536D01*
X193450341Y-72156031D01*
X194515881Y-74696942D01*
X195437920Y-77293360D01*
X196213594Y-79937229D01*
X196840469Y-82620258D01*
X197316596Y-85334097D01*
X197640491Y-88070287D01*
X197811143Y-90820287D01*
X197828019Y-93575543D01*
X197691067Y-96327418D01*
X197400714Y-99067374D01*
X196957866Y-101786841D01*
X196363903Y-104477354D01*
X195620678Y-107130515D01*
X194730513Y-109738036D01*
X193696172Y-112291823D01*
X192520888Y-114783888D01*
X191208329Y-117206455D01*
X189762593Y-119551962D01*
X188188166Y-121813131D01*
X186489974Y-123982885D01*
X184673330Y-126054440D01*
X182743864Y-128021374D01*
X180707620Y-129877526D01*
X178570926Y-131617128D01*
X176340457Y-133234742D01*
X174023177Y-134725320D01*
X171626299Y-136084224D01*
X169157298Y-137307212D01*
X166623875Y-138390471D01*
X164033953Y-139330616D01*
X161395574Y-140124725D01*
X158716979Y-140770318D01*
X156006523Y-141265380D01*
X153272663Y-141608369D01*
X150521488Y-141798383D01*
X149160000Y-141826319D01*
X149160000Y-138388072D01*
X150750000Y-138388072D01*
X150874482Y-138375812D01*
X150994180Y-138339502D01*
X151104494Y-138280537D01*
X151201185Y-138201185D01*
X151280537Y-138104494D01*
X151339502Y-137994180D01*
X151375812Y-137874482D01*
X151387087Y-137760000D01*
X167212678Y-137760000D01*
X167250000Y-137763676D01*
X167287322Y-137760000D01*
X167287333Y-137760000D01*
X167398986Y-137749003D01*
X167542247Y-137705546D01*
X167674276Y-137634974D01*
X167790001Y-137540001D01*
X167813804Y-137510997D01*
X169011004Y-136313798D01*
X169040001Y-136290001D01*
X169087352Y-136232304D01*
X169134974Y-136174277D01*
X169205546Y-136042247D01*
X169214830Y-136011640D01*
X169249003Y-135898986D01*
X169260000Y-135787333D01*
X169260000Y-135787323D01*
X169263676Y-135750000D01*
X169260000Y-135712677D01*
X169260000Y-128537333D01*
X169263677Y-128500000D01*
X169256504Y-128427167D01*
X169249003Y-128351014D01*
X169205546Y-128207753D01*
X169134974Y-128075724D01*
X169040001Y-127959999D01*
X169011003Y-127936201D01*
X168309791Y-127234990D01*
X177737688Y-127234990D01*
X177775010Y-127238666D01*
X177812332Y-127234990D01*
X177812343Y-127234990D01*
X177923996Y-127223993D01*
X178067257Y-127180536D01*
X178199286Y-127109964D01*
X178315011Y-127014991D01*
X178338814Y-126985987D01*
X181511004Y-123813798D01*
X181540001Y-123790001D01*
X181634974Y-123674276D01*
X181705546Y-123542247D01*
X181749003Y-123398986D01*
X181760000Y-123287333D01*
X181760000Y-123287332D01*
X181763677Y-123250000D01*
X181760000Y-123212667D01*
X181760000Y-118814801D01*
X187186014Y-113388788D01*
X187215011Y-113364991D01*
X187276554Y-113290001D01*
X187309984Y-113249267D01*
X187380556Y-113117237D01*
X187387099Y-113095667D01*
X187424013Y-112973976D01*
X187435010Y-112862323D01*
X187435010Y-112862314D01*
X187438686Y-112824991D01*
X187435010Y-112787668D01*
X187435010Y-96212332D01*
X187438686Y-96175009D01*
X187435010Y-96137686D01*
X187435010Y-96137677D01*
X187424013Y-96026024D01*
X187380556Y-95882763D01*
X187369325Y-95861752D01*
X187309984Y-95750733D01*
X187238809Y-95664007D01*
X187215011Y-95635009D01*
X187186013Y-95611211D01*
X186162874Y-94588072D01*
X186850001Y-94588072D01*
X187023255Y-94571008D01*
X187189851Y-94520472D01*
X187343387Y-94438405D01*
X187424637Y-94371724D01*
X187448815Y-94401185D01*
X187545506Y-94480537D01*
X187655820Y-94539502D01*
X187775518Y-94575812D01*
X187900000Y-94588072D01*
X188214250Y-94585000D01*
X188373000Y-94426250D01*
X188373000Y-93377000D01*
X188627000Y-93377000D01*
X188627000Y-94426250D01*
X188785750Y-94585000D01*
X189100000Y-94588072D01*
X189224482Y-94575812D01*
X189344180Y-94539502D01*
X189454494Y-94480537D01*
X189551185Y-94401185D01*
X189630537Y-94304494D01*
X189689502Y-94194180D01*
X189725812Y-94074482D01*
X189738072Y-93950000D01*
X189735000Y-93535750D01*
X189576250Y-93377000D01*
X188627000Y-93377000D01*
X188373000Y-93377000D01*
X188353000Y-93377000D01*
X188353000Y-93123000D01*
X188373000Y-93123000D01*
X188373000Y-93103000D01*
X188627000Y-93103000D01*
X188627000Y-93123000D01*
X189576250Y-93123000D01*
X189735000Y-92964250D01*
X189738072Y-92550000D01*
X189725812Y-92425518D01*
X189689502Y-92305820D01*
X189630537Y-92195506D01*
X189604337Y-92163581D01*
X189670472Y-92039851D01*
X189721008Y-91873255D01*
X189738072Y-91700001D01*
X189738072Y-90799999D01*
X189721008Y-90626745D01*
X189670472Y-90460149D01*
X189588405Y-90306613D01*
X189477962Y-90172038D01*
X189343387Y-90061595D01*
X189285000Y-90030386D01*
X189285000Y-84562323D01*
X189288676Y-84525000D01*
X189285000Y-84487677D01*
X189285000Y-84487667D01*
X189274003Y-84376014D01*
X189230546Y-84232753D01*
X189159975Y-84100725D01*
X189159974Y-84100723D01*
X189088799Y-84013997D01*
X189065001Y-83984999D01*
X189036004Y-83961202D01*
X183912874Y-78838072D01*
X184100001Y-78838072D01*
X184273255Y-78821008D01*
X184439851Y-78770472D01*
X184593387Y-78688405D01*
X184674637Y-78621724D01*
X184698815Y-78651185D01*
X184795506Y-78730537D01*
X184905820Y-78789502D01*
X185025518Y-78825812D01*
X185150000Y-78838072D01*
X185464250Y-78835000D01*
X185623000Y-78676250D01*
X185623000Y-77627000D01*
X185877000Y-77627000D01*
X185877000Y-78676250D01*
X186035750Y-78835000D01*
X186350000Y-78838072D01*
X186474482Y-78825812D01*
X186594180Y-78789502D01*
X186704494Y-78730537D01*
X186801185Y-78651185D01*
X186880537Y-78554494D01*
X186939502Y-78444180D01*
X186975812Y-78324482D01*
X186988072Y-78200000D01*
X186985000Y-77785750D01*
X186826250Y-77627000D01*
X185877000Y-77627000D01*
X185623000Y-77627000D01*
X185603000Y-77627000D01*
X185603000Y-77373000D01*
X185623000Y-77373000D01*
X185623000Y-77353000D01*
X185877000Y-77353000D01*
X185877000Y-77373000D01*
X186826250Y-77373000D01*
X186985000Y-77214250D01*
X186988072Y-76800000D01*
X186975812Y-76675518D01*
X186939502Y-76555820D01*
X186880537Y-76445506D01*
X186839197Y-76395133D01*
X186895472Y-76289851D01*
X186946008Y-76123255D01*
X186963072Y-75950001D01*
X186963072Y-75049999D01*
X186946008Y-74876745D01*
X186895472Y-74710149D01*
X186813405Y-74556613D01*
X186702962Y-74422038D01*
X186568387Y-74311595D01*
X186414851Y-74229528D01*
X186256206Y-74181404D01*
X184563804Y-72489003D01*
X184540001Y-72459999D01*
X184424276Y-72365026D01*
X184292247Y-72294454D01*
X184148986Y-72250997D01*
X184037333Y-72240000D01*
X184037322Y-72240000D01*
X184000000Y-72236324D01*
X183962678Y-72240000D01*
X182564802Y-72240000D01*
X178813804Y-68489003D01*
X178813799Y-68488997D01*
X177813804Y-67489002D01*
X177790001Y-67459999D01*
X177674276Y-67365026D01*
X177542247Y-67294454D01*
X177398986Y-67250997D01*
X177287333Y-67240000D01*
X177287322Y-67240000D01*
X177250000Y-67236324D01*
X177212678Y-67240000D01*
X175564802Y-67240000D01*
X175162874Y-66838072D01*
X175850001Y-66838072D01*
X176023255Y-66821008D01*
X176189851Y-66770472D01*
X176343387Y-66688405D01*
X176424637Y-66621724D01*
X176448815Y-66651185D01*
X176545506Y-66730537D01*
X176655820Y-66789502D01*
X176775518Y-66825812D01*
X176900000Y-66838072D01*
X177214250Y-66835000D01*
X177373000Y-66676250D01*
X177373000Y-65627000D01*
X177627000Y-65627000D01*
X177627000Y-66676250D01*
X177785750Y-66835000D01*
X178100000Y-66838072D01*
X178224482Y-66825812D01*
X178344180Y-66789502D01*
X178454494Y-66730537D01*
X178551185Y-66651185D01*
X178630537Y-66554494D01*
X178689502Y-66444180D01*
X178725812Y-66324482D01*
X178738072Y-66200000D01*
X178735000Y-65785750D01*
X178576250Y-65627000D01*
X177627000Y-65627000D01*
X177373000Y-65627000D01*
X177353000Y-65627000D01*
X177353000Y-65373000D01*
X177373000Y-65373000D01*
X177373000Y-65353000D01*
X177627000Y-65353000D01*
X177627000Y-65373000D01*
X178576250Y-65373000D01*
X178735000Y-65214250D01*
X178738072Y-64800000D01*
X178725812Y-64675518D01*
X178689502Y-64555820D01*
X178630537Y-64445506D01*
X178589197Y-64395133D01*
X178645472Y-64289851D01*
X178696008Y-64123255D01*
X178713072Y-63950001D01*
X178713072Y-63049999D01*
X178696008Y-62876745D01*
X178645472Y-62710149D01*
X178563405Y-62556613D01*
X178452962Y-62422038D01*
X178318387Y-62311595D01*
X178164851Y-62229528D01*
X177998255Y-62178992D01*
X177825001Y-62161928D01*
X177236730Y-62161928D01*
X176313804Y-61239003D01*
X176290001Y-61209999D01*
X176174276Y-61115026D01*
X176042247Y-61044454D01*
X175898986Y-61000997D01*
X175787333Y-60990000D01*
X175787322Y-60990000D01*
X175750000Y-60986324D01*
X175712678Y-60990000D01*
X165064802Y-60990000D01*
X158063804Y-53989003D01*
X158040001Y-53959999D01*
X157924276Y-53865026D01*
X157792247Y-53794454D01*
X157648986Y-53750997D01*
X157537333Y-53740000D01*
X157537322Y-53740000D01*
X157500000Y-53736324D01*
X157462678Y-53740000D01*
X151387087Y-53740000D01*
X151375812Y-53625518D01*
X151339502Y-53505820D01*
X151336391Y-53500000D01*
X151339502Y-53494180D01*
X151375812Y-53374482D01*
X151387087Y-53260000D01*
X162435199Y-53260000D01*
X163090522Y-53915324D01*
X162951745Y-53928992D01*
X162785149Y-53979528D01*
X162631613Y-54061595D01*
X162497038Y-54172038D01*
X162386595Y-54306613D01*
X162304528Y-54460149D01*
X162253992Y-54626745D01*
X162236928Y-54799999D01*
X162236928Y-55700001D01*
X162253992Y-55873255D01*
X162304528Y-56039851D01*
X162386595Y-56193387D01*
X162445556Y-56265231D01*
X162411595Y-56306613D01*
X162329528Y-56460149D01*
X162278992Y-56626745D01*
X162261928Y-56799999D01*
X162261928Y-57700001D01*
X162278992Y-57873255D01*
X162329528Y-58039851D01*
X162411595Y-58193387D01*
X162522038Y-58327962D01*
X162656613Y-58438405D01*
X162810149Y-58520472D01*
X162976745Y-58571008D01*
X163149999Y-58588072D01*
X163850001Y-58588072D01*
X164023255Y-58571008D01*
X164189851Y-58520472D01*
X164343387Y-58438405D01*
X164424637Y-58371724D01*
X164448815Y-58401185D01*
X164545506Y-58480537D01*
X164655820Y-58539502D01*
X164775518Y-58575812D01*
X164900000Y-58588072D01*
X165214250Y-58585000D01*
X165373000Y-58426250D01*
X165373000Y-57377000D01*
X165627000Y-57377000D01*
X165627000Y-58426250D01*
X165785750Y-58585000D01*
X166100000Y-58588072D01*
X166224482Y-58575812D01*
X166344180Y-58539502D01*
X166454494Y-58480537D01*
X166551185Y-58401185D01*
X166630537Y-58304494D01*
X166689502Y-58194180D01*
X166725812Y-58074482D01*
X166738072Y-57950000D01*
X166735000Y-57535750D01*
X166576250Y-57377000D01*
X165627000Y-57377000D01*
X165373000Y-57377000D01*
X165353000Y-57377000D01*
X165353000Y-57123000D01*
X165373000Y-57123000D01*
X165373000Y-57103000D01*
X165627000Y-57103000D01*
X165627000Y-57123000D01*
X166576250Y-57123000D01*
X166735000Y-56964250D01*
X166738072Y-56550000D01*
X166725812Y-56425518D01*
X166689502Y-56305820D01*
X166630537Y-56195506D01*
X166589197Y-56145133D01*
X166645472Y-56039851D01*
X166696008Y-55873255D01*
X166713072Y-55700001D01*
X166713072Y-54799999D01*
X166696008Y-54626745D01*
X166645472Y-54460149D01*
X166563405Y-54306613D01*
X166452962Y-54172038D01*
X166318387Y-54061595D01*
X166164851Y-53979528D01*
X165998255Y-53928992D01*
X165825001Y-53911928D01*
X165236730Y-53911928D01*
X163313804Y-51989003D01*
X163290001Y-51959999D01*
X163174276Y-51865026D01*
X163042247Y-51794454D01*
X162898986Y-51750997D01*
X162787333Y-51740000D01*
X162787322Y-51740000D01*
X162750000Y-51736324D01*
X162712678Y-51740000D01*
X151387087Y-51740000D01*
X151375812Y-51625518D01*
X151339502Y-51505820D01*
X151336391Y-51500000D01*
X151339502Y-51494180D01*
X151375812Y-51374482D01*
X151388072Y-51250000D01*
X151385000Y-50785750D01*
X151226250Y-50627000D01*
X149877000Y-50627000D01*
X149877000Y-50647000D01*
X149623000Y-50647000D01*
X149623000Y-50627000D01*
X149603000Y-50627000D01*
X149603000Y-50373000D01*
X149623000Y-50373000D01*
X149623000Y-49273750D01*
X149877000Y-49273750D01*
X149877000Y-50373000D01*
X151226250Y-50373000D01*
X151385000Y-50214250D01*
X151388072Y-49750000D01*
X151375812Y-49625518D01*
X151339502Y-49505820D01*
X151280537Y-49395506D01*
X151201185Y-49298815D01*
X151104494Y-49219463D01*
X150994180Y-49160498D01*
X150874482Y-49124188D01*
X150750000Y-49111928D01*
X150035750Y-49115000D01*
X149877000Y-49273750D01*
X149623000Y-49273750D01*
X149464250Y-49115000D01*
X149160000Y-49113691D01*
X149160000Y-48660000D01*
X155467521Y-48660000D01*
X155499861Y-48663192D01*
X155532342Y-48660000D01*
X155532419Y-48660000D01*
X155567164Y-48656578D01*
X155629246Y-48650477D01*
X155629312Y-48650457D01*
X155629383Y-48650450D01*
X155692968Y-48631161D01*
X155753664Y-48612763D01*
X155753724Y-48612731D01*
X155753793Y-48612710D01*
X155812767Y-48581188D01*
X155868334Y-48551502D01*
X155868386Y-48551459D01*
X155868450Y-48551425D01*
X155920672Y-48508567D01*
X155968849Y-48469046D01*
X155968891Y-48468995D01*
X155968948Y-48468948D01*
X156012688Y-48415651D01*
X156051347Y-48368565D01*
X156051378Y-48368508D01*
X156051425Y-48368450D01*
X156084096Y-48307326D01*
X156112656Y-48253921D01*
X156112675Y-48253859D01*
X156112710Y-48253793D01*
X156132811Y-48187530D01*
X156150422Y-48129519D01*
X156150428Y-48129454D01*
X156150450Y-48129383D01*
X156157028Y-48062597D01*
X156159993Y-48032557D01*
X156159993Y-48032490D01*
X156163193Y-48000000D01*
X156160007Y-47967648D01*
X156160885Y-43774228D01*
X158124919Y-44108150D01*
G37*
G04 #@! TD.AperFunction*
D13*
X161986928Y-127950001D02*
X162003992Y-128123255D01*
X162054528Y-128289851D01*
X162136595Y-128443387D01*
X162195556Y-128515231D01*
X162161595Y-128556613D01*
X162079528Y-128710149D01*
X162028992Y-128876745D01*
X162011928Y-129049999D01*
X162011928Y-129950001D01*
X162028992Y-130123255D01*
X162079528Y-130289851D01*
X162161595Y-130443387D01*
X162272038Y-130577962D01*
X162406613Y-130688405D01*
X162560149Y-130770472D01*
X162726745Y-130821008D01*
X162899999Y-130838072D01*
X163600001Y-130838072D01*
X163773255Y-130821008D01*
X163939851Y-130770472D01*
X164093387Y-130688405D01*
X164174637Y-130621724D01*
X164198815Y-130651185D01*
X164295506Y-130730537D01*
X164405820Y-130789502D01*
X164525518Y-130825812D01*
X164650000Y-130838072D01*
X164964250Y-130835000D01*
X165123000Y-130676250D01*
X165123000Y-129627000D01*
X165377000Y-129627000D01*
X165377000Y-130676250D01*
X165535750Y-130835000D01*
X165850000Y-130838072D01*
X165974482Y-130825812D01*
X166094180Y-130789502D01*
X166204494Y-130730537D01*
X166301185Y-130651185D01*
X166380537Y-130554494D01*
X166439502Y-130444180D01*
X166475812Y-130324482D01*
X166488072Y-130200000D01*
X166485000Y-129785750D01*
X166326250Y-129627000D01*
X165377000Y-129627000D01*
X165123000Y-129627000D01*
X165103000Y-129627000D01*
X165103000Y-129373000D01*
X165123000Y-129373000D01*
X165123000Y-129353000D01*
X165377000Y-129353000D01*
X165377000Y-129373000D01*
X166326250Y-129373000D01*
X166485000Y-129214250D01*
X166488072Y-128800000D01*
X166475812Y-128675518D01*
X166439502Y-128555820D01*
X166380537Y-128445506D01*
X166339197Y-128395133D01*
X166395472Y-128289851D01*
X166404527Y-128260000D01*
X167185199Y-128260000D01*
X167740001Y-128814803D01*
X167740001Y-131992462D01*
X167601939Y-131965000D01*
X167398061Y-131965000D01*
X167198102Y-132004774D01*
X167009744Y-132082795D01*
X166840226Y-132196063D01*
X166796289Y-132240000D01*
X151387087Y-132240000D01*
X151375812Y-132125518D01*
X151339502Y-132005820D01*
X151336391Y-132000000D01*
X151339502Y-131994180D01*
X151375812Y-131874482D01*
X151387087Y-131760000D01*
X157712678Y-131760000D01*
X157750000Y-131763676D01*
X157787322Y-131760000D01*
X157787333Y-131760000D01*
X157898986Y-131749003D01*
X158042247Y-131705546D01*
X158174276Y-131634974D01*
X158290001Y-131540001D01*
X158313804Y-131510997D01*
X161986928Y-127837874D01*
X161986928Y-127950001D01*
G04 #@! TA.AperFunction,Conductor*
D14*
G36*
X161986928Y-127950001D02*
G01*
X162003992Y-128123255D01*
X162054528Y-128289851D01*
X162136595Y-128443387D01*
X162195556Y-128515231D01*
X162161595Y-128556613D01*
X162079528Y-128710149D01*
X162028992Y-128876745D01*
X162011928Y-129049999D01*
X162011928Y-129950001D01*
X162028992Y-130123255D01*
X162079528Y-130289851D01*
X162161595Y-130443387D01*
X162272038Y-130577962D01*
X162406613Y-130688405D01*
X162560149Y-130770472D01*
X162726745Y-130821008D01*
X162899999Y-130838072D01*
X163600001Y-130838072D01*
X163773255Y-130821008D01*
X163939851Y-130770472D01*
X164093387Y-130688405D01*
X164174637Y-130621724D01*
X164198815Y-130651185D01*
X164295506Y-130730537D01*
X164405820Y-130789502D01*
X164525518Y-130825812D01*
X164650000Y-130838072D01*
X164964250Y-130835000D01*
X165123000Y-130676250D01*
X165123000Y-129627000D01*
X165377000Y-129627000D01*
X165377000Y-130676250D01*
X165535750Y-130835000D01*
X165850000Y-130838072D01*
X165974482Y-130825812D01*
X166094180Y-130789502D01*
X166204494Y-130730537D01*
X166301185Y-130651185D01*
X166380537Y-130554494D01*
X166439502Y-130444180D01*
X166475812Y-130324482D01*
X166488072Y-130200000D01*
X166485000Y-129785750D01*
X166326250Y-129627000D01*
X165377000Y-129627000D01*
X165123000Y-129627000D01*
X165103000Y-129627000D01*
X165103000Y-129373000D01*
X165123000Y-129373000D01*
X165123000Y-129353000D01*
X165377000Y-129353000D01*
X165377000Y-129373000D01*
X166326250Y-129373000D01*
X166485000Y-129214250D01*
X166488072Y-128800000D01*
X166475812Y-128675518D01*
X166439502Y-128555820D01*
X166380537Y-128445506D01*
X166339197Y-128395133D01*
X166395472Y-128289851D01*
X166404527Y-128260000D01*
X167185199Y-128260000D01*
X167740001Y-128814803D01*
X167740001Y-131992462D01*
X167601939Y-131965000D01*
X167398061Y-131965000D01*
X167198102Y-132004774D01*
X167009744Y-132082795D01*
X166840226Y-132196063D01*
X166796289Y-132240000D01*
X151387087Y-132240000D01*
X151375812Y-132125518D01*
X151339502Y-132005820D01*
X151336391Y-132000000D01*
X151339502Y-131994180D01*
X151375812Y-131874482D01*
X151387087Y-131760000D01*
X157712678Y-131760000D01*
X157750000Y-131763676D01*
X157787322Y-131760000D01*
X157787333Y-131760000D01*
X157898986Y-131749003D01*
X158042247Y-131705546D01*
X158174276Y-131634974D01*
X158290001Y-131540001D01*
X158313804Y-131510997D01*
X161986928Y-127837874D01*
X161986928Y-127950001D01*
G37*
G04 #@! TD.AperFunction*
D13*
X182040000Y-79751212D02*
X182040001Y-104062667D01*
X182036324Y-104100000D01*
X182040001Y-104137333D01*
X182050998Y-104248986D01*
X182052486Y-104253892D01*
X182094454Y-104392246D01*
X182165026Y-104524276D01*
X182213052Y-104582795D01*
X182260000Y-104640001D01*
X182288998Y-104663799D01*
X184038451Y-106413253D01*
X184025001Y-106411928D01*
X183374999Y-106411928D01*
X183201745Y-106428992D01*
X183035149Y-106479528D01*
X182881613Y-106561595D01*
X182747038Y-106672038D01*
X182636595Y-106806613D01*
X182554528Y-106960149D01*
X182503992Y-107126745D01*
X182486928Y-107299999D01*
X182486928Y-108200001D01*
X182503992Y-108373255D01*
X182554528Y-108539851D01*
X182636595Y-108693387D01*
X182695556Y-108765231D01*
X182661595Y-108806613D01*
X182579528Y-108960149D01*
X182528992Y-109126745D01*
X182511928Y-109299999D01*
X182511928Y-110200001D01*
X182528992Y-110373255D01*
X182579528Y-110539851D01*
X182661595Y-110693387D01*
X182772038Y-110827962D01*
X182906613Y-110938405D01*
X183060149Y-111020472D01*
X183226745Y-111071008D01*
X183399999Y-111088072D01*
X184100001Y-111088072D01*
X184273255Y-111071008D01*
X184439851Y-111020472D01*
X184593387Y-110938405D01*
X184674637Y-110871724D01*
X184698815Y-110901185D01*
X184795506Y-110980537D01*
X184905820Y-111039502D01*
X185025518Y-111075812D01*
X185150000Y-111088072D01*
X185464250Y-111085000D01*
X185623000Y-110926250D01*
X185623000Y-109877000D01*
X185603000Y-109877000D01*
X185603000Y-109623000D01*
X185623000Y-109623000D01*
X185623000Y-109603000D01*
X185877000Y-109603000D01*
X185877000Y-109623000D01*
X185897000Y-109623000D01*
X185897000Y-109877000D01*
X185877000Y-109877000D01*
X185877000Y-110926250D01*
X185915010Y-110964260D01*
X185915010Y-112510188D01*
X180960009Y-117465190D01*
X180960009Y-89164329D01*
X180963685Y-89127006D01*
X180960009Y-89089683D01*
X180960009Y-89089674D01*
X180949012Y-88978021D01*
X180905555Y-88834760D01*
X180834983Y-88702731D01*
X180740010Y-88587006D01*
X180711012Y-88563208D01*
X177886806Y-85739003D01*
X177863003Y-85709999D01*
X177747278Y-85615026D01*
X177615249Y-85544454D01*
X177471988Y-85500997D01*
X177360335Y-85490000D01*
X177360324Y-85490000D01*
X177323002Y-85486324D01*
X177285680Y-85490000D01*
X176037322Y-85490000D01*
X175999999Y-85486324D01*
X175962676Y-85490000D01*
X175962667Y-85490000D01*
X175851014Y-85500997D01*
X175707753Y-85544454D01*
X175575724Y-85615026D01*
X175459999Y-85709999D01*
X175436201Y-85738998D01*
X174739002Y-86436197D01*
X174709999Y-86459999D01*
X174654871Y-86527174D01*
X174615026Y-86575724D01*
X174562348Y-86674277D01*
X174544454Y-86707754D01*
X174500997Y-86851015D01*
X174490000Y-86962668D01*
X174490000Y-86962678D01*
X174486324Y-87000000D01*
X174490000Y-87037323D01*
X174490001Y-88046288D01*
X174446063Y-88090226D01*
X174332795Y-88259744D01*
X174254774Y-88448102D01*
X174215000Y-88648061D01*
X174215000Y-88851939D01*
X174254774Y-89051898D01*
X174332795Y-89240256D01*
X174446063Y-89409774D01*
X174590226Y-89553937D01*
X174759744Y-89667205D01*
X174948102Y-89745226D01*
X175148061Y-89785000D01*
X175351939Y-89785000D01*
X175551898Y-89745226D01*
X175740256Y-89667205D01*
X175909774Y-89553937D01*
X176053937Y-89409774D01*
X176167205Y-89240256D01*
X176245226Y-89051898D01*
X176285000Y-88851939D01*
X176285000Y-88648061D01*
X176245226Y-88448102D01*
X176167205Y-88259744D01*
X176053937Y-88090226D01*
X176010000Y-88046289D01*
X176010000Y-87314801D01*
X176314802Y-87010000D01*
X177008201Y-87010000D01*
X178017245Y-88019044D01*
X177946063Y-88090226D01*
X177832795Y-88259744D01*
X177754774Y-88448102D01*
X177715000Y-88648061D01*
X177715000Y-88710198D01*
X176263271Y-90161928D01*
X175724999Y-90161928D01*
X175551745Y-90178992D01*
X175385149Y-90229528D01*
X175231613Y-90311595D01*
X175097038Y-90422038D01*
X175025000Y-90509816D01*
X174952962Y-90422038D01*
X174818387Y-90311595D01*
X174664851Y-90229528D01*
X174498255Y-90178992D01*
X174325001Y-90161928D01*
X173674999Y-90161928D01*
X173501745Y-90178992D01*
X173335149Y-90229528D01*
X173181613Y-90311595D01*
X173047038Y-90422038D01*
X172936595Y-90556613D01*
X172854528Y-90710149D01*
X172803992Y-90876745D01*
X172786928Y-91049999D01*
X172786928Y-91950001D01*
X172803992Y-92123255D01*
X172854528Y-92289851D01*
X172936595Y-92443387D01*
X172970556Y-92484769D01*
X172911595Y-92556613D01*
X172829528Y-92710149D01*
X172778992Y-92876745D01*
X172761928Y-93049999D01*
X172761928Y-93950001D01*
X172778992Y-94123255D01*
X172829528Y-94289851D01*
X172911595Y-94443387D01*
X173022038Y-94577962D01*
X173156613Y-94688405D01*
X173310149Y-94770472D01*
X173476745Y-94821008D01*
X173649999Y-94838072D01*
X174350001Y-94838072D01*
X174523255Y-94821008D01*
X174689851Y-94770472D01*
X174843387Y-94688405D01*
X174924637Y-94621724D01*
X174948815Y-94651185D01*
X175045506Y-94730537D01*
X175155820Y-94789502D01*
X175275518Y-94825812D01*
X175400000Y-94838072D01*
X175714250Y-94835000D01*
X175873000Y-94676250D01*
X175873000Y-93627000D01*
X176127000Y-93627000D01*
X176127000Y-94676250D01*
X176285750Y-94835000D01*
X176600000Y-94838072D01*
X176724482Y-94825812D01*
X176844180Y-94789502D01*
X176954494Y-94730537D01*
X177051185Y-94651185D01*
X177130537Y-94554494D01*
X177189502Y-94444180D01*
X177225812Y-94324482D01*
X177238072Y-94200000D01*
X177235000Y-93785750D01*
X177076250Y-93627000D01*
X176127000Y-93627000D01*
X175873000Y-93627000D01*
X175853000Y-93627000D01*
X175853000Y-93373000D01*
X175873000Y-93373000D01*
X175873000Y-93353000D01*
X176127000Y-93353000D01*
X176127000Y-93373000D01*
X177076250Y-93373000D01*
X177235000Y-93214250D01*
X177238072Y-92800000D01*
X177225812Y-92675518D01*
X177189502Y-92555820D01*
X177130537Y-92445506D01*
X177119476Y-92432028D01*
X177195472Y-92289851D01*
X177246008Y-92123255D01*
X177263072Y-91950001D01*
X177263072Y-91311729D01*
X178789802Y-89785000D01*
X178851939Y-89785000D01*
X179051898Y-89745226D01*
X179240256Y-89667205D01*
X179409774Y-89553937D01*
X179440010Y-89523701D01*
X179440010Y-103877938D01*
X179424276Y-103865026D01*
X179292247Y-103794454D01*
X179148986Y-103750997D01*
X179037333Y-103740000D01*
X179037322Y-103740000D01*
X179000000Y-103736324D01*
X178962678Y-103740000D01*
X177703711Y-103740000D01*
X177659774Y-103696063D01*
X177490256Y-103582795D01*
X177301898Y-103504774D01*
X177101939Y-103465000D01*
X176898061Y-103465000D01*
X176698102Y-103504774D01*
X176509744Y-103582795D01*
X176340226Y-103696063D01*
X176196063Y-103840226D01*
X176082795Y-104009744D01*
X176004774Y-104198102D01*
X175965000Y-104398061D01*
X175965000Y-104601939D01*
X176004774Y-104801898D01*
X176082795Y-104990256D01*
X176196063Y-105159774D01*
X176340226Y-105303937D01*
X176509744Y-105417205D01*
X176698102Y-105495226D01*
X176898061Y-105535000D01*
X176965000Y-105535000D01*
X176965000Y-105601939D01*
X177004774Y-105801898D01*
X177082795Y-105990256D01*
X177196063Y-106159774D01*
X177240000Y-106203711D01*
X177240001Y-107435197D01*
X174685199Y-109990000D01*
X169904527Y-109990000D01*
X169895472Y-109960149D01*
X169813405Y-109806613D01*
X169702962Y-109672038D01*
X169568387Y-109561595D01*
X169414851Y-109479528D01*
X169248255Y-109428992D01*
X169075001Y-109411928D01*
X168424999Y-109411928D01*
X168251745Y-109428992D01*
X168085149Y-109479528D01*
X167931613Y-109561595D01*
X167797038Y-109672038D01*
X167725000Y-109759816D01*
X167652962Y-109672038D01*
X167518387Y-109561595D01*
X167364851Y-109479528D01*
X167198255Y-109428992D01*
X167025001Y-109411928D01*
X166374999Y-109411928D01*
X166201745Y-109428992D01*
X166035149Y-109479528D01*
X165881613Y-109561595D01*
X165747038Y-109672038D01*
X165636595Y-109806613D01*
X165554528Y-109960149D01*
X165503992Y-110126745D01*
X165486928Y-110299999D01*
X165486928Y-111200001D01*
X165503992Y-111373255D01*
X165554528Y-111539851D01*
X165636595Y-111693387D01*
X165695556Y-111765231D01*
X165661595Y-111806613D01*
X165579528Y-111960149D01*
X165528992Y-112126745D01*
X165511928Y-112299999D01*
X165511928Y-113200001D01*
X165528992Y-113373255D01*
X165579528Y-113539851D01*
X165661595Y-113693387D01*
X165772038Y-113827962D01*
X165906613Y-113938405D01*
X166060149Y-114020472D01*
X166226745Y-114071008D01*
X166399999Y-114088072D01*
X167100001Y-114088072D01*
X167273255Y-114071008D01*
X167439851Y-114020472D01*
X167593387Y-113938405D01*
X167674637Y-113871724D01*
X167698815Y-113901185D01*
X167795506Y-113980537D01*
X167905820Y-114039502D01*
X168025518Y-114075812D01*
X168150000Y-114088072D01*
X168464250Y-114085000D01*
X168623000Y-113926250D01*
X168623000Y-112877000D01*
X168877000Y-112877000D01*
X168877000Y-113926250D01*
X169035750Y-114085000D01*
X169350000Y-114088072D01*
X169474482Y-114075812D01*
X169594180Y-114039502D01*
X169704494Y-113980537D01*
X169801185Y-113901185D01*
X169880537Y-113804494D01*
X169939502Y-113694180D01*
X169975812Y-113574482D01*
X169988072Y-113450000D01*
X169985000Y-113035750D01*
X169826250Y-112877000D01*
X168877000Y-112877000D01*
X168623000Y-112877000D01*
X168603000Y-112877000D01*
X168603000Y-112623000D01*
X168623000Y-112623000D01*
X168623000Y-112603000D01*
X168877000Y-112603000D01*
X168877000Y-112623000D01*
X169826250Y-112623000D01*
X169985000Y-112464250D01*
X169988072Y-112050000D01*
X169975812Y-111925518D01*
X169939502Y-111805820D01*
X169880537Y-111695506D01*
X169839197Y-111645133D01*
X169895472Y-111539851D01*
X169904527Y-111510000D01*
X174962678Y-111510000D01*
X175000000Y-111513676D01*
X175037322Y-111510000D01*
X175037333Y-111510000D01*
X175148986Y-111499003D01*
X175292247Y-111455546D01*
X175424276Y-111384974D01*
X175540001Y-111290001D01*
X175563804Y-111260997D01*
X178511003Y-108313799D01*
X178540001Y-108290001D01*
X178634974Y-108174276D01*
X178705546Y-108042247D01*
X178749003Y-107898986D01*
X178760000Y-107787333D01*
X178760000Y-107787325D01*
X178763676Y-107750000D01*
X178760000Y-107712675D01*
X178760000Y-106203711D01*
X178803937Y-106159774D01*
X178917205Y-105990256D01*
X178990000Y-105814514D01*
X178990001Y-116935197D01*
X177763271Y-118161928D01*
X177174999Y-118161928D01*
X177001745Y-118178992D01*
X176835149Y-118229528D01*
X176681613Y-118311595D01*
X176547038Y-118422038D01*
X176475000Y-118509816D01*
X176402962Y-118422038D01*
X176268387Y-118311595D01*
X176114851Y-118229528D01*
X175948255Y-118178992D01*
X175775001Y-118161928D01*
X175124999Y-118161928D01*
X174951745Y-118178992D01*
X174785149Y-118229528D01*
X174631613Y-118311595D01*
X174497038Y-118422038D01*
X174386595Y-118556613D01*
X174304528Y-118710149D01*
X174253992Y-118876745D01*
X174236928Y-119049999D01*
X174236928Y-119950001D01*
X174253992Y-120123255D01*
X174304528Y-120289851D01*
X174386595Y-120443387D01*
X174445556Y-120515231D01*
X174411595Y-120556613D01*
X174329528Y-120710149D01*
X174278992Y-120876745D01*
X174261928Y-121049999D01*
X174261928Y-121950001D01*
X174278992Y-122123255D01*
X174329528Y-122289851D01*
X174411595Y-122443387D01*
X174522038Y-122577962D01*
X174656613Y-122688405D01*
X174810149Y-122770472D01*
X174976745Y-122821008D01*
X175149999Y-122838072D01*
X175850001Y-122838072D01*
X176023255Y-122821008D01*
X176189851Y-122770472D01*
X176343387Y-122688405D01*
X176424637Y-122621724D01*
X176448815Y-122651185D01*
X176545506Y-122730537D01*
X176655820Y-122789502D01*
X176775518Y-122825812D01*
X176900000Y-122838072D01*
X177214250Y-122835000D01*
X177373000Y-122676250D01*
X177373000Y-121627000D01*
X177627000Y-121627000D01*
X177627000Y-122676250D01*
X177785750Y-122835000D01*
X178100000Y-122838072D01*
X178224482Y-122825812D01*
X178344180Y-122789502D01*
X178454494Y-122730537D01*
X178551185Y-122651185D01*
X178630537Y-122554494D01*
X178689502Y-122444180D01*
X178725812Y-122324482D01*
X178738072Y-122200000D01*
X178735000Y-121785750D01*
X178576250Y-121627000D01*
X177627000Y-121627000D01*
X177373000Y-121627000D01*
X177353000Y-121627000D01*
X177353000Y-121373000D01*
X177373000Y-121373000D01*
X177373000Y-121353000D01*
X177627000Y-121353000D01*
X177627000Y-121373000D01*
X178576250Y-121373000D01*
X178735000Y-121214250D01*
X178738072Y-120800000D01*
X178725812Y-120675518D01*
X178689502Y-120555820D01*
X178630537Y-120445506D01*
X178589197Y-120395133D01*
X178645472Y-120289851D01*
X178696008Y-120123255D01*
X178713072Y-119950001D01*
X178713072Y-119361729D01*
X179440009Y-118634793D01*
X179440009Y-122235189D01*
X177185199Y-124490000D01*
X162037323Y-124490000D01*
X162000000Y-124486324D01*
X161962677Y-124490000D01*
X161962667Y-124490000D01*
X161851014Y-124500997D01*
X161707753Y-124544454D01*
X161575724Y-124615026D01*
X161459999Y-124709999D01*
X161436201Y-124738997D01*
X157849731Y-128325468D01*
X157775724Y-128365026D01*
X157659999Y-128459999D01*
X157636201Y-128488997D01*
X156885199Y-129240000D01*
X152314802Y-129240000D01*
X151734801Y-128660000D01*
X156973011Y-128660000D01*
X157010870Y-128663103D01*
X157070019Y-128656297D01*
X157129383Y-128650450D01*
X157134610Y-128648864D01*
X157140027Y-128648241D01*
X157196712Y-128630026D01*
X157253793Y-128612710D01*
X157258611Y-128610135D01*
X157263801Y-128608467D01*
X157315846Y-128579542D01*
X157368450Y-128551425D01*
X157372671Y-128547961D01*
X157377439Y-128545311D01*
X157422861Y-128506771D01*
X157468948Y-128468948D01*
X157493056Y-128439573D01*
X164947962Y-120736171D01*
X164968948Y-120718948D01*
X164993050Y-120689579D01*
X164996822Y-120685682D01*
X165013627Y-120664506D01*
X165051425Y-120618450D01*
X165053997Y-120613639D01*
X165057390Y-120609363D01*
X165084615Y-120556355D01*
X165112710Y-120503793D01*
X165114295Y-120498568D01*
X165116787Y-120493716D01*
X165133136Y-120436460D01*
X165150450Y-120379383D01*
X165150985Y-120373946D01*
X165152482Y-120368705D01*
X165157345Y-120309371D01*
X165160000Y-120282419D01*
X165160000Y-120276986D01*
X165163103Y-120239130D01*
X165160000Y-120212164D01*
X165160000Y-110023380D01*
X166695137Y-108488244D01*
X166721670Y-108466209D01*
X166761299Y-108417344D01*
X166801425Y-108368450D01*
X166802341Y-108366736D01*
X166803560Y-108365233D01*
X166832922Y-108309523D01*
X166862710Y-108253793D01*
X166872727Y-108220772D01*
X172348261Y-94780825D01*
X172362710Y-94753793D01*
X172372726Y-94720774D01*
X172373452Y-94718993D01*
X172382118Y-94689816D01*
X172400450Y-94629383D01*
X172400640Y-94627449D01*
X172401192Y-94625592D01*
X172407000Y-94562881D01*
X172410000Y-94532419D01*
X172410000Y-94530486D01*
X172413181Y-94496138D01*
X172410000Y-94465661D01*
X172410000Y-90277049D01*
X172413105Y-90239251D01*
X172406302Y-90180030D01*
X172400450Y-90120617D01*
X172398883Y-90115450D01*
X172398267Y-90110092D01*
X172380035Y-90053319D01*
X172362710Y-89996207D01*
X172344826Y-89962748D01*
X166090495Y-75529677D01*
X166226745Y-75571008D01*
X166399999Y-75588072D01*
X167100001Y-75588072D01*
X167273255Y-75571008D01*
X167439851Y-75520472D01*
X167593387Y-75438405D01*
X167674637Y-75371724D01*
X167698815Y-75401185D01*
X167795506Y-75480537D01*
X167905820Y-75539502D01*
X168025518Y-75575812D01*
X168150000Y-75588072D01*
X168464250Y-75585000D01*
X168623000Y-75426250D01*
X168623000Y-74377000D01*
X168877000Y-74377000D01*
X168877000Y-75426250D01*
X169035750Y-75585000D01*
X169350000Y-75588072D01*
X169474482Y-75575812D01*
X169594180Y-75539502D01*
X169704494Y-75480537D01*
X169801185Y-75401185D01*
X169880537Y-75304494D01*
X169939502Y-75194180D01*
X169975812Y-75074482D01*
X169988072Y-74950000D01*
X169985000Y-74535750D01*
X169826250Y-74377000D01*
X168877000Y-74377000D01*
X168623000Y-74377000D01*
X168603000Y-74377000D01*
X168603000Y-74123000D01*
X168623000Y-74123000D01*
X168623000Y-74103000D01*
X168877000Y-74103000D01*
X168877000Y-74123000D01*
X169826250Y-74123000D01*
X169985000Y-73964250D01*
X169988072Y-73550000D01*
X169975812Y-73425518D01*
X169939502Y-73305820D01*
X169880537Y-73195506D01*
X169839197Y-73145133D01*
X169895472Y-73039851D01*
X169946008Y-72873255D01*
X169963072Y-72700001D01*
X169963072Y-71799999D01*
X169946008Y-71626745D01*
X169895472Y-71460149D01*
X169813405Y-71306613D01*
X169702962Y-71172038D01*
X169568387Y-71061595D01*
X169510649Y-71030733D01*
X169513676Y-71000000D01*
X169510000Y-70962675D01*
X169510000Y-70962667D01*
X169499003Y-70851014D01*
X169455546Y-70707753D01*
X169384974Y-70575724D01*
X169290001Y-70459999D01*
X169261004Y-70436202D01*
X168334802Y-69510000D01*
X171798789Y-69510000D01*
X182040000Y-79751212D01*
G04 #@! TA.AperFunction,Conductor*
D14*
G36*
X182040000Y-79751212D02*
G01*
X182040001Y-104062667D01*
X182036324Y-104100000D01*
X182040001Y-104137333D01*
X182050998Y-104248986D01*
X182052486Y-104253892D01*
X182094454Y-104392246D01*
X182165026Y-104524276D01*
X182213052Y-104582795D01*
X182260000Y-104640001D01*
X182288998Y-104663799D01*
X184038451Y-106413253D01*
X184025001Y-106411928D01*
X183374999Y-106411928D01*
X183201745Y-106428992D01*
X183035149Y-106479528D01*
X182881613Y-106561595D01*
X182747038Y-106672038D01*
X182636595Y-106806613D01*
X182554528Y-106960149D01*
X182503992Y-107126745D01*
X182486928Y-107299999D01*
X182486928Y-108200001D01*
X182503992Y-108373255D01*
X182554528Y-108539851D01*
X182636595Y-108693387D01*
X182695556Y-108765231D01*
X182661595Y-108806613D01*
X182579528Y-108960149D01*
X182528992Y-109126745D01*
X182511928Y-109299999D01*
X182511928Y-110200001D01*
X182528992Y-110373255D01*
X182579528Y-110539851D01*
X182661595Y-110693387D01*
X182772038Y-110827962D01*
X182906613Y-110938405D01*
X183060149Y-111020472D01*
X183226745Y-111071008D01*
X183399999Y-111088072D01*
X184100001Y-111088072D01*
X184273255Y-111071008D01*
X184439851Y-111020472D01*
X184593387Y-110938405D01*
X184674637Y-110871724D01*
X184698815Y-110901185D01*
X184795506Y-110980537D01*
X184905820Y-111039502D01*
X185025518Y-111075812D01*
X185150000Y-111088072D01*
X185464250Y-111085000D01*
X185623000Y-110926250D01*
X185623000Y-109877000D01*
X185603000Y-109877000D01*
X185603000Y-109623000D01*
X185623000Y-109623000D01*
X185623000Y-109603000D01*
X185877000Y-109603000D01*
X185877000Y-109623000D01*
X185897000Y-109623000D01*
X185897000Y-109877000D01*
X185877000Y-109877000D01*
X185877000Y-110926250D01*
X185915010Y-110964260D01*
X185915010Y-112510188D01*
X180960009Y-117465190D01*
X180960009Y-89164329D01*
X180963685Y-89127006D01*
X180960009Y-89089683D01*
X180960009Y-89089674D01*
X180949012Y-88978021D01*
X180905555Y-88834760D01*
X180834983Y-88702731D01*
X180740010Y-88587006D01*
X180711012Y-88563208D01*
X177886806Y-85739003D01*
X177863003Y-85709999D01*
X177747278Y-85615026D01*
X177615249Y-85544454D01*
X177471988Y-85500997D01*
X177360335Y-85490000D01*
X177360324Y-85490000D01*
X177323002Y-85486324D01*
X177285680Y-85490000D01*
X176037322Y-85490000D01*
X175999999Y-85486324D01*
X175962676Y-85490000D01*
X175962667Y-85490000D01*
X175851014Y-85500997D01*
X175707753Y-85544454D01*
X175575724Y-85615026D01*
X175459999Y-85709999D01*
X175436201Y-85738998D01*
X174739002Y-86436197D01*
X174709999Y-86459999D01*
X174654871Y-86527174D01*
X174615026Y-86575724D01*
X174562348Y-86674277D01*
X174544454Y-86707754D01*
X174500997Y-86851015D01*
X174490000Y-86962668D01*
X174490000Y-86962678D01*
X174486324Y-87000000D01*
X174490000Y-87037323D01*
X174490001Y-88046288D01*
X174446063Y-88090226D01*
X174332795Y-88259744D01*
X174254774Y-88448102D01*
X174215000Y-88648061D01*
X174215000Y-88851939D01*
X174254774Y-89051898D01*
X174332795Y-89240256D01*
X174446063Y-89409774D01*
X174590226Y-89553937D01*
X174759744Y-89667205D01*
X174948102Y-89745226D01*
X175148061Y-89785000D01*
X175351939Y-89785000D01*
X175551898Y-89745226D01*
X175740256Y-89667205D01*
X175909774Y-89553937D01*
X176053937Y-89409774D01*
X176167205Y-89240256D01*
X176245226Y-89051898D01*
X176285000Y-88851939D01*
X176285000Y-88648061D01*
X176245226Y-88448102D01*
X176167205Y-88259744D01*
X176053937Y-88090226D01*
X176010000Y-88046289D01*
X176010000Y-87314801D01*
X176314802Y-87010000D01*
X177008201Y-87010000D01*
X178017245Y-88019044D01*
X177946063Y-88090226D01*
X177832795Y-88259744D01*
X177754774Y-88448102D01*
X177715000Y-88648061D01*
X177715000Y-88710198D01*
X176263271Y-90161928D01*
X175724999Y-90161928D01*
X175551745Y-90178992D01*
X175385149Y-90229528D01*
X175231613Y-90311595D01*
X175097038Y-90422038D01*
X175025000Y-90509816D01*
X174952962Y-90422038D01*
X174818387Y-90311595D01*
X174664851Y-90229528D01*
X174498255Y-90178992D01*
X174325001Y-90161928D01*
X173674999Y-90161928D01*
X173501745Y-90178992D01*
X173335149Y-90229528D01*
X173181613Y-90311595D01*
X173047038Y-90422038D01*
X172936595Y-90556613D01*
X172854528Y-90710149D01*
X172803992Y-90876745D01*
X172786928Y-91049999D01*
X172786928Y-91950001D01*
X172803992Y-92123255D01*
X172854528Y-92289851D01*
X172936595Y-92443387D01*
X172970556Y-92484769D01*
X172911595Y-92556613D01*
X172829528Y-92710149D01*
X172778992Y-92876745D01*
X172761928Y-93049999D01*
X172761928Y-93950001D01*
X172778992Y-94123255D01*
X172829528Y-94289851D01*
X172911595Y-94443387D01*
X173022038Y-94577962D01*
X173156613Y-94688405D01*
X173310149Y-94770472D01*
X173476745Y-94821008D01*
X173649999Y-94838072D01*
X174350001Y-94838072D01*
X174523255Y-94821008D01*
X174689851Y-94770472D01*
X174843387Y-94688405D01*
X174924637Y-94621724D01*
X174948815Y-94651185D01*
X175045506Y-94730537D01*
X175155820Y-94789502D01*
X175275518Y-94825812D01*
X175400000Y-94838072D01*
X175714250Y-94835000D01*
X175873000Y-94676250D01*
X175873000Y-93627000D01*
X176127000Y-93627000D01*
X176127000Y-94676250D01*
X176285750Y-94835000D01*
X176600000Y-94838072D01*
X176724482Y-94825812D01*
X176844180Y-94789502D01*
X176954494Y-94730537D01*
X177051185Y-94651185D01*
X177130537Y-94554494D01*
X177189502Y-94444180D01*
X177225812Y-94324482D01*
X177238072Y-94200000D01*
X177235000Y-93785750D01*
X177076250Y-93627000D01*
X176127000Y-93627000D01*
X175873000Y-93627000D01*
X175853000Y-93627000D01*
X175853000Y-93373000D01*
X175873000Y-93373000D01*
X175873000Y-93353000D01*
X176127000Y-93353000D01*
X176127000Y-93373000D01*
X177076250Y-93373000D01*
X177235000Y-93214250D01*
X177238072Y-92800000D01*
X177225812Y-92675518D01*
X177189502Y-92555820D01*
X177130537Y-92445506D01*
X177119476Y-92432028D01*
X177195472Y-92289851D01*
X177246008Y-92123255D01*
X177263072Y-91950001D01*
X177263072Y-91311729D01*
X178789802Y-89785000D01*
X178851939Y-89785000D01*
X179051898Y-89745226D01*
X179240256Y-89667205D01*
X179409774Y-89553937D01*
X179440010Y-89523701D01*
X179440010Y-103877938D01*
X179424276Y-103865026D01*
X179292247Y-103794454D01*
X179148986Y-103750997D01*
X179037333Y-103740000D01*
X179037322Y-103740000D01*
X179000000Y-103736324D01*
X178962678Y-103740000D01*
X177703711Y-103740000D01*
X177659774Y-103696063D01*
X177490256Y-103582795D01*
X177301898Y-103504774D01*
X177101939Y-103465000D01*
X176898061Y-103465000D01*
X176698102Y-103504774D01*
X176509744Y-103582795D01*
X176340226Y-103696063D01*
X176196063Y-103840226D01*
X176082795Y-104009744D01*
X176004774Y-104198102D01*
X175965000Y-104398061D01*
X175965000Y-104601939D01*
X176004774Y-104801898D01*
X176082795Y-104990256D01*
X176196063Y-105159774D01*
X176340226Y-105303937D01*
X176509744Y-105417205D01*
X176698102Y-105495226D01*
X176898061Y-105535000D01*
X176965000Y-105535000D01*
X176965000Y-105601939D01*
X177004774Y-105801898D01*
X177082795Y-105990256D01*
X177196063Y-106159774D01*
X177240000Y-106203711D01*
X177240001Y-107435197D01*
X174685199Y-109990000D01*
X169904527Y-109990000D01*
X169895472Y-109960149D01*
X169813405Y-109806613D01*
X169702962Y-109672038D01*
X169568387Y-109561595D01*
X169414851Y-109479528D01*
X169248255Y-109428992D01*
X169075001Y-109411928D01*
X168424999Y-109411928D01*
X168251745Y-109428992D01*
X168085149Y-109479528D01*
X167931613Y-109561595D01*
X167797038Y-109672038D01*
X167725000Y-109759816D01*
X167652962Y-109672038D01*
X167518387Y-109561595D01*
X167364851Y-109479528D01*
X167198255Y-109428992D01*
X167025001Y-109411928D01*
X166374999Y-109411928D01*
X166201745Y-109428992D01*
X166035149Y-109479528D01*
X165881613Y-109561595D01*
X165747038Y-109672038D01*
X165636595Y-109806613D01*
X165554528Y-109960149D01*
X165503992Y-110126745D01*
X165486928Y-110299999D01*
X165486928Y-111200001D01*
X165503992Y-111373255D01*
X165554528Y-111539851D01*
X165636595Y-111693387D01*
X165695556Y-111765231D01*
X165661595Y-111806613D01*
X165579528Y-111960149D01*
X165528992Y-112126745D01*
X165511928Y-112299999D01*
X165511928Y-113200001D01*
X165528992Y-113373255D01*
X165579528Y-113539851D01*
X165661595Y-113693387D01*
X165772038Y-113827962D01*
X165906613Y-113938405D01*
X166060149Y-114020472D01*
X166226745Y-114071008D01*
X166399999Y-114088072D01*
X167100001Y-114088072D01*
X167273255Y-114071008D01*
X167439851Y-114020472D01*
X167593387Y-113938405D01*
X167674637Y-113871724D01*
X167698815Y-113901185D01*
X167795506Y-113980537D01*
X167905820Y-114039502D01*
X168025518Y-114075812D01*
X168150000Y-114088072D01*
X168464250Y-114085000D01*
X168623000Y-113926250D01*
X168623000Y-112877000D01*
X168877000Y-112877000D01*
X168877000Y-113926250D01*
X169035750Y-114085000D01*
X169350000Y-114088072D01*
X169474482Y-114075812D01*
X169594180Y-114039502D01*
X169704494Y-113980537D01*
X169801185Y-113901185D01*
X169880537Y-113804494D01*
X169939502Y-113694180D01*
X169975812Y-113574482D01*
X169988072Y-113450000D01*
X169985000Y-113035750D01*
X169826250Y-112877000D01*
X168877000Y-112877000D01*
X168623000Y-112877000D01*
X168603000Y-112877000D01*
X168603000Y-112623000D01*
X168623000Y-112623000D01*
X168623000Y-112603000D01*
X168877000Y-112603000D01*
X168877000Y-112623000D01*
X169826250Y-112623000D01*
X169985000Y-112464250D01*
X169988072Y-112050000D01*
X169975812Y-111925518D01*
X169939502Y-111805820D01*
X169880537Y-111695506D01*
X169839197Y-111645133D01*
X169895472Y-111539851D01*
X169904527Y-111510000D01*
X174962678Y-111510000D01*
X175000000Y-111513676D01*
X175037322Y-111510000D01*
X175037333Y-111510000D01*
X175148986Y-111499003D01*
X175292247Y-111455546D01*
X175424276Y-111384974D01*
X175540001Y-111290001D01*
X175563804Y-111260997D01*
X178511003Y-108313799D01*
X178540001Y-108290001D01*
X178634974Y-108174276D01*
X178705546Y-108042247D01*
X178749003Y-107898986D01*
X178760000Y-107787333D01*
X178760000Y-107787325D01*
X178763676Y-107750000D01*
X178760000Y-107712675D01*
X178760000Y-106203711D01*
X178803937Y-106159774D01*
X178917205Y-105990256D01*
X178990000Y-105814514D01*
X178990001Y-116935197D01*
X177763271Y-118161928D01*
X177174999Y-118161928D01*
X177001745Y-118178992D01*
X176835149Y-118229528D01*
X176681613Y-118311595D01*
X176547038Y-118422038D01*
X176475000Y-118509816D01*
X176402962Y-118422038D01*
X176268387Y-118311595D01*
X176114851Y-118229528D01*
X175948255Y-118178992D01*
X175775001Y-118161928D01*
X175124999Y-118161928D01*
X174951745Y-118178992D01*
X174785149Y-118229528D01*
X174631613Y-118311595D01*
X174497038Y-118422038D01*
X174386595Y-118556613D01*
X174304528Y-118710149D01*
X174253992Y-118876745D01*
X174236928Y-119049999D01*
X174236928Y-119950001D01*
X174253992Y-120123255D01*
X174304528Y-120289851D01*
X174386595Y-120443387D01*
X174445556Y-120515231D01*
X174411595Y-120556613D01*
X174329528Y-120710149D01*
X174278992Y-120876745D01*
X174261928Y-121049999D01*
X174261928Y-121950001D01*
X174278992Y-122123255D01*
X174329528Y-122289851D01*
X174411595Y-122443387D01*
X174522038Y-122577962D01*
X174656613Y-122688405D01*
X174810149Y-122770472D01*
X174976745Y-122821008D01*
X175149999Y-122838072D01*
X175850001Y-122838072D01*
X176023255Y-122821008D01*
X176189851Y-122770472D01*
X176343387Y-122688405D01*
X176424637Y-122621724D01*
X176448815Y-122651185D01*
X176545506Y-122730537D01*
X176655820Y-122789502D01*
X176775518Y-122825812D01*
X176900000Y-122838072D01*
X177214250Y-122835000D01*
X177373000Y-122676250D01*
X177373000Y-121627000D01*
X177627000Y-121627000D01*
X177627000Y-122676250D01*
X177785750Y-122835000D01*
X178100000Y-122838072D01*
X178224482Y-122825812D01*
X178344180Y-122789502D01*
X178454494Y-122730537D01*
X178551185Y-122651185D01*
X178630537Y-122554494D01*
X178689502Y-122444180D01*
X178725812Y-122324482D01*
X178738072Y-122200000D01*
X178735000Y-121785750D01*
X178576250Y-121627000D01*
X177627000Y-121627000D01*
X177373000Y-121627000D01*
X177353000Y-121627000D01*
X177353000Y-121373000D01*
X177373000Y-121373000D01*
X177373000Y-121353000D01*
X177627000Y-121353000D01*
X177627000Y-121373000D01*
X178576250Y-121373000D01*
X178735000Y-121214250D01*
X178738072Y-120800000D01*
X178725812Y-120675518D01*
X178689502Y-120555820D01*
X178630537Y-120445506D01*
X178589197Y-120395133D01*
X178645472Y-120289851D01*
X178696008Y-120123255D01*
X178713072Y-119950001D01*
X178713072Y-119361729D01*
X179440009Y-118634793D01*
X179440009Y-122235189D01*
X177185199Y-124490000D01*
X162037323Y-124490000D01*
X162000000Y-124486324D01*
X161962677Y-124490000D01*
X161962667Y-124490000D01*
X161851014Y-124500997D01*
X161707753Y-124544454D01*
X161575724Y-124615026D01*
X161459999Y-124709999D01*
X161436201Y-124738997D01*
X157849731Y-128325468D01*
X157775724Y-128365026D01*
X157659999Y-128459999D01*
X157636201Y-128488997D01*
X156885199Y-129240000D01*
X152314802Y-129240000D01*
X151734801Y-128660000D01*
X156973011Y-128660000D01*
X157010870Y-128663103D01*
X157070019Y-128656297D01*
X157129383Y-128650450D01*
X157134610Y-128648864D01*
X157140027Y-128648241D01*
X157196712Y-128630026D01*
X157253793Y-128612710D01*
X157258611Y-128610135D01*
X157263801Y-128608467D01*
X157315846Y-128579542D01*
X157368450Y-128551425D01*
X157372671Y-128547961D01*
X157377439Y-128545311D01*
X157422861Y-128506771D01*
X157468948Y-128468948D01*
X157493056Y-128439573D01*
X164947962Y-120736171D01*
X164968948Y-120718948D01*
X164993050Y-120689579D01*
X164996822Y-120685682D01*
X165013627Y-120664506D01*
X165051425Y-120618450D01*
X165053997Y-120613639D01*
X165057390Y-120609363D01*
X165084615Y-120556355D01*
X165112710Y-120503793D01*
X165114295Y-120498568D01*
X165116787Y-120493716D01*
X165133136Y-120436460D01*
X165150450Y-120379383D01*
X165150985Y-120373946D01*
X165152482Y-120368705D01*
X165157345Y-120309371D01*
X165160000Y-120282419D01*
X165160000Y-120276986D01*
X165163103Y-120239130D01*
X165160000Y-120212164D01*
X165160000Y-110023380D01*
X166695137Y-108488244D01*
X166721670Y-108466209D01*
X166761299Y-108417344D01*
X166801425Y-108368450D01*
X166802341Y-108366736D01*
X166803560Y-108365233D01*
X166832922Y-108309523D01*
X166862710Y-108253793D01*
X166872727Y-108220772D01*
X172348261Y-94780825D01*
X172362710Y-94753793D01*
X172372726Y-94720774D01*
X172373452Y-94718993D01*
X172382118Y-94689816D01*
X172400450Y-94629383D01*
X172400640Y-94627449D01*
X172401192Y-94625592D01*
X172407000Y-94562881D01*
X172410000Y-94532419D01*
X172410000Y-94530486D01*
X172413181Y-94496138D01*
X172410000Y-94465661D01*
X172410000Y-90277049D01*
X172413105Y-90239251D01*
X172406302Y-90180030D01*
X172400450Y-90120617D01*
X172398883Y-90115450D01*
X172398267Y-90110092D01*
X172380035Y-90053319D01*
X172362710Y-89996207D01*
X172344826Y-89962748D01*
X166090495Y-75529677D01*
X166226745Y-75571008D01*
X166399999Y-75588072D01*
X167100001Y-75588072D01*
X167273255Y-75571008D01*
X167439851Y-75520472D01*
X167593387Y-75438405D01*
X167674637Y-75371724D01*
X167698815Y-75401185D01*
X167795506Y-75480537D01*
X167905820Y-75539502D01*
X168025518Y-75575812D01*
X168150000Y-75588072D01*
X168464250Y-75585000D01*
X168623000Y-75426250D01*
X168623000Y-74377000D01*
X168877000Y-74377000D01*
X168877000Y-75426250D01*
X169035750Y-75585000D01*
X169350000Y-75588072D01*
X169474482Y-75575812D01*
X169594180Y-75539502D01*
X169704494Y-75480537D01*
X169801185Y-75401185D01*
X169880537Y-75304494D01*
X169939502Y-75194180D01*
X169975812Y-75074482D01*
X169988072Y-74950000D01*
X169985000Y-74535750D01*
X169826250Y-74377000D01*
X168877000Y-74377000D01*
X168623000Y-74377000D01*
X168603000Y-74377000D01*
X168603000Y-74123000D01*
X168623000Y-74123000D01*
X168623000Y-74103000D01*
X168877000Y-74103000D01*
X168877000Y-74123000D01*
X169826250Y-74123000D01*
X169985000Y-73964250D01*
X169988072Y-73550000D01*
X169975812Y-73425518D01*
X169939502Y-73305820D01*
X169880537Y-73195506D01*
X169839197Y-73145133D01*
X169895472Y-73039851D01*
X169946008Y-72873255D01*
X169963072Y-72700001D01*
X169963072Y-71799999D01*
X169946008Y-71626745D01*
X169895472Y-71460149D01*
X169813405Y-71306613D01*
X169702962Y-71172038D01*
X169568387Y-71061595D01*
X169510649Y-71030733D01*
X169513676Y-71000000D01*
X169510000Y-70962675D01*
X169510000Y-70962667D01*
X169499003Y-70851014D01*
X169455546Y-70707753D01*
X169384974Y-70575724D01*
X169290001Y-70459999D01*
X169261004Y-70436202D01*
X168334802Y-69510000D01*
X171798789Y-69510000D01*
X182040000Y-79751212D01*
G37*
G04 #@! TD.AperFunction*
G04 #@! TD*
M02*
