G04 #@! TF.GenerationSoftware,KiCad,Pcbnew,5.1.10-88a1d61d58~88~ubuntu20.04.1*
G04 #@! TF.CreationDate,2021-06-07T13:22:34+01:00*
G04 #@! TF.ProjectId,wings,77696e67-732e-46b6-9963-61645f706362,rev?*
G04 #@! TF.SameCoordinates,Original*
G04 #@! TF.FileFunction,Legend,Bot*
G04 #@! TF.FilePolarity,Positive*
%FSLAX46Y46*%
G04 Gerber Fmt 4.6, Leading zero omitted, Abs format (unit mm)*
G04 Created by KiCad (PCBNEW 5.1.10-88a1d61d58~88~ubuntu20.04.1) date 2021-06-07 13:22:34*
%MOMM*%
%LPD*%
G01*
G04 APERTURE LIST*
%ADD10C,0.120000*%
%ADD11C,0.150000*%
G04 APERTURE END LIST*
D10*
G04 #@! TO.C,R19*
X167977064Y-112015000D02*
X167522936Y-112015000D01*
X167977064Y-113485000D02*
X167522936Y-113485000D01*
G04 #@! TO.C,R13*
X184977064Y-76765000D02*
X184522936Y-76765000D01*
X184977064Y-78235000D02*
X184522936Y-78235000D01*
G04 #@! TO.C,R12*
X187727064Y-92515000D02*
X187272936Y-92515000D01*
X187727064Y-93985000D02*
X187272936Y-93985000D01*
G04 #@! TO.C,R11*
X184977064Y-109015000D02*
X184522936Y-109015000D01*
X184977064Y-110485000D02*
X184522936Y-110485000D01*
G04 #@! TO.C,R10*
X176727064Y-120765000D02*
X176272936Y-120765000D01*
X176727064Y-122235000D02*
X176272936Y-122235000D01*
G04 #@! TO.C,R21*
X167977064Y-73515000D02*
X167522936Y-73515000D01*
X167977064Y-74985000D02*
X167522936Y-74985000D01*
G04 #@! TO.C,R15*
X164727064Y-56515000D02*
X164272936Y-56515000D01*
X164727064Y-57985000D02*
X164272936Y-57985000D01*
G04 #@! TO.C,R9*
X164477064Y-128765000D02*
X164022936Y-128765000D01*
X164477064Y-130235000D02*
X164022936Y-130235000D01*
G04 #@! TO.C,R20*
X175227064Y-92765000D02*
X174772936Y-92765000D01*
X175227064Y-94235000D02*
X174772936Y-94235000D01*
G04 #@! TO.C,R14*
X176727064Y-64765000D02*
X176272936Y-64765000D01*
X176727064Y-66235000D02*
X176272936Y-66235000D01*
G04 #@! TO.C,D19*
X166725000Y-109790000D02*
X169585000Y-109790000D01*
X169585000Y-109790000D02*
X169585000Y-111710000D01*
X169585000Y-111710000D02*
X166725000Y-111710000D01*
G04 #@! TO.C,D13*
X183725000Y-74540000D02*
X186585000Y-74540000D01*
X186585000Y-74540000D02*
X186585000Y-76460000D01*
X186585000Y-76460000D02*
X183725000Y-76460000D01*
G04 #@! TO.C,D12*
X186500000Y-90290000D02*
X189360000Y-90290000D01*
X189360000Y-90290000D02*
X189360000Y-92210000D01*
X189360000Y-92210000D02*
X186500000Y-92210000D01*
G04 #@! TO.C,D11*
X183725000Y-106790000D02*
X186585000Y-106790000D01*
X186585000Y-106790000D02*
X186585000Y-108710000D01*
X186585000Y-108710000D02*
X183725000Y-108710000D01*
G04 #@! TO.C,D10*
X175475000Y-118540000D02*
X178335000Y-118540000D01*
X178335000Y-118540000D02*
X178335000Y-120460000D01*
X178335000Y-120460000D02*
X175475000Y-120460000D01*
G04 #@! TO.C,D21*
X166725000Y-71290000D02*
X169585000Y-71290000D01*
X169585000Y-71290000D02*
X169585000Y-73210000D01*
X169585000Y-73210000D02*
X166725000Y-73210000D01*
G04 #@! TO.C,D15*
X163475000Y-54290000D02*
X166335000Y-54290000D01*
X166335000Y-54290000D02*
X166335000Y-56210000D01*
X166335000Y-56210000D02*
X163475000Y-56210000D01*
G04 #@! TO.C,D9*
X163225000Y-126540000D02*
X166085000Y-126540000D01*
X166085000Y-126540000D02*
X166085000Y-128460000D01*
X166085000Y-128460000D02*
X163225000Y-128460000D01*
G04 #@! TO.C,D20*
X174025000Y-90540000D02*
X176885000Y-90540000D01*
X176885000Y-90540000D02*
X176885000Y-92460000D01*
X176885000Y-92460000D02*
X174025000Y-92460000D01*
G04 #@! TO.C,D14*
X175475000Y-62540000D02*
X178335000Y-62540000D01*
X178335000Y-62540000D02*
X178335000Y-64460000D01*
X178335000Y-64460000D02*
X175475000Y-64460000D01*
G04 #@! TO.C,R19*
D11*
X168392857Y-114952380D02*
X168726190Y-114476190D01*
X168964285Y-114952380D02*
X168964285Y-113952380D01*
X168583333Y-113952380D01*
X168488095Y-114000000D01*
X168440476Y-114047619D01*
X168392857Y-114142857D01*
X168392857Y-114285714D01*
X168440476Y-114380952D01*
X168488095Y-114428571D01*
X168583333Y-114476190D01*
X168964285Y-114476190D01*
X167440476Y-114952380D02*
X168011904Y-114952380D01*
X167726190Y-114952380D02*
X167726190Y-113952380D01*
X167821428Y-114095238D01*
X167916666Y-114190476D01*
X168011904Y-114238095D01*
X166964285Y-114952380D02*
X166773809Y-114952380D01*
X166678571Y-114904761D01*
X166630952Y-114857142D01*
X166535714Y-114714285D01*
X166488095Y-114523809D01*
X166488095Y-114142857D01*
X166535714Y-114047619D01*
X166583333Y-114000000D01*
X166678571Y-113952380D01*
X166869047Y-113952380D01*
X166964285Y-114000000D01*
X167011904Y-114047619D01*
X167059523Y-114142857D01*
X167059523Y-114380952D01*
X167011904Y-114476190D01*
X166964285Y-114523809D01*
X166869047Y-114571428D01*
X166678571Y-114571428D01*
X166583333Y-114523809D01*
X166535714Y-114476190D01*
X166488095Y-114380952D01*
G04 #@! TO.C,R13*
X185392857Y-79702380D02*
X185726190Y-79226190D01*
X185964285Y-79702380D02*
X185964285Y-78702380D01*
X185583333Y-78702380D01*
X185488095Y-78750000D01*
X185440476Y-78797619D01*
X185392857Y-78892857D01*
X185392857Y-79035714D01*
X185440476Y-79130952D01*
X185488095Y-79178571D01*
X185583333Y-79226190D01*
X185964285Y-79226190D01*
X184440476Y-79702380D02*
X185011904Y-79702380D01*
X184726190Y-79702380D02*
X184726190Y-78702380D01*
X184821428Y-78845238D01*
X184916666Y-78940476D01*
X185011904Y-78988095D01*
X184107142Y-78702380D02*
X183488095Y-78702380D01*
X183821428Y-79083333D01*
X183678571Y-79083333D01*
X183583333Y-79130952D01*
X183535714Y-79178571D01*
X183488095Y-79273809D01*
X183488095Y-79511904D01*
X183535714Y-79607142D01*
X183583333Y-79654761D01*
X183678571Y-79702380D01*
X183964285Y-79702380D01*
X184059523Y-79654761D01*
X184107142Y-79607142D01*
G04 #@! TO.C,R12*
X188142857Y-95452380D02*
X188476190Y-94976190D01*
X188714285Y-95452380D02*
X188714285Y-94452380D01*
X188333333Y-94452380D01*
X188238095Y-94500000D01*
X188190476Y-94547619D01*
X188142857Y-94642857D01*
X188142857Y-94785714D01*
X188190476Y-94880952D01*
X188238095Y-94928571D01*
X188333333Y-94976190D01*
X188714285Y-94976190D01*
X187190476Y-95452380D02*
X187761904Y-95452380D01*
X187476190Y-95452380D02*
X187476190Y-94452380D01*
X187571428Y-94595238D01*
X187666666Y-94690476D01*
X187761904Y-94738095D01*
X186809523Y-94547619D02*
X186761904Y-94500000D01*
X186666666Y-94452380D01*
X186428571Y-94452380D01*
X186333333Y-94500000D01*
X186285714Y-94547619D01*
X186238095Y-94642857D01*
X186238095Y-94738095D01*
X186285714Y-94880952D01*
X186857142Y-95452380D01*
X186238095Y-95452380D01*
G04 #@! TO.C,R11*
X185392857Y-112202380D02*
X185726190Y-111726190D01*
X185964285Y-112202380D02*
X185964285Y-111202380D01*
X185583333Y-111202380D01*
X185488095Y-111250000D01*
X185440476Y-111297619D01*
X185392857Y-111392857D01*
X185392857Y-111535714D01*
X185440476Y-111630952D01*
X185488095Y-111678571D01*
X185583333Y-111726190D01*
X185964285Y-111726190D01*
X184440476Y-112202380D02*
X185011904Y-112202380D01*
X184726190Y-112202380D02*
X184726190Y-111202380D01*
X184821428Y-111345238D01*
X184916666Y-111440476D01*
X185011904Y-111488095D01*
X183488095Y-112202380D02*
X184059523Y-112202380D01*
X183773809Y-112202380D02*
X183773809Y-111202380D01*
X183869047Y-111345238D01*
X183964285Y-111440476D01*
X184059523Y-111488095D01*
G04 #@! TO.C,R10*
X177142857Y-123952380D02*
X177476190Y-123476190D01*
X177714285Y-123952380D02*
X177714285Y-122952380D01*
X177333333Y-122952380D01*
X177238095Y-123000000D01*
X177190476Y-123047619D01*
X177142857Y-123142857D01*
X177142857Y-123285714D01*
X177190476Y-123380952D01*
X177238095Y-123428571D01*
X177333333Y-123476190D01*
X177714285Y-123476190D01*
X176190476Y-123952380D02*
X176761904Y-123952380D01*
X176476190Y-123952380D02*
X176476190Y-122952380D01*
X176571428Y-123095238D01*
X176666666Y-123190476D01*
X176761904Y-123238095D01*
X175571428Y-122952380D02*
X175476190Y-122952380D01*
X175380952Y-123000000D01*
X175333333Y-123047619D01*
X175285714Y-123142857D01*
X175238095Y-123333333D01*
X175238095Y-123571428D01*
X175285714Y-123761904D01*
X175333333Y-123857142D01*
X175380952Y-123904761D01*
X175476190Y-123952380D01*
X175571428Y-123952380D01*
X175666666Y-123904761D01*
X175714285Y-123857142D01*
X175761904Y-123761904D01*
X175809523Y-123571428D01*
X175809523Y-123333333D01*
X175761904Y-123142857D01*
X175714285Y-123047619D01*
X175666666Y-123000000D01*
X175571428Y-122952380D01*
G04 #@! TO.C,R21*
X168392857Y-76702380D02*
X168726190Y-76226190D01*
X168964285Y-76702380D02*
X168964285Y-75702380D01*
X168583333Y-75702380D01*
X168488095Y-75750000D01*
X168440476Y-75797619D01*
X168392857Y-75892857D01*
X168392857Y-76035714D01*
X168440476Y-76130952D01*
X168488095Y-76178571D01*
X168583333Y-76226190D01*
X168964285Y-76226190D01*
X168011904Y-75797619D02*
X167964285Y-75750000D01*
X167869047Y-75702380D01*
X167630952Y-75702380D01*
X167535714Y-75750000D01*
X167488095Y-75797619D01*
X167440476Y-75892857D01*
X167440476Y-75988095D01*
X167488095Y-76130952D01*
X168059523Y-76702380D01*
X167440476Y-76702380D01*
X166488095Y-76702380D02*
X167059523Y-76702380D01*
X166773809Y-76702380D02*
X166773809Y-75702380D01*
X166869047Y-75845238D01*
X166964285Y-75940476D01*
X167059523Y-75988095D01*
G04 #@! TO.C,R15*
X165142857Y-59702380D02*
X165476190Y-59226190D01*
X165714285Y-59702380D02*
X165714285Y-58702380D01*
X165333333Y-58702380D01*
X165238095Y-58750000D01*
X165190476Y-58797619D01*
X165142857Y-58892857D01*
X165142857Y-59035714D01*
X165190476Y-59130952D01*
X165238095Y-59178571D01*
X165333333Y-59226190D01*
X165714285Y-59226190D01*
X164190476Y-59702380D02*
X164761904Y-59702380D01*
X164476190Y-59702380D02*
X164476190Y-58702380D01*
X164571428Y-58845238D01*
X164666666Y-58940476D01*
X164761904Y-58988095D01*
X163285714Y-58702380D02*
X163761904Y-58702380D01*
X163809523Y-59178571D01*
X163761904Y-59130952D01*
X163666666Y-59083333D01*
X163428571Y-59083333D01*
X163333333Y-59130952D01*
X163285714Y-59178571D01*
X163238095Y-59273809D01*
X163238095Y-59511904D01*
X163285714Y-59607142D01*
X163333333Y-59654761D01*
X163428571Y-59702380D01*
X163666666Y-59702380D01*
X163761904Y-59654761D01*
X163809523Y-59607142D01*
G04 #@! TO.C,R9*
X164416666Y-131952380D02*
X164750000Y-131476190D01*
X164988095Y-131952380D02*
X164988095Y-130952380D01*
X164607142Y-130952380D01*
X164511904Y-131000000D01*
X164464285Y-131047619D01*
X164416666Y-131142857D01*
X164416666Y-131285714D01*
X164464285Y-131380952D01*
X164511904Y-131428571D01*
X164607142Y-131476190D01*
X164988095Y-131476190D01*
X163940476Y-131952380D02*
X163750000Y-131952380D01*
X163654761Y-131904761D01*
X163607142Y-131857142D01*
X163511904Y-131714285D01*
X163464285Y-131523809D01*
X163464285Y-131142857D01*
X163511904Y-131047619D01*
X163559523Y-131000000D01*
X163654761Y-130952380D01*
X163845238Y-130952380D01*
X163940476Y-131000000D01*
X163988095Y-131047619D01*
X164035714Y-131142857D01*
X164035714Y-131380952D01*
X163988095Y-131476190D01*
X163940476Y-131523809D01*
X163845238Y-131571428D01*
X163654761Y-131571428D01*
X163559523Y-131523809D01*
X163511904Y-131476190D01*
X163464285Y-131380952D01*
G04 #@! TO.C,R20*
X175642857Y-95952380D02*
X175976190Y-95476190D01*
X176214285Y-95952380D02*
X176214285Y-94952380D01*
X175833333Y-94952380D01*
X175738095Y-95000000D01*
X175690476Y-95047619D01*
X175642857Y-95142857D01*
X175642857Y-95285714D01*
X175690476Y-95380952D01*
X175738095Y-95428571D01*
X175833333Y-95476190D01*
X176214285Y-95476190D01*
X175261904Y-95047619D02*
X175214285Y-95000000D01*
X175119047Y-94952380D01*
X174880952Y-94952380D01*
X174785714Y-95000000D01*
X174738095Y-95047619D01*
X174690476Y-95142857D01*
X174690476Y-95238095D01*
X174738095Y-95380952D01*
X175309523Y-95952380D01*
X174690476Y-95952380D01*
X174071428Y-94952380D02*
X173976190Y-94952380D01*
X173880952Y-95000000D01*
X173833333Y-95047619D01*
X173785714Y-95142857D01*
X173738095Y-95333333D01*
X173738095Y-95571428D01*
X173785714Y-95761904D01*
X173833333Y-95857142D01*
X173880952Y-95904761D01*
X173976190Y-95952380D01*
X174071428Y-95952380D01*
X174166666Y-95904761D01*
X174214285Y-95857142D01*
X174261904Y-95761904D01*
X174309523Y-95571428D01*
X174309523Y-95333333D01*
X174261904Y-95142857D01*
X174214285Y-95047619D01*
X174166666Y-95000000D01*
X174071428Y-94952380D01*
G04 #@! TO.C,R14*
X177142857Y-67702380D02*
X177476190Y-67226190D01*
X177714285Y-67702380D02*
X177714285Y-66702380D01*
X177333333Y-66702380D01*
X177238095Y-66750000D01*
X177190476Y-66797619D01*
X177142857Y-66892857D01*
X177142857Y-67035714D01*
X177190476Y-67130952D01*
X177238095Y-67178571D01*
X177333333Y-67226190D01*
X177714285Y-67226190D01*
X176190476Y-67702380D02*
X176761904Y-67702380D01*
X176476190Y-67702380D02*
X176476190Y-66702380D01*
X176571428Y-66845238D01*
X176666666Y-66940476D01*
X176761904Y-66988095D01*
X175333333Y-67035714D02*
X175333333Y-67702380D01*
X175571428Y-66654761D02*
X175809523Y-67369047D01*
X175190476Y-67369047D01*
G04 #@! TO.C,D19*
X168939285Y-109552380D02*
X168939285Y-108552380D01*
X168701190Y-108552380D01*
X168558333Y-108600000D01*
X168463095Y-108695238D01*
X168415476Y-108790476D01*
X168367857Y-108980952D01*
X168367857Y-109123809D01*
X168415476Y-109314285D01*
X168463095Y-109409523D01*
X168558333Y-109504761D01*
X168701190Y-109552380D01*
X168939285Y-109552380D01*
X167415476Y-109552380D02*
X167986904Y-109552380D01*
X167701190Y-109552380D02*
X167701190Y-108552380D01*
X167796428Y-108695238D01*
X167891666Y-108790476D01*
X167986904Y-108838095D01*
X166939285Y-109552380D02*
X166748809Y-109552380D01*
X166653571Y-109504761D01*
X166605952Y-109457142D01*
X166510714Y-109314285D01*
X166463095Y-109123809D01*
X166463095Y-108742857D01*
X166510714Y-108647619D01*
X166558333Y-108600000D01*
X166653571Y-108552380D01*
X166844047Y-108552380D01*
X166939285Y-108600000D01*
X166986904Y-108647619D01*
X167034523Y-108742857D01*
X167034523Y-108980952D01*
X166986904Y-109076190D01*
X166939285Y-109123809D01*
X166844047Y-109171428D01*
X166653571Y-109171428D01*
X166558333Y-109123809D01*
X166510714Y-109076190D01*
X166463095Y-108980952D01*
G04 #@! TO.C,D13*
X185939285Y-74302380D02*
X185939285Y-73302380D01*
X185701190Y-73302380D01*
X185558333Y-73350000D01*
X185463095Y-73445238D01*
X185415476Y-73540476D01*
X185367857Y-73730952D01*
X185367857Y-73873809D01*
X185415476Y-74064285D01*
X185463095Y-74159523D01*
X185558333Y-74254761D01*
X185701190Y-74302380D01*
X185939285Y-74302380D01*
X184415476Y-74302380D02*
X184986904Y-74302380D01*
X184701190Y-74302380D02*
X184701190Y-73302380D01*
X184796428Y-73445238D01*
X184891666Y-73540476D01*
X184986904Y-73588095D01*
X184082142Y-73302380D02*
X183463095Y-73302380D01*
X183796428Y-73683333D01*
X183653571Y-73683333D01*
X183558333Y-73730952D01*
X183510714Y-73778571D01*
X183463095Y-73873809D01*
X183463095Y-74111904D01*
X183510714Y-74207142D01*
X183558333Y-74254761D01*
X183653571Y-74302380D01*
X183939285Y-74302380D01*
X184034523Y-74254761D01*
X184082142Y-74207142D01*
G04 #@! TO.C,D12*
X188714285Y-90052380D02*
X188714285Y-89052380D01*
X188476190Y-89052380D01*
X188333333Y-89100000D01*
X188238095Y-89195238D01*
X188190476Y-89290476D01*
X188142857Y-89480952D01*
X188142857Y-89623809D01*
X188190476Y-89814285D01*
X188238095Y-89909523D01*
X188333333Y-90004761D01*
X188476190Y-90052380D01*
X188714285Y-90052380D01*
X187190476Y-90052380D02*
X187761904Y-90052380D01*
X187476190Y-90052380D02*
X187476190Y-89052380D01*
X187571428Y-89195238D01*
X187666666Y-89290476D01*
X187761904Y-89338095D01*
X186809523Y-89147619D02*
X186761904Y-89100000D01*
X186666666Y-89052380D01*
X186428571Y-89052380D01*
X186333333Y-89100000D01*
X186285714Y-89147619D01*
X186238095Y-89242857D01*
X186238095Y-89338095D01*
X186285714Y-89480952D01*
X186857142Y-90052380D01*
X186238095Y-90052380D01*
G04 #@! TO.C,D11*
X185939285Y-106552380D02*
X185939285Y-105552380D01*
X185701190Y-105552380D01*
X185558333Y-105600000D01*
X185463095Y-105695238D01*
X185415476Y-105790476D01*
X185367857Y-105980952D01*
X185367857Y-106123809D01*
X185415476Y-106314285D01*
X185463095Y-106409523D01*
X185558333Y-106504761D01*
X185701190Y-106552380D01*
X185939285Y-106552380D01*
X184415476Y-106552380D02*
X184986904Y-106552380D01*
X184701190Y-106552380D02*
X184701190Y-105552380D01*
X184796428Y-105695238D01*
X184891666Y-105790476D01*
X184986904Y-105838095D01*
X183463095Y-106552380D02*
X184034523Y-106552380D01*
X183748809Y-106552380D02*
X183748809Y-105552380D01*
X183844047Y-105695238D01*
X183939285Y-105790476D01*
X184034523Y-105838095D01*
G04 #@! TO.C,D10*
X177689285Y-118302380D02*
X177689285Y-117302380D01*
X177451190Y-117302380D01*
X177308333Y-117350000D01*
X177213095Y-117445238D01*
X177165476Y-117540476D01*
X177117857Y-117730952D01*
X177117857Y-117873809D01*
X177165476Y-118064285D01*
X177213095Y-118159523D01*
X177308333Y-118254761D01*
X177451190Y-118302380D01*
X177689285Y-118302380D01*
X176165476Y-118302380D02*
X176736904Y-118302380D01*
X176451190Y-118302380D02*
X176451190Y-117302380D01*
X176546428Y-117445238D01*
X176641666Y-117540476D01*
X176736904Y-117588095D01*
X175546428Y-117302380D02*
X175451190Y-117302380D01*
X175355952Y-117350000D01*
X175308333Y-117397619D01*
X175260714Y-117492857D01*
X175213095Y-117683333D01*
X175213095Y-117921428D01*
X175260714Y-118111904D01*
X175308333Y-118207142D01*
X175355952Y-118254761D01*
X175451190Y-118302380D01*
X175546428Y-118302380D01*
X175641666Y-118254761D01*
X175689285Y-118207142D01*
X175736904Y-118111904D01*
X175784523Y-117921428D01*
X175784523Y-117683333D01*
X175736904Y-117492857D01*
X175689285Y-117397619D01*
X175641666Y-117350000D01*
X175546428Y-117302380D01*
G04 #@! TO.C,D21*
X168939285Y-71052380D02*
X168939285Y-70052380D01*
X168701190Y-70052380D01*
X168558333Y-70100000D01*
X168463095Y-70195238D01*
X168415476Y-70290476D01*
X168367857Y-70480952D01*
X168367857Y-70623809D01*
X168415476Y-70814285D01*
X168463095Y-70909523D01*
X168558333Y-71004761D01*
X168701190Y-71052380D01*
X168939285Y-71052380D01*
X167986904Y-70147619D02*
X167939285Y-70100000D01*
X167844047Y-70052380D01*
X167605952Y-70052380D01*
X167510714Y-70100000D01*
X167463095Y-70147619D01*
X167415476Y-70242857D01*
X167415476Y-70338095D01*
X167463095Y-70480952D01*
X168034523Y-71052380D01*
X167415476Y-71052380D01*
X166463095Y-71052380D02*
X167034523Y-71052380D01*
X166748809Y-71052380D02*
X166748809Y-70052380D01*
X166844047Y-70195238D01*
X166939285Y-70290476D01*
X167034523Y-70338095D01*
G04 #@! TO.C,D15*
X165964285Y-53702380D02*
X165964285Y-52702380D01*
X165726190Y-52702380D01*
X165583333Y-52750000D01*
X165488095Y-52845238D01*
X165440476Y-52940476D01*
X165392857Y-53130952D01*
X165392857Y-53273809D01*
X165440476Y-53464285D01*
X165488095Y-53559523D01*
X165583333Y-53654761D01*
X165726190Y-53702380D01*
X165964285Y-53702380D01*
X164440476Y-53702380D02*
X165011904Y-53702380D01*
X164726190Y-53702380D02*
X164726190Y-52702380D01*
X164821428Y-52845238D01*
X164916666Y-52940476D01*
X165011904Y-52988095D01*
X163535714Y-52702380D02*
X164011904Y-52702380D01*
X164059523Y-53178571D01*
X164011904Y-53130952D01*
X163916666Y-53083333D01*
X163678571Y-53083333D01*
X163583333Y-53130952D01*
X163535714Y-53178571D01*
X163488095Y-53273809D01*
X163488095Y-53511904D01*
X163535714Y-53607142D01*
X163583333Y-53654761D01*
X163678571Y-53702380D01*
X163916666Y-53702380D01*
X164011904Y-53654761D01*
X164059523Y-53607142D01*
G04 #@! TO.C,D9*
X164963095Y-126302380D02*
X164963095Y-125302380D01*
X164725000Y-125302380D01*
X164582142Y-125350000D01*
X164486904Y-125445238D01*
X164439285Y-125540476D01*
X164391666Y-125730952D01*
X164391666Y-125873809D01*
X164439285Y-126064285D01*
X164486904Y-126159523D01*
X164582142Y-126254761D01*
X164725000Y-126302380D01*
X164963095Y-126302380D01*
X163915476Y-126302380D02*
X163725000Y-126302380D01*
X163629761Y-126254761D01*
X163582142Y-126207142D01*
X163486904Y-126064285D01*
X163439285Y-125873809D01*
X163439285Y-125492857D01*
X163486904Y-125397619D01*
X163534523Y-125350000D01*
X163629761Y-125302380D01*
X163820238Y-125302380D01*
X163915476Y-125350000D01*
X163963095Y-125397619D01*
X164010714Y-125492857D01*
X164010714Y-125730952D01*
X163963095Y-125826190D01*
X163915476Y-125873809D01*
X163820238Y-125921428D01*
X163629761Y-125921428D01*
X163534523Y-125873809D01*
X163486904Y-125826190D01*
X163439285Y-125730952D01*
G04 #@! TO.C,D20*
X176239285Y-90302380D02*
X176239285Y-89302380D01*
X176001190Y-89302380D01*
X175858333Y-89350000D01*
X175763095Y-89445238D01*
X175715476Y-89540476D01*
X175667857Y-89730952D01*
X175667857Y-89873809D01*
X175715476Y-90064285D01*
X175763095Y-90159523D01*
X175858333Y-90254761D01*
X176001190Y-90302380D01*
X176239285Y-90302380D01*
X175286904Y-89397619D02*
X175239285Y-89350000D01*
X175144047Y-89302380D01*
X174905952Y-89302380D01*
X174810714Y-89350000D01*
X174763095Y-89397619D01*
X174715476Y-89492857D01*
X174715476Y-89588095D01*
X174763095Y-89730952D01*
X175334523Y-90302380D01*
X174715476Y-90302380D01*
X174096428Y-89302380D02*
X174001190Y-89302380D01*
X173905952Y-89350000D01*
X173858333Y-89397619D01*
X173810714Y-89492857D01*
X173763095Y-89683333D01*
X173763095Y-89921428D01*
X173810714Y-90111904D01*
X173858333Y-90207142D01*
X173905952Y-90254761D01*
X174001190Y-90302380D01*
X174096428Y-90302380D01*
X174191666Y-90254761D01*
X174239285Y-90207142D01*
X174286904Y-90111904D01*
X174334523Y-89921428D01*
X174334523Y-89683333D01*
X174286904Y-89492857D01*
X174239285Y-89397619D01*
X174191666Y-89350000D01*
X174096428Y-89302380D01*
G04 #@! TO.C,D14*
X177689285Y-62302380D02*
X177689285Y-61302380D01*
X177451190Y-61302380D01*
X177308333Y-61350000D01*
X177213095Y-61445238D01*
X177165476Y-61540476D01*
X177117857Y-61730952D01*
X177117857Y-61873809D01*
X177165476Y-62064285D01*
X177213095Y-62159523D01*
X177308333Y-62254761D01*
X177451190Y-62302380D01*
X177689285Y-62302380D01*
X176165476Y-62302380D02*
X176736904Y-62302380D01*
X176451190Y-62302380D02*
X176451190Y-61302380D01*
X176546428Y-61445238D01*
X176641666Y-61540476D01*
X176736904Y-61588095D01*
X175308333Y-61635714D02*
X175308333Y-62302380D01*
X175546428Y-61254761D02*
X175784523Y-61969047D01*
X175165476Y-61969047D01*
G04 #@! TD*
M02*
