M48
; DRILL file {KiCad 5.1.10-88a1d61d58~88~ubuntu20.04.1} date Mon Jun  7 13:14:37 2021
; FORMAT={-:-/ absolute / inch / decimal}
; #@! TF.CreationDate,2021-06-07T13:14:37+01:00
; #@! TF.GenerationSoftware,Kicad,Pcbnew,5.1.10-88a1d61d58~88~ubuntu20.04.1
FMAT,2
INCH
T1C0.0157
T2C0.0394
T3C0.0402
T4C0.0433
T5C0.0469
T6C0.0591
T7C0.0709
%
G90
G05
T1
X3.9862Y-4.4193
X4.1161Y-4.5571
X4.2402Y-3.9311
X4.2776Y-5.2579
X4.4724Y-4.6339
X4.4744Y-5.3386
X4.4764Y-3.4508
X4.5399Y-4.344
X4.5827Y-3.7953
X4.8268Y-6.063
X4.8445Y-5.8563
X4.9154Y-5.3189
X4.9291Y-2.9173
X4.998Y-3.8976
X5.0984Y-5.0591
X5.2185Y-2.9783
X5.2559Y-3.4547
X5.3346Y-2.6969
X5.3346Y-3.5335
X5.3484Y-2.7382
X5.376Y-2.7874
X5.4724Y-3.7598
X5.5827Y-5.7657
X5.687Y-5.9843
X5.6886Y-6.1456
X5.689Y-2.7756
X5.689Y-3.0098
X5.689Y-5.9035
X5.689Y-6.0256
X5.689Y-6.065
X5.689Y-6.2303
X5.6891Y-6.185
X5.6908Y-3.1672
X5.6909Y-2.8465
X5.6909Y-2.8878
X5.6909Y-2.9291
X5.6909Y-3.0886
X5.6909Y-5.9449
X5.6909Y-6.1063
X5.691Y-3.0492
X5.6914Y-5.8642
X5.6931Y-3.1279
X5.6949Y-3.2064
X5.6949Y-2.9683
X5.8583Y-5.9921
X5.8661Y-3.7697
X5.8661Y-5.2165
X5.9055Y-5.8169
X5.937Y-6.1181
X6.0236Y-3.4587
X6.1024Y-5.748
X6.1319Y-5.9843
X6.1811Y-6.1969
X6.1949Y-3.622
X6.2106Y-5.7579
X6.2126Y-5.9291
X6.2598Y-5.4134
X6.3346Y-5.2303
X6.3484Y-5.6575
X6.4193Y-4.9685
X6.4311Y-3.1496
X6.4882Y-5.935
X6.5236Y-5.4134
X6.5256Y-5.8169
X6.5354Y-3.4075
X6.6004Y-4.3799
X6.6358Y-3.7185
X6.7224Y-3.0709
X6.872Y-5.0827
X6.9331Y-5.6024
X6.9862Y-3.5138
X7.0079Y-3.7008
X7.122Y-3.6024
X7.2047Y-3.6811
X7.2074Y-3.6194
X7.2106Y-4.1713
T2
X5.548Y-3.3465
X5.548Y-3.4465
X5.648Y-3.3465
X5.648Y-3.4465
X5.748Y-3.3465
X5.748Y-3.4465
X5.848Y-3.3465
X5.848Y-3.4465
T3
X5.3346Y-3.711
X5.3346Y-3.811
X5.3346Y-3.911
X5.3346Y-4.011
X5.3346Y-4.111
X5.3346Y-4.211
X5.3346Y-4.311
X5.3346Y-4.411
X5.3346Y-4.511
X5.3346Y-4.611
X5.3346Y-4.711
X5.3346Y-4.811
X5.3346Y-4.911
X5.3346Y-5.011
X5.3346Y-5.111
X5.3346Y-5.211
X5.3346Y-5.311
X5.3346Y-5.411
X5.3346Y-5.511
X5.3346Y-5.611
X5.5846Y-5.602
X5.6846Y-5.602
X5.7846Y-5.602
X6.0346Y-3.711
X6.0346Y-3.811
X6.0346Y-3.911
X6.0346Y-4.011
X6.0346Y-4.111
X6.0346Y-4.211
X6.0346Y-4.311
X6.0346Y-4.411
X6.0346Y-4.511
X6.0346Y-4.611
X6.0346Y-4.711
X6.0346Y-4.811
X6.0346Y-4.911
X6.0346Y-5.011
X6.0346Y-5.111
X6.0346Y-5.211
X6.0346Y-5.311
X6.0346Y-5.411
X6.0346Y-5.511
X6.0346Y-5.611
T4
X6.5955Y-4.0413
X6.875Y-4.0413
T5
X5.648Y-2.5787
X5.748Y-2.5787
T6
X5.5892Y-3.8354
X5.7801Y-3.8354
T7
X5.5774Y-3.7161
X5.7919Y-3.7161
T0
M30
