G04 #@! TF.GenerationSoftware,KiCad,Pcbnew,5.1.10-88a1d61d58~88~ubuntu20.04.1*
G04 #@! TF.CreationDate,2021-06-07T13:14:32+01:00*
G04 #@! TF.ProjectId,Bauble,42617562-6c65-42e6-9b69-6361645f7063,rev?*
G04 #@! TF.SameCoordinates,Original*
G04 #@! TF.FileFunction,Soldermask,Bot*
G04 #@! TF.FilePolarity,Negative*
%FSLAX46Y46*%
G04 Gerber Fmt 4.6, Leading zero omitted, Abs format (unit mm)*
G04 Created by KiCad (PCBNEW 5.1.10-88a1d61d58~88~ubuntu20.04.1) date 2021-06-07 13:14:32*
%MOMM*%
%LPD*%
G01*
G04 APERTURE LIST*
%ADD10O,1.600000X1.600000*%
%ADD11O,2.100000X1.600000*%
%ADD12R,2.000000X1.500000*%
%ADD13O,1.700000X1.700000*%
%ADD14R,1.700000X1.700000*%
%ADD15O,1.500000X1.500000*%
%ADD16O,1.800000X1.800000*%
%ADD17O,1.740000X2.190000*%
G04 APERTURE END LIST*
D10*
G04 #@! TO.C,R27*
X174625000Y-102650000D03*
D11*
X167525000Y-102650000D03*
G04 #@! TD*
D12*
G04 #@! TO.C,J6*
X142750000Y-157500000D03*
X142750000Y-155500000D03*
X142750000Y-153500000D03*
X142750000Y-151500000D03*
X142750000Y-149500000D03*
X146250000Y-157500000D03*
X146250000Y-155500000D03*
X146250000Y-153500000D03*
X146250000Y-151500000D03*
X146250000Y-149500000D03*
G04 #@! TD*
G04 #@! TO.C,J5*
X142750000Y-81000000D03*
X142750000Y-79000000D03*
X142750000Y-77000000D03*
X142750000Y-75000000D03*
X142750000Y-73000000D03*
X142750000Y-71000000D03*
X146250000Y-81000000D03*
X146250000Y-79000000D03*
X146250000Y-77000000D03*
X146250000Y-75000000D03*
X146250000Y-73000000D03*
X146250000Y-71000000D03*
G04 #@! TD*
D13*
G04 #@! TO.C,U1*
X146930000Y-142290000D03*
D14*
X144390000Y-142290000D03*
D13*
X141850000Y-142290000D03*
D15*
X146815000Y-97420000D03*
X141965000Y-97420000D03*
D16*
X147115000Y-94390000D03*
X141665000Y-94390000D03*
D13*
X153280000Y-94260000D03*
X153280000Y-96800000D03*
D14*
X153280000Y-99340000D03*
D13*
X153280000Y-101880000D03*
X153280000Y-104420000D03*
X153280000Y-106960000D03*
X153280000Y-109500000D03*
D14*
X153280000Y-112040000D03*
D13*
X153280000Y-114580000D03*
X153280000Y-117120000D03*
X153280000Y-119660000D03*
X153280000Y-122200000D03*
D14*
X153280000Y-124740000D03*
D13*
X153280000Y-127280000D03*
X153280000Y-129820000D03*
X153280000Y-132360000D03*
X153280000Y-134900000D03*
D14*
X153280000Y-137440000D03*
D13*
X153280000Y-139980000D03*
X153280000Y-142520000D03*
X135500000Y-142520000D03*
X135500000Y-139980000D03*
D14*
X135500000Y-137440000D03*
D13*
X135500000Y-134900000D03*
X135500000Y-132360000D03*
X135500000Y-129820000D03*
X135500000Y-127280000D03*
D14*
X135500000Y-124740000D03*
D13*
X135500000Y-122200000D03*
X135500000Y-119660000D03*
X135500000Y-117120000D03*
X135500000Y-114580000D03*
D14*
X135500000Y-112040000D03*
D13*
X135500000Y-109500000D03*
X135500000Y-106960000D03*
X135500000Y-104420000D03*
X135500000Y-101880000D03*
D14*
X135500000Y-99340000D03*
D13*
X135500000Y-96800000D03*
X135500000Y-94260000D03*
G04 #@! TD*
G04 #@! TO.C,R48*
G36*
G01*
X125900000Y-133450001D02*
X125900000Y-132549999D01*
G75*
G02*
X126149999Y-132300000I249999J0D01*
G01*
X126850001Y-132300000D01*
G75*
G02*
X127100000Y-132549999I0J-249999D01*
G01*
X127100000Y-133450001D01*
G75*
G02*
X126850001Y-133700000I-249999J0D01*
G01*
X126149999Y-133700000D01*
G75*
G02*
X125900000Y-133450001I0J249999D01*
G01*
G37*
G36*
G01*
X123900000Y-133450001D02*
X123900000Y-132549999D01*
G75*
G02*
X124149999Y-132300000I249999J0D01*
G01*
X124850001Y-132300000D01*
G75*
G02*
X125100000Y-132549999I0J-249999D01*
G01*
X125100000Y-133450001D01*
G75*
G02*
X124850001Y-133700000I-249999J0D01*
G01*
X124149999Y-133700000D01*
G75*
G02*
X123900000Y-133450001I0J249999D01*
G01*
G37*
G04 #@! TD*
G04 #@! TO.C,R42*
G36*
G01*
X183900000Y-114450001D02*
X183900000Y-113549999D01*
G75*
G02*
X184149999Y-113300000I249999J0D01*
G01*
X184850001Y-113300000D01*
G75*
G02*
X185100000Y-113549999I0J-249999D01*
G01*
X185100000Y-114450001D01*
G75*
G02*
X184850001Y-114700000I-249999J0D01*
G01*
X184149999Y-114700000D01*
G75*
G02*
X183900000Y-114450001I0J249999D01*
G01*
G37*
G36*
G01*
X181900000Y-114450001D02*
X181900000Y-113549999D01*
G75*
G02*
X182149999Y-113300000I249999J0D01*
G01*
X182850001Y-113300000D01*
G75*
G02*
X183100000Y-113549999I0J-249999D01*
G01*
X183100000Y-114450001D01*
G75*
G02*
X182850001Y-114700000I-249999J0D01*
G01*
X182149999Y-114700000D01*
G75*
G02*
X181900000Y-114450001I0J249999D01*
G01*
G37*
G04 #@! TD*
G04 #@! TO.C,R36*
G36*
G01*
X116900000Y-142450001D02*
X116900000Y-141549999D01*
G75*
G02*
X117149999Y-141300000I249999J0D01*
G01*
X117850001Y-141300000D01*
G75*
G02*
X118100000Y-141549999I0J-249999D01*
G01*
X118100000Y-142450001D01*
G75*
G02*
X117850001Y-142700000I-249999J0D01*
G01*
X117149999Y-142700000D01*
G75*
G02*
X116900000Y-142450001I0J249999D01*
G01*
G37*
G36*
G01*
X114900000Y-142450001D02*
X114900000Y-141549999D01*
G75*
G02*
X115149999Y-141300000I249999J0D01*
G01*
X115850001Y-141300000D01*
G75*
G02*
X116100000Y-141549999I0J-249999D01*
G01*
X116100000Y-142450001D01*
G75*
G02*
X115850001Y-142700000I-249999J0D01*
G01*
X115149999Y-142700000D01*
G75*
G02*
X114900000Y-142450001I0J249999D01*
G01*
G37*
G04 #@! TD*
G04 #@! TO.C,R41*
G36*
G01*
X181400000Y-130450001D02*
X181400000Y-129549999D01*
G75*
G02*
X181649999Y-129300000I249999J0D01*
G01*
X182350001Y-129300000D01*
G75*
G02*
X182600000Y-129549999I0J-249999D01*
G01*
X182600000Y-130450001D01*
G75*
G02*
X182350001Y-130700000I-249999J0D01*
G01*
X181649999Y-130700000D01*
G75*
G02*
X181400000Y-130450001I0J249999D01*
G01*
G37*
G36*
G01*
X179400000Y-130450001D02*
X179400000Y-129549999D01*
G75*
G02*
X179649999Y-129300000I249999J0D01*
G01*
X180350001Y-129300000D01*
G75*
G02*
X180600000Y-129549999I0J-249999D01*
G01*
X180600000Y-130450001D01*
G75*
G02*
X180350001Y-130700000I-249999J0D01*
G01*
X179649999Y-130700000D01*
G75*
G02*
X179400000Y-130450001I0J249999D01*
G01*
G37*
G04 #@! TD*
G04 #@! TO.C,R47*
G36*
G01*
X118400000Y-114450001D02*
X118400000Y-113549999D01*
G75*
G02*
X118649999Y-113300000I249999J0D01*
G01*
X119350001Y-113300000D01*
G75*
G02*
X119600000Y-113549999I0J-249999D01*
G01*
X119600000Y-114450001D01*
G75*
G02*
X119350001Y-114700000I-249999J0D01*
G01*
X118649999Y-114700000D01*
G75*
G02*
X118400000Y-114450001I0J249999D01*
G01*
G37*
G36*
G01*
X116400000Y-114450001D02*
X116400000Y-113549999D01*
G75*
G02*
X116649999Y-113300000I249999J0D01*
G01*
X117350001Y-113300000D01*
G75*
G02*
X117600000Y-113549999I0J-249999D01*
G01*
X117600000Y-114450001D01*
G75*
G02*
X117350001Y-114700000I-249999J0D01*
G01*
X116649999Y-114700000D01*
G75*
G02*
X116400000Y-114450001I0J249999D01*
G01*
G37*
G04 #@! TD*
G04 #@! TO.C,R35*
G36*
G01*
X108900000Y-130450001D02*
X108900000Y-129549999D01*
G75*
G02*
X109149999Y-129300000I249999J0D01*
G01*
X109850001Y-129300000D01*
G75*
G02*
X110100000Y-129549999I0J-249999D01*
G01*
X110100000Y-130450001D01*
G75*
G02*
X109850001Y-130700000I-249999J0D01*
G01*
X109149999Y-130700000D01*
G75*
G02*
X108900000Y-130450001I0J249999D01*
G01*
G37*
G36*
G01*
X106900000Y-130450001D02*
X106900000Y-129549999D01*
G75*
G02*
X107149999Y-129300000I249999J0D01*
G01*
X107850001Y-129300000D01*
G75*
G02*
X108100000Y-129549999I0J-249999D01*
G01*
X108100000Y-130450001D01*
G75*
G02*
X107850001Y-130700000I-249999J0D01*
G01*
X107149999Y-130700000D01*
G75*
G02*
X106900000Y-130450001I0J249999D01*
G01*
G37*
G04 #@! TD*
G04 #@! TO.C,R40*
G36*
G01*
X172900000Y-142450001D02*
X172900000Y-141549999D01*
G75*
G02*
X173149999Y-141300000I249999J0D01*
G01*
X173850001Y-141300000D01*
G75*
G02*
X174100000Y-141549999I0J-249999D01*
G01*
X174100000Y-142450001D01*
G75*
G02*
X173850001Y-142700000I-249999J0D01*
G01*
X173149999Y-142700000D01*
G75*
G02*
X172900000Y-142450001I0J249999D01*
G01*
G37*
G36*
G01*
X170900000Y-142450001D02*
X170900000Y-141549999D01*
G75*
G02*
X171149999Y-141300000I249999J0D01*
G01*
X171850001Y-141300000D01*
G75*
G02*
X172100000Y-141549999I0J-249999D01*
G01*
X172100000Y-142450001D01*
G75*
G02*
X171850001Y-142700000I-249999J0D01*
G01*
X171149999Y-142700000D01*
G75*
G02*
X170900000Y-142450001I0J249999D01*
G01*
G37*
G04 #@! TD*
G04 #@! TO.C,R46*
G36*
G01*
X125900000Y-95450001D02*
X125900000Y-94549999D01*
G75*
G02*
X126149999Y-94300000I249999J0D01*
G01*
X126850001Y-94300000D01*
G75*
G02*
X127100000Y-94549999I0J-249999D01*
G01*
X127100000Y-95450001D01*
G75*
G02*
X126850001Y-95700000I-249999J0D01*
G01*
X126149999Y-95700000D01*
G75*
G02*
X125900000Y-95450001I0J249999D01*
G01*
G37*
G36*
G01*
X123900000Y-95450001D02*
X123900000Y-94549999D01*
G75*
G02*
X124149999Y-94300000I249999J0D01*
G01*
X124850001Y-94300000D01*
G75*
G02*
X125100000Y-94549999I0J-249999D01*
G01*
X125100000Y-95450001D01*
G75*
G02*
X124850001Y-95700000I-249999J0D01*
G01*
X124149999Y-95700000D01*
G75*
G02*
X123900000Y-95450001I0J249999D01*
G01*
G37*
G04 #@! TD*
G04 #@! TO.C,R34*
G36*
G01*
X105900000Y-114450001D02*
X105900000Y-113549999D01*
G75*
G02*
X106149999Y-113300000I249999J0D01*
G01*
X106850001Y-113300000D01*
G75*
G02*
X107100000Y-113549999I0J-249999D01*
G01*
X107100000Y-114450001D01*
G75*
G02*
X106850001Y-114700000I-249999J0D01*
G01*
X106149999Y-114700000D01*
G75*
G02*
X105900000Y-114450001I0J249999D01*
G01*
G37*
G36*
G01*
X103900000Y-114450001D02*
X103900000Y-113549999D01*
G75*
G02*
X104149999Y-113300000I249999J0D01*
G01*
X104850001Y-113300000D01*
G75*
G02*
X105100000Y-113549999I0J-249999D01*
G01*
X105100000Y-114450001D01*
G75*
G02*
X104850001Y-114700000I-249999J0D01*
G01*
X104149999Y-114700000D01*
G75*
G02*
X103900000Y-114450001I0J249999D01*
G01*
G37*
G04 #@! TD*
G04 #@! TO.C,R51*
G36*
G01*
X164400000Y-95425001D02*
X164400000Y-94524999D01*
G75*
G02*
X164649999Y-94275000I249999J0D01*
G01*
X165350001Y-94275000D01*
G75*
G02*
X165600000Y-94524999I0J-249999D01*
G01*
X165600000Y-95425001D01*
G75*
G02*
X165350001Y-95675000I-249999J0D01*
G01*
X164649999Y-95675000D01*
G75*
G02*
X164400000Y-95425001I0J249999D01*
G01*
G37*
G36*
G01*
X162400000Y-95425001D02*
X162400000Y-94524999D01*
G75*
G02*
X162649999Y-94275000I249999J0D01*
G01*
X163350001Y-94275000D01*
G75*
G02*
X163600000Y-94524999I0J-249999D01*
G01*
X163600000Y-95425001D01*
G75*
G02*
X163350001Y-95675000I-249999J0D01*
G01*
X162649999Y-95675000D01*
G75*
G02*
X162400000Y-95425001I0J249999D01*
G01*
G37*
G04 #@! TD*
G04 #@! TO.C,R45*
G36*
G01*
X160900000Y-78450001D02*
X160900000Y-77549999D01*
G75*
G02*
X161149999Y-77300000I249999J0D01*
G01*
X161850001Y-77300000D01*
G75*
G02*
X162100000Y-77549999I0J-249999D01*
G01*
X162100000Y-78450001D01*
G75*
G02*
X161850001Y-78700000I-249999J0D01*
G01*
X161149999Y-78700000D01*
G75*
G02*
X160900000Y-78450001I0J249999D01*
G01*
G37*
G36*
G01*
X158900000Y-78450001D02*
X158900000Y-77549999D01*
G75*
G02*
X159149999Y-77300000I249999J0D01*
G01*
X159850001Y-77300000D01*
G75*
G02*
X160100000Y-77549999I0J-249999D01*
G01*
X160100000Y-78450001D01*
G75*
G02*
X159850001Y-78700000I-249999J0D01*
G01*
X159149999Y-78700000D01*
G75*
G02*
X158900000Y-78450001I0J249999D01*
G01*
G37*
G04 #@! TD*
G04 #@! TO.C,R39*
G36*
G01*
X160900000Y-150950001D02*
X160900000Y-150049999D01*
G75*
G02*
X161149999Y-149800000I249999J0D01*
G01*
X161850001Y-149800000D01*
G75*
G02*
X162100000Y-150049999I0J-249999D01*
G01*
X162100000Y-150950001D01*
G75*
G02*
X161850001Y-151200000I-249999J0D01*
G01*
X161149999Y-151200000D01*
G75*
G02*
X160900000Y-150950001I0J249999D01*
G01*
G37*
G36*
G01*
X158900000Y-150950001D02*
X158900000Y-150049999D01*
G75*
G02*
X159149999Y-149800000I249999J0D01*
G01*
X159850001Y-149800000D01*
G75*
G02*
X160100000Y-150049999I0J-249999D01*
G01*
X160100000Y-150950001D01*
G75*
G02*
X159850001Y-151200000I-249999J0D01*
G01*
X159149999Y-151200000D01*
G75*
G02*
X158900000Y-150950001I0J249999D01*
G01*
G37*
G04 #@! TD*
G04 #@! TO.C,R33*
G36*
G01*
X108900000Y-98450001D02*
X108900000Y-97549999D01*
G75*
G02*
X109149999Y-97300000I249999J0D01*
G01*
X109850001Y-97300000D01*
G75*
G02*
X110100000Y-97549999I0J-249999D01*
G01*
X110100000Y-98450001D01*
G75*
G02*
X109850001Y-98700000I-249999J0D01*
G01*
X109149999Y-98700000D01*
G75*
G02*
X108900000Y-98450001I0J249999D01*
G01*
G37*
G36*
G01*
X106900000Y-98450001D02*
X106900000Y-97549999D01*
G75*
G02*
X107149999Y-97300000I249999J0D01*
G01*
X107850001Y-97300000D01*
G75*
G02*
X108100000Y-97549999I0J-249999D01*
G01*
X108100000Y-98450001D01*
G75*
G02*
X107850001Y-98700000I-249999J0D01*
G01*
X107149999Y-98700000D01*
G75*
G02*
X106900000Y-98450001I0J249999D01*
G01*
G37*
G04 #@! TD*
G04 #@! TO.C,R44*
G36*
G01*
X173400000Y-86450001D02*
X173400000Y-85549999D01*
G75*
G02*
X173649999Y-85300000I249999J0D01*
G01*
X174350001Y-85300000D01*
G75*
G02*
X174600000Y-85549999I0J-249999D01*
G01*
X174600000Y-86450001D01*
G75*
G02*
X174350001Y-86700000I-249999J0D01*
G01*
X173649999Y-86700000D01*
G75*
G02*
X173400000Y-86450001I0J249999D01*
G01*
G37*
G36*
G01*
X171400000Y-86450001D02*
X171400000Y-85549999D01*
G75*
G02*
X171649999Y-85300000I249999J0D01*
G01*
X172350001Y-85300000D01*
G75*
G02*
X172600000Y-85549999I0J-249999D01*
G01*
X172600000Y-86450001D01*
G75*
G02*
X172350001Y-86700000I-249999J0D01*
G01*
X171649999Y-86700000D01*
G75*
G02*
X171400000Y-86450001I0J249999D01*
G01*
G37*
G04 #@! TD*
G04 #@! TO.C,R50*
G36*
G01*
X171400000Y-114450001D02*
X171400000Y-113549999D01*
G75*
G02*
X171649999Y-113300000I249999J0D01*
G01*
X172350001Y-113300000D01*
G75*
G02*
X172600000Y-113549999I0J-249999D01*
G01*
X172600000Y-114450001D01*
G75*
G02*
X172350001Y-114700000I-249999J0D01*
G01*
X171649999Y-114700000D01*
G75*
G02*
X171400000Y-114450001I0J249999D01*
G01*
G37*
G36*
G01*
X169400000Y-114450001D02*
X169400000Y-113549999D01*
G75*
G02*
X169649999Y-113300000I249999J0D01*
G01*
X170350001Y-113300000D01*
G75*
G02*
X170600000Y-113549999I0J-249999D01*
G01*
X170600000Y-114450001D01*
G75*
G02*
X170350001Y-114700000I-249999J0D01*
G01*
X169649999Y-114700000D01*
G75*
G02*
X169400000Y-114450001I0J249999D01*
G01*
G37*
G04 #@! TD*
G04 #@! TO.C,R32*
G36*
G01*
X117400000Y-86450001D02*
X117400000Y-85549999D01*
G75*
G02*
X117649999Y-85300000I249999J0D01*
G01*
X118350001Y-85300000D01*
G75*
G02*
X118600000Y-85549999I0J-249999D01*
G01*
X118600000Y-86450001D01*
G75*
G02*
X118350001Y-86700000I-249999J0D01*
G01*
X117649999Y-86700000D01*
G75*
G02*
X117400000Y-86450001I0J249999D01*
G01*
G37*
G36*
G01*
X115400000Y-86450001D02*
X115400000Y-85549999D01*
G75*
G02*
X115649999Y-85300000I249999J0D01*
G01*
X116350001Y-85300000D01*
G75*
G02*
X116600000Y-85549999I0J-249999D01*
G01*
X116600000Y-86450001D01*
G75*
G02*
X116350001Y-86700000I-249999J0D01*
G01*
X115649999Y-86700000D01*
G75*
G02*
X115400000Y-86450001I0J249999D01*
G01*
G37*
G04 #@! TD*
G04 #@! TO.C,R37*
G36*
G01*
X129400000Y-150450001D02*
X129400000Y-149549999D01*
G75*
G02*
X129649999Y-149300000I249999J0D01*
G01*
X130350001Y-149300000D01*
G75*
G02*
X130600000Y-149549999I0J-249999D01*
G01*
X130600000Y-150450001D01*
G75*
G02*
X130350001Y-150700000I-249999J0D01*
G01*
X129649999Y-150700000D01*
G75*
G02*
X129400000Y-150450001I0J249999D01*
G01*
G37*
G36*
G01*
X127400000Y-150450001D02*
X127400000Y-149549999D01*
G75*
G02*
X127649999Y-149300000I249999J0D01*
G01*
X128350001Y-149300000D01*
G75*
G02*
X128600000Y-149549999I0J-249999D01*
G01*
X128600000Y-150450001D01*
G75*
G02*
X128350001Y-150700000I-249999J0D01*
G01*
X127649999Y-150700000D01*
G75*
G02*
X127400000Y-150450001I0J249999D01*
G01*
G37*
G04 #@! TD*
G04 #@! TO.C,R43*
G36*
G01*
X181400000Y-98950001D02*
X181400000Y-98049999D01*
G75*
G02*
X181649999Y-97800000I249999J0D01*
G01*
X182350001Y-97800000D01*
G75*
G02*
X182600000Y-98049999I0J-249999D01*
G01*
X182600000Y-98950001D01*
G75*
G02*
X182350001Y-99200000I-249999J0D01*
G01*
X181649999Y-99200000D01*
G75*
G02*
X181400000Y-98950001I0J249999D01*
G01*
G37*
G36*
G01*
X179400000Y-98950001D02*
X179400000Y-98049999D01*
G75*
G02*
X179649999Y-97800000I249999J0D01*
G01*
X180350001Y-97800000D01*
G75*
G02*
X180600000Y-98049999I0J-249999D01*
G01*
X180600000Y-98950001D01*
G75*
G02*
X180350001Y-99200000I-249999J0D01*
G01*
X179649999Y-99200000D01*
G75*
G02*
X179400000Y-98950001I0J249999D01*
G01*
G37*
G04 #@! TD*
G04 #@! TO.C,R31*
G36*
G01*
X129400000Y-78450001D02*
X129400000Y-77549999D01*
G75*
G02*
X129649999Y-77300000I249999J0D01*
G01*
X130350001Y-77300000D01*
G75*
G02*
X130600000Y-77549999I0J-249999D01*
G01*
X130600000Y-78450001D01*
G75*
G02*
X130350001Y-78700000I-249999J0D01*
G01*
X129649999Y-78700000D01*
G75*
G02*
X129400000Y-78450001I0J249999D01*
G01*
G37*
G36*
G01*
X127400000Y-78450001D02*
X127400000Y-77549999D01*
G75*
G02*
X127649999Y-77300000I249999J0D01*
G01*
X128350001Y-77300000D01*
G75*
G02*
X128600000Y-77549999I0J-249999D01*
G01*
X128600000Y-78450001D01*
G75*
G02*
X128350001Y-78700000I-249999J0D01*
G01*
X127649999Y-78700000D01*
G75*
G02*
X127400000Y-78450001I0J249999D01*
G01*
G37*
G04 #@! TD*
G04 #@! TO.C,R49*
G36*
G01*
X164400000Y-133950001D02*
X164400000Y-133049999D01*
G75*
G02*
X164649999Y-132800000I249999J0D01*
G01*
X165350001Y-132800000D01*
G75*
G02*
X165600000Y-133049999I0J-249999D01*
G01*
X165600000Y-133950001D01*
G75*
G02*
X165350001Y-134200000I-249999J0D01*
G01*
X164649999Y-134200000D01*
G75*
G02*
X164400000Y-133950001I0J249999D01*
G01*
G37*
G36*
G01*
X162400000Y-133950001D02*
X162400000Y-133049999D01*
G75*
G02*
X162649999Y-132800000I249999J0D01*
G01*
X163350001Y-132800000D01*
G75*
G02*
X163600000Y-133049999I0J-249999D01*
G01*
X163600000Y-133950001D01*
G75*
G02*
X163350001Y-134200000I-249999J0D01*
G01*
X162649999Y-134200000D01*
G75*
G02*
X162400000Y-133950001I0J249999D01*
G01*
G37*
G04 #@! TD*
G04 #@! TO.C,J2*
X148540000Y-85000000D03*
X148540000Y-87540000D03*
X146000000Y-85000000D03*
X146000000Y-87540000D03*
X143460000Y-85000000D03*
X143460000Y-87540000D03*
X140920000Y-85000000D03*
D14*
X140920000Y-87540000D03*
G04 #@! TD*
D17*
G04 #@! TO.C,J1*
X146000000Y-65500000D03*
G36*
G01*
X142590000Y-66345001D02*
X142590000Y-64654999D01*
G75*
G02*
X142839999Y-64405000I249999J0D01*
G01*
X144080001Y-64405000D01*
G75*
G02*
X144330000Y-64654999I0J-249999D01*
G01*
X144330000Y-66345001D01*
G75*
G02*
X144080001Y-66595000I-249999J0D01*
G01*
X142839999Y-66595000D01*
G75*
G02*
X142590000Y-66345001I0J249999D01*
G01*
G37*
G04 #@! TD*
G04 #@! TO.C,D48*
G36*
G01*
X125925000Y-131450001D02*
X125925000Y-130549999D01*
G75*
G02*
X126174999Y-130300000I249999J0D01*
G01*
X126825001Y-130300000D01*
G75*
G02*
X127075000Y-130549999I0J-249999D01*
G01*
X127075000Y-131450001D01*
G75*
G02*
X126825001Y-131700000I-249999J0D01*
G01*
X126174999Y-131700000D01*
G75*
G02*
X125925000Y-131450001I0J249999D01*
G01*
G37*
G36*
G01*
X123875000Y-131450001D02*
X123875000Y-130549999D01*
G75*
G02*
X124124999Y-130300000I249999J0D01*
G01*
X124775001Y-130300000D01*
G75*
G02*
X125025000Y-130549999I0J-249999D01*
G01*
X125025000Y-131450001D01*
G75*
G02*
X124775001Y-131700000I-249999J0D01*
G01*
X124124999Y-131700000D01*
G75*
G02*
X123875000Y-131450001I0J249999D01*
G01*
G37*
G04 #@! TD*
G04 #@! TO.C,D42*
G36*
G01*
X183975000Y-112450001D02*
X183975000Y-111549999D01*
G75*
G02*
X184224999Y-111300000I249999J0D01*
G01*
X184875001Y-111300000D01*
G75*
G02*
X185125000Y-111549999I0J-249999D01*
G01*
X185125000Y-112450001D01*
G75*
G02*
X184875001Y-112700000I-249999J0D01*
G01*
X184224999Y-112700000D01*
G75*
G02*
X183975000Y-112450001I0J249999D01*
G01*
G37*
G36*
G01*
X181925000Y-112450001D02*
X181925000Y-111549999D01*
G75*
G02*
X182174999Y-111300000I249999J0D01*
G01*
X182825001Y-111300000D01*
G75*
G02*
X183075000Y-111549999I0J-249999D01*
G01*
X183075000Y-112450001D01*
G75*
G02*
X182825001Y-112700000I-249999J0D01*
G01*
X182174999Y-112700000D01*
G75*
G02*
X181925000Y-112450001I0J249999D01*
G01*
G37*
G04 #@! TD*
G04 #@! TO.C,D36*
G36*
G01*
X116925000Y-140450001D02*
X116925000Y-139549999D01*
G75*
G02*
X117174999Y-139300000I249999J0D01*
G01*
X117825001Y-139300000D01*
G75*
G02*
X118075000Y-139549999I0J-249999D01*
G01*
X118075000Y-140450001D01*
G75*
G02*
X117825001Y-140700000I-249999J0D01*
G01*
X117174999Y-140700000D01*
G75*
G02*
X116925000Y-140450001I0J249999D01*
G01*
G37*
G36*
G01*
X114875000Y-140450001D02*
X114875000Y-139549999D01*
G75*
G02*
X115124999Y-139300000I249999J0D01*
G01*
X115775001Y-139300000D01*
G75*
G02*
X116025000Y-139549999I0J-249999D01*
G01*
X116025000Y-140450001D01*
G75*
G02*
X115775001Y-140700000I-249999J0D01*
G01*
X115124999Y-140700000D01*
G75*
G02*
X114875000Y-140450001I0J249999D01*
G01*
G37*
G04 #@! TD*
G04 #@! TO.C,D41*
G36*
G01*
X181475000Y-128450001D02*
X181475000Y-127549999D01*
G75*
G02*
X181724999Y-127300000I249999J0D01*
G01*
X182375001Y-127300000D01*
G75*
G02*
X182625000Y-127549999I0J-249999D01*
G01*
X182625000Y-128450001D01*
G75*
G02*
X182375001Y-128700000I-249999J0D01*
G01*
X181724999Y-128700000D01*
G75*
G02*
X181475000Y-128450001I0J249999D01*
G01*
G37*
G36*
G01*
X179425000Y-128450001D02*
X179425000Y-127549999D01*
G75*
G02*
X179674999Y-127300000I249999J0D01*
G01*
X180325001Y-127300000D01*
G75*
G02*
X180575000Y-127549999I0J-249999D01*
G01*
X180575000Y-128450001D01*
G75*
G02*
X180325001Y-128700000I-249999J0D01*
G01*
X179674999Y-128700000D01*
G75*
G02*
X179425000Y-128450001I0J249999D01*
G01*
G37*
G04 #@! TD*
G04 #@! TO.C,D47*
G36*
G01*
X118425000Y-112450001D02*
X118425000Y-111549999D01*
G75*
G02*
X118674999Y-111300000I249999J0D01*
G01*
X119325001Y-111300000D01*
G75*
G02*
X119575000Y-111549999I0J-249999D01*
G01*
X119575000Y-112450001D01*
G75*
G02*
X119325001Y-112700000I-249999J0D01*
G01*
X118674999Y-112700000D01*
G75*
G02*
X118425000Y-112450001I0J249999D01*
G01*
G37*
G36*
G01*
X116375000Y-112450001D02*
X116375000Y-111549999D01*
G75*
G02*
X116624999Y-111300000I249999J0D01*
G01*
X117275001Y-111300000D01*
G75*
G02*
X117525000Y-111549999I0J-249999D01*
G01*
X117525000Y-112450001D01*
G75*
G02*
X117275001Y-112700000I-249999J0D01*
G01*
X116624999Y-112700000D01*
G75*
G02*
X116375000Y-112450001I0J249999D01*
G01*
G37*
G04 #@! TD*
G04 #@! TO.C,D35*
G36*
G01*
X108975000Y-128450001D02*
X108975000Y-127549999D01*
G75*
G02*
X109224999Y-127300000I249999J0D01*
G01*
X109875001Y-127300000D01*
G75*
G02*
X110125000Y-127549999I0J-249999D01*
G01*
X110125000Y-128450001D01*
G75*
G02*
X109875001Y-128700000I-249999J0D01*
G01*
X109224999Y-128700000D01*
G75*
G02*
X108975000Y-128450001I0J249999D01*
G01*
G37*
G36*
G01*
X106925000Y-128450001D02*
X106925000Y-127549999D01*
G75*
G02*
X107174999Y-127300000I249999J0D01*
G01*
X107825001Y-127300000D01*
G75*
G02*
X108075000Y-127549999I0J-249999D01*
G01*
X108075000Y-128450001D01*
G75*
G02*
X107825001Y-128700000I-249999J0D01*
G01*
X107174999Y-128700000D01*
G75*
G02*
X106925000Y-128450001I0J249999D01*
G01*
G37*
G04 #@! TD*
G04 #@! TO.C,D40*
G36*
G01*
X172950000Y-140450001D02*
X172950000Y-139549999D01*
G75*
G02*
X173199999Y-139300000I249999J0D01*
G01*
X173850001Y-139300000D01*
G75*
G02*
X174100000Y-139549999I0J-249999D01*
G01*
X174100000Y-140450001D01*
G75*
G02*
X173850001Y-140700000I-249999J0D01*
G01*
X173199999Y-140700000D01*
G75*
G02*
X172950000Y-140450001I0J249999D01*
G01*
G37*
G36*
G01*
X170900000Y-140450001D02*
X170900000Y-139549999D01*
G75*
G02*
X171149999Y-139300000I249999J0D01*
G01*
X171800001Y-139300000D01*
G75*
G02*
X172050000Y-139549999I0J-249999D01*
G01*
X172050000Y-140450001D01*
G75*
G02*
X171800001Y-140700000I-249999J0D01*
G01*
X171149999Y-140700000D01*
G75*
G02*
X170900000Y-140450001I0J249999D01*
G01*
G37*
G04 #@! TD*
G04 #@! TO.C,D46*
G36*
G01*
X125975000Y-93450001D02*
X125975000Y-92549999D01*
G75*
G02*
X126224999Y-92300000I249999J0D01*
G01*
X126875001Y-92300000D01*
G75*
G02*
X127125000Y-92549999I0J-249999D01*
G01*
X127125000Y-93450001D01*
G75*
G02*
X126875001Y-93700000I-249999J0D01*
G01*
X126224999Y-93700000D01*
G75*
G02*
X125975000Y-93450001I0J249999D01*
G01*
G37*
G36*
G01*
X123925000Y-93450001D02*
X123925000Y-92549999D01*
G75*
G02*
X124174999Y-92300000I249999J0D01*
G01*
X124825001Y-92300000D01*
G75*
G02*
X125075000Y-92549999I0J-249999D01*
G01*
X125075000Y-93450001D01*
G75*
G02*
X124825001Y-93700000I-249999J0D01*
G01*
X124174999Y-93700000D01*
G75*
G02*
X123925000Y-93450001I0J249999D01*
G01*
G37*
G04 #@! TD*
G04 #@! TO.C,D34*
G36*
G01*
X105925000Y-112450001D02*
X105925000Y-111549999D01*
G75*
G02*
X106174999Y-111300000I249999J0D01*
G01*
X106825001Y-111300000D01*
G75*
G02*
X107075000Y-111549999I0J-249999D01*
G01*
X107075000Y-112450001D01*
G75*
G02*
X106825001Y-112700000I-249999J0D01*
G01*
X106174999Y-112700000D01*
G75*
G02*
X105925000Y-112450001I0J249999D01*
G01*
G37*
G36*
G01*
X103875000Y-112450001D02*
X103875000Y-111549999D01*
G75*
G02*
X104124999Y-111300000I249999J0D01*
G01*
X104775001Y-111300000D01*
G75*
G02*
X105025000Y-111549999I0J-249999D01*
G01*
X105025000Y-112450001D01*
G75*
G02*
X104775001Y-112700000I-249999J0D01*
G01*
X104124999Y-112700000D01*
G75*
G02*
X103875000Y-112450001I0J249999D01*
G01*
G37*
G04 #@! TD*
G04 #@! TO.C,D51*
G36*
G01*
X164425000Y-93450001D02*
X164425000Y-92549999D01*
G75*
G02*
X164674999Y-92300000I249999J0D01*
G01*
X165325001Y-92300000D01*
G75*
G02*
X165575000Y-92549999I0J-249999D01*
G01*
X165575000Y-93450001D01*
G75*
G02*
X165325001Y-93700000I-249999J0D01*
G01*
X164674999Y-93700000D01*
G75*
G02*
X164425000Y-93450001I0J249999D01*
G01*
G37*
G36*
G01*
X162375000Y-93450001D02*
X162375000Y-92549999D01*
G75*
G02*
X162624999Y-92300000I249999J0D01*
G01*
X163275001Y-92300000D01*
G75*
G02*
X163525000Y-92549999I0J-249999D01*
G01*
X163525000Y-93450001D01*
G75*
G02*
X163275001Y-93700000I-249999J0D01*
G01*
X162624999Y-93700000D01*
G75*
G02*
X162375000Y-93450001I0J249999D01*
G01*
G37*
G04 #@! TD*
G04 #@! TO.C,D45*
G36*
G01*
X160925000Y-76450001D02*
X160925000Y-75549999D01*
G75*
G02*
X161174999Y-75300000I249999J0D01*
G01*
X161825001Y-75300000D01*
G75*
G02*
X162075000Y-75549999I0J-249999D01*
G01*
X162075000Y-76450001D01*
G75*
G02*
X161825001Y-76700000I-249999J0D01*
G01*
X161174999Y-76700000D01*
G75*
G02*
X160925000Y-76450001I0J249999D01*
G01*
G37*
G36*
G01*
X158875000Y-76450001D02*
X158875000Y-75549999D01*
G75*
G02*
X159124999Y-75300000I249999J0D01*
G01*
X159775001Y-75300000D01*
G75*
G02*
X160025000Y-75549999I0J-249999D01*
G01*
X160025000Y-76450001D01*
G75*
G02*
X159775001Y-76700000I-249999J0D01*
G01*
X159124999Y-76700000D01*
G75*
G02*
X158875000Y-76450001I0J249999D01*
G01*
G37*
G04 #@! TD*
G04 #@! TO.C,D39*
G36*
G01*
X160925000Y-148950001D02*
X160925000Y-148049999D01*
G75*
G02*
X161174999Y-147800000I249999J0D01*
G01*
X161825001Y-147800000D01*
G75*
G02*
X162075000Y-148049999I0J-249999D01*
G01*
X162075000Y-148950001D01*
G75*
G02*
X161825001Y-149200000I-249999J0D01*
G01*
X161174999Y-149200000D01*
G75*
G02*
X160925000Y-148950001I0J249999D01*
G01*
G37*
G36*
G01*
X158875000Y-148950001D02*
X158875000Y-148049999D01*
G75*
G02*
X159124999Y-147800000I249999J0D01*
G01*
X159775001Y-147800000D01*
G75*
G02*
X160025000Y-148049999I0J-249999D01*
G01*
X160025000Y-148950001D01*
G75*
G02*
X159775001Y-149200000I-249999J0D01*
G01*
X159124999Y-149200000D01*
G75*
G02*
X158875000Y-148950001I0J249999D01*
G01*
G37*
G04 #@! TD*
G04 #@! TO.C,D33*
G36*
G01*
X108975000Y-96450001D02*
X108975000Y-95549999D01*
G75*
G02*
X109224999Y-95300000I249999J0D01*
G01*
X109875001Y-95300000D01*
G75*
G02*
X110125000Y-95549999I0J-249999D01*
G01*
X110125000Y-96450001D01*
G75*
G02*
X109875001Y-96700000I-249999J0D01*
G01*
X109224999Y-96700000D01*
G75*
G02*
X108975000Y-96450001I0J249999D01*
G01*
G37*
G36*
G01*
X106925000Y-96450001D02*
X106925000Y-95549999D01*
G75*
G02*
X107174999Y-95300000I249999J0D01*
G01*
X107825001Y-95300000D01*
G75*
G02*
X108075000Y-95549999I0J-249999D01*
G01*
X108075000Y-96450001D01*
G75*
G02*
X107825001Y-96700000I-249999J0D01*
G01*
X107174999Y-96700000D01*
G75*
G02*
X106925000Y-96450001I0J249999D01*
G01*
G37*
G04 #@! TD*
G04 #@! TO.C,D44*
G36*
G01*
X173425000Y-84450001D02*
X173425000Y-83549999D01*
G75*
G02*
X173674999Y-83300000I249999J0D01*
G01*
X174325001Y-83300000D01*
G75*
G02*
X174575000Y-83549999I0J-249999D01*
G01*
X174575000Y-84450001D01*
G75*
G02*
X174325001Y-84700000I-249999J0D01*
G01*
X173674999Y-84700000D01*
G75*
G02*
X173425000Y-84450001I0J249999D01*
G01*
G37*
G36*
G01*
X171375000Y-84450001D02*
X171375000Y-83549999D01*
G75*
G02*
X171624999Y-83300000I249999J0D01*
G01*
X172275001Y-83300000D01*
G75*
G02*
X172525000Y-83549999I0J-249999D01*
G01*
X172525000Y-84450001D01*
G75*
G02*
X172275001Y-84700000I-249999J0D01*
G01*
X171624999Y-84700000D01*
G75*
G02*
X171375000Y-84450001I0J249999D01*
G01*
G37*
G04 #@! TD*
G04 #@! TO.C,D50*
G36*
G01*
X171425000Y-112450001D02*
X171425000Y-111549999D01*
G75*
G02*
X171674999Y-111300000I249999J0D01*
G01*
X172325001Y-111300000D01*
G75*
G02*
X172575000Y-111549999I0J-249999D01*
G01*
X172575000Y-112450001D01*
G75*
G02*
X172325001Y-112700000I-249999J0D01*
G01*
X171674999Y-112700000D01*
G75*
G02*
X171425000Y-112450001I0J249999D01*
G01*
G37*
G36*
G01*
X169375000Y-112450001D02*
X169375000Y-111549999D01*
G75*
G02*
X169624999Y-111300000I249999J0D01*
G01*
X170275001Y-111300000D01*
G75*
G02*
X170525000Y-111549999I0J-249999D01*
G01*
X170525000Y-112450001D01*
G75*
G02*
X170275001Y-112700000I-249999J0D01*
G01*
X169624999Y-112700000D01*
G75*
G02*
X169375000Y-112450001I0J249999D01*
G01*
G37*
G04 #@! TD*
G04 #@! TO.C,D32*
G36*
G01*
X117425000Y-84450001D02*
X117425000Y-83549999D01*
G75*
G02*
X117674999Y-83300000I249999J0D01*
G01*
X118325001Y-83300000D01*
G75*
G02*
X118575000Y-83549999I0J-249999D01*
G01*
X118575000Y-84450001D01*
G75*
G02*
X118325001Y-84700000I-249999J0D01*
G01*
X117674999Y-84700000D01*
G75*
G02*
X117425000Y-84450001I0J249999D01*
G01*
G37*
G36*
G01*
X115375000Y-84450001D02*
X115375000Y-83549999D01*
G75*
G02*
X115624999Y-83300000I249999J0D01*
G01*
X116275001Y-83300000D01*
G75*
G02*
X116525000Y-83549999I0J-249999D01*
G01*
X116525000Y-84450001D01*
G75*
G02*
X116275001Y-84700000I-249999J0D01*
G01*
X115624999Y-84700000D01*
G75*
G02*
X115375000Y-84450001I0J249999D01*
G01*
G37*
G04 #@! TD*
G04 #@! TO.C,D37*
G36*
G01*
X129450000Y-148450001D02*
X129450000Y-147549999D01*
G75*
G02*
X129699999Y-147300000I249999J0D01*
G01*
X130350001Y-147300000D01*
G75*
G02*
X130600000Y-147549999I0J-249999D01*
G01*
X130600000Y-148450001D01*
G75*
G02*
X130350001Y-148700000I-249999J0D01*
G01*
X129699999Y-148700000D01*
G75*
G02*
X129450000Y-148450001I0J249999D01*
G01*
G37*
G36*
G01*
X127400000Y-148450001D02*
X127400000Y-147549999D01*
G75*
G02*
X127649999Y-147300000I249999J0D01*
G01*
X128300001Y-147300000D01*
G75*
G02*
X128550000Y-147549999I0J-249999D01*
G01*
X128550000Y-148450001D01*
G75*
G02*
X128300001Y-148700000I-249999J0D01*
G01*
X127649999Y-148700000D01*
G75*
G02*
X127400000Y-148450001I0J249999D01*
G01*
G37*
G04 #@! TD*
G04 #@! TO.C,D43*
G36*
G01*
X181450000Y-96950001D02*
X181450000Y-96049999D01*
G75*
G02*
X181699999Y-95800000I249999J0D01*
G01*
X182350001Y-95800000D01*
G75*
G02*
X182600000Y-96049999I0J-249999D01*
G01*
X182600000Y-96950001D01*
G75*
G02*
X182350001Y-97200000I-249999J0D01*
G01*
X181699999Y-97200000D01*
G75*
G02*
X181450000Y-96950001I0J249999D01*
G01*
G37*
G36*
G01*
X179400000Y-96950001D02*
X179400000Y-96049999D01*
G75*
G02*
X179649999Y-95800000I249999J0D01*
G01*
X180300001Y-95800000D01*
G75*
G02*
X180550000Y-96049999I0J-249999D01*
G01*
X180550000Y-96950001D01*
G75*
G02*
X180300001Y-97200000I-249999J0D01*
G01*
X179649999Y-97200000D01*
G75*
G02*
X179400000Y-96950001I0J249999D01*
G01*
G37*
G04 #@! TD*
G04 #@! TO.C,D31*
G36*
G01*
X129425000Y-76450001D02*
X129425000Y-75549999D01*
G75*
G02*
X129674999Y-75300000I249999J0D01*
G01*
X130325001Y-75300000D01*
G75*
G02*
X130575000Y-75549999I0J-249999D01*
G01*
X130575000Y-76450001D01*
G75*
G02*
X130325001Y-76700000I-249999J0D01*
G01*
X129674999Y-76700000D01*
G75*
G02*
X129425000Y-76450001I0J249999D01*
G01*
G37*
G36*
G01*
X127375000Y-76450001D02*
X127375000Y-75549999D01*
G75*
G02*
X127624999Y-75300000I249999J0D01*
G01*
X128275001Y-75300000D01*
G75*
G02*
X128525000Y-75549999I0J-249999D01*
G01*
X128525000Y-76450001D01*
G75*
G02*
X128275001Y-76700000I-249999J0D01*
G01*
X127624999Y-76700000D01*
G75*
G02*
X127375000Y-76450001I0J249999D01*
G01*
G37*
G04 #@! TD*
G04 #@! TO.C,D49*
G36*
G01*
X164425000Y-131950001D02*
X164425000Y-131049999D01*
G75*
G02*
X164674999Y-130800000I249999J0D01*
G01*
X165325001Y-130800000D01*
G75*
G02*
X165575000Y-131049999I0J-249999D01*
G01*
X165575000Y-131950001D01*
G75*
G02*
X165325001Y-132200000I-249999J0D01*
G01*
X164674999Y-132200000D01*
G75*
G02*
X164425000Y-131950001I0J249999D01*
G01*
G37*
G36*
G01*
X162375000Y-131950001D02*
X162375000Y-131049999D01*
G75*
G02*
X162624999Y-130800000I249999J0D01*
G01*
X163275001Y-130800000D01*
G75*
G02*
X163525000Y-131049999I0J-249999D01*
G01*
X163525000Y-131950001D01*
G75*
G02*
X163275001Y-132200000I-249999J0D01*
G01*
X162624999Y-132200000D01*
G75*
G02*
X162375000Y-131950001I0J249999D01*
G01*
G37*
G04 #@! TD*
M02*
