G04 #@! TF.GenerationSoftware,KiCad,Pcbnew,5.1.10-88a1d61d58~88~ubuntu20.04.1*
G04 #@! TF.CreationDate,2021-06-07T13:14:32+01:00*
G04 #@! TF.ProjectId,Bauble,42617562-6c65-42e6-9b69-6361645f7063,rev?*
G04 #@! TF.SameCoordinates,Original*
G04 #@! TF.FileFunction,Soldermask,Top*
G04 #@! TF.FilePolarity,Negative*
%FSLAX46Y46*%
G04 Gerber Fmt 4.6, Leading zero omitted, Abs format (unit mm)*
G04 Created by KiCad (PCBNEW 5.1.10-88a1d61d58~88~ubuntu20.04.1) date 2021-06-07 13:14:32*
%MOMM*%
%LPD*%
G01*
G04 APERTURE LIST*
%ADD10O,1.600000X1.600000*%
%ADD11O,2.100000X1.600000*%
%ADD12R,2.000000X1.500000*%
%ADD13R,1.500000X1.500000*%
%ADD14O,1.700000X1.700000*%
%ADD15R,1.700000X3.500000*%
%ADD16R,1.700000X1.700000*%
%ADD17O,1.500000X1.500000*%
%ADD18O,1.800000X1.800000*%
%ADD19R,3.500000X1.700000*%
%ADD20O,1.740000X2.190000*%
G04 APERTURE END LIST*
D10*
G04 #@! TO.C,R27*
X174625000Y-102650000D03*
D11*
X167525000Y-102650000D03*
G04 #@! TD*
D12*
G04 #@! TO.C,J4*
X146250000Y-157500000D03*
X146250000Y-155500000D03*
X146250000Y-153500000D03*
X146250000Y-151500000D03*
X146250000Y-149500000D03*
X142750000Y-157500000D03*
X142750000Y-155500000D03*
X142750000Y-153500000D03*
X142750000Y-151500000D03*
X142750000Y-149500000D03*
G04 #@! TD*
G04 #@! TO.C,J3*
X146250000Y-81000000D03*
X146250000Y-79000000D03*
X146250000Y-77000000D03*
X146250000Y-75000000D03*
X146250000Y-73000000D03*
X146250000Y-71000000D03*
X142750000Y-81000000D03*
X142750000Y-79000000D03*
X142750000Y-77000000D03*
X142750000Y-75000000D03*
X142750000Y-73000000D03*
X142750000Y-71000000D03*
G04 #@! TD*
D13*
G04 #@! TO.C,SW1*
X164500000Y-119550000D03*
X164500000Y-111750000D03*
G04 #@! TD*
D14*
G04 #@! TO.C,U1*
X146930000Y-142290000D03*
D15*
X146930000Y-143190000D03*
D16*
X144390000Y-142290000D03*
D15*
X144390000Y-143190000D03*
D14*
X141850000Y-142290000D03*
D15*
X141850000Y-143190000D03*
D17*
X146815000Y-97420000D03*
X141965000Y-97420000D03*
D18*
X147115000Y-94390000D03*
X141665000Y-94390000D03*
D19*
X154180000Y-142520000D03*
X154180000Y-139980000D03*
X154180000Y-137440000D03*
X154180000Y-134900000D03*
X154180000Y-132360000D03*
X154180000Y-129820000D03*
X154180000Y-127280000D03*
X154180000Y-124740000D03*
X154180000Y-122200000D03*
X154180000Y-119660000D03*
X154180000Y-117120000D03*
X154180000Y-114580000D03*
X154180000Y-112040000D03*
X154180000Y-109500000D03*
X154180000Y-106960000D03*
X154180000Y-104420000D03*
X154180000Y-101880000D03*
X154180000Y-99340000D03*
X154180000Y-96800000D03*
X154180000Y-94260000D03*
X134600000Y-142520000D03*
X134600000Y-139980000D03*
X134600000Y-137440000D03*
X134600000Y-134900000D03*
X134600000Y-132360000D03*
X134600000Y-129820000D03*
X134600000Y-127280000D03*
X134600000Y-124740000D03*
X134600000Y-122200000D03*
X134600000Y-119660000D03*
X134600000Y-117120000D03*
X134600000Y-114580000D03*
X134600000Y-112040000D03*
X134600000Y-109500000D03*
X134600000Y-106960000D03*
X134600000Y-104420000D03*
X134600000Y-101880000D03*
X134600000Y-99340000D03*
X134600000Y-96800000D03*
X134600000Y-94260000D03*
D14*
X153280000Y-94260000D03*
X153280000Y-96800000D03*
D16*
X153280000Y-99340000D03*
D14*
X153280000Y-101880000D03*
X153280000Y-104420000D03*
X153280000Y-106960000D03*
X153280000Y-109500000D03*
D16*
X153280000Y-112040000D03*
D14*
X153280000Y-114580000D03*
X153280000Y-117120000D03*
X153280000Y-119660000D03*
X153280000Y-122200000D03*
D16*
X153280000Y-124740000D03*
D14*
X153280000Y-127280000D03*
X153280000Y-129820000D03*
X153280000Y-132360000D03*
X153280000Y-134900000D03*
D16*
X153280000Y-137440000D03*
D14*
X153280000Y-139980000D03*
X153280000Y-142520000D03*
X135500000Y-142520000D03*
X135500000Y-139980000D03*
D16*
X135500000Y-137440000D03*
D14*
X135500000Y-134900000D03*
X135500000Y-132360000D03*
X135500000Y-129820000D03*
X135500000Y-127280000D03*
D16*
X135500000Y-124740000D03*
D14*
X135500000Y-122200000D03*
X135500000Y-119660000D03*
X135500000Y-117120000D03*
X135500000Y-114580000D03*
D16*
X135500000Y-112040000D03*
D14*
X135500000Y-109500000D03*
X135500000Y-106960000D03*
X135500000Y-104420000D03*
X135500000Y-101880000D03*
D16*
X135500000Y-99340000D03*
D14*
X135500000Y-96800000D03*
X135500000Y-94260000D03*
G04 #@! TD*
G04 #@! TO.C,R18*
G36*
G01*
X164150000Y-133700001D02*
X164150000Y-132799999D01*
G75*
G02*
X164399999Y-132550000I249999J0D01*
G01*
X165100001Y-132550000D01*
G75*
G02*
X165350000Y-132799999I0J-249999D01*
G01*
X165350000Y-133700001D01*
G75*
G02*
X165100001Y-133950000I-249999J0D01*
G01*
X164399999Y-133950000D01*
G75*
G02*
X164150000Y-133700001I0J249999D01*
G01*
G37*
G36*
G01*
X162150000Y-133700001D02*
X162150000Y-132799999D01*
G75*
G02*
X162399999Y-132550000I249999J0D01*
G01*
X163100001Y-132550000D01*
G75*
G02*
X163350000Y-132799999I0J-249999D01*
G01*
X163350000Y-133700001D01*
G75*
G02*
X163100001Y-133950000I-249999J0D01*
G01*
X162399999Y-133950000D01*
G75*
G02*
X162150000Y-133700001I0J249999D01*
G01*
G37*
G04 #@! TD*
G04 #@! TO.C,R12*
G36*
G01*
X105900000Y-114450001D02*
X105900000Y-113549999D01*
G75*
G02*
X106149999Y-113300000I249999J0D01*
G01*
X106850001Y-113300000D01*
G75*
G02*
X107100000Y-113549999I0J-249999D01*
G01*
X107100000Y-114450001D01*
G75*
G02*
X106850001Y-114700000I-249999J0D01*
G01*
X106149999Y-114700000D01*
G75*
G02*
X105900000Y-114450001I0J249999D01*
G01*
G37*
G36*
G01*
X103900000Y-114450001D02*
X103900000Y-113549999D01*
G75*
G02*
X104149999Y-113300000I249999J0D01*
G01*
X104850001Y-113300000D01*
G75*
G02*
X105100000Y-113549999I0J-249999D01*
G01*
X105100000Y-114450001D01*
G75*
G02*
X104850001Y-114700000I-249999J0D01*
G01*
X104149999Y-114700000D01*
G75*
G02*
X103900000Y-114450001I0J249999D01*
G01*
G37*
G04 #@! TD*
G04 #@! TO.C,R6*
G36*
G01*
X172900000Y-142450001D02*
X172900000Y-141549999D01*
G75*
G02*
X173149999Y-141300000I249999J0D01*
G01*
X173850001Y-141300000D01*
G75*
G02*
X174100000Y-141549999I0J-249999D01*
G01*
X174100000Y-142450001D01*
G75*
G02*
X173850001Y-142700000I-249999J0D01*
G01*
X173149999Y-142700000D01*
G75*
G02*
X172900000Y-142450001I0J249999D01*
G01*
G37*
G36*
G01*
X170900000Y-142450001D02*
X170900000Y-141549999D01*
G75*
G02*
X171149999Y-141300000I249999J0D01*
G01*
X171850001Y-141300000D01*
G75*
G02*
X172100000Y-141549999I0J-249999D01*
G01*
X172100000Y-142450001D01*
G75*
G02*
X171850001Y-142700000I-249999J0D01*
G01*
X171149999Y-142700000D01*
G75*
G02*
X170900000Y-142450001I0J249999D01*
G01*
G37*
G04 #@! TD*
G04 #@! TO.C,R11*
G36*
G01*
X108650000Y-130450001D02*
X108650000Y-129549999D01*
G75*
G02*
X108899999Y-129300000I249999J0D01*
G01*
X109600001Y-129300000D01*
G75*
G02*
X109850000Y-129549999I0J-249999D01*
G01*
X109850000Y-130450001D01*
G75*
G02*
X109600001Y-130700000I-249999J0D01*
G01*
X108899999Y-130700000D01*
G75*
G02*
X108650000Y-130450001I0J249999D01*
G01*
G37*
G36*
G01*
X106650000Y-130450001D02*
X106650000Y-129549999D01*
G75*
G02*
X106899999Y-129300000I249999J0D01*
G01*
X107600001Y-129300000D01*
G75*
G02*
X107850000Y-129549999I0J-249999D01*
G01*
X107850000Y-130450001D01*
G75*
G02*
X107600001Y-130700000I-249999J0D01*
G01*
X106899999Y-130700000D01*
G75*
G02*
X106650000Y-130450001I0J249999D01*
G01*
G37*
G04 #@! TD*
G04 #@! TO.C,R17*
G36*
G01*
X171400000Y-114450001D02*
X171400000Y-113549999D01*
G75*
G02*
X171649999Y-113300000I249999J0D01*
G01*
X172350001Y-113300000D01*
G75*
G02*
X172600000Y-113549999I0J-249999D01*
G01*
X172600000Y-114450001D01*
G75*
G02*
X172350001Y-114700000I-249999J0D01*
G01*
X171649999Y-114700000D01*
G75*
G02*
X171400000Y-114450001I0J249999D01*
G01*
G37*
G36*
G01*
X169400000Y-114450001D02*
X169400000Y-113549999D01*
G75*
G02*
X169649999Y-113300000I249999J0D01*
G01*
X170350001Y-113300000D01*
G75*
G02*
X170600000Y-113549999I0J-249999D01*
G01*
X170600000Y-114450001D01*
G75*
G02*
X170350001Y-114700000I-249999J0D01*
G01*
X169649999Y-114700000D01*
G75*
G02*
X169400000Y-114450001I0J249999D01*
G01*
G37*
G04 #@! TD*
G04 #@! TO.C,R5*
G36*
G01*
X181150000Y-130450001D02*
X181150000Y-129549999D01*
G75*
G02*
X181399999Y-129300000I249999J0D01*
G01*
X182100001Y-129300000D01*
G75*
G02*
X182350000Y-129549999I0J-249999D01*
G01*
X182350000Y-130450001D01*
G75*
G02*
X182100001Y-130700000I-249999J0D01*
G01*
X181399999Y-130700000D01*
G75*
G02*
X181150000Y-130450001I0J249999D01*
G01*
G37*
G36*
G01*
X179150000Y-130450001D02*
X179150000Y-129549999D01*
G75*
G02*
X179399999Y-129300000I249999J0D01*
G01*
X180100001Y-129300000D01*
G75*
G02*
X180350000Y-129549999I0J-249999D01*
G01*
X180350000Y-130450001D01*
G75*
G02*
X180100001Y-130700000I-249999J0D01*
G01*
X179399999Y-130700000D01*
G75*
G02*
X179150000Y-130450001I0J249999D01*
G01*
G37*
G04 #@! TD*
G04 #@! TO.C,R10*
G36*
G01*
X116900000Y-142450001D02*
X116900000Y-141549999D01*
G75*
G02*
X117149999Y-141300000I249999J0D01*
G01*
X117850001Y-141300000D01*
G75*
G02*
X118100000Y-141549999I0J-249999D01*
G01*
X118100000Y-142450001D01*
G75*
G02*
X117850001Y-142700000I-249999J0D01*
G01*
X117149999Y-142700000D01*
G75*
G02*
X116900000Y-142450001I0J249999D01*
G01*
G37*
G36*
G01*
X114900000Y-142450001D02*
X114900000Y-141549999D01*
G75*
G02*
X115149999Y-141300000I249999J0D01*
G01*
X115850001Y-141300000D01*
G75*
G02*
X116100000Y-141549999I0J-249999D01*
G01*
X116100000Y-142450001D01*
G75*
G02*
X115850001Y-142700000I-249999J0D01*
G01*
X115149999Y-142700000D01*
G75*
G02*
X114900000Y-142450001I0J249999D01*
G01*
G37*
G04 #@! TD*
G04 #@! TO.C,R16*
G36*
G01*
X164150000Y-95450001D02*
X164150000Y-94549999D01*
G75*
G02*
X164399999Y-94300000I249999J0D01*
G01*
X165100001Y-94300000D01*
G75*
G02*
X165350000Y-94549999I0J-249999D01*
G01*
X165350000Y-95450001D01*
G75*
G02*
X165100001Y-95700000I-249999J0D01*
G01*
X164399999Y-95700000D01*
G75*
G02*
X164150000Y-95450001I0J249999D01*
G01*
G37*
G36*
G01*
X162150000Y-95450001D02*
X162150000Y-94549999D01*
G75*
G02*
X162399999Y-94300000I249999J0D01*
G01*
X163100001Y-94300000D01*
G75*
G02*
X163350000Y-94549999I0J-249999D01*
G01*
X163350000Y-95450001D01*
G75*
G02*
X163100001Y-95700000I-249999J0D01*
G01*
X162399999Y-95700000D01*
G75*
G02*
X162150000Y-95450001I0J249999D01*
G01*
G37*
G04 #@! TD*
G04 #@! TO.C,R4*
G36*
G01*
X183900000Y-114450001D02*
X183900000Y-113549999D01*
G75*
G02*
X184149999Y-113300000I249999J0D01*
G01*
X184850001Y-113300000D01*
G75*
G02*
X185100000Y-113549999I0J-249999D01*
G01*
X185100000Y-114450001D01*
G75*
G02*
X184850001Y-114700000I-249999J0D01*
G01*
X184149999Y-114700000D01*
G75*
G02*
X183900000Y-114450001I0J249999D01*
G01*
G37*
G36*
G01*
X181900000Y-114450001D02*
X181900000Y-113549999D01*
G75*
G02*
X182149999Y-113300000I249999J0D01*
G01*
X182850001Y-113300000D01*
G75*
G02*
X183100000Y-113549999I0J-249999D01*
G01*
X183100000Y-114450001D01*
G75*
G02*
X182850001Y-114700000I-249999J0D01*
G01*
X182149999Y-114700000D01*
G75*
G02*
X181900000Y-114450001I0J249999D01*
G01*
G37*
G04 #@! TD*
G04 #@! TO.C,R28*
G36*
G01*
X161175001Y-101625000D02*
X160274999Y-101625000D01*
G75*
G02*
X160025000Y-101375001I0J249999D01*
G01*
X160025000Y-100674999D01*
G75*
G02*
X160274999Y-100425000I249999J0D01*
G01*
X161175001Y-100425000D01*
G75*
G02*
X161425000Y-100674999I0J-249999D01*
G01*
X161425000Y-101375001D01*
G75*
G02*
X161175001Y-101625000I-249999J0D01*
G01*
G37*
G36*
G01*
X161175001Y-103625000D02*
X160274999Y-103625000D01*
G75*
G02*
X160025000Y-103375001I0J249999D01*
G01*
X160025000Y-102674999D01*
G75*
G02*
X160274999Y-102425000I249999J0D01*
G01*
X161175001Y-102425000D01*
G75*
G02*
X161425000Y-102674999I0J-249999D01*
G01*
X161425000Y-103375001D01*
G75*
G02*
X161175001Y-103625000I-249999J0D01*
G01*
G37*
G04 #@! TD*
G04 #@! TO.C,R21*
G36*
G01*
X125650000Y-95200001D02*
X125650000Y-94299999D01*
G75*
G02*
X125899999Y-94050000I249999J0D01*
G01*
X126600001Y-94050000D01*
G75*
G02*
X126850000Y-94299999I0J-249999D01*
G01*
X126850000Y-95200001D01*
G75*
G02*
X126600001Y-95450000I-249999J0D01*
G01*
X125899999Y-95450000D01*
G75*
G02*
X125650000Y-95200001I0J249999D01*
G01*
G37*
G36*
G01*
X123650000Y-95200001D02*
X123650000Y-94299999D01*
G75*
G02*
X123899999Y-94050000I249999J0D01*
G01*
X124600001Y-94050000D01*
G75*
G02*
X124850000Y-94299999I0J-249999D01*
G01*
X124850000Y-95200001D01*
G75*
G02*
X124600001Y-95450000I-249999J0D01*
G01*
X123899999Y-95450000D01*
G75*
G02*
X123650000Y-95200001I0J249999D01*
G01*
G37*
G04 #@! TD*
G04 #@! TO.C,R15*
G36*
G01*
X128900000Y-78200001D02*
X128900000Y-77299999D01*
G75*
G02*
X129149999Y-77050000I249999J0D01*
G01*
X129850001Y-77050000D01*
G75*
G02*
X130100000Y-77299999I0J-249999D01*
G01*
X130100000Y-78200001D01*
G75*
G02*
X129850001Y-78450000I-249999J0D01*
G01*
X129149999Y-78450000D01*
G75*
G02*
X128900000Y-78200001I0J249999D01*
G01*
G37*
G36*
G01*
X126900000Y-78200001D02*
X126900000Y-77299999D01*
G75*
G02*
X127149999Y-77050000I249999J0D01*
G01*
X127850001Y-77050000D01*
G75*
G02*
X128100000Y-77299999I0J-249999D01*
G01*
X128100000Y-78200001D01*
G75*
G02*
X127850001Y-78450000I-249999J0D01*
G01*
X127149999Y-78450000D01*
G75*
G02*
X126900000Y-78200001I0J249999D01*
G01*
G37*
G04 #@! TD*
G04 #@! TO.C,R9*
G36*
G01*
X128900000Y-150700001D02*
X128900000Y-149799999D01*
G75*
G02*
X129149999Y-149550000I249999J0D01*
G01*
X129850001Y-149550000D01*
G75*
G02*
X130100000Y-149799999I0J-249999D01*
G01*
X130100000Y-150700001D01*
G75*
G02*
X129850001Y-150950000I-249999J0D01*
G01*
X129149999Y-150950000D01*
G75*
G02*
X128900000Y-150700001I0J249999D01*
G01*
G37*
G36*
G01*
X126900000Y-150700001D02*
X126900000Y-149799999D01*
G75*
G02*
X127149999Y-149550000I249999J0D01*
G01*
X127850001Y-149550000D01*
G75*
G02*
X128100000Y-149799999I0J-249999D01*
G01*
X128100000Y-150700001D01*
G75*
G02*
X127850001Y-150950000I-249999J0D01*
G01*
X127149999Y-150950000D01*
G75*
G02*
X126900000Y-150700001I0J249999D01*
G01*
G37*
G04 #@! TD*
G04 #@! TO.C,R3*
G36*
G01*
X180900000Y-98700001D02*
X180900000Y-97799999D01*
G75*
G02*
X181149999Y-97550000I249999J0D01*
G01*
X181850001Y-97550000D01*
G75*
G02*
X182100000Y-97799999I0J-249999D01*
G01*
X182100000Y-98700001D01*
G75*
G02*
X181850001Y-98950000I-249999J0D01*
G01*
X181149999Y-98950000D01*
G75*
G02*
X180900000Y-98700001I0J249999D01*
G01*
G37*
G36*
G01*
X178900000Y-98700001D02*
X178900000Y-97799999D01*
G75*
G02*
X179149999Y-97550000I249999J0D01*
G01*
X179850001Y-97550000D01*
G75*
G02*
X180100000Y-97799999I0J-249999D01*
G01*
X180100000Y-98700001D01*
G75*
G02*
X179850001Y-98950000I-249999J0D01*
G01*
X179149999Y-98950000D01*
G75*
G02*
X178900000Y-98700001I0J249999D01*
G01*
G37*
G04 #@! TD*
G04 #@! TO.C,R14*
G36*
G01*
X116900000Y-86450001D02*
X116900000Y-85549999D01*
G75*
G02*
X117149999Y-85300000I249999J0D01*
G01*
X117850001Y-85300000D01*
G75*
G02*
X118100000Y-85549999I0J-249999D01*
G01*
X118100000Y-86450001D01*
G75*
G02*
X117850001Y-86700000I-249999J0D01*
G01*
X117149999Y-86700000D01*
G75*
G02*
X116900000Y-86450001I0J249999D01*
G01*
G37*
G36*
G01*
X114900000Y-86450001D02*
X114900000Y-85549999D01*
G75*
G02*
X115149999Y-85300000I249999J0D01*
G01*
X115850001Y-85300000D01*
G75*
G02*
X116100000Y-85549999I0J-249999D01*
G01*
X116100000Y-86450001D01*
G75*
G02*
X115850001Y-86700000I-249999J0D01*
G01*
X115149999Y-86700000D01*
G75*
G02*
X114900000Y-86450001I0J249999D01*
G01*
G37*
G04 #@! TD*
G04 #@! TO.C,R20*
G36*
G01*
X118400000Y-114450001D02*
X118400000Y-113549999D01*
G75*
G02*
X118649999Y-113300000I249999J0D01*
G01*
X119350001Y-113300000D01*
G75*
G02*
X119600000Y-113549999I0J-249999D01*
G01*
X119600000Y-114450001D01*
G75*
G02*
X119350001Y-114700000I-249999J0D01*
G01*
X118649999Y-114700000D01*
G75*
G02*
X118400000Y-114450001I0J249999D01*
G01*
G37*
G36*
G01*
X116400000Y-114450001D02*
X116400000Y-113549999D01*
G75*
G02*
X116649999Y-113300000I249999J0D01*
G01*
X117350001Y-113300000D01*
G75*
G02*
X117600000Y-113549999I0J-249999D01*
G01*
X117600000Y-114450001D01*
G75*
G02*
X117350001Y-114700000I-249999J0D01*
G01*
X116649999Y-114700000D01*
G75*
G02*
X116400000Y-114450001I0J249999D01*
G01*
G37*
G04 #@! TD*
G04 #@! TO.C,R2*
G36*
G01*
X172900000Y-86450001D02*
X172900000Y-85549999D01*
G75*
G02*
X173149999Y-85300000I249999J0D01*
G01*
X173850001Y-85300000D01*
G75*
G02*
X174100000Y-85549999I0J-249999D01*
G01*
X174100000Y-86450001D01*
G75*
G02*
X173850001Y-86700000I-249999J0D01*
G01*
X173149999Y-86700000D01*
G75*
G02*
X172900000Y-86450001I0J249999D01*
G01*
G37*
G36*
G01*
X170900000Y-86450001D02*
X170900000Y-85549999D01*
G75*
G02*
X171149999Y-85300000I249999J0D01*
G01*
X171850001Y-85300000D01*
G75*
G02*
X172100000Y-85549999I0J-249999D01*
G01*
X172100000Y-86450001D01*
G75*
G02*
X171850001Y-86700000I-249999J0D01*
G01*
X171149999Y-86700000D01*
G75*
G02*
X170900000Y-86450001I0J249999D01*
G01*
G37*
G04 #@! TD*
G04 #@! TO.C,R7*
G36*
G01*
X160650000Y-150700001D02*
X160650000Y-149799999D01*
G75*
G02*
X160899999Y-149550000I249999J0D01*
G01*
X161600001Y-149550000D01*
G75*
G02*
X161850000Y-149799999I0J-249999D01*
G01*
X161850000Y-150700001D01*
G75*
G02*
X161600001Y-150950000I-249999J0D01*
G01*
X160899999Y-150950000D01*
G75*
G02*
X160650000Y-150700001I0J249999D01*
G01*
G37*
G36*
G01*
X158650000Y-150700001D02*
X158650000Y-149799999D01*
G75*
G02*
X158899999Y-149550000I249999J0D01*
G01*
X159600001Y-149550000D01*
G75*
G02*
X159850000Y-149799999I0J-249999D01*
G01*
X159850000Y-150700001D01*
G75*
G02*
X159600001Y-150950000I-249999J0D01*
G01*
X158899999Y-150950000D01*
G75*
G02*
X158650000Y-150700001I0J249999D01*
G01*
G37*
G04 #@! TD*
G04 #@! TO.C,R13*
G36*
G01*
X108650000Y-98450001D02*
X108650000Y-97549999D01*
G75*
G02*
X108899999Y-97300000I249999J0D01*
G01*
X109600001Y-97300000D01*
G75*
G02*
X109850000Y-97549999I0J-249999D01*
G01*
X109850000Y-98450001D01*
G75*
G02*
X109600001Y-98700000I-249999J0D01*
G01*
X108899999Y-98700000D01*
G75*
G02*
X108650000Y-98450001I0J249999D01*
G01*
G37*
G36*
G01*
X106650000Y-98450001D02*
X106650000Y-97549999D01*
G75*
G02*
X106899999Y-97300000I249999J0D01*
G01*
X107600001Y-97300000D01*
G75*
G02*
X107850000Y-97549999I0J-249999D01*
G01*
X107850000Y-98450001D01*
G75*
G02*
X107600001Y-98700000I-249999J0D01*
G01*
X106899999Y-98700000D01*
G75*
G02*
X106650000Y-98450001I0J249999D01*
G01*
G37*
G04 #@! TD*
G04 #@! TO.C,R1*
G36*
G01*
X160650000Y-78200001D02*
X160650000Y-77299999D01*
G75*
G02*
X160899999Y-77050000I249999J0D01*
G01*
X161600001Y-77050000D01*
G75*
G02*
X161850000Y-77299999I0J-249999D01*
G01*
X161850000Y-78200001D01*
G75*
G02*
X161600001Y-78450000I-249999J0D01*
G01*
X160899999Y-78450000D01*
G75*
G02*
X160650000Y-78200001I0J249999D01*
G01*
G37*
G36*
G01*
X158650000Y-78200001D02*
X158650000Y-77299999D01*
G75*
G02*
X158899999Y-77050000I249999J0D01*
G01*
X159600001Y-77050000D01*
G75*
G02*
X159850000Y-77299999I0J-249999D01*
G01*
X159850000Y-78200001D01*
G75*
G02*
X159600001Y-78450000I-249999J0D01*
G01*
X158899999Y-78450000D01*
G75*
G02*
X158650000Y-78200001I0J249999D01*
G01*
G37*
G04 #@! TD*
G04 #@! TO.C,R19*
G36*
G01*
X125650000Y-133700001D02*
X125650000Y-132799999D01*
G75*
G02*
X125899999Y-132550000I249999J0D01*
G01*
X126600001Y-132550000D01*
G75*
G02*
X126850000Y-132799999I0J-249999D01*
G01*
X126850000Y-133700001D01*
G75*
G02*
X126600001Y-133950000I-249999J0D01*
G01*
X125899999Y-133950000D01*
G75*
G02*
X125650000Y-133700001I0J249999D01*
G01*
G37*
G36*
G01*
X123650000Y-133700001D02*
X123650000Y-132799999D01*
G75*
G02*
X123899999Y-132550000I249999J0D01*
G01*
X124600001Y-132550000D01*
G75*
G02*
X124850000Y-132799999I0J-249999D01*
G01*
X124850000Y-133700001D01*
G75*
G02*
X124600001Y-133950000I-249999J0D01*
G01*
X123899999Y-133950000D01*
G75*
G02*
X123650000Y-133700001I0J249999D01*
G01*
G37*
G04 #@! TD*
G04 #@! TO.C,J2*
X148540000Y-85000000D03*
X148540000Y-87540000D03*
X146000000Y-85000000D03*
X146000000Y-87540000D03*
X143460000Y-85000000D03*
X143460000Y-87540000D03*
X140920000Y-85000000D03*
D16*
X140920000Y-87540000D03*
G04 #@! TD*
D20*
G04 #@! TO.C,J1*
X146000000Y-65500000D03*
G36*
G01*
X142590000Y-66345001D02*
X142590000Y-64654999D01*
G75*
G02*
X142839999Y-64405000I249999J0D01*
G01*
X144080001Y-64405000D01*
G75*
G02*
X144330000Y-64654999I0J-249999D01*
G01*
X144330000Y-66345001D01*
G75*
G02*
X144080001Y-66595000I-249999J0D01*
G01*
X142839999Y-66595000D01*
G75*
G02*
X142590000Y-66345001I0J249999D01*
G01*
G37*
G04 #@! TD*
G04 #@! TO.C,D18*
G36*
G01*
X164175000Y-131700001D02*
X164175000Y-130799999D01*
G75*
G02*
X164424999Y-130550000I249999J0D01*
G01*
X165075001Y-130550000D01*
G75*
G02*
X165325000Y-130799999I0J-249999D01*
G01*
X165325000Y-131700001D01*
G75*
G02*
X165075001Y-131950000I-249999J0D01*
G01*
X164424999Y-131950000D01*
G75*
G02*
X164175000Y-131700001I0J249999D01*
G01*
G37*
G36*
G01*
X162125000Y-131700001D02*
X162125000Y-130799999D01*
G75*
G02*
X162374999Y-130550000I249999J0D01*
G01*
X163025001Y-130550000D01*
G75*
G02*
X163275000Y-130799999I0J-249999D01*
G01*
X163275000Y-131700001D01*
G75*
G02*
X163025001Y-131950000I-249999J0D01*
G01*
X162374999Y-131950000D01*
G75*
G02*
X162125000Y-131700001I0J249999D01*
G01*
G37*
G04 #@! TD*
G04 #@! TO.C,D12*
G36*
G01*
X105925000Y-112450001D02*
X105925000Y-111549999D01*
G75*
G02*
X106174999Y-111300000I249999J0D01*
G01*
X106825001Y-111300000D01*
G75*
G02*
X107075000Y-111549999I0J-249999D01*
G01*
X107075000Y-112450001D01*
G75*
G02*
X106825001Y-112700000I-249999J0D01*
G01*
X106174999Y-112700000D01*
G75*
G02*
X105925000Y-112450001I0J249999D01*
G01*
G37*
G36*
G01*
X103875000Y-112450001D02*
X103875000Y-111549999D01*
G75*
G02*
X104124999Y-111300000I249999J0D01*
G01*
X104775001Y-111300000D01*
G75*
G02*
X105025000Y-111549999I0J-249999D01*
G01*
X105025000Y-112450001D01*
G75*
G02*
X104775001Y-112700000I-249999J0D01*
G01*
X104124999Y-112700000D01*
G75*
G02*
X103875000Y-112450001I0J249999D01*
G01*
G37*
G04 #@! TD*
G04 #@! TO.C,D6*
G36*
G01*
X172925000Y-140450001D02*
X172925000Y-139549999D01*
G75*
G02*
X173174999Y-139300000I249999J0D01*
G01*
X173825001Y-139300000D01*
G75*
G02*
X174075000Y-139549999I0J-249999D01*
G01*
X174075000Y-140450001D01*
G75*
G02*
X173825001Y-140700000I-249999J0D01*
G01*
X173174999Y-140700000D01*
G75*
G02*
X172925000Y-140450001I0J249999D01*
G01*
G37*
G36*
G01*
X170875000Y-140450001D02*
X170875000Y-139549999D01*
G75*
G02*
X171124999Y-139300000I249999J0D01*
G01*
X171775001Y-139300000D01*
G75*
G02*
X172025000Y-139549999I0J-249999D01*
G01*
X172025000Y-140450001D01*
G75*
G02*
X171775001Y-140700000I-249999J0D01*
G01*
X171124999Y-140700000D01*
G75*
G02*
X170875000Y-140450001I0J249999D01*
G01*
G37*
G04 #@! TD*
G04 #@! TO.C,D11*
G36*
G01*
X108675000Y-128450001D02*
X108675000Y-127549999D01*
G75*
G02*
X108924999Y-127300000I249999J0D01*
G01*
X109575001Y-127300000D01*
G75*
G02*
X109825000Y-127549999I0J-249999D01*
G01*
X109825000Y-128450001D01*
G75*
G02*
X109575001Y-128700000I-249999J0D01*
G01*
X108924999Y-128700000D01*
G75*
G02*
X108675000Y-128450001I0J249999D01*
G01*
G37*
G36*
G01*
X106625000Y-128450001D02*
X106625000Y-127549999D01*
G75*
G02*
X106874999Y-127300000I249999J0D01*
G01*
X107525001Y-127300000D01*
G75*
G02*
X107775000Y-127549999I0J-249999D01*
G01*
X107775000Y-128450001D01*
G75*
G02*
X107525001Y-128700000I-249999J0D01*
G01*
X106874999Y-128700000D01*
G75*
G02*
X106625000Y-128450001I0J249999D01*
G01*
G37*
G04 #@! TD*
G04 #@! TO.C,D17*
G36*
G01*
X171450000Y-112450001D02*
X171450000Y-111549999D01*
G75*
G02*
X171699999Y-111300000I249999J0D01*
G01*
X172350001Y-111300000D01*
G75*
G02*
X172600000Y-111549999I0J-249999D01*
G01*
X172600000Y-112450001D01*
G75*
G02*
X172350001Y-112700000I-249999J0D01*
G01*
X171699999Y-112700000D01*
G75*
G02*
X171450000Y-112450001I0J249999D01*
G01*
G37*
G36*
G01*
X169400000Y-112450001D02*
X169400000Y-111549999D01*
G75*
G02*
X169649999Y-111300000I249999J0D01*
G01*
X170300001Y-111300000D01*
G75*
G02*
X170550000Y-111549999I0J-249999D01*
G01*
X170550000Y-112450001D01*
G75*
G02*
X170300001Y-112700000I-249999J0D01*
G01*
X169649999Y-112700000D01*
G75*
G02*
X169400000Y-112450001I0J249999D01*
G01*
G37*
G04 #@! TD*
G04 #@! TO.C,D5*
G36*
G01*
X181175000Y-128450001D02*
X181175000Y-127549999D01*
G75*
G02*
X181424999Y-127300000I249999J0D01*
G01*
X182075001Y-127300000D01*
G75*
G02*
X182325000Y-127549999I0J-249999D01*
G01*
X182325000Y-128450001D01*
G75*
G02*
X182075001Y-128700000I-249999J0D01*
G01*
X181424999Y-128700000D01*
G75*
G02*
X181175000Y-128450001I0J249999D01*
G01*
G37*
G36*
G01*
X179125000Y-128450001D02*
X179125000Y-127549999D01*
G75*
G02*
X179374999Y-127300000I249999J0D01*
G01*
X180025001Y-127300000D01*
G75*
G02*
X180275000Y-127549999I0J-249999D01*
G01*
X180275000Y-128450001D01*
G75*
G02*
X180025001Y-128700000I-249999J0D01*
G01*
X179374999Y-128700000D01*
G75*
G02*
X179125000Y-128450001I0J249999D01*
G01*
G37*
G04 #@! TD*
G04 #@! TO.C,D10*
G36*
G01*
X116925000Y-140450001D02*
X116925000Y-139549999D01*
G75*
G02*
X117174999Y-139300000I249999J0D01*
G01*
X117825001Y-139300000D01*
G75*
G02*
X118075000Y-139549999I0J-249999D01*
G01*
X118075000Y-140450001D01*
G75*
G02*
X117825001Y-140700000I-249999J0D01*
G01*
X117174999Y-140700000D01*
G75*
G02*
X116925000Y-140450001I0J249999D01*
G01*
G37*
G36*
G01*
X114875000Y-140450001D02*
X114875000Y-139549999D01*
G75*
G02*
X115124999Y-139300000I249999J0D01*
G01*
X115775001Y-139300000D01*
G75*
G02*
X116025000Y-139549999I0J-249999D01*
G01*
X116025000Y-140450001D01*
G75*
G02*
X115775001Y-140700000I-249999J0D01*
G01*
X115124999Y-140700000D01*
G75*
G02*
X114875000Y-140450001I0J249999D01*
G01*
G37*
G04 #@! TD*
G04 #@! TO.C,D16*
G36*
G01*
X164175000Y-93450001D02*
X164175000Y-92549999D01*
G75*
G02*
X164424999Y-92300000I249999J0D01*
G01*
X165075001Y-92300000D01*
G75*
G02*
X165325000Y-92549999I0J-249999D01*
G01*
X165325000Y-93450001D01*
G75*
G02*
X165075001Y-93700000I-249999J0D01*
G01*
X164424999Y-93700000D01*
G75*
G02*
X164175000Y-93450001I0J249999D01*
G01*
G37*
G36*
G01*
X162125000Y-93450001D02*
X162125000Y-92549999D01*
G75*
G02*
X162374999Y-92300000I249999J0D01*
G01*
X163025001Y-92300000D01*
G75*
G02*
X163275000Y-92549999I0J-249999D01*
G01*
X163275000Y-93450001D01*
G75*
G02*
X163025001Y-93700000I-249999J0D01*
G01*
X162374999Y-93700000D01*
G75*
G02*
X162125000Y-93450001I0J249999D01*
G01*
G37*
G04 #@! TD*
G04 #@! TO.C,D4*
G36*
G01*
X183975000Y-112450001D02*
X183975000Y-111549999D01*
G75*
G02*
X184224999Y-111300000I249999J0D01*
G01*
X184875001Y-111300000D01*
G75*
G02*
X185125000Y-111549999I0J-249999D01*
G01*
X185125000Y-112450001D01*
G75*
G02*
X184875001Y-112700000I-249999J0D01*
G01*
X184224999Y-112700000D01*
G75*
G02*
X183975000Y-112450001I0J249999D01*
G01*
G37*
G36*
G01*
X181925000Y-112450001D02*
X181925000Y-111549999D01*
G75*
G02*
X182174999Y-111300000I249999J0D01*
G01*
X182825001Y-111300000D01*
G75*
G02*
X183075000Y-111549999I0J-249999D01*
G01*
X183075000Y-112450001D01*
G75*
G02*
X182825001Y-112700000I-249999J0D01*
G01*
X182174999Y-112700000D01*
G75*
G02*
X181925000Y-112450001I0J249999D01*
G01*
G37*
G04 #@! TD*
G04 #@! TO.C,D21*
G36*
G01*
X125675000Y-93200001D02*
X125675000Y-92299999D01*
G75*
G02*
X125924999Y-92050000I249999J0D01*
G01*
X126575001Y-92050000D01*
G75*
G02*
X126825000Y-92299999I0J-249999D01*
G01*
X126825000Y-93200001D01*
G75*
G02*
X126575001Y-93450000I-249999J0D01*
G01*
X125924999Y-93450000D01*
G75*
G02*
X125675000Y-93200001I0J249999D01*
G01*
G37*
G36*
G01*
X123625000Y-93200001D02*
X123625000Y-92299999D01*
G75*
G02*
X123874999Y-92050000I249999J0D01*
G01*
X124525001Y-92050000D01*
G75*
G02*
X124775000Y-92299999I0J-249999D01*
G01*
X124775000Y-93200001D01*
G75*
G02*
X124525001Y-93450000I-249999J0D01*
G01*
X123874999Y-93450000D01*
G75*
G02*
X123625000Y-93200001I0J249999D01*
G01*
G37*
G04 #@! TD*
G04 #@! TO.C,D15*
G36*
G01*
X128975000Y-76200001D02*
X128975000Y-75299999D01*
G75*
G02*
X129224999Y-75050000I249999J0D01*
G01*
X129875001Y-75050000D01*
G75*
G02*
X130125000Y-75299999I0J-249999D01*
G01*
X130125000Y-76200001D01*
G75*
G02*
X129875001Y-76450000I-249999J0D01*
G01*
X129224999Y-76450000D01*
G75*
G02*
X128975000Y-76200001I0J249999D01*
G01*
G37*
G36*
G01*
X126925000Y-76200001D02*
X126925000Y-75299999D01*
G75*
G02*
X127174999Y-75050000I249999J0D01*
G01*
X127825001Y-75050000D01*
G75*
G02*
X128075000Y-75299999I0J-249999D01*
G01*
X128075000Y-76200001D01*
G75*
G02*
X127825001Y-76450000I-249999J0D01*
G01*
X127174999Y-76450000D01*
G75*
G02*
X126925000Y-76200001I0J249999D01*
G01*
G37*
G04 #@! TD*
G04 #@! TO.C,D9*
G36*
G01*
X128925000Y-148700001D02*
X128925000Y-147799999D01*
G75*
G02*
X129174999Y-147550000I249999J0D01*
G01*
X129825001Y-147550000D01*
G75*
G02*
X130075000Y-147799999I0J-249999D01*
G01*
X130075000Y-148700001D01*
G75*
G02*
X129825001Y-148950000I-249999J0D01*
G01*
X129174999Y-148950000D01*
G75*
G02*
X128925000Y-148700001I0J249999D01*
G01*
G37*
G36*
G01*
X126875000Y-148700001D02*
X126875000Y-147799999D01*
G75*
G02*
X127124999Y-147550000I249999J0D01*
G01*
X127775001Y-147550000D01*
G75*
G02*
X128025000Y-147799999I0J-249999D01*
G01*
X128025000Y-148700001D01*
G75*
G02*
X127775001Y-148950000I-249999J0D01*
G01*
X127124999Y-148950000D01*
G75*
G02*
X126875000Y-148700001I0J249999D01*
G01*
G37*
G04 #@! TD*
G04 #@! TO.C,D3*
G36*
G01*
X180950000Y-96700001D02*
X180950000Y-95799999D01*
G75*
G02*
X181199999Y-95550000I249999J0D01*
G01*
X181850001Y-95550000D01*
G75*
G02*
X182100000Y-95799999I0J-249999D01*
G01*
X182100000Y-96700001D01*
G75*
G02*
X181850001Y-96950000I-249999J0D01*
G01*
X181199999Y-96950000D01*
G75*
G02*
X180950000Y-96700001I0J249999D01*
G01*
G37*
G36*
G01*
X178900000Y-96700001D02*
X178900000Y-95799999D01*
G75*
G02*
X179149999Y-95550000I249999J0D01*
G01*
X179800001Y-95550000D01*
G75*
G02*
X180050000Y-95799999I0J-249999D01*
G01*
X180050000Y-96700001D01*
G75*
G02*
X179800001Y-96950000I-249999J0D01*
G01*
X179149999Y-96950000D01*
G75*
G02*
X178900000Y-96700001I0J249999D01*
G01*
G37*
G04 #@! TD*
G04 #@! TO.C,D14*
G36*
G01*
X116925000Y-84450001D02*
X116925000Y-83549999D01*
G75*
G02*
X117174999Y-83300000I249999J0D01*
G01*
X117825001Y-83300000D01*
G75*
G02*
X118075000Y-83549999I0J-249999D01*
G01*
X118075000Y-84450001D01*
G75*
G02*
X117825001Y-84700000I-249999J0D01*
G01*
X117174999Y-84700000D01*
G75*
G02*
X116925000Y-84450001I0J249999D01*
G01*
G37*
G36*
G01*
X114875000Y-84450001D02*
X114875000Y-83549999D01*
G75*
G02*
X115124999Y-83300000I249999J0D01*
G01*
X115775001Y-83300000D01*
G75*
G02*
X116025000Y-83549999I0J-249999D01*
G01*
X116025000Y-84450001D01*
G75*
G02*
X115775001Y-84700000I-249999J0D01*
G01*
X115124999Y-84700000D01*
G75*
G02*
X114875000Y-84450001I0J249999D01*
G01*
G37*
G04 #@! TD*
G04 #@! TO.C,D20*
G36*
G01*
X118450000Y-112450001D02*
X118450000Y-111549999D01*
G75*
G02*
X118699999Y-111300000I249999J0D01*
G01*
X119350001Y-111300000D01*
G75*
G02*
X119600000Y-111549999I0J-249999D01*
G01*
X119600000Y-112450001D01*
G75*
G02*
X119350001Y-112700000I-249999J0D01*
G01*
X118699999Y-112700000D01*
G75*
G02*
X118450000Y-112450001I0J249999D01*
G01*
G37*
G36*
G01*
X116400000Y-112450001D02*
X116400000Y-111549999D01*
G75*
G02*
X116649999Y-111300000I249999J0D01*
G01*
X117300001Y-111300000D01*
G75*
G02*
X117550000Y-111549999I0J-249999D01*
G01*
X117550000Y-112450001D01*
G75*
G02*
X117300001Y-112700000I-249999J0D01*
G01*
X116649999Y-112700000D01*
G75*
G02*
X116400000Y-112450001I0J249999D01*
G01*
G37*
G04 #@! TD*
G04 #@! TO.C,D2*
G36*
G01*
X172925000Y-84450001D02*
X172925000Y-83549999D01*
G75*
G02*
X173174999Y-83300000I249999J0D01*
G01*
X173825001Y-83300000D01*
G75*
G02*
X174075000Y-83549999I0J-249999D01*
G01*
X174075000Y-84450001D01*
G75*
G02*
X173825001Y-84700000I-249999J0D01*
G01*
X173174999Y-84700000D01*
G75*
G02*
X172925000Y-84450001I0J249999D01*
G01*
G37*
G36*
G01*
X170875000Y-84450001D02*
X170875000Y-83549999D01*
G75*
G02*
X171124999Y-83300000I249999J0D01*
G01*
X171775001Y-83300000D01*
G75*
G02*
X172025000Y-83549999I0J-249999D01*
G01*
X172025000Y-84450001D01*
G75*
G02*
X171775001Y-84700000I-249999J0D01*
G01*
X171124999Y-84700000D01*
G75*
G02*
X170875000Y-84450001I0J249999D01*
G01*
G37*
G04 #@! TD*
G04 #@! TO.C,D7*
G36*
G01*
X160700000Y-148700001D02*
X160700000Y-147799999D01*
G75*
G02*
X160949999Y-147550000I249999J0D01*
G01*
X161600001Y-147550000D01*
G75*
G02*
X161850000Y-147799999I0J-249999D01*
G01*
X161850000Y-148700001D01*
G75*
G02*
X161600001Y-148950000I-249999J0D01*
G01*
X160949999Y-148950000D01*
G75*
G02*
X160700000Y-148700001I0J249999D01*
G01*
G37*
G36*
G01*
X158650000Y-148700001D02*
X158650000Y-147799999D01*
G75*
G02*
X158899999Y-147550000I249999J0D01*
G01*
X159550001Y-147550000D01*
G75*
G02*
X159800000Y-147799999I0J-249999D01*
G01*
X159800000Y-148700001D01*
G75*
G02*
X159550001Y-148950000I-249999J0D01*
G01*
X158899999Y-148950000D01*
G75*
G02*
X158650000Y-148700001I0J249999D01*
G01*
G37*
G04 #@! TD*
G04 #@! TO.C,D13*
G36*
G01*
X108725000Y-96450001D02*
X108725000Y-95549999D01*
G75*
G02*
X108974999Y-95300000I249999J0D01*
G01*
X109625001Y-95300000D01*
G75*
G02*
X109875000Y-95549999I0J-249999D01*
G01*
X109875000Y-96450001D01*
G75*
G02*
X109625001Y-96700000I-249999J0D01*
G01*
X108974999Y-96700000D01*
G75*
G02*
X108725000Y-96450001I0J249999D01*
G01*
G37*
G36*
G01*
X106675000Y-96450001D02*
X106675000Y-95549999D01*
G75*
G02*
X106924999Y-95300000I249999J0D01*
G01*
X107575001Y-95300000D01*
G75*
G02*
X107825000Y-95549999I0J-249999D01*
G01*
X107825000Y-96450001D01*
G75*
G02*
X107575001Y-96700000I-249999J0D01*
G01*
X106924999Y-96700000D01*
G75*
G02*
X106675000Y-96450001I0J249999D01*
G01*
G37*
G04 #@! TD*
G04 #@! TO.C,D1*
G36*
G01*
X160675000Y-76200001D02*
X160675000Y-75299999D01*
G75*
G02*
X160924999Y-75050000I249999J0D01*
G01*
X161575001Y-75050000D01*
G75*
G02*
X161825000Y-75299999I0J-249999D01*
G01*
X161825000Y-76200001D01*
G75*
G02*
X161575001Y-76450000I-249999J0D01*
G01*
X160924999Y-76450000D01*
G75*
G02*
X160675000Y-76200001I0J249999D01*
G01*
G37*
G36*
G01*
X158625000Y-76200001D02*
X158625000Y-75299999D01*
G75*
G02*
X158874999Y-75050000I249999J0D01*
G01*
X159525001Y-75050000D01*
G75*
G02*
X159775000Y-75299999I0J-249999D01*
G01*
X159775000Y-76200001D01*
G75*
G02*
X159525001Y-76450000I-249999J0D01*
G01*
X158874999Y-76450000D01*
G75*
G02*
X158625000Y-76200001I0J249999D01*
G01*
G37*
G04 #@! TD*
G04 #@! TO.C,D19*
G36*
G01*
X125675000Y-131700001D02*
X125675000Y-130799999D01*
G75*
G02*
X125924999Y-130550000I249999J0D01*
G01*
X126575001Y-130550000D01*
G75*
G02*
X126825000Y-130799999I0J-249999D01*
G01*
X126825000Y-131700001D01*
G75*
G02*
X126575001Y-131950000I-249999J0D01*
G01*
X125924999Y-131950000D01*
G75*
G02*
X125675000Y-131700001I0J249999D01*
G01*
G37*
G36*
G01*
X123625000Y-131700001D02*
X123625000Y-130799999D01*
G75*
G02*
X123874999Y-130550000I249999J0D01*
G01*
X124525001Y-130550000D01*
G75*
G02*
X124775000Y-130799999I0J-249999D01*
G01*
X124775000Y-131700001D01*
G75*
G02*
X124525001Y-131950000I-249999J0D01*
G01*
X123874999Y-131950000D01*
G75*
G02*
X123625000Y-131700001I0J249999D01*
G01*
G37*
G04 #@! TD*
M02*
